<?xml version="1.0" standalone="no"?>
<!DOCTYPE svg PUBLIC "-//W3C//DTD SVG 1.1//EN" "http://www.w3.org/Graphics/SVG/1.1/DTD/svg11.dtd" >
<svg xmlns="http://www.w3.org/2000/svg">
<metadata></metadata>
<defs>
<font id="lunchbox_slablight" horiz-adv-x="735" >
<font-face units-per-em="2048" ascent="1536" descent="-512" />
<missing-glyph horiz-adv-x="473" />
<glyph horiz-adv-x="0" />
<glyph horiz-adv-x="682" />
<glyph horiz-adv-x="0" />
<glyph horiz-adv-x="0" />
<glyph unicode="&#xd;" horiz-adv-x="655" />
<glyph unicode=" "  horiz-adv-x="473" />
<glyph unicode="&#x09;" horiz-adv-x="473" />
<glyph unicode="&#xa0;" horiz-adv-x="473" />
<glyph unicode="!" horiz-adv-x="313" d="M55 1528q13 5 63 7t94 1t44 -4q-1 -15 0.5 -313t-8.5 -484q-18 -501 -37 -504q-15 -3 -46.5 -6.5t-35.5 0.5v39q-3 9 -15 246.5t-18 411.5l-4 110q0 3 -1 12.5t-2.5 24t-2.5 27.5q-2 25 -4 83.5t-4 86.5zM115 72q7 27 24.5 44.5t44.5 14.5q51 -6 67.5 -49t-9.5 -79.5 t-76 -25.5q-27 6 -42.5 38t-8.5 57z" />
<glyph unicode="&#x22;" horiz-adv-x="303" d="M57 1468q0 17 9 17q31 8 51 -2q3 0 4.5 -1.5t4 -6t3.5 -5.5q8 -25 8 -71q-3 -41 -8 -72q0 -10 2 -10q6 -16 -2 -27h-33q-4 1 -12 4t-12 4q-1 6 -5 26.5t-4 31.5v51q-1 1 -1 2t-1 2q-4 12 -4 57zM166 1300q-3 24 2 35q0 2 1 6.5t1 6.5q0 8 -1 25t-1 26q0 4 -1 13.5 t-1 17.5t2 16q5 7 0 27q0 13 8 16h27h20h6q14 -2 17 -8t2 -27q-8 -45 -2 -65v-15q-3 -8 -2 -24.5t-2 -24.5l2 -6q6 -21 -8 -21q-40 -8 -60 0q-2 2 -10 2z" />
<glyph unicode="#" horiz-adv-x="1126" d="M55 934v84q6 9 6.5 5.5t6.5 -3.5q2 0 23 1t72 3t118 4q4 62 4 121q4 132 4 201v39v94h51h27h28q29 4 37 2q0 -139 -26 -453q70 -4 133 -4q35 0 176 -6q0 212 4 440q8 2 72 2h14q45 0 45 -6q0 -4 -6 -111t-6 -251q0 -26 -7 -78q19 -1 89.5 -1.5t144.5 -2.5v-25l4 -98 q-7 0 -70.5 -1t-105 0t-74.5 5l6 -35q-4 -94 -2 -270l224 6q8 -31 8 -84v-16q0 -23 2 -25l-226 -4q-1 -10 -1 -217t-7 -227l-1 -3q-2 -4 -5 -8.5t-8 -10t-13.5 -8.5t-19.5 -4t-28 3t-37 14q-14 41 -7.5 141t15 209.5t2.5 114.5q-148 17 -344 4q0 -81 14 -477q0 1 -20.5 2 t-47 0.5t-38.5 -2.5q-9 0 -11 2l11 -2q-1 7 -1.5 26t-3 102.5t-6.5 199.5q0 65 -4 147q-12 7 -99 3t-99 -3q-2 8 -5 17.5t-4.5 14.5t-3 15t-2.5 23v14q1 10 20 16.5t56 9t61 3t67 0.5h3h3h3.5h3.5v125q0 63 5 215q-15 3 -72.5 -3.5t-102.5 -6.5t-49 18zM377 580h139 q89 0 207 4v106q0 147 -2 213q-175 19 -248 23q-25 0 -78 4q-17 -258 -18 -314v-36z" />
<glyph unicode="$" horiz-adv-x="780" d="M55 1163q0 41 12.5 92t30.5 84q34 52 91 91.5t122 54.5q0 5 1 11l1 7q0 3 -1 14t-1 17q0 5 -1 15t-1.5 16t-1.5 14t-0.5 10t0.5 4q27 11 88 11h17q38 0 43 -7l-4 -90l-5 -18q0 3 19.5 -3.5t42 -14.5t24.5 -9h-2q6 -4 32.5 -19t39.5 -26q49 -40 68 -104q2 -9 10 -26.5 t10 -26.5q14 -38 -1.5 -76.5t-53.5 -50.5q-43 -13 -74 6q-12 7 -18 18.5t-10 27.5t-7 23q-2 8 -8 19t-8 16q-4 14 -4 47q-5 35 -19 45q-7 5 -24 11t-21 8q2 -34 2 -72t-1 -85t-1 -73v-82q0 -60 -8 -174l-4 -80q67 -55 131 -116q127 -131 156 -248q8 -33 8 -66q0 -35 -8 -71 q0 -2 -3 -18.5t-3.5 -20t-3.5 -18t-5 -20t-5.5 -18t-7 -19.5t-8.5 -17.5t-11 -19t-13 -17.5h2q-29 -32 -78.5 -62.5t-93.5 -42.5h2q-14 -3 -53 -8l-4 -35q-33 -18 -108 -18h-5q-14 14 -14 55l-20 4q-13 0 -29 11q-13 7 -23 14q-1 1 -22 12t-29 19q-9 8 -22 24.5t-19 22.5 q-29 33 -39 53q-32 56 -30 98q0 26 17.5 41.5t49.5 28.5q48 14 80 -14q29 -18 29 -70q0 -45 8 -68q7 -16 21 -25.5t30 -2.5q6 2 8.5 7t3 15t0.5 12q3 30 3 60q0 3 6 231v162v96l-43 39l-41 35q-115 88 -152 170q-37 79 -37 180zM164 1092q12 -73 94 -144l-2 4l18 -22 q29 -32 52 -53q-7 333 -15 497q-50 -14 -84 -57q-40 -44 -57 -105t-6 -120zM428 639q0 -51 4 -137q0 -26 2 -80t2 -80q0 -41 -2 -61q-2 -33 -2 -93v-63v-2q12 2 31 10h-2q67 25 100 76t33 115q0 82 -45 155q-47 79 -121 160z" />
<glyph unicode="%" horiz-adv-x="1482" d="M55 1096q0 88 25.5 166t75 129.5t112.5 54.5q18 2 49 2q80 5 148 -66t104.5 -179.5t36.5 -221.5q0 -134 -60 -221.5t-181 -87.5q-51 0 -82 8q-55 11 -97.5 46.5t-67.5 86.5t-39 103t-20 108q-4 27 -4 72zM143 1024q0 -4 1 -12t1 -11h2q5 -45 18 -87t46.5 -82.5 t79.5 -51.5q62 -13 109 10.5t70 69.5t32.5 98t3.5 101q-4 45 -14.5 86t-30.5 84t-56 71.5t-83 34.5q-46 -1 -81 -30t-54.5 -75t-29.5 -93t-12 -93h-2v-20zM438 -53q-2 57 35 133q23 54 27 65q80 216 259.5 728.5t184.5 562.5q9 61 29 65q32 4 67 4q46 0 62 -4 q0 -1 -34.5 -106.5t-101.5 -312.5t-120 -371l-236 -740q-8 -18 -86 -18q-83 0 -86 -6zM905 418q0 69 12.5 129.5t37.5 110t69 78t102 28.5q69 0 150 -37q151 -77 151 -319q0 -67 -16 -189q-10 -106 -78 -176t-159 -70q-72 0 -134 45q-60 39 -97.5 154t-37.5 246zM1001 344 q0 -53 21 -110t67.5 -101.5t104.5 -44.5q48 0 81 40t45.5 94t12.5 116q0 70 -18 138t-59.5 118.5t-98.5 50.5q-55 0 -97 -55t-50 -125q-9 -58 -9 -121z" />
<glyph unicode="&#x26;" horiz-adv-x="1056" d="M55 371q0 224 226 530q-8 20 -30.5 64.5t-27.5 56.5q-26 50 -38.5 76t-25 69t-12.5 82q0 21 7 56q17 87 101.5 146.5t176.5 51.5q86 -13 128 -73t42 -144q0 -98 -49 -203.5t-121 -169.5l293 -526q-2 3 12 31q8 24 8 33q5 14 10.5 38.5t6.5 28.5q11 66 -6 103 q-6 14 -18.5 42.5t-18.5 43.5q-16 31 -26 60.5t-5 65t39 46.5q37 12 80 -11q29 -15 47 -57q2 -5 3 -18.5t3 -18.5q1 -5 7.5 -25.5t6.5 -33.5q4 -85 5.5 -161t-12.5 -160.5t-46 -155.5q8 -12 20 -31t27 -44t23 -38q62 -114 94 -156q1 -1 2 -3l2 -1q12 -10 11.5 -18.5 t-19.5 -18.5l-14 -4q-32 -16 -54 -16q-16 0 -39 26l-24 33q-23 29 -33.5 42.5t-27 46t-29.5 71.5q-73 -34 -107 -59v2l-47 -27h2q-71 -41 -149 -41q-144 0 -243 69.5t-144 186.5q-17 74 -17 113zM193 270q26 -91 110.5 -136.5t175.5 -24.5h-2q48 11 101.5 49.5t89.5 83.5 q-9 20 -25 53t-60 119t-82 154.5t-79.5 131t-63.5 76.5q-18 -20 -62.5 -113t-81.5 -213.5t-21 -179.5zM260 1233q0 -71 24 -144t74 -104q12 5 55 65.5t78.5 142t18.5 124.5q-12 28 -43 51t-68.5 29.5t-72.5 -17.5q-66 -51 -66 -147z" />
<glyph unicode="'" horiz-adv-x="227" d="M55 1462q2 6 4 10t5.5 7t5 4.5t6.5 4t6 3.5q12 -4 33 0t39 -6v-76q0 -43 16 -131q3 -14 -32.5 -23.5t-49.5 -1.5h-2q-6 7 -16 103t-15 106z" />
<glyph unicode="(" horiz-adv-x="440" d="M55 772q0 84 2 127q8 237 97 547q9 36 16 78q7 61 27 104q2 2 34 2q43 0 80 -6q37 -8 49 -6q-16 -24 -45.5 -84.5t-38.5 -87.5q-36 -111 -61 -258q-35 -247 -35 -379q0 -104 15 -203q45 -339 112 -508v2q17 -38 27 -53q49 -81 49 -101q1 -6 -2 -9q-7 -14 -102 -9h-17 q-30 4 -71 122q-4 9 -5 13v-2q-2 8 -6.5 21t-5.5 18v-2q-45 103 -80 244q-39 207 -39 430z" />
<glyph unicode=")" horiz-adv-x="425" d="M55 1626q57 9 138 6q12 -39 53 -127l37 -88q6 -14 11 -29t9 -27.5t8 -31t6.5 -28.5t6.5 -31.5t5.5 -29t5.5 -32t5 -30.5q31 -222 31 -392q0 -92 -9 -186q-28 -297 -116 -516l-13 -27v-2q-8 -24 -11.5 -33.5t-12.5 -27.5t-19 -26.5t-22 -10.5q-41 -4 -92 4q-5 0 0 19 q53 175 98 342q20 73 34.5 161.5t20 139.5t15.5 159q7 130 -37 351l-23 112q-16 113 -59 221q-3 10 -13.5 32t-13.5 30q-3 5 -11 19t-11.5 21t-8.5 18t-8 21t-4 19z" />
<glyph unicode="*" horiz-adv-x="579" d="M55 1427l8 5l130 106l-121 21h-2v4q12 64 26 92l-4 2q4 0 6 2l-2 -4l17 -6q72 -19 104 -19q7 11 0.5 53.5t-6.5 45.5q0 2 3 3.5t30 6.5t78 10q1 0 3.5 1t4.5 1q22 -93 41 -127l84 57q7 -8 33 -34t36 -39v-4q-50 -41 -65.5 -55.5t-24.5 -30.5q74 -60 89 -54h1 q-29 -71 -41 -88q-2 -4 -121 54q-2 -45 3.5 -85.5t5.5 -41.5l-2 -5q-2 0 -7 -1t-6 -1q-9 -1 -26 -4t-23 -3.5l-18 -1.5t-16 0t-11.5 3t-9.5 7t-5.5 11.5t-4 16.5t-0.5 23l8 65q-26 -15 -58 -45t-59 -39q-5 -7 -8 2v-2l-37 53l-31 39zM455 1681v2l5 1z" />
<glyph unicode="+" horiz-adv-x="690" d="M57 713q0 18 82 18h21l133 8q-14 111 -14 174q0 54 2 54q31 16 51 16q24 0 43 -14q1 -17 2 -40t3 -80.5t-1 -62.5l-2 -47q8 -3 17 -3t46 2.5t66 2.5q20 0 59 1t53 1h9q6 -24 6 -67q0 -45 2 -45q-75 -14 -250 -10q12 -74 12 -142q0 -50 2 -73q0 -29 -20 -29q-23 0 -35 -2 q-8 0 -20 -4q-21 -4 -21 10q0 16 -2 51.5t-2 54.5q0 77 -6 134q-46 -5 -82 -5h-61h-89q-7 52 -4 97z" />
<glyph unicode="," horiz-adv-x="284" d="M57 74q5 37 43.5 56t75.5 -1q47 -37 51 -84q4 -75 -43 -106q-2 -1 -14.5 -8.5t-24.5 -12t-20 -2.5q-13 21 -10 33q3 2 12.5 5t19.5 7q27 13 27 45q-38 -26 -80 -0.5t-37 68.5z" />
<glyph unicode="-" horiz-adv-x="647" d="M57 663.5q4 30.5 17 28.5l49 -6q9 0 31.5 -1t35.5 -1h398q5 -2 2.5 -64.5t-4.5 -64.5q-8 2 -31.5 2t-55 -0.5t-77.5 2.5l-129 6q-204 9 -219 8q-10 -1 -15.5 29.5t-1.5 61z" />
<glyph unicode="." horiz-adv-x="262" d="M60.5 35q-13.5 37 4.5 71t58 39q-2 -2 -6 -2h4q56 8 77 -43q19 -45 -4 -85q-26 -46 -81 -29q-39 12 -52.5 49z" />
<glyph unicode="/" horiz-adv-x="714" d="M55 -29q26 117 281.5 818.5t271.5 709.5q19 8 54 4q7 0 11 -1t7 -2t4 -3t1 -4t-1.5 -6.5t-3 -8t-5 -10t-5.5 -12.5v-10q-6 -9 -6 -19q-41 -126 -282 -784.5t-253 -662.5q-18 -3 -34.5 -4t-39.5 -5z" />
<glyph unicode="0" horiz-adv-x="886" d="M55 885q0 59 6 127v-2q6 71 14.5 119.5t27 105.5t52.5 100.5t85 73.5q46 25 135 33q10 1 32 2t33 2q41 8 92 8q66 0 113 -27q56 -32 94 -85t56.5 -120t27.5 -138t7 -153.5t-6 -151.5t-8.5 -148t-4.5 -127q1 -72 -4.5 -132.5t-14 -105.5t-23.5 -82.5t-29 -62.5t-34.5 -45 t-37 -31.5t-39.5 -21.5t-38 -14t-36.5 -10t-32.5 -9q-156 -30 -262 30q-43 23 -73 56t-47.5 69t-28 82t-15.5 88.5t-9 95.5q-1 11 -1 17l-12 143q-19 198 -19 314zM190 1010q5 -6 6.5 -204.5t11.5 -402.5t38 -225q72 -77 194 -84q81 -4 137 16t89 89q5 51 21 197t21.5 222.5 t9.5 194.5t-8 213t-38 178q-1 5 -4.5 23t-7 28t-13 23t-24.5 20q-43 24 -80 29q-139 -6 -185.5 -14t-70.5 -27l-2 2l-6 -12l-7 -6q-48 -54 -65 -116.5t-17 -143.5z" />
<glyph unicode="1" horiz-adv-x="407" d="M55 1247q22 45 68 111q47 70 65 112q10 5 31 5q41 0 78 -11v-139q-12 -193 -12 -500q0 -268 2 -389q4 -238 4 -387q4 1 15 1t16 1q1 0 7 1t11 1t8 -2q6 -6 6 -28q0 -23 4 -33q-29 -4 -60.5 -4t-70.5 2t-61 2q-15 0 -23 12q-7 10 -4 26.5t19 22.5q7 3 24.5 2t24.5 2 q-6 261 -6 443q0 39 1 116t1 115l4 596l-51 -84q-5 -9 -15.5 -25t-11.5 -16q-17 6 -74 47z" />
<glyph unicode="2" horiz-adv-x="753" d="M55 119q0 88 37.5 188t83.5 170q18 26 55 73.5t50 65.5q9 11 46.5 56.5t51.5 64.5t40 57t41.5 71.5t26.5 70.5q1 4 7.5 23.5t8.5 26t8 24.5t8 27t6.5 25.5t6.5 27.5t4.5 25t3.5 26t1 24q0 116 -101 174q-37 19 -84 19q-80 0 -104 -35q-23 -31 -23 -104q0 -46 -4 -66 q-4 -18 -14 -26t-29 -11q-33 -3 -63.5 7.5t-42.5 37.5q-20 37 -10 101q14 58 64.5 110.5t117.5 89.5v-2q51 23 100 23q52 0 119 -27q178 -90 178 -313q0 -212 -151 -416q-16 -25 -95 -123q-75 -95 -96 -127v2q-40 -58 -84 -176t-39 -180q61 -17 160 -17q108 0 252 7 q0 14 -4 22q-8 28 -6 41q4 0 26.5 3.5t32.5 4t26 -1.5t25 -8l2 -170q-5 -4 -24 -4q-26 -4 -122.5 -1.5t-119.5 -0.5q-223 0 -352 6q-21 49 -21 115z" />
<glyph unicode="3" horiz-adv-x="851" d="M63 1464q1 11 25 14.5t113 8.5q96 5 166 10l213 6q48 0 71 -18q2 -2 -4 -16t-12 -23l-68 -115q-68 -129 -155 -248l53 -18q37 -13 89.5 -43.5t115.5 -92t92 -130.5q35 -87 35 -262q0 -119 -23 -205q-26 -91 -100 -201v2q-55 -76 -152 -125h2q-53 -26 -116 -26 q-26 0 -72 8q-30 -6 -84 30.5t-103 91.5t-75.5 124.5t-5.5 121.5q13 30 50 43.5t75 4.5q45 -14 66.5 -61t21.5 -99q0 -78 10 -105q14 -39 55 -55q47 -14 86.5 -6.5t75 36.5t61 62.5t43.5 71.5q63 152 66 330v16q-5 130 -88.5 232t-208.5 120q-3 0 -96 6q-79 4 -105 9 q6 14 25 43.5t38 56.5t51 73.5t48 69.5q92 135 115 189q-129 11 -209 6q-18 -2 -55 -2q1 -5 2 -17t2 -18q4 -50 -7.5 -59t-70.5 -9q-12 1 -20.5 29t-15.5 69t-11 52z" />
<glyph unicode="4" horiz-adv-x="831" d="M55 496q356 711 400 850q32 92 55 92l100 -4l15 -398q0 -20 1 -51.5t1 -42.5q1 -22 1 -95t-0.5 -156t-0.5 -87q41 -6 73 -2q68 9 76 0v-84q-1 -7 -11 -8.5t-31 0.5t-29 2q-84 0 -84 -4q3 -19 -1 -99t-9 -178t-5 -143q61 9 66 2q10 -12 3.5 -46t-22.5 -34q-26 0 -86 -6 q-61 -5 -80 -2q-15 2 -19 31t-11 39q3 3 7.5 4t10 1t8.5 1q20 4 33 4q2 42 8.5 150t6 167t-10.5 101q-2 0 -223.5 1t-241.5 -5zM238 588h51q147 0 231 8q19 84 19 305q0 28 1.5 100.5t1.5 119.5t-3.5 102.5t-12.5 85.5q-71 -163 -182.5 -440t-105.5 -281z" />
<glyph unicode="5" horiz-adv-x="745" d="M57 270q6 67 62 97q26 14 58.5 16.5t60.5 -10.5q57 -35 65 -70q2 -20 0.5 -29.5t-6.5 -28.5t-6 -30q-6 -26 -1.5 -49t29.5 -35q50 -24 95 -10q86 38 114 135q19 66 19 217v23q0 92 -25.5 197t-75.5 161q-73 78 -204 78q-59 0 -115 -21q-21 -4 -21 -10q-7 39 -24 402 q0 10 -1 23t-1 17v13q-2 34 5.5 51.5t31.5 17.5q53 -5 171 -3t240.5 0t124.5 -13q8 -23 19 -131q0 -11 -3 -14.5t-16 -8.5q-30 -12 -67 -12q-24 1 -32 25t-3 53h-6q-70 0 -107 2q-41 2 -121 2q-51 0 -71 -4q-24 -3 -35.5 -11.5t-14 -32.5t1.5 -56t14 -92q8 -50 13 -80 q5 0 28 -1t30 -1q44 -2 63.5 -3t56 -5.5t56.5 -12t49.5 -22t49.5 -34.5t42.5 -50.5t42.5 -69.5q31 -62 43 -197q0 -5 1 -14t1 -14q2 -27 2 -90q0 -73 -7 -142.5t-26.5 -146t-51 -133.5t-84.5 -94t-122 -37q-59 0 -102.5 10t-81 35.5t-65 55t-68.5 81.5q-29 42 -25 106z" />
<glyph unicode="6" horiz-adv-x="727" d="M55 518q0 71 8 197q7 179 19 289v26q16 173 49 258q28 71 89.5 106.5t137.5 35.5q86 -2 153.5 -31t103.5 -86t22 -131q-8 -44 -49.5 -60.5t-87.5 8.5q-23 10 -28.5 53t-14 90.5t-37.5 65.5q-16 11 -43 7q-3 0 -8 -1.5t-7 -1.5q-45 -8 -86 -48.5t-61 -86.5l-2 -2 q-12 -34 -24 -164t-1 -168q5 3 31.5 19.5t33.5 20t31 13.5t40.5 11.5t44.5 1.5t59 -6q36 -6 51.5 -9.5t39.5 -12t40 -22.5t31 -36q57 -94 57 -252q0 -46 -14 -209q0 -4 -1 -12t-1 -12q-18 -153 -39 -215q-47 -136 -162 -166q-24 -6 -53 -6q-88 0 -169.5 59.5t-117.5 144.5 q-18 45 -27 176q0 26 -4 54q-4 70 -4 102zM152 487q-4 -176 73 -294q26 -38 69.5 -65.5t84.5 -27.5q31 0 66.5 18t48.5 48q43 100 61.5 206t13.5 185.5t-18.5 135.5t-30.5 77q-68 61 -172 61q-85 0 -140 -89t-56 -255z" />
<glyph unicode="7" horiz-adv-x="837" d="M57 1474q-1 3 2 9q4 5 51 5.5t329 0.5h333q6 0 8 -7.5t0.5 -18.5t-4 -24t-4 -24t1.5 -18l-29 -25q-23 -23 -28 -29q-37 -47 -103 -174q-58 -93 -103 -208t-69.5 -212t-40.5 -200.5t-21 -162t-7 -107.5l4 -195q18 0 40 -1t23 -1q13 -5 15.5 -16.5t-1 -32.5t-3.5 -29 q-31 2 -89 -2t-81 -4q-4 0 -28 -1.5t-38.5 0t-21.5 7.5q-11 12 -3 74q12 4 74 4q-12 137 7.5 308t45.5 280q47 201 96.5 345.5t82 201.5t65 106.5t41.5 73.5q-45 -2 -188 -2q-147 0 -219 -4q-1 0 -6 -1t-9 -1q0 -45 -2 -68h-37q-4 0 -13.5 -1t-18 -1t-13.5 2 q-8 3 -11.5 16.5t-4.5 33t-2 24.5q-4 33 -12 61q-1 3 -4.5 9t-4.5 9z" />
<glyph unicode="8" horiz-adv-x="815" d="M55 426v100q3 51 11 106.5t24 125.5t47.5 124.5t73.5 75.5q-43 40 -84 109t-41 137q0 42 23 96q50 101 114 146q26 17 83.5 24.5t92.5 2.5q82 -8 153 -50t87 -106q16 -49 16 -123q0 -137 -82 -238q78 -64 117 -127q70 -131 70 -297q0 -94 -29 -210h2q-32 -124 -53 -169.5 t-90 -119.5q-75 -56 -199 -56q-93 0 -170.5 32t-111.5 91q-54 101 -54 326zM172 516q0 -118 18 -231q5 -73 37.5 -125t98.5 -62q72 -11 126 6t86.5 59t50.5 90.5t27 111.5q11 79 11 137q0 61 -11 147q-18 86 -94 153t-157 54q-86 -12 -119 -57q-74 -88 -74 -283zM211 1176 q0 -105 72 -136q40 -22 90 -22q46 0 88 19.5t69 56.5q31 46 31 96q0 44 -21.5 84.5t-58.5 60.5q-45 25 -96 25q-53 0 -99 -25t-67 -73q0 -4 -2.5 -17.5t-4 -30t-1.5 -38.5z" />
<glyph unicode="9" horiz-adv-x="731" d="M55 1028q0 130 25 217q15 68 73 125.5t126 69.5q66 16 114 16q103 0 176 -70q54 -65 80.5 -222t26.5 -357q0 -170 -15 -341t-36 -278q-19 -95 -95 -156t-172 -61q-60 0 -120 31q-48 29 -86 76q-22 22 -39 61q-36 78 -21 123q8 40 49 57t86 8t66 -36q5 -5 8.5 -10.5 t6 -10.5t4.5 -12t3 -11.5t1.5 -12.5t1 -12t1 -13t0.5 -12q5 -70 23 -97q35 -43 98 4q46 33 74.5 140.5t28.5 204.5q0 44 -19 106q-84 -71 -205 -41q-165 40 -221 158q-12 28 -19.5 63t-9.5 54t-6 67q-8 110 -8 172zM162 1006q0 -93 23 -178.5t63 -131.5q34 -35 84 -48.5 t96 1.5q50 18 74 60v-2q47 62 47 331q0 38 -1.5 67t-7 67.5t-17 66.5t-29.5 54.5t-48 42t-69 18.5q-72 0 -122.5 -51.5t-71.5 -127.5t-21 -169z" />
<glyph unicode=":" horiz-adv-x="276" d="M59 649q15 46 70 60q1 0 2 -1t2 -1l-2 2h2q17 1 35.5 -11t24.5 -26q10 -22 5 -46.5t-22 -39.5q-5 -7 -18 -16t-21 -9q-37 -2 -62.5 25t-15.5 63zM75 33.5q-8 36.5 7 62.5q16 26 47 33t53 -14q13 -13 23.5 -38t9.5 -48l4 4q2 0 0 -2q0 -3 -3 -12t-5 -11 q-12 -24 -45.5 -31.5t-56.5 5.5q-26 15 -34 51.5zM127 709h6h-6z" />
<glyph unicode=";" horiz-adv-x="268" d="M59 608q-4 15 3.5 39t19.5 35q13 9 37 11t37 -3q27 -7 39.5 -35t1.5 -53q-7 -28 -37 -43q-35 -20 -60 -8q-12 4 -24.5 18.5t-12.5 20.5l-1 2v4t-1 5.5t-2 6.5zM60.5 32q-10.5 39 9.5 66q19 29 50.5 29.5t57.5 -21.5t33 -53q7 -46 -10 -88q-8 -24 -21 -37q-27 -36 -47 -22 q-3 23 21.5 51.5t19.5 54.5q-2 -1 -8.5 -6.5t-9 -7l-10 -6t-11.5 -5t-13.5 -2.5t-15.5 1q-35 7 -45.5 46z" />
<glyph unicode="&#x3c;" horiz-adv-x="526" d="M61 696q42 62 109 162q133 198 163.5 242t47.5 59q18 18 68 -18q12 -12 22 -17l-125 -186v2q-164 -236 -162 -268q1 -30 106.5 -205t160.5 -248q-38 -57 -45 -61q-19 -17 -48 16q-30 35 -85 121t-109.5 177.5t-61.5 102.5l-10 21h2q-51 74 -33 100z" />
<glyph unicode="=" horiz-adv-x="1038" d="M75 558q-6 34 5 60q13 19 46 20.5t54 -3.5q46 -2 220.5 -0.5t370.5 -1t198 -10.5q8 -18 8 -62v-9.5v-10.5t-0.5 -10t-2 -10t-4 -7t-6.5 -6t-10 -2q-625 0 -858 18q-15 0 -21 34zM76.5 808q-0.5 28 7 56.5t18.5 28.5q90 3 382.5 -4t492.5 12q17 -1 14.5 -60.5t-14.5 -68.5 q-67 0 -350.5 4t-540.5 4q-9 0 -9.5 28z" />
<glyph unicode="&#x3e;" horiz-adv-x="598" d="M55 1262q3 16 46.5 38.5t66.5 22.5q17 -1 189 -264.5t182 -286.5q4 -7 1.5 -21.5t-1.5 -21.5q-45 -63 -151.5 -239t-123.5 -209q-2 -2 -15 -29.5t-22 -32.5q-17 -5 -28.5 -6t-29.5 7t-29.5 15t-27 17t-22.5 14q-7 14 54.5 123t129.5 220.5t70 117.5q10 31 -81 191.5 t-152 224.5q-4 8 -27.5 50.5t-28.5 68.5z" />
<glyph unicode="?" horiz-adv-x="708" d="M63 1151q-18 81 17 156t109.5 118.5t164.5 38.5q81 -5 150.5 -47.5t103.5 -113.5q45 -102 45 -203q0 -171 -108 -303l-53 -64q-86 -94 -115 -153q-39 -93 -51 -140q-6 -36 -2 -86q0 -44 -10.5 -56.5t-55.5 -12.5q-21 0 -33 8q0 7 -1 16t-1 15q0 10 -1 31t-1 30 q0 100 27 172q23 67 96 160l117 133q35 47 65 143q17 56 17 111q0 88 -33 158q-42 93 -131 110q-53 11 -109 -9.5t-55 -74.5q0 -14 3 -50.5t1.5 -63t-10.5 -48.5q-11 -30 -46 -34t-59 12q-36 20 -41 47zM190 33q2 30 21 60.5t45 27.5q4 0 11.5 -0.5t23.5 -5t28.5 -11.5 t22.5 -22.5t10 -36.5q-1 -23 -20.5 -38.5t-46.5 -20.5v2q-36 -12 -67.5 -1t-27.5 46z" />
<glyph unicode="@" horiz-adv-x="1146" d="M57 356q0 240 7 320q22 255 142 390q54 60 130 103q103 56 239 56q112 0 207 -45v4q101 -51 176.5 -156t102.5 -223q31 -138 31 -256q0 -104 -27 -270q-9 -56 -33.5 -113.5t-70 -104.5t-99.5 -51q-28 -4 -50.5 -1.5t-36 2t-25 6t-17 10.5t-12 14.5t-10 18.5t-11 24 t-14.5 29q-74 -52 -125 -52q-47 0 -110 39q-77 52 -113.5 167.5t-36.5 258.5q0 170 47 295q25 63 83 108t116 42q8 -1 29 -3.5t30.5 -5t24.5 -7t25.5 -13t19.5 -20.5q6 35 12 45q12 12 38 12t46.5 -5t20.5 -7l-5 -160q-2 -55 -2 -193q0 -63 -4 -165.5t-2 -163.5t15 -123 q17 -29 40 -37t45 2t41.5 27.5t32.5 38.5q31 51 44.5 210t5.5 232q-38 359 -242 461q-93 39 -195 39q-83 0 -157 -28.5t-125 -84.5q-21 -22 -37.5 -44.5t-29 -48.5t-22 -46t-16 -51.5t-11 -49.5t-7.5 -55t-4.5 -53.5t-4 -59.5t-3.5 -59q-7 -79 -7 -184q0 -125 47 -246 q5 -12 14.5 -45t20 -55.5t27.5 -38.5q74 -71 217 -52q11 2 36.5 10t37.5 9q38 0 67 -10q36 -11 50.5 -58.5t-13.5 -74.5q-32 -27 -104 -15q-4 -1 -27.5 5.5t-56 17.5t-63 22t-55 19.5t-26.5 9.5h2q-260 112 -260 487zM383 494q0 -94 43 -193q52 -119 123 -120q60 -1 123 85 l4 537q-49 71 -141 59q-48 -7 -83.5 -61t-52 -134t-16.5 -173z" />
<glyph unicode="A" horiz-adv-x="909" d="M66 24q0 4 1 8q1 6 3.5 15t4.5 15t4.5 12.5t2.5 7.5q54 4 57 4q63 313 152.5 692t126.5 557h-29q-23 -3 -49 4q-1 8 -1 26t-1 26t-5.5 14.5t-2.5 15.5q6 0 16 3t12 3q7 1 24.5 1t45.5 -1q16 -1 30 -1q34 0 52 4q20 -94 70 -373q20 -140 75.5 -436t112.5 -545q10 0 14 2 q10 2 30 -1t26 -9q9 -6 7.5 -36.5t4.5 -35.5q-6 -1 -14 -1q-16 0 -38 3q-34 4 -46 4q-8 0 -74 -5q-30 -2 -48 -2q-21 0 -24 3q0 24 -8 45q-7 13 -5 19.5t15 9.5q14 2 34.5 0.5t25.5 -0.5h2q-43 164 -54.5 215t-17.5 108l-287 6q-5 -30 -19.5 -97t-17.5 -85q-7 -29 -11.5 -66 t-8.5 -59q13 3 27 2t25 -4l11 -2q-1 -6 -2 -15.5t-3 -31.5t-1 -35q-21 0 -59 -2t-59 -2q-12 0 -36.5 -2t-43.5 -2t-35 4q-6 1 -8 5q-4 5 -4 15zM340 510q38 -4 139 -4h99l-13 98q-46 305 -98 471q-25 -56 -45 -127t-28.5 -116.5t-20.5 -122t-15 -93.5z" />
<glyph unicode="B" horiz-adv-x="751" d="M82 1487q14 5 102 9q50 2 83 2q24 0 38 -1q179 -21 256 -88q61 -56 80 -98q27 -61 27 -156v-6q0 -129 -123 -268q70 -70 110 -142q21 -31 31 -159q0 -2 1 -7t1 -8q0 -4 1 -14t1 -14q6 -147 6 -154q0 -112 -26 -186q-26 -65 -80 -118.5t-121 -74.5q-25 -10 -73 -12 q-35 -2 -61 -1h-20q-33 1 -99.5 5t-72.5 4q-69 0 -77 29q-2 20 -2 38q0 27 4 50q6 1 12 0t13.5 -3t12.5 -3q10 -1 31 0t33 0q-8 369 -15 646.5t-9.5 376.5t-2.5 162v105q-28 -4 -34 -4q-14 -1 -24 -1.5t-16 6.5t-6 23q1 5 -3 23q-3 14 -3 22q0 12 25 17zM258 1391l8 -109 q0 -80 4 -117v2q2 -18 2 -35t-2 -34q-2 -43 -2 -75q0 -46 4 -71q25 -1 49 -2t36.5 -1.5t13.5 -0.5l23 2q22 2 28.5 3t26.5 5t30.5 9.5t24.5 15.5t24 23q27 37 36 64.5t9 68.5t-30 112q-23 39 -49 64t-59.5 38.5t-67.5 20.5t-85 14zM285 340q0 -159 12 -229q22 -4 44 -4 q34 -1 70 9q59 16 101 42q32 27 50.5 67.5t23.5 82.5q4 40 6 86v30q0 28 -2 53q0 11 0.5 43.5t0.5 49t-2 47.5t-6.5 49t-13.5 43t-21.5 40.5t-32.5 30t-46 21.5l-35 10q-72 19 -124 19q-13 0 -25 -1v-489z" />
<glyph unicode="C" horiz-adv-x="743" d="M80 1094q8 137 74.5 242t191.5 137q31 8 60 8q54 0 124 -23.5t103 -71.5q4 -7 13.5 -20.5t15.5 -24.5t10 -22q14 -38 14 -66q0 -39 -27 -59q-33 -23 -72 -23h-9q-44 3 -78 31q-23 18 -56 59t-45 52q-24 23 -51 23q-26 0 -55 -21q-37 -32 -64 -80q-15 -37 -22 -88 q-4 -46 -4 -70q-7 -219 -10 -389q0 -58 -1.5 -172.5t-1.5 -171.5q1 -44 5 -73.5t16 -64t40 -56.5t71 -31q15 -5 33.5 -5t40.5 5q44 10 53 45q3 16 -1 57.5t3 57.5q10 35 61 39q8 1 16 0q39 0 62 -15q37 -23 47 -39q4 -7 6 -14q3 -19 3.5 -23t-6 -22.5t-7.5 -22.5 q-29 -71 -94.5 -113t-147.5 -53q-12 -1 -23 -1q-62 1 -124 27q-74 32 -115 89q-71 64 -71 444q0 211 22 519z" />
<glyph unicode="D" horiz-adv-x="806" d="M59 45q-2 9 -2 15q-1 10 5 16q10 10 34 10q18 0 64 4l14 1260q-4 0 -10 -1t-8 -1q-36 0 -50 2q-3 11 4 34.5t7 34.5v39q0 1 -3.5 9t-2.5 14q58 4 84 4q30 7 69 7q16 0 33 -1q118 -4 172 -10q176 -24 221 -92q21 -33 33.5 -80t15.5 -82t6 -92q0 -4 1.5 -15.5t1.5 -15.5 q3 -132 3 -233q-1 -50 -1 -93q-2 -128 -7.5 -271t-5.5 -177q0 -74 -10 -113v2q-17 -48 -76 -127q-38 -47 -94.5 -66t-136.5 -26q-46 -4 -178 -12q-98 -6 -133 -7q-12 0 -17 1q-9 2 -12.5 3.5t-4.5 3t-1.5 7.5t-1.5 10q-1 7 -6 20.5t-7 18.5zM258 213q0 -53 8 -115 q29 -4 61 -5q76 0 165 26h-3h13q58 12 84.5 52.5t38.5 107.5q10 49 14 196q4 315 14 545q1 17 1 33q0 106 -23 186q-42 131 -219 131q-61 0 -127 -16l-17 -865v-16q0 -46 -4 -125q-6 -93 -6 -135z" />
<glyph unicode="E" horiz-adv-x="706" d="M57 1362q-1 3 -1 8q0 10 3 24q4 22 4 27.5t-3 25t-1 30.5q46 0 107 3t115.5 6.5t111.5 7t102 5.5q36 2 66 2q7 -1 14 -1q35 0 52 -5t12 -14q7 -29 9 -81v-23q0 -39 -5 -72q-3 -10 -37 -12t-43 3q-4 1 -7 6.5t-4 10.5t-2 13.5t-1 10.5q-5 20 -17 52h-14q-31 2 -90 2 q-122 0 -166 -9q-10 -360 -10 -457.5t12 -185.5l111 11q77 14 108 14q6 -18 6 -62q0 -49 -4 -53h2q-36 -11 -100 -14q-67 0 -129 -19q-10 -98 -10 -245q0 -167 6 -258q71 -21 174 -21h82h10q-4 13 -12 49.5t-4 44.5q14 2 34 2q34 0 87 -6q4 -19 4 -119q0 -10 2.5 -36 t1.5 -41q-10 0 -219 2t-219 2q-50 -5 -86 -5q-27 0 -46 3v51q0 5 -2.5 15t-1.5 17t7 11q18 10 65 14q-11 1209 -12 1272q-37 -8 -62 -6z" />
<glyph unicode="F" horiz-adv-x="645" d="M28 63q6 15 38 15q16 0 26 2v96v7q0 39 6 297q6 298 12.5 617.5t6.5 362.5q350 12 427 13q15 0 20 -1l14 -2l6 -176q-37 -2 -64 -2q-45 0 -61 6q-11 5 -11 44q0 11 1 24q-120 -3 -159.5 -8t-64.5 -21q3 -24 4.5 -81t1.5 -125.5t-0.5 -129.5t-1 -111.5t-1.5 -51.5 q0 -74 -5 -121q66 -8 115 -8.5t58 1t36 -4.5q1 2 4 -19t4 -44.5t-4 -41.5q-51 -7 -109 -7q-49 0 -102 5l-10 -498q22 5 38 5q22 0 32 -9q14 -12 14 -52q0 -16 -2 -36h-73q-1 0 -4 1q-16 0 -70 -4q-61 -4 -74 -5h-5.5h-5h-4.5t-4.5 0.5t-3.5 1t-3.5 1.5t-3 2.5t-3 3.5t-2.5 5 q-15 26 -15 41q1 5 2 8z" />
<glyph unicode="G" horiz-adv-x="813" d="M55 983q0 76 11 143q0 2 1 12t1 13q12 76 34 111q46 67 121 104q91 43 162 43q60 0 127.5 -25.5t117.5 -74.5t50 -105q0 -36 -32 -54q-31 -17 -69 -17h-4q-40 1 -69 14q-24 11 -35.5 37.5t-21.5 56t-29 43.5q-24 17 -57.5 14t-64.5 -16t-52 -31q-70 -56 -70 -171v-13 q2 -9 2 -38q0 -25 -2 -63q-2 -84 -2 -98q-4 -132 -4 -196q0 -111 12 -213l4 -86q1 -20 3.5 -57.5t3.5 -53.5q12 -104 77 -141h-2q50 -29 105 -29q76 0 104 14q25 12 43.5 33.5t28.5 41t18 53t10.5 50t6.5 52.5q1 4 3 18l3 19q5 38 4.5 55t-7 58.5t-7.5 66.5q-28 0 -71 -3 q-29 -2 -51 -2h-20q-29 2 -63 11q-17 2 -17 59v39h81q57 0 103 -1q78 -1 140.5 -3.5t89.5 -3.5q1 -17 5.5 -45.5t4.5 -42.5q0 -13 -28 -14t-54 4v-2l-4 -76q0 -12 1 -37t1 -39q0 -55 -8 -104q-29 -208 -147 -266l2 2q-59 -29 -137 -29q-91 0 -158 33q-111 52 -164 278 q-20 100 -20 236v180l-5 111q-6 74 -6 145z" />
<glyph unicode="H" horiz-adv-x="905" d="M57 45q30 0 60 6q37 878 37 1319q-2 12 -2 39q-52 0 -60 6q-4 4 -5.5 12.5t-0.5 16t0 14.5q0 2 -4.5 14.5t-3.5 18.5q8 1 18 1q15 0 35 -2q34 -3 45 -3h135q20 0 25.5 -6t7.5 -23v-28q1 -2 5 -8t5 -8.5t0 -8.5q-15 -2 -48 0.5t-46 1.5q-12 -435 -12 -526q0 -79 4 -185 q29 0 113 -4q83 -4 133 -5h20q38 0 72 3l33 -2l30 653v31v19q-6 -1 -18.5 -3.5t-18 -2.5t-16.5 1q-3 36 -3 56q0 12 1 18q22 2 65.5 3t57.5 1q35 4 64 4t53 -4q1 -5 1 -15.5t1 -16.5q1 -3 4 -11.5t4 -12.5q0 -2 0.5 -5.5t-0.5 -7.5q-17 -2 -47.5 1t-40.5 3q0 -10 1 -24 q0 -41 -5 -115l-56 -1213q22 2 36 2q22 0 28 -4q7 -5 7 -27q0 -18 -5 -47q-14 -3 -29.5 -3.5t-37 0.5t-29.5 1q-9 0 -33 -1t-41 -0.5t-33 3.5q-1 5 -1 17.5t-1 19.5q-1 3 -4 10t-3.5 10.5t1.5 12.5q16 2 51 2q-6 34 -6 121q0 68 4 168q8 228 8 260q-17 -1 -36 -1 q-48 -1 -112 5q-88 8 -126 8q-16 0 -48 -3t-46 -3q-16 -444 -21 -553h17h55q1 -8 -5 -21.5t-7 -17.5q-1 -6 -1 -18.5t-1 -18.5q-17 -2 -50 -2q-25 0 -61 1q-16 1 -30 1q-56 0 -77 -10q-2 12 -2 43q-1 6 -3 20q-2 10 -1 18v5z" />
<glyph unicode="I" horiz-adv-x="362" d="M39 6q-1 3 -1 10q0 17 7 60q20 4 55 4q3 626 16 1175l1 103v-2q0 19 -4 43q0 1 -1 3t-1 3h-5q-31 0 -45 2q0 2 -2.5 19.5t-1 30.5t8.5 18q1 5 24.5 4.5t26.5 -0.5q78 8 123 8q4 1 10 1h5h3q2 0 5.5 -2.5t4.5 -6.5q9 -24 11 -33q3 -18 -13 -23q-21 -11 -43 -8v-1286 q0 -11 2 -23t2 -24v-6q20 4 33 4q24 0 29 -6q3 -3 3 -10q0 -12 -7 -37q-7 -27 3 -27h3h-35h-17q-27 0 -62 -2q-46 -2 -75 -4q-5 -1 -13 -1q-11 -1 -23 1q-24 2 -27 12z" />
<glyph unicode="J" horiz-adv-x="794" d="M61 502q3 46 9 84q13 72 69 94q22 8 37.5 11.5t34.5 0t35 -17.5q38 -33 38 -76q0 -9 -1 -18q-11 -57 -90 -146q-14 -16 -17 -43t0.5 -51t11.5 -47q28 -102 72 -148q36 -36 80 -41h8q28 0 70 25h-4q76 39 106 143q22 78 28.5 248.5t12.5 796.5q0 43 6 88q-40 -6 -45 -4 q-1 4 -2 12.5t-2 13.5q-9 27 -4 33q7 17 104 19h21q77 0 94 -13q1 -3 1 -13.5t1 -14.5q3 -15 3 -24q0 -4 -1 -7q-11 -4 -49 -4h-16q2 -16 2 -47q0 -80 -9.5 -482.5t-15.5 -459.5v6q-2 -6 -2 -31q0 -4 -1 -9.5t-1 -8.5q-3 -53 -6 -81t-12 -72t-27 -77t-47 -59 q-31 -33 -87.5 -55.5t-113.5 -30.5h-12q-81 0 -158 67q-68 60 -96 177q-29 128 -29 207q0 31 4 55z" />
<glyph unicode="K" horiz-adv-x="856" d="M37 1466q5 0 61 4q46 4 85 4h17q46 -1 46 -14q3 -16 -2 -43q0 -17 -4 -20q-4 -2 -11 -2t-15 1t-9 1h-8v-86v-56q5 -156 8 -204l6 -168q253 382 348 518q-1 3 -13 2t-21.5 -2.5t-10.5 4.5q0 6 -3.5 23t-3.5 28.5t7 13.5q23 6 74 6q26 0 58 -2q58 -3 93 -2q23 0 35 1v-18 t-2.5 -25.5t-9.5 -14.5q-10 -6 -41 -6h-35l-145 -221q-48 -77 -92 -158.5t-58 -99.5q76 -146 334 -834q1 0 5 1t7 1t15.5 -1t21.5 -0.5t14 3.5q7 -14 7 -33q0 -22 -9 -53q-7 -7 -110 -9q-29 -1 -51 -1q-55 0 -64 4q-1 2 0 27.5t0 27.5q0 3 -1.5 12.5t-0.5 12.5h43 q-17 43 -87 216.5t-127.5 320t-76.5 209.5q-26 -31 -51 -64.5t-38.5 -53t-14.5 -20.5q3 -39 8.5 -251t5.5 -277v-90q4 0 12 1t13 1q4 2 14 3t16 -3q-2 1 2 -16.5t8 -36.5t3 -21q-11 -10 -54 -13q-27 -2 -53 -2q-18 0 -36 1q-23 1 -44 1t-41 -1q-1 5 -1 11t0.5 12.5t0.5 9.5 q0 4 -3 22t-3 21q4 1 20.5 1t20.5 1q-4 671 -6 804q0 18 -1 75t-1 91q-5 323 -6 351h-41q-5 42 -5 63q0 7 1 12z" />
<glyph unicode="L" horiz-adv-x="636" d="M55 1422.5q0 3.5 4 9.5q2 3 7 5t11 3t7 2q2 1 57 6q9 1 19.5 1t23 -0.5t19.5 -0.5q1 0 25 2q11 1 18 2q8 0 8 -2q5 -2 8 -8t5.5 -15.5t4.5 -13.5q1 -3 4 -11t4 -12t0 -9.5t-6 -8.5q-14 -6 -53 -6l8 -1229q7 1 27 1q29 0 85.5 -2t91.5 -2q24 0 38 1q2 2 2 6v6.5t-0.5 7.5 t0 6.5t1 6.5t2.5 5t5 3t6 1t7 -0.5t6 -0.5h39q27 0 41 -2q3 -16 3 -36q-1 -3 -1 -7q0 -24 -1 -38t-5 -46.5t-5 -38.5h-39v-2q-121 -6 -175 -6h-8q-52 0 -93 4t-47 4q-63 0 -98 8q-7 171 -9 626q-1 152 -1 284q0 264 3 450q-16 -4 -26 -4q-4 0 -8 -1q-2 -1 -3.5 -0.5 t-3.5 3.5v21q-1 4 -4.5 14t-3.5 13.5z" />
<glyph unicode="M" horiz-adv-x="1058" d="M55 1354q4 8 2.5 35.5t3.5 35.5q15 5 175 5h1q17 0 43 -68q28 -72 58 -179.5t60.5 -218t60.5 -198.5t51 -107q40 70 133 322q137 365 176 438q20 2 66 2q31 0 45 2t39 1.5t39 -3.5l6 -75q0 -3 2 -5q1 -2 1.5 -2.5t-5.5 -3.5q-5 -1 -23.5 1.5t-21.5 2.5h-37v-120 q0 -187 -2 -563q-2 -526 -2 -572q46 4 69 4q-4 -8 -4 -39q0 -4 2.5 -22.5t1.5 -24.5q-8 -3 -60.5 -5t-125 -3.5t-86.5 -1.5q-5 4 -6 14.5t0.5 25.5t1.5 17t-0.5 9.5t-0.5 11.5t2 8.5t5 5.5q4 4 29 4q24 0 34 2q0 716 23 1004l-264 -699q-19 -7 -48.5 -7.5t-35.5 7.5 q-16 55 -39 127q-14 41 -99 309t-102 312q-3 -54 -3 -133q0 -142 10 -362q14 -342 16 -576q26 3 53 0q2 -13 -2 -39.5t-4 -34.5q-16 -3 -109 -3q-46 0 -112 1q-1 7 -3 24t-3 23q-6 29 -5 35q6 1 14 1t16.5 -0.5t12.5 -0.5q15 0 19 2q-5 236 -5 675.5t7 598.5h-25h-45z" />
<glyph unicode="N" horiz-adv-x="911" d="M57 1391q9 1 27 5t27 5q42 6 66 6h11q131 -328 207 -498q78 -174 130 -339t118 -296q22 645 39 1033q-47 0 -53 4t-13 24q-5 12 -5 30t7 26q9 5 87 5h16q93 0 98 -5l6 -72q2 -15 -41 -6q-7 2 -9 0.5t-9 -2.5q-7 -891 -33 -1239q19 2 37 0q9 -5 8.5 -26t-6.5 -38 q-5 -5 -58 -9t-61 3q-51 103 -98 229q-58 142 -124.5 327t-111.5 294.5t-100 200.5l-2 -987h2q4 -1 17.5 -1t19.5 -2q9 -3 10.5 -22t-2.5 -31q-4 -8 -16 -10h-43q-53 0 -80 -2q-34 -6 -41 -6h-2q-1 7 -1 21t-1 20q-6 25 2 30q1 1 9.5 2.5t10.5 2.5q3 1 8.5 2t8.5 2 q-1 20 -2 59.5t-2 61.5q-2 20 -2 220q1 125 1 322q2 364 1 510v82q-45 -9 -52 4q-2 3 -2.5 15.5t-1.5 15.5q0 4 -1.5 14t-0.5 15z" />
<glyph unicode="O" horiz-adv-x="747" d="M56 621q-1 55 -1 106q0 77 2 147q3 116 9.5 195t20.5 142.5t30 101t43 66.5t56 44t71 27q24 6 55 6q67 0 133 -27.5t111 -72.5q54 -47 80 -131t26 -170q-1 -345 -11.5 -509.5t-37.5 -301.5q-60 -155 -151 -211h2q-75 -43 -162 -43q-82 0 -137 41q-49 35 -92 123 q-40 82 -40 136v7q-5 187 -7 324zM146 516v-30q0 -30 1 -61q2 -47 11 -108q8 -68 28 -104q24 -48 71 -74t101 -26q71 0 127 39q12 9 21.5 20t15.5 19.5t12.5 23.5t9 21.5t8 25t7.5 23.5h-2q19 67 27 180q10 34 10 602q0 95 -33 168q-28 54 -83.5 87.5t-117.5 33.5 q-44 0 -88 -21h2q-37 -26 -62 -67t-36.5 -94t-15.5 -91t-6 -92q-1 -158 -4 -294.5t-4 -180.5z" />
<glyph unicode="P" horiz-adv-x="747" d="M57 1483q31 0 47 2q42 6 43 6v-4q179 11 255 11h18q72 -2 110 -19q76 -57 109 -125q31 -68 45 -200q8 -76 8 -155q0 -55 -4 -113q-10 -136 -49 -204q-32 -60 -133 -88q-32 -11 -96 -11q-18 0 -39 1q-22 1 -44 1q-43 0 -83 -5q-5 -14 -8 -39.5t-4.5 -51.5t-2.5 -60.5 t-1 -57t0.5 -49t0.5 -29.5q-1 -37 -3.5 -116t-2.5 -89h8q5 -1 20 -1t27 -1.5t17 -5.5q3 -3 5 -9.5t2 -11.5t-0.5 -13.5t-0.5 -10.5q0 -4 0.5 -12t0.5 -15t-1 -12q-14 -2 -30 -2t-35.5 1t-28.5 1q-51 0 -78 -2q-24 -4 -39 -4q-1 4 -1.5 15t-2.5 18q-1 2 -5.5 8.5t-7.5 12 t-1 7.5q4 4 26 4q4 1 14.5 3t14.5 3q-3 185 -6 1330q-18 -3 -39 0q-8 0 -9 1.5t-3 10.5q-4 35 -7 49q-8 20 -6 31zM244 702q10 -1 42.5 -4.5t42.5 -4.5t37 -3q18 -1 28 -1h9q10 1 31 2.5t31 6t24.5 11t24.5 16.5t18 23q36 57 51 183q6 51 6 102q0 75 -13 149 q-22 125 -80 164q-30 25 -119 36q-29 4 -53 4q-50 0 -78 -16q-6 -267 -6 -443q0 -141 4 -225z" />
<glyph unicode="Q" d="M37 561q1 59 1 123v65q-1 49 -1 97t1 94q0 91 3 111q27 198 113 284q43 45 114 82q26 12 61 12q43 0 101 -18q77 -21 136.5 -70t86.5 -118q25 -74 37 -275q5 -78 5 -162q0 -133 -12 -281q-19 -241 -75 -368q9 -30 21 -57q46 -118 104 -189q23 -26 33.5 -37t33.5 -26 t46 -18h12h11.5t10.5 0.5t11 1t9.5 1.5t10 3t9 5t10 6.5t8.5 8.5q8 8 19 24t21.5 27.5t25.5 18.5q22 12 53 -4q35 -18 52 -58q11 -26 11 -51q0 -16 -4 -31q-11 -42 -47 -63q-35 -18 -88 -18q-36 0 -80 8q-102 22 -179.5 91.5t-113.5 168.5q-35 102 -43 123q-61 -61 -114 -72 q-41 -8 -84 -8q-121 0 -242 90q-29 26 -42.5 56t-21.5 77q-24 153 -24 346zM137 430q0 -16 3.5 -68t10.5 -79t22.5 -64t37.5 -63q17 -21 37 -33q11 17 25 34t35 39t45.5 37.5t51 26t57 8t58.5 -19.5l21 -12q4 16 8 26v-2q9 84 18 402q5 180 5 274q0 73 -3 94v82 q-3 75 -65 143q-60 60 -146 60q-48 0 -92 -23.5t-69 -66.5q-19 -32 -30.5 -64t-15.5 -70.5t-5 -60.5v-29.5v-41.5q1 -48 1 -64v-41q0 -89 -6 -236q0 -20 -2 -59t-2 -57v-72zM324 98q8 -2 22 -2q89 0 143 60q-4 4 -6 4q-18 12 -40 12q-13 0 -27 -4q-7 -4 -92 -70z" />
<glyph unicode="R" horiz-adv-x="819" d="M45 1462q5 0 30 5.5t34 5.5l2 2q22 4 73 4q36 0 86 -2q122 -5 170 -13q87 -16 131 -45q66 -40 105 -135q40 -94 44 -204q1 -25 1 -50q0 -84 -12 -166q-15 -106 -55.5 -183t-92.5 -93q47 -37 77 -73t56 -94q26 -57 36 -143q6 -52 5 -118q0 -41 -2 -86q34 0 39 -8 q3 -3 5 -13t2 -18t-0.5 -20.5t-0.5 -14.5h-96q-8 0 -15 -1q-71 0 -81 5q-1 5 1 22.5t1 22.5q0 2 -2.5 8t-2 9t4.5 6q12 4 22 4q4 2 8 2q-16 435 -190 444l-197 8q0 -157 2.5 -254.5t4.5 -137.5t2 -56h45q1 -2 8 -29q9 -38 6 -55q-4 0 -39 -1q-34 -1 -68 -1q-8 0 -18 -1 q-26 -1 -54 1q-38 2 -57 6q-2 9 -3.5 43t1.5 37q6 1 30 2t32 2q-4 781 -17 1282q-43 -5 -45 8q-3 12 -5 37t-5 37zM211 1368q13 -395 18.5 -507.5t18.5 -190.5q32 -2 62 -2q90 0 152 18q83 24 118 98q30 68 30 203q0 150 -20 232q-31 111 -144 137q-97 16 -169 16 q-36 0 -66 -4z" />
<glyph unicode="S" horiz-adv-x="770" d="M57 1163q0 18 4 58q10 94 98 161t191 80q22 4 44 4q64 0 130 -30q67 -25 111 -78q22 -22 37 -49q5 -8 12 -27.5t12 -28.5q15 -54 15 -89q0 -18 -4 -31q-13 -35 -55 -41q-10 -2 -20 -2q-30 0 -52 16q0 2 -2 2q-13 6 -27.5 20t-20.5 27q-8 18 -8 55q0 9 0.5 26t0 23.5 t-1.5 19t-4.5 18t-9.5 14t-16 14t-24 10.5q-33 15 -88 15q-83 -8 -140 -76q-55 -65 -55 -146v-6q1 -71 45.5 -143.5t104.5 -128.5l35 -33v2q153 -145 227 -248q92 -132 92 -249q0 -37 -16 -111q-31 -92 -91 -153t-145 -62q-107 0 -184 49q-26 18 -59 51q-27 27 -39 54 q-48 70 -48 114q0 28 23 51q39 39 86 39h5q50 -2 83 -51q21 -35 21 -67v-7q0 -41 20 -71q22 -34 70 -33q23 3 37 8q18 6 32 15.5t25.5 26t17 27.5t17.5 36q11 26 11 57t-11 67q-15 59 -51 116.5t-80.5 104.5t-94.5 95.5t-97 99.5t-84.5 106.5t-59.5 127.5q-20 65 -19 137v14 z" />
<glyph unicode="T" horiz-adv-x="704" d="M59 1403q-2 5 -2 9q0 7 6 11q5 5 19 2q17 2 112.5 2t214 0.5t171.5 2.5q16 4 53 4q0 -12 6.5 -34t7.5 -32q0 -49 -4 -61q-4 -11 -9.5 -13t-19.5 -2q-4 0 -13.5 -1t-17 -1.5t-15.5 0.5t-11 6t0 13q3 13 0 26q-17 0 -49 2t-45 2h-62l-10 -1265q5 0 17 -1t18 -1q1 -6 5 -19 t5 -18t2.5 -18t-0.5 -19q-11 4 -59 4q-61 0 -94 -4q-12 -4 -28 -4h-4q-19 0 -24 16q-1 4 -3 14.5t-3 18.5t0 14q14 6 45 6q2 0 8 1.5t9 1.5q-15 258 -15 437q0 68 2 126q7 157 7 272q0 160 -11 442q-68 3 -102 3q-1 -3 -2 -8.5t-2 -8.5q-2 -10 -3 -22t-2.5 -15.5t-3 -8.5 t-11 -5.5l-19 -1t-33.5 -0.5q-27 0 -27 45q-3 15 -2.5 40.5t-1.5 41.5zM78 1425h2h2h-4z" />
<glyph unicode="U" horiz-adv-x="878" d="M45 1464q0 9 18 13h12q13 0 37 -1q34 -2 48 -1q7 0 30.5 1t41 0.5t30.5 -3.5q9 -2 14 -13q3 -6 6 -28t7 -27q-9 -2 -35.5 -3.5t-30.5 -2.5q0 -63 -12 -189v2q-8 -113 -10 -170q-4 -126 -4 -192q0 -148 8 -252q6 -116 18 -217q0 -2 1 -7.5t1 -8.5t2 -19.5t2.5 -21.5 t2.5 -20t3.5 -22t4.5 -20.5t6.5 -22.5t8 -20.5t9.5 -21.5h-2q25 -49 72.5 -75t105.5 -26q65 0 123 33q107 62 111 256v70q0 30 -1 93t-1 95q-3 94 -11.5 282t-11.5 279q-5 103 -8 139q0 36 6 60q-3 0 -9 -0.5t-10.5 -0.5t-9.5 0.5t-8 2t-4 4.5q-2 1 -2 21v26q3 22 81 22 q20 0 44 -1q77 -6 74 -13q5 -2 6.5 -5.5t2.5 -11t1 -9.5q4 -20 4 -31t-4 -14q-36 4 -45 6q-4 -14 -4 -45v-41v2q19 -240 22 -455q0 -13 1 -42t1 -44q0 -21 1.5 -65.5t1.5 -67.5q0 -131 -11 -244q-14 -121 -52.5 -214t-119.5 -146q-70 -47 -154 -55q-14 -1 -29 -1 q-69 0 -135 31q-78 37 -120 113v-2q-22 41 -33 113q0 2 -1 7t-1 7q-31 163 -39 457v57q0 10 6 268q10 190 11 242v96q0 4 -1 12t-1 11q-52 0 -56 -2q-2 5 -3.5 13.5t-2.5 10.5q-4 12 -4 49z" />
<glyph unicode="V" horiz-adv-x="899" d="M43 1510h150q11 0 37.5 2t41.5 1q3 -1 11 -1t14 -1.5t10 -3.5q2 -2 3 -5.5t1.5 -8t1.5 -6.5q1 -5 5 -18.5t4 -22.5q-1 -7 -4.5 -9.5t-12.5 -2.5h-12q-7 -1 -47 4q18 -191 96.5 -661t103.5 -552l209 1209h-12q-1 0 -13.5 -1t-21 -1.5t-10.5 0.5q-8 2 -16 45v36q23 4 64 4 q20 0 44 -1q36 -2 64 -2t47 2q24 0 37 -13q2 -2 1.5 -8.5t0.5 -11.5q0 -4 2 -17t2 -18q0 -4 -2 -6t-5.5 -2.5t-7 -0.5t-8.5 0.5t-8 0.5h-35q-19 -98 -196 -1073q-52 -345 -70 -377q-4 -8 -28 -8q-3 0 -7 -1q-21 -1 -49 3q-32 4 -33 4q-36 176 -119 561l-157 878 q-11 -2 -31 -2.5t-27 2.5q-4 2 -7 8t-4.5 11.5t-3 13t-1.5 8.5q-3 21 -3 33q0 6 1 9z" />
<glyph unicode="W" horiz-adv-x="1449" d="M68 1458v8q0 19 8 33q9 4 42 4q28 0 73 -3t75 -3q35 0 51 4q11 -7 10.5 -38t4.5 -42q-6 -1 -25 2t-26 2h-5q3 -21 3 -39q0 -22 7.5 -67t8.5 -55q13 -129 73.5 -448.5t112.5 -551.5q2 -24 12 15q13 53 99 548q74 425 92 443q13 13 40 13.5t40 -11.5q29 -26 73 -206 t100.5 -469.5t74.5 -367.5q10 87 64.5 353t74.5 417q14 99 42 258t32 193q-4 0 -19 2t-18 2q-13 0 -21 10q-10 14 -10 60v4q0 13 8 15q2 1 4 1q28 4 64 4h23q22 -1 38 -1q23 0 37 1q9 1 18 1q23 0 50 -7q2 -5 2.5 -14t1.5 -12q8 -28 8 -58q1 -6 -5 -9t-18 -3t-19.5 0.5 t-20.5 1.5q-69 -293 -113 -543q-20 -112 -44 -247.5t-43.5 -243.5t-36 -201t-26 -144t-8.5 -49q-9 -18 -80 -18q-23 0 -47 4q-10 31 -99 461.5t-108 503.5q-14 -41 -43.5 -193t-55 -304.5t-50 -300t-25.5 -153.5q-7 -7 -16 -10q-11 -3 -43.5 -3t-44.5 3q-19 18 -95.5 313.5 t-111.5 454.5q-10 49 -31.5 172.5t-46.5 273t-33 193.5q-9 5 -33.5 2t-29.5 2q-14 13 -16 37z" />
<glyph unicode="X" horiz-adv-x="907" d="M104 1464q-1 9 0 15q0 11 2 18q25 10 91 10q43 0 104 -4q8 -27 9 -46q0 -10 -3 -17q0 -13 -39 -13q28 -128 59.5 -227t81.5 -225t66 -172q9 4 20 30.5t22 64t20 71.5t17 67t9 37q79 241 125 352q-40 -4 -51 -4q0 16 -1 35.5t-1 28.5q24 1 99 7q42 4 74 3q24 0 42 -2 q1 -2 -4 -20v-35q-1 -9 -4.5 -11t-14.5 -2q-14 0 -22 2q-82 -232 -181 -509q-70 -197 -83.5 -238.5t-10.5 -56.5q3 -12 58 -154q134 -366 145 -399q45 9 53 4q10 -7 15.5 -35.5t-0.5 -38.5q-3 -6 -19 -6q-12 0 -60 -2q-29 -1 -55 0h-31q-37 1 -63 6q-10 25 -10 61 q6 1 35.5 1.5t40.5 2.5q-9 25 -35 91.5t-39 101.5l-86 262q-21 -32 -39 -78.5t-37.5 -111.5t-29.5 -92q-18 -57 -60 -162q62 0 64 -4q9 -1 4 -35.5t-4 -38.5q-29 6 -124 6q-57 0 -138 -2q-2 9 0 33t4 33q10 2 41 2.5t45 3.5q6 0 10 2q13 32 25.5 78.5t23.5 74.5 q116 289 146 394q4 24 -131 450l-115 356q-4 1 -13 1.5t-12 1.5q-16 -1 -33 0q0 12 -2 34z" />
<glyph unicode="Y" horiz-adv-x="851" d="M109 1520q37 3 73 3h20h27q24 0 39 1h1q14 0 2 -44q-3 -13 -7 -20q-22 -3 -45 4q30 -132 103.5 -333.5t101.5 -301.5q25 52 49 116.5t47.5 144.5t37 128t36 135.5t24.5 96.5q-9 -4 -18.5 -5t-24.5 0t-18 1q0 7 -1.5 34t-0.5 40h231q6 -8 10 -32q1 -7 1 -13q0 -13 -6 -19 q-3 -2 -27 -2h-35q-94 -278 -144 -425.5t-76.5 -229t-32 -102t-7.5 -33.5q6 -299 6 -459q0 -96 -2 -142q2 0 8.5 1t11.5 1t9 -2q10 -3 12.5 -12t0 -25t-2.5 -18q-10 -8 -80 -10h-30q-45 0 -60 4q-3 1 -6 12q-2 4 -6 13.5t-6 16t-2 13.5q24 5 53 9q-2 180 -2 297q0 58 1 101 q1 127 2 163t1 37q-16 66 -125 382.5t-135 413.5q-33 4 -45 0q-3 2 -5 11.5t-4 11.5q0 1 -3 11q-3 8 -3 11q0 12 52 15z" />
<glyph unicode="Z" horiz-adv-x="819" d="M55 14q51 106 275.5 673t265.5 695q-26 0 -116 2q-75 2 -101 3q-5 -1 -9 -1q-20 0 -106 -2q4 -30 2 -45q-8 -1 -24.5 -3t-24.5 -3q-10 -4 -35 -4q-11 46 -12 51q-1 12 -4 35.5t-4 34.5q0 3 -4 15t-3.5 18.5t7.5 9.5q10 2 26 2v4q49 3 118 4q76 -1 174 -5q92 -4 161 -3 q74 0 121 4q-47 -165 -171 -468.5t-234 -564.5t-128 -333q101 1 236 5q86 2 143 2q33 0 56 -1v4q0 7 -4.5 13.5t-6.5 11.5q-5 13 15 16q24 9 55 9q3 -1 5 -1.5t3 -0.5t2 -1.5t1.5 -2.5t1 -4t1.5 -5q9 -27 15 -51q12 -34 12 -68q0 -13 -2 -26h-8q-3 -8 -9 -8q-28 0 -121 0.5 t-170 0.5t-166 -0.5t-150.5 -3.5t-82.5 -8z" />
<glyph unicode="[" horiz-adv-x="559" d="M59 1546h60q66 0 354 -16q4 -12 4 -31q0 -35 8 -59q1 -4 1 -9.5t-1 -5.5q-26 -4 -79 0h2q-14 2 -52 2q-98 -4 -182 -4q17 -38 28 -393t11 -688q0 -66 -1 -165t-1 -114q63 -10 156 -10q26 0 34 2q61 8 80 -2q23 -15 23 -57q0 -19 -4 -25q-31 4 -119 4q-12 0 -38 -1t-40 -1 h-90q-125 0 -135 2q-2 16 -2 103v69q-13 330 -13 1309q0 27 -2 33q-9 50 -2 57z" />
<glyph unicode="\" horiz-adv-x="780" d="M61 1446v10q-11 25 6.5 35t51.5 12q33 4 53 -4q16 -8 271.5 -709.5t281.5 -818.5q-23 4 -64.5 5t-60.5 4q-12 4 -252 662t-282 785q0 4 -5 19z" />
<glyph unicode="]" horiz-adv-x="563" d="M57 1452q0 72 6 80q28 6 187 -2q83 -6 137 -6q3 0 10 1t11 1q86 10 100 -6l-10 -1549q-67 -5 -105 -2q-18 0 -72 -1t-89 -1t-74.5 3t-57.5 10q-4 14 -4 47q0 27 -6 26q25 10 57 10q54 -3 88.5 -4.5t64 -1t45 2.5t27.5 7.5t16.5 13t6.5 19.5l6 1237q-1 19 -3.5 33.5 t-4.5 24.5t-8 17t-8 10.5t-12 5.5t-11.5 2h-14.5h-15q-9 0 -36 -1.5t-44 -1.5h-123h-62q-2 1 -2 25z" />
<glyph unicode="^" horiz-adv-x="692" d="M55 1354q244 185 283 205q11 3 37 -15.5t54.5 -44.5t33.5 -29q36 -24 140 -100l32 -22q-4 -11 -28 -50t-40 -55q-7 -6 -54.5 27t-101.5 74.5t-63 46.5q-9 4 -24 -2.5t-26.5 -16.5t-26.5 -24t-19 -17q-26 -22 -115 -88q-12 -8 -29 16t-33.5 58t-19.5 37z" />
<glyph unicode="_" horiz-adv-x="1005" d="M59 18q4 2 33 2h19q159 12 319 15q43 0 105 4q78 4 118 4q27 0 97 -4q8 -1 31 -2t34 -2q19 -1 64.5 -2t60.5 -2l2 -23q8 -58 6 -90q-123 -10 -659 -10q-154 0 -170 2q-40 0 -56 6l-4 37q-8 52 0 65z" />
<glyph unicode="`" horiz-adv-x="270" d="M59 1447q-6 13 0 21q23 27 105 33q12 0 20 -9.5t12.5 -25t6.5 -29.5t3.5 -30.5t2.5 -20.5q1 -7 3.5 -25.5t2.5 -25.5t-2 -24q-6 -28 -29.5 -29.5t-38.5 18.5q-13 18 -30.5 54t-22.5 45q-1 3 -14 19t-19 29z" />
<glyph unicode="a" d="M57 428q2 72 32.5 148.5t80.5 117.5q79 64 160 64q67 0 137 -43q0 1 1 33.5t1 44.5q0 96 -12 137q-13 42 -59 60q-14 6 -26 5q-28 0 -46 -28q-3 -17 -3.5 -22t2.5 -24t3 -22l2 -16q0 -29 -18 -45q-18 -17 -49 -18q-7 0 -15 1q-38 6 -64 29q-7 7 -11 12.5t-5.5 13.5 t-2 11.5t0 15t0.5 15.5q0 53 18 90q22 43 62 72.5t88 29.5q63 0 127 -33.5t94 -87.5q16 -29 24 -69q8 -38 8 -73l-1 -83l-11 -672q38 8 70 7q14 0 27 -1v-24q1 -6 3 -19.5t3 -24.5q0 -6 0.5 -11t-0.5 -9q-8 -4 -18 -5q-5 0 -11 -0.5t-14 0.5q-16 1 -19 1q-22 0 -81 3t-68 5 l2 86l-37 -45q-76 -43 -131 -43q-11 0 -21 2q-61 10 -130 84q-60 57 -78 136q-16 71 -15 171v23zM156 328q4 -32 8 -45q14 -58 53 -95.5t88 -37.5q56 0 105 49q65 70 65 207q0 79 -16 141q-10 45 -31.5 64t-69.5 30q-22 5 -42 5q-61 0 -103 -46q-31 -34 -46 -87 q-15 -51 -15 -99.5t4 -85.5z" />
<glyph unicode="b" horiz-adv-x="718" d="M61 4q0 14 2.5 41.5t-0.5 40.5h9q19 0 71 -4h19q3 217 3 375q-1 59 -1 110q-2 186 -7 477t-5 353q-27 -4 -45 -4q-12 0 -19 2q-6 25 -6 80q13 8 76 8h16q12 2 35 3q53 0 78 -3q23 -3 26.5 -7.5t3.5 -27.5q0 -4 3.5 -23t1.5 -28q-8 1 -16.5 1t-18.5 -0.5t-15 -0.5h-4 q-11 -126 -10 -267v-81q13 3 41 13.5t51.5 17.5t38.5 7q155 0 219 -114q56 -92 56 -250q0 -25 -5 -88q-8 -96 -16 -148l-6 -41l-6 -75q-12 -137 -76.5 -222t-167.5 -86q-50 0 -121 35l4 -108q-69 6 -98 6q-53 0 -111 8zM248 907v-222q0 -243 2 -314q2 -100 16 -127 q22 -34 43 -46t66 -22q14 -2 28 -2q45 0 75 24q38 32 50 97q31 192 33 319q0 107 2 154v12q0 145 -92 195q-42 20 -76 20q-43 0 -83.5 -23.5t-63.5 -64.5z" />
<glyph unicode="c" horiz-adv-x="620" d="M55 381q0 43 4 133q0 12 1 35t1 35v121q0 57 5 96q9 81 51.5 152.5t109.5 111.5h-2q50 29 99 29q28 0 61 -13q19 -7 39 -17t48.5 -27t48.5 -38q21 -21 35 -46q12 -20 11 -44q-1 -5 -1 -11q-4 -30 -25 -62q-7 -9 -30 -17t-53 -5.5t-48 22.5q-10 10 -24 48.5t-24 49.5 q-1 1 -10 12t-13 15t-12.5 9.5t-17.5 6.5q-6 1 -12 1q-28 0 -57 -32q-6 -6 -21 -26q-37 -66 -48 -144.5t-11 -183.5v-21q0 -116 6 -215v-20q4 -99 29 -148q21 -36 72 -64q34 -18 56 -18q23 0 34 19q8 14 8 39q0 30 12 57q14 28 42 37t56 -8q29 -18 39 -52q4 -13 4 -24 q0 -20 -10 -39q-30 -58 -89 -89.5t-126 -31.5q-55 0 -98 19t-74 73q-16 23 -37 68q-29 79 -29 207z" />
<glyph unicode="d" horiz-adv-x="729" d="M57 514v35q0 243 52 375q19 44 53.5 80.5t77.5 54.5q40 18 77 18q54 0 168 -57q4 90 4 184l-2 205q-7 0 -20.5 2t-19.5 2.5t-15 -2.5q-5 9 0.5 41.5t-0.5 36.5q7 4 22.5 3.5t54.5 -2.5h17q38 0 103 5q1 -5 12.5 -33t11.5 -35q0 -18 -59 -18q4 -115 4 -413v-77 q0 -52 -1 -96q0 -269 3 -297l-2 -436q2 4 31 1t33 -3q-2 -21 1 -51.5t3 -44.5h-8q-10 0 -26 2q-22 2 -30 2h-72h-4q-10 0 -15 0.5t-10.5 4.5t-6.5 13q-2 9 4 21q-1 11 1.5 24.5t2.5 59.5q-40 -50 -81.5 -78t-76.5 -34q-17 -3 -33 -3q-18 0 -36 4q-34 6 -58.5 20.5 t-45.5 31.5t-31 29t-13 17q-28 55 -44 133t-19.5 131t-6.5 144zM147 496q0 -109 11 -193q26 -145 114 -178q27 -9 51 -10q35 0 64 20q49 33 78 94t31 127q-1 198 -1 307t1 130l2 34v7q0 17 -4 27q-5 12 -19 26.5t-22 25.5q-49 62 -115 62h-7q-57 -1 -98 -45 q-43 -48 -61 -111q-25 -110 -25 -270v-53z" />
<glyph unicode="e" horiz-adv-x="663" d="M57 360v28q0 176 35 355q11 57 30 107.5t50 97.5q30 48 78 74q40 21 87 21q9 0 19 -1q112 -7 174 -81q54 -69 70 -216q8 -44 8 -104q0 -72 -8 -135v-6h-45q-15 0 -47 2t-47 2q-106 4 -160 4q-41 0 -115 -4q-32 -8 -32 -111q0 -45 6 -108q7 -72 43.5 -129t101.5 -64 q8 -1 16 -1q51 0 68 40q7 12 7 41q0 11 -1 25q-2 24 -2 41t2 26q5 25 29.5 37t52.5 9t47 -17q20 -13 27 -39t6 -41.5t-6 -48.5q-15 -110 -66 -135q-96 -39 -161 -39q-84 0 -154 55q-65 50 -88 128t-25 187zM178 684q-1 -14 -1 -28q0 -33 7 -60q31 2 140 2q12 0 35 -1t34 -1 q70 0 129 12q5 42 5 76.5t-5 60.5l-6 19q-26 92 -61 129q-43 43 -88 43q-31 0 -74 -18h2q-38 -13 -65 -52t-37.5 -85.5t-14.5 -96.5z" />
<glyph unicode="f" horiz-adv-x="634" d="M57 967q-2 10 -2 24q0 27 8 68h31q84 0 117 4q2 121 32.5 228.5t96.5 162.5q32 29 76 49q33 15 60 15q9 0 18 -2q6 -1 24 -4.5t25.5 -5t22.5 -6t24.5 -8.5t22 -11t22.5 -15q1 -1 4 -3.5t5.5 -5t4.5 -5.5q22 -28 22 -56q0 -24 -18 -48q-33 -43 -87 -43q-12 0 -25 2 q-19 2 -41.5 47t-30.5 51q-11 9 -24 6t-25 -12t-25 -22.5t-23 -24.5q-1 -1 -1.5 -2t-1.5 -2q-22 -25 -35 -63.5t-17 -64.5t-8 -73l-8 -84q17 2 41 2q14 0 32 -1h27q25 0 41 3q23 -5 27.5 -6t13 -7t9 -14t0.5 -26q0 -42 -7 -56q-30 1 -65 3.5t-53 4t-34.5 2t-23 -2t-6.5 -7.5 q3 -312 14.5 -550.5t12.5 -329.5q3 0 10 0.5t12 0.5t10.5 -1t9 -3t5.5 -5q5 -5 5 -17q0 -16 -9 -47q-49 -9 -94 -9q-51 0 -97 11q-8 3 -8 35q-9 22 0 31q10 8 64 8h2q-3 152 -10 330.5t-12 292t-5 133.5q0 63 -4 129q-29 -5 -67 -5t-85 5z" />
<glyph unicode="g" horiz-adv-x="704" d="M55 616q0 191 54 312q38 95 110 133l-2 -2q50 24 102 24h11q31 0 73 -20q41 -15 82 -23q3 16 4 23t0.5 7t-1.5 1.5t-1 5.5q-4 8 -4 15q66 4 72 4h6q3 0 16.5 3t24.5 5h12h9q11 -1 14 -6q8 -8 9 -26v-7q0 -13 -2 -25q-4 -14 -9 -26q-5 -2 -24.5 -0.5t-26.5 0.5 q-4 -268 -6 -460q-2 -154 -2 -229v-33q1 -71 1.5 -128t0.5 -64q0 -110 -23 -192q-13 -49 -45 -90t-76 -68q-36 -25 -94 -30h-21q-45 0 -77 16q-26 15 -35 42t0 54q12 47 90 47h16q13 0 30.5 -12t30 -18.5t32.5 8t43 59.5q21 46 26 145l-41 -18q-47 -10 -53 -10 q-31 -6 -54 -6q-19 0 -32 4q-80 20 -139 96q-83 117 -95 346q-6 74 -6 143zM133 588q0 -84 6 -158q2 -38 7.5 -75t20 -81.5t35.5 -76.5t56 -52q30 -17 67 -17q7 0 15 1q51 4 71.5 9t36 19t23.5 19q18 469 18 595q0 3 -1 7q0 119 -21 142q-26 26 -72.5 43.5t-89.5 17.5 q-29 0 -69 -16q-28 -15 -47 -38.5t-28.5 -57t-13 -57t-6.5 -62.5q0 -3 -1 -12t-1 -13q-6 -65 -6 -137z" />
<glyph unicode="h" horiz-adv-x="790" d="M59 1452q-2 6 -2 11q0 6 3 10q6 8 13 9.5t21 2.5q48 10 170 10q2 0 7 1t9 1t7 -2q6 -4 8 -9t1 -10t1 -12q0 -2 8 -17.5t4 -27.5q-20 -2 -61 -2q4 -125 5 -177t1.5 -100t1.5 -122q123 55 174 55q64 0 115 -26t73 -80q24 -60 38 -139t18 -132.5t8 -144.5v-64 q0 -108 -2 -159q0 -14 -1 -44t-1 -44v-162h29q12 0 16 -8t4 -25v-27q1 -2 3 -8q3 -7 4 -11q0 -3 -1 -7q-11 -1 -37.5 1t-47.5 5l-21 2q-1 0 -20 -2t-32.5 -0.5t-17.5 8.5q-3 2 -4 7.5t-1 11t0.5 12.5t0.5 8q-1 5 -4.5 17t-3.5 18q10 2 24 2q0 45 2 74q4 180 4 317 q0 151 -12 270.5t-31 153.5q-15 31 -49 47q-25 12 -50 12q-9 0 -19 -2q-122 -18 -166 -49q-19 -177 -19 -831q36 4 43 -8q7 -7 6 -36.5t7 -39.5q-13 0 -38 2t-36 2h-100q-14 0 -18.5 7t-6.5 26q-1 4 -1 12.5t-1 11.5t-3 9.5t-2 9t1 10.5q6 0 20 -1t23 -1q-3 20 -3 84 q0 54 2 138q5 186 5 220q2 205 2 336q-1 32 -1 60q0 140 -1.5 271.5t-1.5 141.5q0 8 -2 16.5t-2 16.5q-2 16 -2 47h-6h-35q-5 2 -19 43z" />
<glyph unicode="i" horiz-adv-x="354" d="M55 8q6 15 6 33q0 1 -1 8t-0.5 12.5t3.5 8.5q2 6 23 6l29 930q-37 -4 -52 -2q0 1 2 27.5t5.5 44t9.5 16.5q4 -3 31 4q48 0 71 2q14 0 39 -1t39 -1q29 0 43 -2v-33q-1 -5 0 -23q0 -9 0.5 -14.5t-0.5 -7.5q-8 -10 -27 -10q-5 1 -15 1t-15 1q-8 -85 -13 -405.5t-14 -514.5 q39 0 47 -8q4 -4 5.5 -11.5t1.5 -16.5t1 -13q0 -1 4 -12.5t3 -18.5h-33h-62q-14 0 -41 -1.5t-49 -1.5t-41 3zM161 1331q6 1 12 1q33 0 62 -30q24 -24 24 -48q0 -13 -7 -25q-18 -34 -86 -47h-4q-11 0 -31 8q-27 36 -27 56q0 76 57 85z" />
<glyph unicode="j" horiz-adv-x="317" d="M-231 -274q-9 19 -9 36q0 26 25 45q15 13 42.5 17t47.5 -2q6 -3 30 -23.5t42 -19.5q57 4 86 137q8 30 12.5 66.5t5.5 59t1.5 70.5t0.5 62q1 40 4 120t4 120q1 61 3.5 183.5t3.5 184.5q0 25 1 72.5t1 71.5q0 39 -2 55q-5 30 -5 41q-24 -4 -34 -2q-2 6 -2 18q-4 5 -8 22.5 t-1 22.5q21 6 119 11q11 1 36.5 -0.5t33.5 -1.5q28 0 35 -7q4 -4 5.5 -14.5t1.5 -23t1 -15.5t1 -5q0 -8 -8 -10q-2 -1 -6 -2l-4 -1q-10 -2 -22.5 0.5t-20.5 1.5q0 -17 -2 -25v-6q-3 -226 -34 -991l-21 -125q-16 -100 -86 -156q-68 -54 -138 -54q-46 0 -93 24q-3 2 -11.5 7 t-12 7.5t-9.5 8t-10 11.5q-4 4 -4 9zM74 1255q0 32 20 43h-2q6 3 12 4.5t10 1.5q1 1 2 1q4 0 9 -2q6 -2 8.5 -3t9.5 -4t9 -4l22 -20q4 -12 4 -23q0 -25 -20 -45q-17 -14 -35 -14q-21 0 -39 18q-10 23 -10 47z" />
<glyph unicode="k" horiz-adv-x="800" d="M55 1432q0 11 6 22t13 12q4 3 15.5 5t14.5 4q8 1 26.5 2t27.5 2q10 0 52 5q19 2 31 2q15 0 19 -3q6 -1 10.5 -9t6.5 -15t4.5 -18.5t3.5 -13.5q0 -5 -1.5 -8.5t-5.5 -4.5t-6.5 -1.5t-9 0t-8.5 0.5q-6 -1 -21.5 0.5t-21.5 1.5q-12 -197 -16 -330q-2 -78 -2 -154 q-1 -54 1 -108q2 -129 3 -133l-2 -67q115 129 205.5 232t125.5 143t47 53q-37 0 -43 2q0 3 -2 28t-2 31q0 4 1.5 7t3.5 4.5t6 2t6.5 0.5h8.5h9q73 8 124 8q22 0 40 -1v-19q0 -3 1 -18q2 -15 2 -25v-6q0 -6 -1 -10q-6 -1 -13.5 -1t-15.5 0.5t-12 0.5h-10l-250 -371 q29 -69 129 -338q13 -38 45 -133t53 -150h31q23 3 35 0q5 -18 0 -59q-4 -2 -47.5 -1t-48.5 1q-8 0 -32 -1.5t-44 -1.5t-33 3q-3 26 0 53q6 2 43 2q-23 67 -31 86l-194 471q-33 -23 -70 -72.5t-43 -54.5q-1 -18 -1 -42q0 -71 6 -183q6 -150 5 -184q8 2 21 2q32 0 39 -4 q9 -7 13 -31.5t1 -38.5q-25 -4 -116.5 -4t-125.5 4v37q0 19 2 27q1 0 23.5 1t26.5 1q-1 91 -3.5 234.5t-4 217.5t-3 186.5t-2 172t-0.5 141.5v74v56q0 46 1 99t3 88t5 62q-43 0 -52 -2q-1 5 -1 15t-1 14z" />
<glyph unicode="l" horiz-adv-x="339" d="M66 1454q11 7 55 12q61 7 108 7q3 0 11 0.5t12 0.5t9 -2t7 -6q8 -8 15 -41v-5q0 -23 -25 -29q-8 -2 -22 -2q0 -63 -4 -171l-5 -135q-4 -83 -9 -321t-5 -291v-88q0 -141 -6 -317q2 0 6.5 1t7.5 1q28 7 37 0q3 -2 5 -8.5t3 -16t1 -17t-0.5 -17t-0.5 -11.5q-51 -4 -90 -4 q-56 0 -86 8q-12 3 -16.5 7.5t-7.5 17.5q-2 6 -1.5 16t3.5 16q28 4 38 4q0 7 1 149v80q0 64 -1 66q-4 218 -4 314q0 184 9 362q4 18 4 60q0 24 -4 72t-5 63q-4 86 -4 125v30q-5 0 -13.5 -0.5t-16 -0.5t-13.5 1q-1 5 0 17.5t0 17.5q-2 8 -2 15q0 12 9 20z" />
<glyph unicode="m" horiz-adv-x="1222" d="M57 58q0 1 -0.5 2.5t0.5 2.5q15 3 33 3q4 126 7 234t4.5 182.5t2 142t0.5 104.5t-1 78t-1.5 53.5t-2 41.5t-1.5 32v8q-33 0 -35 2q0 8 4 23t5 20q1 7 1 19.5t1 17.5q7 1 25.5 5t27.5 5q26 4 41.5 4t21.5 -4q12 -8 25 -56q0 -2 0.5 -3t1 -3t0.5 -3q90 57 166 57 q23 0 55 -8q80 -25 115 -55q12 -10 21 -22t12.5 -16t10 -3.5t19.5 8.5l62 51q65 45 131 45q37 0 70 -16q52 -21 104.5 -75.5t65.5 -105.5q18 -35 32.5 -303t16.5 -458q11 0 18 -1.5t14.5 -4t16.5 -3.5v-28q0 -1 1 -7t1 -11t-2 -7q-4 -12 -45 -12q-14 -1 -34 -1q-47 0 -128 5 q-1 6 -1 18.5t-1 18.5q0 3 -4.5 14.5t-3.5 16.5q34 4 49 8q-2 52 -6.5 217.5t-8.5 286t-8 147.5q-3 22 -12.5 51.5t-27 61.5t-39 56.5t-51 37t-60.5 4.5q-55 -16 -87.5 -72t-43.5 -121q4 -188 8 -336.5t7 -239.5t3 -106h19q31 0 35 -2q4 -12 4 -18t-4.5 -23t-4.5 -18 q-10 -4 -56 -6q-28 -1 -52 0h-30q-35 1 -44 0q-2 0 -9.5 -1t-13 -0.5t-8.5 3.5q-2 4 -2 18q0 19 -4 31q-10 10 -8 16q9 0 66 5q-6 171 -7 342t-1.5 247.5t-4.5 85.5q-11 66 -55 127.5t-108 65.5q-8 1 -17 1q-56 0 -90 -37q-39 -42 -49 -110q0 -598 -6 -718q33 7 57 2 q2 -24 2 -42t-2 -30q-4 0 -55.5 -4t-87.5 -6h-21q-19 0 -28 2v35q-1 3 -2.5 12t-2.5 12l-3 3t-3 4z" />
<glyph unicode="n" horiz-adv-x="778" d="M57 991q-1 8 2.5 22t3.5 19q1 3 1 9.5t1 11t5 6.5h170l-4 -86q1 3 8.5 11.5t25 22t43 22.5t63.5 13q11 1 22 1q29 0 63 -7q54 -11 90 -39t55.5 -73.5t28 -87t14.5 -105.5q25 -238 25 -428q0 -138 -10 -233q36 4 55 2q2 -24 2 -42t-2 -30q-9 -1 -27.5 -1t-27.5 -1 q-15 -2 -52.5 -0.5t-52.5 0.5h-33q-6 2 -7 6l-1 4q0 28 -2 33l-6 18q28 4 45 4q6 147 6 287q0 199 -6 291q0 6 -1 17t-1 18q-3 53 -7 85t-21.5 76t-49.5 72q-38 21 -82 21q-94 0 -135 -70l2 2q-21 -31 -31 -69.5t-10 -73v-74.5q-2 -51 -2 -129q1 -85 3 -203q6 -225 5 -241 q6 -2 16 -2.5t16.5 -2t8.5 -6.5q1 -5 -6 -45q0 -2 0.5 -6t0.5 -6t-1.5 -5t-5.5 -5q-1 -1 -3 -1q-5 -1 -14 3q-13 4 -18 4q-2 -2 -30.5 -1t-30.5 1q-52 0 -78 4q-5 11 -5.5 20.5t2.5 24t3 19.5q10 2 41 2q-4 259 -4 529q0 193 2 390q-52 0 -62 2z" />
<glyph unicode="o" horiz-adv-x="673" d="M57 399v47q0 203 31 347q18 80 65 143t119 96q46 17 80 17q50 0 101 -20.5t84 -55.5q81 -37 82 -426q0 -23 -1 -46q-2 -188 -12 -259q-7 -81 -45 -142q-23 -43 -125 -75q-47 -15 -80 -15q-13 0 -37.5 6t-31.5 7q-65 9 -112 45t-71.5 91t-35.5 114t-11 126zM154 479 q0 -103 14 -162q14 -74 43 -124t90 -80q27 -12 53 -12q39 1 74 29q57 46 70 118q6 34 6 82q0 14 -1 41t-1 41q-2 25 -2 71q1 25 1 51q0 97 -9 216v22q0 33 -2 53.5t-10.5 46.5t-28.5 42.5t-52 25.5v-2q-25 7 -48 7q-91 0 -146 -114q-32 -73 -49 -241q0 -17 -1 -54.5 t-1 -56.5z" />
<glyph unicode="p" horiz-adv-x="731" d="M57 -328q1 5 1.5 7t2.5 4t4.5 2.5t8.5 1.5q29 0 45 2v296q0 884 16 1078h-14q-18 -3 -37 0q10 30 2 57q-1 3 -3 10.5t-3 10.5l-4 3q-5 3 -6 5q-1 4 -1 4.5t4 0.5t7 1q11 3 22 5t26.5 2t26.5 -0.5t36.5 -2t41.5 -2.5q2 0 8 -1t7 -1v-2q0 -4 -3.5 -17.5t-4 -22.5t5.5 -26 q137 31 176 31q33 0 57 -8q36 -12 70 -41t55 -65q72 -138 72 -328q0 -43 -4 -113v-86q0 -107 -10 -158q-19 -112 -80 -184q-40 -53 -96 -83q-50 -25 -104 -25h-15q-6 -1 -12 -1q-26 0 -51 14q-32 16 -75 50q0 -6 -1 -32t-1 -31l-8 -334q44 5 57 2q1 -13 -1 -27t-6 -31.5 t-5 -27.5q-10 -2 -29 -2.5t-24 -1.5q-33 -2 -94 -2q-41 0 -47 2q-7 4 -11 24q0 5 -1 20q-1 9 -1 15v8zM221 337q0 -12 0.5 -16.5t1.5 -15t2 -16t2.5 -15t3.5 -16t5 -14.5t6 -15q78 -84 158 -84q29 0 59 11q79 57 102 198q19 109 19 256q0 76 -7 172q-15 105 -69 174 q-37 56 -98 56q-34 0 -78 -23q-47 -23 -64.5 -64.5t-25.5 -105.5q-15 -99 -15 -287q0 -81 -2 -118v-31v-15v-16v-15z" />
<glyph unicode="q" horiz-adv-x="698" d="M55 453q0 308 76 473q36 85 131 114q24 4 43 4q69 0 209 -88q-16 94 -16 107v6q16 4 176 8v-37q0 -4 0.5 -11t1 -12t-0.5 -11t-3 -9q-1 -3 -2.5 -5.5t-5.5 -4t-6 -2t-8 -1.5t-7 -1h-25q0 -16 -1 -47.5t-1 -44.5q-4 -70 -4 -109q-10 -505 -10 -706q0 -93 2 -121 q0 -6 1 -17.5t1 -17.5q0 -10 15 -78q4 -17 30 -35q5 -2 16 -7t20 -9.5t15 -9.5q25 -25 25 -49q2 -9 2 -17q0 -17 -9 -30q-14 -20 -42 -23h-6q-34 0 -74 16q-43 22 -61 54q-31 57 -37 88q-19 69 -19 140q0 32 4 65q-108 -33 -149 -35l-33 6l-47 8q-18 8 -59 42.5t-43 39.5 q-15 18 -40.5 58t-29.5 63q-29 119 -29 246zM164 453q0 -108 29 -224q26 -95 96 -114q22 -7 41 -7q12 0 23 2q29 8 48 18.5t33 30t20 30.5t9 20q6 27 11 190.5t5 298.5q0 98 -8 138l-2 6q-25 39 -61.5 67.5t-73.5 28.5q-54 0 -86 -59q-21 -39 -37 -105l-2 -18 q-34 -119 -39 -189q-6 -59 -6 -114z" />
<glyph unicode="r" horiz-adv-x="653" d="M57 1116q7 0 59 6q20 2 39 3q32 0 64 -7q-3 -11 -2 -45t8 -47q24 21 42 33t60 22q23 6 49 6q20 0 42 -4q42 -6 108.5 -44.5t69.5 -73.5v-7q0 -32 -16 -58q-18 -29 -54 -36q-14 -5 -37.5 -4t-37.5 8q-33 11 -50 31q-3 5 -9 23.5t-15 25.5q-13 12 -27.5 12t-23.5 -4.5 t-25 -15.5q-4 -3 -6 -4q-55 -38 -55 -76l-13 -749v-17h6q32 0 35 -10q5 -9 7.5 -20.5t3.5 -31.5t2 -30q-23 0 -84 -2t-97 -2q-1 3 -1 12.5t-1 12.5q-3 6 -4 27t-4 32q25 0 37 2q0 14 -3 42t-3 50q1 13 1 67q0 95 -2 317q-4 348 -11 487q-4 -1 -17.5 -4t-18 -3.5t-10.5 2.5 q-2 3 -2 12t1 20t1 13q0 1 -3.5 12t-2.5 17z" />
<glyph unicode="s" horiz-adv-x="653" d="M61 137q-4 14 -4 27q1 30 23 52q32 32 80 32q41 0 59 -27q4 -5 14 -27t19 -30q24 -26 60 -33q13 -2 25 -2q22 0 42 8q31 13 54.5 37.5t27.5 54.5q2 11 2 23q0 41 -20 81q-25 52 -70 97t-92.5 85t-94.5 82.5t-67 74.5q-51 74 -51 166q0 47 23 101t59 87q78 70 184 70 q77 0 121 -29q20 -12 38.5 -29t33.5 -41t9 -51.5t-38 -52.5q-16 -13 -49 -13q-8 0 -17 1q-36 3 -67 34q-4 5 -11.5 15t-15 18.5t-14.5 14.5q-20 15 -37 12q-12 -2 -35 -25q-16 -13 -29 -32q-2 -3 -6 -15t-6 -14v2q-8 -29 -8 -55.5t4.5 -47.5t17 -43t24 -37.5t32.5 -35 t35 -30.5t38 -30l41 -32q167 -140 197 -263v5q5 -24 5 -51q0 -31 -6 -65q-12 -66 -40 -106q-30 -38 -86 -73q-54 -31 -133 -31q-46 0 -90 12q-43 11 -107 52.5t-74 76.5z" />
<glyph unicode="t" horiz-adv-x="616" d="M43 1038q14 2 69.5 5.5t80.5 9.5q9 12 9 51t-9 106q-7 0 -28 4t-32 3q-8 24 -8 44q0 10 2 19q5 15 7.5 17.5t21.5 5.5q94 8 143 8l-2 -2q6 0 6 2q2 -5 2 -19t-1 -40.5t-1 -45.5q0 -15 -0.5 -42.5t-0.5 -47.5t1 -33v-28q15 -3 95 -3h22q61 0 76 3v-101h-74q-88 0 -119 -2 q-8 -136 -8 -229q0 -123 8 -207q2 -28 5 -61t7.5 -72t6.5 -59q12 -78 12 -80q2 -11 4 -32.5t4 -31.5q3 -22 23 -28q9 -4 18 -5t12.5 0.5t15.5 7.5t15 7q24 12 29 12h32q30 0 50 -33q12 -19 12 -42q0 -17 -7 -39q-16 -48 -57 -56q-17 -4 -35 -4q-70 0 -143 59q-19 14 -37 50 q-25 48 -39 122q-24 143 -28 357v362q-32 1 -52 0.5t-32 -1.5t-26.5 0t-35.5 5q-10 17 -12 33q0 35 -2 51z" />
<glyph unicode="u" horiz-adv-x="899" d="M56 1030q-2 14 -2 23q0 11 3 18q6 2 20.5 2.5t18.5 1.5q60 4 90 8q16 4 40.5 3.5t33.5 -13.5q23 -41 23 -63q0 -8 -2 -9l-15 -4h-22q-25 -441 -25 -551v-49q-1 -14 -1 -26q0 -87 24 -140q22 -43 30 -53q17 -14 55.5 -29.5t86.5 -15.5q61 0 108 23q21 12 39.5 35t24.5 45 q27 69 30 151v109v147q0 13 -1 40t-1 42q-4 163 -16 272q-2 0 -12.5 -2t-16.5 -4q-1 3 4 19v28q-1 5 -7 17.5t-5 21.5q12 3 25.5 4t31 1t27.5 1q75 12 107 12q7 0 12 -1q5 -33 6 -37q1 -3 6.5 -19t5.5 -18q-2 -12 -41 -12v-56q-1 -97 -1 -182q0 -396 12 -532q4 -53 4 -181 q10 2 28 2q29 3 58 0q1 -2 1 -6q0 -5 -2 -12q-3 -12 -3 -14q0 -27 -2 -37q-2 -5 -5.5 -8.5t-9 -5.5t-10.5 -3t-12.5 -1.5t-12 -0.5h-11.5h-9q-14 1 -58 -5q-28 -4 -48 -4q-11 0 -21 1v25q0 1 1 2t1 2l-6 61q-34 -8 -81 -29q-46 -22 -86 -34q-30 -9 -60 -9q-10 0 -19 1 q-59 5 -129 41q-47 24 -80 77q-21 26 -41 99q-28 78 -28 538q0 47 0.5 95t1 79.5t0.5 36.5v23v28q-25 -4 -35 -2q-18 5 -22 33z" />
<glyph unicode="v" horiz-adv-x="716" d="M63 1034q-6 16 -6.5 26t6.5 13q1 2 21 2q14 2 37 2q55 5 91 5q18 0 32 -1q24 0 26 -2q4 -2 4 -8q10 -31 11 -35q1 -12 -2 -16.5t-17 -9.5q-1 -1 -28 -6q4 -50 24.5 -183t26.5 -184q50 -387 63 -422q17 50 33.5 131.5t24.5 135.5t23 169t18 140q4 28 11.5 112.5 t16.5 118.5h-47q-4 3 -5 15t1 16q-1 4 -2 18t-6 21q82 0 160 4q16 2 32 2t33 -2q13 0 17 -9q0 -6 -5 -26q0 -21 -2 -31q-5 -11 -30 -11q-14 0 -33 3q-99 -555 -130 -929q-7 -73 -11.5 -89.5t-24.5 -21.5q-8 -8 -43 -10q-28 -2 -55 -2h-13q-33 0 -34 1q-147 784 -172 1026 q-25 0 -33 -2q-13 10 -13 39z" />
<glyph unicode="w" horiz-adv-x="1179" d="M57 1024q-2 0 -2 5t2 13q3 13 11 17q14 5 29.5 7t35 3t29.5 2q31 4 94 4h4q14 -2 19 -12q0 -6 2 -10q2 -3 0.5 -19.5t-0.5 -19.5q6 -17 -15 -23q-14 -7 -33 -4q6 -30 33 -174q84 -459 101 -528q62 252 153 737q41 0 66 -2l33 -3l16 -1q20 -72 78 -350t108 -435 q7 23 35.5 217.5t34.5 223.5q12 61 29.5 178t25.5 154q-35 -5 -39 -5v25q0 1 -1 12t-0.5 18.5t3.5 10.5h21q6 1 20 2t21 2q37 2 110 2q3 0 9 0.5t9.5 0.5t7.5 -1t5.5 -4t1.5 -8q0 -21 4 -33q5 -12 5 -15q-1 -3 -3 -5q-4 -3 -12 -5q-19 -4 -61 -8q-18 -166 -98.5 -545.5 t-106.5 -439.5h-68q0 26 -53 238q-47 192 -135 510q-1 -4 -41 -160t-64 -259.5t-37 -180.5q-16 -105 -28 -154q-2 -2 -64 -2q-20 60 -26 74l2 -2l-62 268q-79 358 -145 623l-2 17v1l-2 4h-43q-9 0 -13 -2q-4 4 -4 17.5t4 35.5q-1 -12 -4 -12z" />
<glyph unicode="x" horiz-adv-x="823" d="M59 0q-4 21 -4 34q0 17 6 23q9 9 41 9q3 0 9 1t8 1q14 29 73.5 151t98 203t43.5 98q-1 28 -68 197.5t-125 294.5q-37 -9 -61 -6q-3 1 -5 5t-2 7.5t0.5 9t0.5 6.5q0 3 -2 17.5t-2.5 23.5t2.5 17q26 -1 119.5 -1.5t140.5 -5.5q2 -3 2 -9t-2.5 -20.5t-4 -22t-3.5 -13.5 q-2 -10 -56 -10q8 -21 35.5 -102t52 -139.5t50.5 -92.5q31 50 82 175t71 161h-16q-2 0 -14 -2.5t-15 -1.5q-8 5 -8 14q-6 12 -9 33t5 30q3 3 60.5 3t111.5 -2h34q30 0 48 1q8 -10 11 -29q1 -4 1 -8q0 -14 -8 -24q-5 -3 -13 -4t-15 -1t-16 0.5t-11 0.5h-11 q-103 -208 -152 -315.5t-79 -200.5q19 -39 106 -209.5t115 -228.5q34 0 41 -2q14 -2 20 -21q0 -4 1.5 -14.5l2.5 -17.5t-1 -13q-8 -1 -27.5 -2t-28.5 -2q-20 -1 -43 -1t-51 0.5t-43 0.5q-20 0 -23 6q-1 3 -1 7t0.5 9t0.5 7v30q17 0 41 4q-110 203 -161 334 q-72 -118 -174 -323q21 -4 24 -11q5 -13 6 -22.5t0.5 -16t-6 -10.5t-9 -6.5t-14 -3t-15 -0.5t-17.5 1t-17 1q-16 1 -46.5 -0.5t-41.5 -1.5q-22 -4 -43 0z" />
<glyph unicode="y" horiz-adv-x="788" d="M57 1112q4 0 27.5 3.5t49.5 6.5t56 6.5t46 4.5q7 1 11.5 1t6.5 -1q16 0 22 -19q12 -28 9 -43q-24 -8 -56 -8v-55q0 -26 -1 -69t-1 -52q-3 -34 -5 -101q-2 -36 -2 -87q0 -41 1 -91q2 -111 12.5 -207t39.5 -174.5t75 -93.5q15 -5 33 -5q16 0 35 4q40 7 61 22q24 17 40 50 t23.5 81.5t10 75t4.5 73.5q4 62 4 90q0 9 -1 30.5t-1 31.5v116q4 50 4 158v162h-14q-33 -4 -51 -2q0 7 -8 20.5t-9 16.5q0 2 -1.5 10.5t-3.5 15.5t-5 11q155 20 231 20q4 -1 6 -6t4.5 -12t4.5 -11q16 -22 16 -43v-6q-6 -1 -14.5 -1t-18.5 0.5t-14 0.5h-4q-6 -198 -6 -229 q4 -143 4 -430q0 -44 4 -137t4 -144q0 -56 -10 -121q-18 -95 -47 -143q-47 -71 -103 -100q-37 -19 -80 -19h-12q-3 0 -17.5 3t-21.5 3q-16 -2 -35 7q-38 14 -66 42q-17 17 -17 35q0 12 8 25q14 26 52 39q19 7 35 7t29 -7q7 -3 20.5 -14.5t22.5 -12.5q8 -2 15 -2q49 0 84 78 q16 30 26 76q6 20 9 43q0 38 2 39q-102 -81 -197 -81q-25 0 -49 5q-118 27 -162 158h-2q-3 8 -10.5 23.5t-11 24t-7 21.5t-4.5 25q-8 33 -8 67q0 31 -2 43v-2q-3 57 -8 340v86q-6 74 -6 250v25q-8 -1 -25 -4t-25 -4q0 9 -3 29q-3 16 -3 27v5z" />
<glyph unicode="z" horiz-adv-x="671" d="M57 1092q81 14 181 18q62 2 108 2h54q28 -1 54 -2q31 0 60 2q31 0 51 -2q-36 -132 -211 -635q-25 -71 -62 -167.5t-57.5 -151.5t-21.5 -64l51 8q21 -1 41 0q60 0 113 6q3 0 36.5 3.5t51.5 4.5q-1 4 1.5 25.5t4.5 26.5q18 6 35 0q3 -1 16.5 -4t25 -5.5t15.5 -2.5l12 -168 q-26 -1 -34 0h-27h-115q-134 -2 -331 -6q-2 0 -6 -1.5t-5 -1.5l-37 -4q3 21 25 76l14 33l33 92q10 29 96.5 262.5t133.5 368.5t57 186q-33 5 -79 5q-36 0 -81 -3q-70 -8 -102 -8q5 -38 2 -49q-9 3 -32.5 0t-37 -5t-18.5 5q-6 75 -6 94q0 16 -4 32q-6 20 -5 30z" />
<glyph unicode="{" horiz-adv-x="544" d="M57 764q3 45 35 80q14 21 43 43v-2q62 55 80 119q14 39 14 145q0 5 -1 15.5t-1 15.5q-2 27 -2 75q0 85 25 134v-3q12 22 38 43.5t52 30.5q18 6 59 10h15q37 5 39 13q8 -16 8 -74v-31q-55 0 -80 -12q-59 -35 -59 -137q0 -34 8 -84q0 -3 1 -7t1 -5q13 -170 -78 -293 q-6 -5 -14 -13q-19 -19 -28 -28.5t-17.5 -25.5t-4.5 -28h-2q3 -17 25 -47q3 -3 9 -7.5t7 -6.5q17 -8 54.5 -68.5t42.5 -76.5q24 -54 32 -170v-80q0 -66 4 -80q16 -45 36.5 -70t62.5 -33l-6 3q20 -3 28 -3q4 0 4 3q4 -35 -2 -76q1 0 -1 -1q-1 0 -3 -1q-7 -1 -40 -3l-31 -3h4 q-89 0 -123 61q-41 78 -51 199q-2 23 -2 77q1 36 1 67.5t-7.5 65t-22.5 60.5q-12 18 -30 35.5t-27 24t-35 24.5h2q-26 21 -44.5 57.5t-17.5 67.5z" />
<glyph unicode="|" horiz-adv-x="210" d="M56 23q-1 55 3 88q7 162 7 417q3 308 -7 840v107q0 5 -0.5 19.5t-1 27.5t0 27t2.5 23.5t6 12.5q16 10 49 10q2 0 8.5 0.5t9.5 0.5t8 -2t8 -5.5t5 -10.5t2 -17q0 -1 -6 -172v-363q0 -62 -4.5 -183t-4.5 -181q0 -43 3 -173.5t1 -201.5q-3 -72 0 -150q0 -13 1 -50t0.5 -64 t-3.5 -50q-6 -8 -12 -13.5t-16 -8.5t-13.5 -3.5t-17 -1.5t-14.5 -1q-13 23 -14 78z" />
<glyph unicode="}" horiz-adv-x="538" d="M63 1372h3q-14 5 -3 62q4 16 37 12h15q47 0 90 -18.5t65 -55.5q15 -28 25 -63t13 -59t7 -68q4 -53 8.5 -84.5t20 -75t43.5 -80.5l29 -33q69 -82 65 -131q-4 -48 -65 -121q-44 -51 -58 -73q-32 -60 -32 -152q0 -56 6 -96q0 -5 3 -40.5t3 -53.5q0 -88 -39 -140 q-45 -56 -123 -79v2q-50 -13 -61 -13q-7 0 -15 -4q-4 36 -4 58q0 17 4 53q94 12 129 88q7 48 7 182q-1 66 0.5 106t13.5 93.5t37 91.5q1 2 4 5.5t9 9.5t11 12q16 17 20.5 22t15.5 19.5t11.5 22.5t0.5 20.5t-10 25t-27 25.5q-76 59 -93 190q-4 62 -4 90q-4 112 -14 148 q-12 42 -38.5 61.5t-66.5 28.5v-2q-4 2 -16 5.5t-27 8.5z" />
<glyph unicode="~" horiz-adv-x="839" d="M59 651q2 8 12.5 20.5t12.5 14.5q10 10 16 19q0 3 6 6q13 9 29 16q6 3 18 8.5t15 7.5q44 18 61 21q90 17 152 -33l8 -4q65 -51 131 -74q82 -19 111 19q9 13 22 57q0 15 4 19q2 3 15 16q11 18 30 18h31q15 -3 27 -12q2 -2 6 -5.5t7.5 -7t6.5 -7.5q4 -6 4 -27q0 -23 -2 -35 q0 -7 -4 -31l-6 -12q-4 -4 -6 -8q0 -2 -2 -4q-4 -12 -12 -15q-2 0 -15 -14q-15 -11 -22 -14t-19.5 -10.5t-23 -12.5t-19.5 -8q-38 -14 -84 -14q-54 0 -115.5 20.5t-107.5 50.5q-59 39 -113 39q-6 0 -18 -1t-18 -1t-11.5 -6t-7.5 -12q-1 -3 -6.5 -14.5t-7.5 -18.5 q-12 -25 -27 -31q-24 -14 -47 2q-6 4 -10.5 9.5t-10 16.5l-6.5 13q-11 14 -4 39z" />
<glyph unicode="&#xa1;" horiz-adv-x="313" d="M55 -522l23 262q2 28 4 86.5t4 83.5q1 13 2.5 27.5t2.5 23.5t1 12l4 111q6 173 18 410.5t15 246.5v39q4 4 35.5 0.5t46.5 -6.5q19 -3 37 -504q10 -186 8.5 -483.5t-0.5 -312.5q0 -3 -44 -4t-94 1t-63 7zM115 934q-7 25 8 56.5t43 37.5q50 11 76 -25.5t9.5 -79.5 t-67.5 -49q-27 -3 -44.5 15t-24.5 45z" />
<glyph unicode="&#xa2;" horiz-adv-x="706" d="M57 692v72q-2 136 20 240t95 174q72 69 188 69q34 0 105 -21t96 -40q58 -42 61.5 -91t-61.5 -77q-35 -16 -75.5 -11.5t-47.5 33.5q-11 51 -41 77.5t-66.5 24.5t-70.5 -30q-12 -10 -21.5 -21.5t-17.5 -27t-13.5 -27t-10.5 -32t-7.5 -31t-5.5 -34t-4 -30t-3.5 -32 t-2.5 -27.5q-4 -75 4 -210t8 -185q0 -44 2 -64q0 -8 1 -24t1 -25q3 -36 7 -60t13.5 -58.5t29.5 -58t49 -34.5t68 -4t59 29q14 14 25 42.5t25.5 48t43.5 23.5q42 6 85.5 -6.5t51.5 -46.5q9 -34 -6.5 -68.5t-46.5 -61t-65.5 -46.5t-67.5 -31q-47 -15 -94 -21t-99 3t-86 39 q-28 25 -48 65.5t-27 70t-17 79.5q-14 70 -21.5 159t-8.5 132t-3 155zM238 -105q0 54 6 87q8 135 8 409q6 322 -8 821v105q0 3 -2.5 34t-0.5 50.5t11 23.5q27 11 74 11h10.5h11.5t10.5 -1t11 -3t7.5 -6t6 -10.5t2 -14.5q0 -32 -3.5 -91t-4.5 -77v-356q0 -59 -6 -178t-6 -179 q0 -43 4.5 -169.5t1.5 -196.5q-6 -70 0 -146q0 -11 1 -49t0 -64t-5 -49q-9 -8 -18.5 -13t-23.5 -7.5t-20.5 -3.5t-25 -1.5t-21.5 -0.5q-20 21 -20 75z" />
<glyph unicode="&#xa3;" horiz-adv-x="897" d="M55 629q0 18 19 18q67 0 125 4l-9 453q-2 14 -2 39q4 180 91 260q37 37 73 57q41 21 115 25q39 0 57 -2q6 0 17.5 0.5t21.5 0.5t19 -1q5 0 11 -2t13 -6t10 -5q21 -7 35 -14q9 -6 33 -26q21 -21 21 -62q0 -23 -7 -37q-1 -2 -4 -7t-4 -7q-4 0 -6 -2q-4 -8 -6 -10 q-4 -3 -15.5 -8.5t-15.5 -8.5q-6 -2 -16 -2l-10.5 -3.5t-10.5 -2.5h-14q-6 -2 -16 -2q-17 0 -33 8q-10 5 -18.5 13.5t-18.5 20t-16 17.5q-11 15 -25 17q-22 10 -47 -11l2 3q-53 -33 -72 -99v2q-30 -88 -30 -155q-6 -336 -3 -373v-16q0 -3 1.5 -19t1.5 -18l186 -23h35 q8 0 8 -10q4 -29 0 -53l-8 -56q0 -2 -13 -2h-8q-47 0 -93 4t-69 8l-22 3l-8 -70q-1 -10 -3 -105.5t-18 -144.5q-2 -13 -17.5 -51.5t-15.5 -48.5q44 1 84 1t84 -0.5t70 -0.5q8 0 22 1.5t26 1.5t22 -3q27 -11 45 22q5 10 10.5 31.5t7.5 26.5q8 42 25 55q12 12 28 20 q20 10 41 13q41 7 78 -13q14 -6 17.5 -16t3.5 -30v-5q0 -25 -21 -78q-7 -17 -22 -39q-12 -18 -15 -24l-20 -10q-7 -4 -29 -21q-23 -18 -61 -37q-55 -28 -125 -28l-445 6q-1 19 3 61.5t4 52.5q75 58 94 134q6 16 8.5 53.5t1.5 72.5t-2.5 71.5t-1.5 39.5q0 1 -1 3.5t-1 4.5 q0 26 -21 54q-45 0 -73.5 -0.5t-39 -1t-12.5 -0.5v2q-4 10 -4 22q-2 23 -2 68z" />
<glyph unicode="&#xa4;" d="M55 -23l56 66v-2l16 25q38 49 43 73q-68 270 -8 484q12 48 20 86q4 29 1.5 40.5t-15.5 37.5q-3 5 -4 8l-19 34q-4 6 -12.5 20t-14 22.5t-12 17.5t-10.5 12.5t-6 1.5q16 25 49 45l19 15q10 -9 43 -60q20 -36 45 -61q9 3 27.5 10t25.5 9.5t23 6.5t26 3t27.5 -2t34.5 -6.5 t41 -14t53 -21.5q25 44 58 88t38 54q21 0 55 -21q12 -4 15 -14t-3 -24t-15.5 -30t-21.5 -33.5t-22.5 -33t-16.5 -29.5t-5 -22l30 -55q37 -115 37 -255.5t-41 -263.5v2q-14 -28 -14 -71q3 -30 45 -92q3 -4 13 -17.5t18 -25.5q0 -1 1 -3.5t1 -3.5q9 -13 -12 -22.5t-74 -20.5 l-10 17q-3 5 -12.5 19.5t-19 27.5t-22.5 27q-53 -31 -109 -35t-96.5 12.5t-68.5 44.5q-28 -37 -61 -87.5t-35 -53.5l-4 4zM250 504q0 -17 0.5 -63t2.5 -75.5t7 -60.5q23 -111 80 -160q29 -23 57.5 -19.5t51.5 22.5t38 49q40 94 43.5 228t-28.5 224q-25 58 -74 78t-106 -16h2 l-21 -17q-57 -62 -53 -190z" />
<glyph unicode="&#xa5;" horiz-adv-x="851" d="M57 1507q4 10 52 13.5t92.5 2.5t66.5 1q16 2 3 -44q-3 -13 -7 -20q-22 -3 -45 4q30 -132 103.5 -333.5t101.5 -301.5q25 52 49 116.5t47.5 144.5t37 128t36 135.5t24.5 96.5q-9 -4 -18.5 -5t-24.5 0t-18 1q0 7 -1.5 34t-0.5 40h231q6 -8 9.5 -32t-4.5 -32q-3 -2 -27 -2 h-35q-94 -278 -144 -425.5t-76.5 -229t-32 -102t-7.5 -33.5q10 -478 4 -601q2 0 8.5 1t11.5 1t9 -2q10 -3 12.5 -12t0 -25t-2.5 -18q-10 -8 -80.5 -9.5t-89.5 3.5q-3 1 -6 12q-2 4 -6 13.5t-6 16t-2 13.5q24 5 53 9q-3 270 -1.5 397.5t2.5 163.5t1 37q-16 66 -125 382.5 t-135 413.5q-33 4 -45 0q-3 2 -5 11.5t-4 11.5q0 1 -3.5 11t-2.5 13zM213 483q-3 22 2 39q8 12 25 12.5t28 -2.5q24 -1 115.5 0t194.5 -0.5t104 -5.5q4 -12 4 -41q0 -36 -12 -36q-318 0 -449 12q-9 0 -12 22zM214 647.5q0 18.5 3.5 36.5t9.5 18q43 2 201 -1.5t258 8.5 q8 -1 7.5 -40t-7.5 -46q-34 0 -183 3t-284 3q-5 0 -5 18.5z" />
<glyph unicode="&#xa6;" horiz-adv-x="249" d="M55 1110l2 2zM57 1112h6q40 0 56 2q33 0 47 4q0 -33 2 -47v2q4 -69 8 -203q2 -14 2 -36t1 -67t1 -67q0 -96 2 -137v-37h-4l-45 -6h-49q-4 0 -4 4v35q-5 150 -10.5 262.5t-8 154t-4 74t-0.5 62.5zM74 416q0 2 2 2l6 2q37 2 104 2q7 -104 7 -211v-74q0 -23 -1.5 -67 t-1.5 -64v-168l-2 -6l-94 -10q-1 0 -6 1t-6 1v-2l-2 -4q-2 6 2 6q-2 18 -2 51z" />
<glyph unicode="&#xa7;" horiz-adv-x="1040" d="M55 692q0 100 56 182l-2 -2q37 58 147 101h-2q37 12 86 12h6q-31 84 -31 170q0 40 12.5 91.5t30.5 86.5q47 72 136 116t178 38q72 -6 121 -33h-2q4 0 14.5 -7.5t13.5 -12.5q0 -1 1 -4.5t1 -4.5l6 2q43 -29 62 -65l18 -33h-2q3 0 17 -41q1 -4 4 -14t4 -14q0 -9 4 -25 q8 -20 8 -33t-10 -18q0 -1 -1 -4.5t-1 -5.5q-20 -29 -66 -41q-15 -7 -41 -7.5t-41 7.5q-30 18 -43 81q-7 27 -16 89q-4 30 -14 40l-7 4q-6 4 -10 5q-48 20 -88 20q-64 0 -117 -61q-40 -46 -57 -107t-6 -121q11 -68 94 -143l-2 6l19 -24q0 -4 4 -4q22 -19 41 -44 q3 -3 100 -83q9 -8 34.5 -29.5t38.5 -33.5l32.5 -30t33.5 -34q128 -124 158 -248q8 -31 8 -64q0 -38 -8 -71q-1 -3 -4 -21.5t-3.5 -23t-4 -20.5t-5.5 -22.5t-6.5 -20t-9.5 -21.5t-11.5 -19t-14.5 -20h2q-28 -33 -77.5 -63t-94.5 -42h2q-65 -14 -113 -14h-2q55 -98 55 -189 q0 -61 -24 -108q-58 -103 -164 -158q-33 -15 -86 -12q-90 4 -123 14q-100 30 -146 72q-42 39 -55 104q-9 33 -4 63t31 54q36 42 84 33q48 -8 69 -74q4 -10 7.5 -39.5t11.5 -49.5t26 -28q2 -1 18.5 -8t23 -9t19.5 -5t23 -2q47 5 90 40t50 79q11 73 -23 153.5t-95.5 153.5 t-126 141t-125 140.5t-83.5 127.5q-33 79 -33 205zM174 629q14 -68 55.5 -138.5t81.5 -116t103 -108.5l32 -37q6 -5 27 -25.5t29.5 -28t29 -23t36 -21.5t38.5 -12t47 -6q35 0 70 12h-2q67 25 100 76t33 116q0 81 -45 154q-64 108 -195 236q-32 21 -71 63l-8 8l-31 27 q-21 13 -41 33q-11 8 -30 20l-19 12q-20 13 -47 12.5t-45 -6.5t-46 -18q-59 -28 -86 -94.5t-16 -134.5zM682 1346v6h10z" />
<glyph unicode="&#xa8;" horiz-adv-x="430" d="M54.5 1360q0.5 24 15 49t36.5 33q32 11 64 -17q19 -26 6 -58t-37 -48q-42 -11 -63.5 3t-21 38zM246 1352q-21 39 13 69q32 28 70 15q26 -10 40 -41q18 -44 -21 -64q-23 -15 -55.5 -9.5t-46.5 30.5z" />
<glyph unicode="&#xa9;" horiz-adv-x="1150" d="M55 942q0 110 22.5 278t59.5 230v-2l35 49v-2q10 10 28 29.5t33 35t31 27.5q83 60 181 93.5t192 33.5q84 0 164 -41v2q53 -28 102 -73.5t70 -90.5q91 -189 108 -387q2 -21 3.5 -77t7.5 -86v2q4 -29 4 -86q0 -85 -9.5 -169t-32.5 -176t-70 -168t-112 -118 q-146 -90 -297 -90q-24 0 -34 2l-35 6h2q-164 23 -262 121v-2q-47 52 -80 101.5t-54 105t-33 99t-17 111.5t-6 112t-1 130zM158 909q0 -199 8 -219q5 -32 24 -80q54 -150 129 -231t209 -113l-2 2q28 -8 43 -8q40 0 121 35q64 30 111.5 67t78 84.5t49.5 93.5t27.5 109 t11.5 115t3 127q0 365 -58 477l2 -2q-58 106 -135 163.5t-188 57.5q-136 0 -213 -61q-67 -47 -98 -82q-21 -23 -38 -53t-28.5 -69.5t-19.5 -70t-13.5 -80t-8 -73.5t-6.5 -76.5t-5 -65.5v2q-4 -32 -4 -49zM295 887v31q0 57 0.5 88.5t4 86t13.5 90.5t26 79t43 77t64 60 q66 47 142 47q38 0 78 -12q2 -1 13.5 -5.5t16.5 -7.5q1 0 9 -4q25 -15 32 -22q11 -6 22.5 -16.5t24.5 -38.5t13 -62q0 -27 -19 -49q-18 -24 -22 -27q-4 -2 -33 -14h-35q-19 0 -29 2q-4 2 -7 5.5t-7.5 10t-5.5 8.5q-3 7 -7 22.5t-5 18.5q-1 2 -4.5 8.5t-4.5 10.5q-1 3 -2 8 t-2 8q-2 4 -8 12.5t-8 12.5l-20 10q-2 2 -5 2h-8q-11 3 -4 10q-41 -14 -72 -58.5t-46.5 -97t-25 -120t-12 -113.5t-2.5 -92q0 -55 21 -123q16 -58 49 -100q12 -16 37 -37q11 -8 26.5 -10.5t28.5 4.5q20 15 21 16q10 9 28 35q3 5 7 10.5t9.5 11.5t8.5 9q26 26 76 14 q3 -1 9 -5t7 -5q4 -2 6 -4t4 -5t4 -5q19 -15 23 -27q12 -24 12 -41q0 -29 -4 -41q-12 -43 -41 -72q-5 -7 -17 -15.5t-16 -12.5q-3 -1 -6.5 -4.5t-5.5 -4.5q-6 0 -10 -2q-4 0 -9 -3t-7 -3q-4 -5 -34 -4.5t-34 0.5q-6 0 -17.5 -0.5t-20.5 -0.5t-17 1q-26 3 -52 19 q-10 3 -20 10q-10 5 -25 10l2 -2q-22 12 -46.5 45.5t-39.5 63.5q-41 88 -53 154t-12 155z" />
<glyph unicode="&#xaa;" horiz-adv-x="421" d="M57 1145q7 113 95 158q21 11 38.5 16t34 3t25.5 -4t27.5 -10t25.5 -10q4 6 4.5 18.5t-1 29t-1.5 20.5q0 31 -20 64q-1 2 -2.5 6t-2.5 6.5t-3.5 4.5t-6.5 3q-10 4 -22 -8q-16 -20 -17 -27q-1 -4 -2.5 -15t-3 -17.5t-6.5 -13.5t-14 -9q-17 -3 -35 1t-25 17q-16 25 0 56 q4 8 6 24t5 23q12 24 51.5 38t64.5 5q28 -9 50 -36.5t30 -60.5q15 -88 15 -110q-3 -114 -4 -259q-2 -101 -3.5 -128t-9.5 -27h-49l-4 43q-18 -9 -31.5 -17.5t-18.5 -12.5t-12 -7t-15 -4t-25 0q-37 -2 -76 41q-68 83 -62 199zM125 1110q0 -70 27 -112.5t77 -24.5 q38 19 56 59.5t18 87.5q0 24 -1.5 40.5t-7 40.5t-19 41t-35.5 26q-67 -1 -91 -42.5t-24 -115.5z" />
<glyph unicode="&#xab;" horiz-adv-x="698" d="M55 655l260 -354l-2 4l2 -2q7 -12 11 -16q35 21 57 53l-197 258q-30 46 -13 86.5t144 232.5q21 32 33 50l-59 45h-6l-27 -43q-65 -115 -203 -314zM322 664v6l256 346l61 -53q13 -10 -39 -91.5t-105 -158.5t-46 -78q97 -150 184 -291q4 -4 -2 -4l-45 -18h2q-17 -3 -37 -15 v4q-11 8 -19 19z" />
<glyph unicode="&#xac;" horiz-adv-x="1060" d="M55 682q4 0 6 -2q-2 33 -2 88q0 4 2 6q21 2 161 2q336 -1 745 0q15 0 39 -4q0 -8 -1 -30t-1 -29v-256q0 -7 -1.5 -21.5t-1.5 -21.5h-2h2q-12 -3 -55 -2.5t-47 6.5v-4q-2 0 -2 268q0 2 -68 2q-79 0 -477 -8q-237 0 -262 2q-19 0 -29 2zM1001 414l3 4q0 -1 -1.5 -2t-1.5 -2 z" />
<glyph unicode="&#xad;" horiz-adv-x="722" d="M55 584v112q0 24 8 29q2 2 11 2q22 -1 64 -2t63 -2h387q16 -2 53 -10q4 0 16 -6q7 -3 7 -21q4 -82 4 -121q0 -35 -15 -35q-27 0 -39 2q-3 1 -70 5.5t-146 9t-99 6.5q-27 2 -93.5 2.5t-90.5 -0.5q-17 0 -25 -4q-4 -2 -27 4q-8 0 -8 29z" />
<glyph unicode="&#xae;" horiz-adv-x="980" d="M55 1012q0 79 17 157l8 33q15 88 53 133q24 28 51.5 49t65 36.5t61 23.5t70.5 22q60 17 119 17q87 0 182 -31q79 -24 129.5 -83t71.5 -144q5 -23 8 -49t5 -64t3 -49q4 -64 8 -96q19 -222 19 -349q0 -75 -2 -112q0 -7 -1 -20t-1 -19q-4 -127 -29 -174q-25 -41 -35.5 -57 t-32.5 -38t-49 -36q-11 -5 -22.5 -8.5t-27.5 -6.5t-26 -5t-30.5 -3.5t-28 -2t-31.5 -2t-28 -1.5q-28 0 -60 -4q-154 0 -207 18q-65 22 -112 64q-138 115 -142 379q-4 184 -4 280v70q0 13 -1 37t-1 35zM152 948q0 -25 2 -74.5t2 -72.5q4 -74 4 -105q4 -78 4 -114 q0 -58 6 -111l4 -39q9 -61 10 -65q32 -117 135 -136h-2q46 -4 72 -4q28 0 98 4q35 5 45 5q5 0 15.5 1t15.5 1q30 1 46.5 2t49 5.5t52 10.5t45 18.5t41 29.5t27.5 43t14 59v-3q4 31 4 105q0 88 -17 301q-15 183 -16 207q-7 151 -47 229q-52 102 -113 127h2q-43 21 -112 21 q-63 0 -140 -15q-139 -26 -194 -121v3q-16 -25 -26.5 -63t-13.5 -64t-9 -84v-11q-4 -62 -4 -90zM285 1174v18q3 10 26 10h33q4 0 11 0.5t12.5 0.5t9.5 -1q20 4 35 4q106 15 174 -30q48 -34 75.5 -96t24.5 -122q-3 -120 -12 -173t-33 -89q19 -11 31 -32t18 -55.5t8 -53.5 t4 -59q0 -8 1.5 -20t1.5 -17v-8q17 4 26 2q4 -8 4 -21q1 -6 1 -16.5t1 -16.5q2 -8 2 -22v-19h-34h-52h-28q-4 0 -11.5 -1t-11.5 -1q-1 0 -9 -1t-15 -1t-9 2v15q-2 6 -6 22q-1 1 -2 5t-2.5 7t-3.5 5q-1 2 -5.5 6t-4.5 6q16 4 22 6q12 2 33 2q2 0 4 2q-12 137 -18 154 q-15 47 -46 71t-94 9q-5 -26 -7.5 -64.5t-4 -85t-2.5 -65.5v-15q5 0 19.5 2.5t17.5 1.5q1 0 2 -1q2 0 2 -2.5v-4.5v-14v-33q0 -2 1 -8t0.5 -9.5t-3.5 -5.5q-4 -4 -20 -4h-56h-26q-4 0 -10.5 -1t-10.5 -1q-16 -4 -26 -4q-7 0 -11 4t-4 11q-1 4 -1 10t0.5 13t0.5 9q0 5 -1 12 t-1 11l-2 10q1 3 3.5 4t5 1t6 -0.5t4.5 -0.5h28q-10 163 -10 383v84v58q1 26 2 77.5t2 77.5h-8h-29h-16v10q0 7 -4 7v18q0 4 -1 12t-1 11zM444 770q57 0 93 18q47 28 47 136q0 77 -33.5 135.5t-101.5 58.5l2 -41q2 -51 -2 -168q-5 -88 -5 -139z" />
<glyph unicode="&#xaf;" horiz-adv-x="772" d="M55 1473v102q0 22 8 27q4 2 13 2l135 -5h422q27 -3 57 -6q3 0 19 -8q4 -4 4 -18q4 -74 4 -111q0 -33 -15 -33q-31 0 -43 2q-6 1 -150.5 9t-189.5 10q-35 2 -200 2q-19 0 -25 -4q-6 -1 -31 4q-8 0 -8 27z" />
<glyph unicode="&#xb0;" horiz-adv-x="501" d="M57 1286q-10 74 25 133q24 39 70.5 61.5t95.5 24.5q25 1 60.5 -13.5t58.5 -31.5q28 -21 53 -67.5t24 -87.5q-4 -55 -24 -84q-32 -49 -94 -77.5t-117 -13.5q-37 6 -72 31q-24 17 -39 41q-36 51 -41 84zM197 1300q13 -18 47 -18q19 0 42.5 11.5t18.5 29.5q-5 37 -57 33 q-28 -2 -46 -18.5t-5 -37.5z" />
<glyph unicode="&#xb1;" horiz-adv-x="706" d="M56 125q1 11 4 45t3 61l578 -10q0 -4 1.5 -18.5t3 -30.5t2.5 -32.5t0 -27t-5 -10.5q-173 5 -325.5 3t-180 -4.5t-80.5 5.5q-2 8 -1 19zM63 702q0 19 84 19h21l133 6q-16 110 -16 176q0 51 2 53v-2q33 17 53 17q28 0 41 -13q1 -17 2.5 -40.5t4 -80.5t-0.5 -61l-2 -49 q8 -3 17 -2.5l45 2.5t65 2q22 0 61.5 1t53.5 1h8q4 -32 4 -65q0 -48 2 -48q-75 -12 -248 -8q13 -80 13 -141q0 -54 2 -74q0 -13 -6.5 -21.5t-14.5 -8.5q-20 0 -35 -3q-8 0 -20 -4q-23 0 -23 13q0 16 -2 51.5t-2 54.5q0 76 -4 133q-37 -4 -82 -4h-63q-61 0 -88 -2 q-5 39 -5 98z" />
<glyph unicode="&#xb2;" horiz-adv-x="350" d="M55 977q0 59 45 131q6 9 19.5 26.5t19.5 26.5q3 4 18 21t20 23.5t15 20.5t15.5 26.5t9.5 25.5q19 64 19 86q0 44 -37 63q-15 9 -31 9q-29 0 -39 -15q-8 -10 -8 -37q0 -18 -2 -24q-2 -11 -17 -14q-30 -4 -39 16q-8 12 -4 37q12 47 68 76v-2q16 8 37 8t45 -8 q65 -33 65 -117q0 -81 -55 -154q-4 -8 -10 -15.5t-13.5 -17t-11.5 -14.5q-14 -14 -37 -47v2q-15 -24 -31.5 -66.5t-13.5 -66.5q24 -6 60 -6q13 0 45.5 1t48.5 1l-2 8q-4 11 -2 16q32 5 41 0v-63q-2 -2 -8 -2q-9 -1 -45.5 0t-44.5 0q-116 0 -132 2q-8 16 -8 43z" />
<glyph unicode="&#xb3;" horiz-adv-x="395" d="M59 1489q0 4 41 7q41 2 74 5l82 2q19 0 27 -8q1 0 -1 -4t-6 -10l-24 -43q-32 -58 -59 -95l20 -8q26 -9 61.5 -36t51.5 -64q12 -35 12 -100q0 -46 -8 -78q-9 -32 -39 -78v2q-18 -29 -58 -47h3q-17 -10 -46 -10q-18 0 -28 2q-15 -3 -44 20t-49 59t-8 62q4 10 19 15.5 t29 2.5q32 -10 32 -61q0 -40 11 -52q5 -6 14 -9q32 -11 60 9.5t42 53.5q25 61 25 125v6q-2 50 -33 89t-80 46q-25 0 -37 2q-27 0 -39 2q4 9 62 95q38 59 43 71q-53 4 -80 2q-6 -2 -20 -2q0 -8 2 -12q1 -20 -3.5 -23.5t-27.5 -3.5q-4 1 -7.5 12t-6.5 26t-5 20q0 1 -1 4t-1 4z " />
<glyph unicode="&#xb4;" horiz-adv-x="270" d="M55.5 1316.5q0.5 8.5 3.5 26t4 25.5q0 2 0.5 13t1.5 20t3 22t5 22.5t7 18.5t11 14t15 5q85 -5 105 -33q7 -5 2.5 -16.5t-10 -20t-14.5 -19.5t-11 -14q-5 -9 -22.5 -44.5t-30.5 -53.5q-15 -20 -38.5 -19t-29.5 29q-2 16 -1.5 24.5z" />
<glyph unicode="&#xb5;" horiz-adv-x="899" d="M56.5 1029.5q-4.5 28.5 0.5 41.5q6 2 20.5 2.5t18.5 1.5q60 4 90 8q16 4 40.5 3.5t33.5 -13.5q23 -41 23 -63q0 -8 -2 -9l-15 -4h-22q-25 -441 -25 -551v-49q-4 -105 23 -166q22 -43 30 -53q17 -14 55.5 -29.5t86.5 -15.5q61 0 108 23q21 12 39.5 35t24.5 45 q27 69 30 151v109v147q0 13 -1 40t-1 42q-4 163 -16 272q-2 0 -12.5 -2t-16.5 -4q-1 3 4 19v28q-1 5 -7 17.5t-5 21.5q12 3 25.5 4t31 1t27.5 1q91 14 119 11q5 -33 6 -37q1 -3 6.5 -19t5.5 -18q-2 -12 -41 -12v-56q-3 -549 11 -714q4 -53 4 -181q10 2 28 2q29 3 58 0 q2 -6 -1 -18t-3 -14q0 -27 -2 -37q-2 -5 -5.5 -8.5t-9 -5.5t-10.5 -3t-12.5 -1.5t-12 -0.5h-11.5h-9q-14 0 -57.5 -5.5t-69.5 -2.5v25q0 1 1 2t1 2l-6 61q-34 -8 -80.5 -29t-86 -33.5t-79.5 -8.5q-59 5 -129 41q-47 24 -80 77q-21 26 -41 99q-28 78 -28 538q0 47 0.5 95 t1 79.5t0.5 36.5v23v28q-25 -4 -35 -2q-17 4 -21.5 32.5zM95 -239q-1 45 5 73q9 129 9 344q2 191 -9 692v88q0 4 -1.5 20.5t-2 29.5t2.5 25.5t10 15.5q20 8 63 8q2 0 13 0.5t15 0t11.5 -3t10.5 -9t3 -17.5q0 -27 -3.5 -76t-4.5 -65v-299q0 -50 -5 -150.5t-5 -150.5 q0 -30 4.5 -155t-0.5 -155q-3 -57 0 -122q0 -11 1.5 -41t1 -53t-4.5 -42q-8 -7 -16.5 -11t-20 -6t-18.5 -3t-21.5 -1.5t-19.5 -0.5q-17 19 -18 64z" />
<glyph unicode="&#xb6;" horiz-adv-x="942" d="M57 952q-4 230 56 346l-2 -6q7 7 20 33v-2q31 55 87 81t136 38l33 4q117 12 133 12q33 -2 66 -2q58 0 162 -15t104 -24q-2 -13 -2 -33.5t1 -46.5t1 -37q0 -69 2 -98q1 -46 -1.5 -128.5t-5 -152t-6 -142.5t-3.5 -83q-4 -136 -4 -200q0 -141 2 -213q2 -53 2 -164v-8 q41 6 47 -11q1 -5 -0.5 -16.5t-1.5 -13.5v-50v-49l1 -5q1 -6 1 -10.5t-2 -6.5h-9q-8 -4 -12 -4q-3 -1 -11.5 -1t-12.5 -1q-12 -2 -37 -2h-66q-5 0 -18 2t-19 2h-32q-31 8 -58 8q0 -1 -30 -1l-29 1h-43q-2 0 -14 4h-11q-4 1 -4 20q1 15 -2.5 39t-3.5 35q0 18 4 19h21 q15 3 36 10q1 0 4.5 1t4.5 1v4q0 49 -4 123q-5 122 -5 149q0 16 7 146q-86 -2 -193 20t-153 58q-64 60 -99 165.5t-37 204.5zM616 1225l13 -1131h18q3 0 11 2t12 2q3 0 8.5 1t9.5 1q16 2 49 2q4 1 12.5 2t12.5 2l2 603v57q6 86 6 176q0 184 -14 369q-32 10 -68 5.5t-41 -3.5 q-11 0 -17.5 -5t-9.5 -19t-3.5 -26t-0.5 -38z" />
<glyph unicode="&#xb7;" horiz-adv-x="262" d="M60.5 868q-13.5 37 4.5 71.5t58 39.5q-2 -2 -6 -2h4q57 8 78 -44q18 -45 -5 -85q-26 -46 -81 -29q-39 12 -52.5 49z" />
<glyph unicode="&#xb8;" horiz-adv-x="413" d="M23 -178q0 1 2 8t4 12q5 14 8 19q4 8 20 16q28 7 49 -8q3 -3 9 -10t11.5 -12t10.5 -9q16 -10 37 -6q13 0 25 6q3 2 16 15q1 2 3 5t3 5q1 1 2 3t2 3l2 4v-2q20 44 -28 70l-49 16q0 27 -8 61t-7 58q33 -8 71.5 -9t65.5 9q0 -23 -2 -31q-7 -68 47 -94q20 -14 34 -33t20 -43 t-11 -45q-20 -28 -53 -55t-63 -37q-13 -4 -35 -8q-28 -4 -39 -4h-41q-2 0 -6 1t-6 1q-10 -3 -19 0q-30 3 -51 28q-10 8 -18 31q-6 18 -6 35z" />
<glyph unicode="&#xb9;" horiz-adv-x="313" d="M55 1409q6 0 72 66q22 22 30 25t38 3q19 0 59 -4q4 -63 4 -192v-363q0 -65 -4 -96q-2 -45 -2 -125q-14 -6 -40 -13.5t-26 -4.5v96q0 61 1 235t1 242q0 114 -19 139q-6 9 -13 0q-16 -18 -26.5 -27t-24 -15t-26 2.5t-24.5 31.5z" />
<glyph unicode="&#xba;" horiz-adv-x="456" d="M57 1288q-4 69 23 121q21 34 62.5 54t84.5 20q21 1 53 -12.5t52 -28.5q24 -17 46.5 -57.5t22.5 -77.5q-4 -51 -22 -76q-27 -43 -82 -68.5t-104 -13.5q-31 7 -64 29q-27 20 -37 34q-30 43 -35 76zM147 1284q24 -33 74 -33q30 0 65 22.5t27 57.5l2 -2q-7 31 -32.5 45.5 t-59.5 11.5q-45 -5 -70.5 -35.5t-2.5 -66.5h-3z" />
<glyph unicode="&#xbb;" horiz-adv-x="704" d="M57 332l90 145l89 141h-3l37 64q-29 52 -94 123t-108 127q1 1 21.5 26.5t38.5 45.5t22 16q62 -82 108 -144.5t68.5 -94.5t36 -51.5t19 -28t7.5 -11.5q-54 -101 -91.5 -170.5t-63 -116t-40 -72.5t-23 -38.5t-11 -15t-4.5 -1.5q-31 11 -80 39v-2q-23 11 -19 19zM342 985 l72 57l221 -309q14 -22 14 -43q0 -10 -102.5 -189t-114.5 -196q-4 -1 -22.5 12.5t-35.5 26.5l-16 14l74 127q53 90 92 177q0 6 4 22q-40 66 -91 141.5t-73 110.5t-22 49z" />
<glyph unicode="&#xbc;" horiz-adv-x="976" d="M55 1409q6 0 72 66q22 22 30 25t38 3q19 0 59 -4q4 -63 4 -192v-363q0 -65 -4 -96q-2 -45 -2 -125q-14 -6 -40 -13.5t-26 -4.5v96q0 61 1 235t1 242q0 114 -19 139q-6 9 -13 0q-16 -18 -26.5 -27t-24 -15t-26 2.5t-24.5 31.5zM82 0q40 106 498 1087q43 96 51 113 q6 8 8 12q16 39 62 136.5t57 115.5q6 -2 14 -2q6 0 14 -4l11 -8q7 -7 18 -10q-3 -17 -18 -47q-4 -6 -6 -11.5t-3 -9t-2 -4.5q-14 -39 -298 -639t-345 -723h-6q-30 -6 -55 -6zM485 291q217 430 242 510q4 15 14.5 35t18.5 20l61 -2l8 -240q0 -11 1 -30t1 -25v-203 q30 -5 43 -2q43 5 48 0v-51q-1 -5 -7.5 -5.5t-19 0.5t-16.5 1q-52 0 -52 -2q2 -12 0 -59.5t-5 -107t-3 -85.5q2 0 12 1.5t17.5 1.5t9.5 -3q6 -6 2.5 -26.5t-12.5 -20.5q-29 0 -53 -4q-4 0 -14 -1t-18.5 -1t-14.5 2q-7 1 -9.5 8t-4 17.5t-5.5 15.5q1 2 7 2.5t7 1.5 q3 0 10.5 1t10.5 1q1 26 4 72t4 72.5t0 57.5t-6 50q-7 -1 -134.5 0.5t-146.5 -2.5zM596 346h31q90 0 139 4q12 50 12 185q0 15 0.5 59.5t0.5 72t-2 61.5t-7 52q-48 -114 -112.5 -272.5t-61.5 -161.5z" />
<glyph unicode="&#xbd;" horiz-adv-x="919" d="M55 0q40 106 498 1087q43 96 51 113q6 8 8 12q16 39 62 136.5t57 115.5q6 -2 14 -2q7 0 15 -4l10 -8q7 -7 18 -10q-3 -17 -18 -47q-5 -8 -8 -17l-2 -8q-14 -39 -298 -639t-345 -723h-6q-30 -6 -56 -6zM98 1409q6 0 72 66q22 22 30 25t38 3q19 0 59 -4q4 -63 4 -192v-363 q0 -65 -4 -96q-2 -45 -2 -125q-14 -6 -40 -13.5t-26 -4.5v96q0 61 1 235t1 242q0 114 -19 139q-6 9 -13 0q-16 -18 -26.5 -27t-24 -15t-26 2.5t-24.5 31.5zM541 80q0 45 18 95t41 85q9 14 28 38.5t25 33.5q4 5 20 23.5t21.5 26t18 23.5t19 27.5t14 27.5t12.5 32 q26 76 26 116q0 58 -51 86q-17 11 -41 11q-39 0 -53 -19q-12 -14 -12 -51q0 -23 -2 -33q-2 -14 -21 -20q-42 -4 -53 24q-10 16 -6 49q7 29 33 56.5t59 46.5v-2q24 12 51 12q28 0 60 -14q90 -45 90 -158q0 -107 -76 -209q-7 -10 -15.5 -20.5t-18.5 -22t-15 -18.5 q-30 -38 -47 -66v2q-20 -29 -43.5 -89t-20.5 -91q31 -8 82 -8q45 0 127 4q0 2 -1 5.5t-1 4.5q-4 16 -4 21q3 0 14 1.5t16.5 2t13 0t11.5 -3.5l2 -86q-3 -3 -12 -3q-13 -2 -62.5 -1t-60.5 -1q-47 0 -110 2.5t-66 2.5q-10 22 -10 57z" />
<glyph unicode="&#xbe;" horiz-adv-x="892" d="M59 1487q0 6 63 9q45 3 79 5l100 4q25 0 35 -10q-4 -12 -8 -18l-33 -54q-23 -48 -72 -116l25 -9q32 -11 76 -44.5t63 -79.5q16 -46 16 -125q0 -59 -10 -97q-11 -36 -47 -94v2q-29 -40 -72 -59h2q-29 -13 -55 -13q-10 0 -35 5q-19 -4 -55 24.5t-60 72.5t-10 75q6 15 23 21 t35 1q21 -5 32 -27.5t11 -46.5v-5q0 -20 1 -30t8 -22.5t22 -17.5q37 -15 69.5 9.5t54.5 65.5q28 67 31 156v8q-3 62 -41.5 109.5t-97.5 56.5q-14 2 -47 2q-8 1 -24.5 2t-24.5 2q20 36 77 115q47 72 54 90q-66 4 -99 2h-26q2 -6 2 -16q3 -24 -3 -28.5t-34 -4.5 q-5 1 -9.5 14.5t-8 32t-5.5 23.5q0 1 -1 5t-1 5zM82 0q25 0 55 6h6q61 123 345 723t298 639q1 1 2 4.5t3 9t6 11.5q15 30 18 47q-11 3 -18 10l-11 8q-8 4 -14 4q-8 0 -14 2q-11 -18 -57 -115.5t-62 -136.5l-8 -12q-8 -17 -51 -113q-458 -981 -498 -1087zM401 291 q217 430 242 510q4 15 14.5 35t18.5 20l61 -2l8 -240q0 -11 1.5 -30t1.5 -25v-203q30 -5 43 -2q42 5 47 0v-51q-1 -5 -7.5 -5.5t-19 0.5t-16.5 1q-52 0 -52 -2q2 -12 0 -59.5t-5 -107t-3 -85.5q2 0 12 1.5t17.5 1.5t9.5 -3q6 -6 2.5 -26.5t-12.5 -20.5q-29 0 -53 -4 q-4 0 -14 -1t-18.5 -1t-14.5 2q-7 1 -9.5 8t-4 17.5t-5.5 15.5q1 2 7 2.5t7 1.5q3 0 10.5 1t10.5 1q1 26 4 72t4 72.5t0 57.5t-6 50q-7 -1 -134.5 0.5t-146.5 -2.5zM512 346h31q90 0 139 4q12 50 12 185q0 15 0.5 59.5t0.5 72t-2 61.5t-7 52q-48 -114 -112.5 -272.5 t-61.5 -161.5z" />
<glyph unicode="&#xbf;" horiz-adv-x="708" d="M55 -387q0 170 109 303l53 64q86 94 115 153q40 94 51 139q6 36 2 86q0 44 10.5 57t55.5 13q20 0 32 -8q0 -7 1 -16t1 -15q0 -10 1 -31t1 -30q0 -103 -26 -172q-23 -67 -96 -160l-117 -133q-36 -48 -66 -144q-16 -53 -16 -110q0 -88 33 -158q42 -93 131 -110 q53 -11 109 9.5t55 74.5q0 14 -3 50t-1.5 62.5t10.5 48.5q11 30 45.5 34.5t58.5 -11.5q36 -20 41 -47q18 -81 -17 -156t-109.5 -119t-164.5 -39q-80 5 -150 47.5t-104 114.5q-45 102 -45 203zM356 668q1 23 21 38.5t47 20.5v-2q36 12 67 1t27 -46q-2 -31 -21 -61t-44 -27 q-4 0 -11.5 0.5t-24 5t-29 11.5t-22.5 22.5t-10 36.5z" />
<glyph unicode="&#xc0;" horiz-adv-x="909" d="M66.5 19.5q-0.5 6.5 0.5 13t3.5 15t4.5 14.5t4.5 12.5t2.5 7.5q54 4 57 4q63 313 152.5 692t126.5 557h-29q-23 -3 -49 4q-1 8 -1 26t-1 26t-5.5 14.5t-2.5 15.5q6 0 16 3t12 3q14 2 70.5 0t81.5 3q20 -94 70 -373q20 -140 75.5 -436t112.5 -545q10 0 14 2q10 2 30 -1 t26 -9q9 -6 7.5 -36.5t4.5 -35.5q-19 -2 -52.5 2t-45.5 4q-8 0 -74 -5t-72 1q0 24 -8 45q-7 13 -5 19.5t15 9.5q14 2 34.5 0.5t25.5 -0.5h2q-43 164 -54.5 215t-17.5 108l-287 6q-5 -30 -19.5 -97t-17.5 -85q-7 -29 -11.5 -66t-8.5 -59q13 3 27 2t25 -4l11 -2 q-1 -6 -2 -15.5t-3 -31.5t-1 -35q-21 0 -59 -2t-59 -2q-12 0 -36.5 -2t-43.5 -2t-35 4q-6 1 -8.5 5t-3 10.5zM309 1660q-6 13 0 21q23 27 105 33q12 0 20 -9.5t12.5 -25t6.5 -29.5t3.5 -30.5t2.5 -20.5q1 -7 3.5 -25.5t2.5 -25.5t-2 -24q-6 -28 -29.5 -29.5t-38.5 18.5 q-13 18 -30.5 54t-22.5 45q-1 3 -14 19t-19 29zM340 510q38 -4 139 -4h99l-13 98q-46 305 -98 471q-25 -56 -45 -127t-28.5 -116.5t-20.5 -122t-15 -93.5z" />
<glyph unicode="&#xc1;" horiz-adv-x="909" d="M66.5 19.5q-0.5 6.5 0.5 13t3.5 15t4.5 14.5t4.5 12.5t2.5 7.5q54 4 57 4q63 313 152.5 692t126.5 557h-29q-23 -3 -49 4q-1 8 -1 26t-1 26t-5.5 14.5t-2.5 15.5q6 0 16 3t12 3q14 2 70.5 0t81.5 3q20 -94 70 -373q20 -140 75.5 -436t112.5 -545q10 0 14 2q10 2 30 -1 t26 -9q9 -6 7.5 -36.5t4.5 -35.5q-19 -2 -52.5 2t-45.5 4q-8 0 -74 -5t-72 1q0 24 -8 45q-7 13 -5 19.5t15 9.5q14 2 34.5 0.5t25.5 -0.5h2q-43 164 -54.5 215t-17.5 108l-287 6q-5 -30 -19.5 -97t-17.5 -85q-7 -29 -11.5 -66t-8.5 -59q13 3 27 2t25 -4l11 -2 q-1 -6 -2 -15.5t-3 -31.5t-1 -35q-21 0 -59 -2t-59 -2q-12 0 -36.5 -2t-43.5 -2t-35 4q-6 1 -8.5 5t-3 10.5zM340 510q38 -4 139 -4h99l-13 98q-46 305 -98 471q-25 -56 -45 -127t-28.5 -116.5t-20.5 -122t-15 -93.5zM410.5 1546q0.5 8 3.5 25.5t4 25.5q0 2 0.5 13t1.5 20 t3 22t5 22.5t7 18.5t11 14t15 5q84 -5 104 -33q7 -5 2.5 -16.5t-10 -19.5t-14.5 -18.5t-11 -14.5q-5 -9 -22.5 -45t-30.5 -54q-15 -20 -38 -18.5t-29 29.5q-2 16 -1.5 24z" />
<glyph unicode="&#xc2;" horiz-adv-x="909" d="M66.5 19.5q-0.5 6.5 0.5 13t3.5 15t4.5 14.5t4.5 12.5t2.5 7.5q54 4 57 4q63 313 152.5 692t126.5 557h-29q-23 -3 -49 4q-1 8 -1 26t-1 26t-5.5 14.5t-2.5 15.5q6 0 16 3t12 3q14 2 70.5 0t81.5 3q20 -94 70 -373q20 -140 75.5 -436t112.5 -545q10 0 14 2q10 2 30 -1 t26 -9q9 -6 7.5 -36.5t4.5 -35.5q-19 -2 -52.5 2t-45.5 4q-8 0 -74 -5t-72 1q0 24 -8 45q-7 13 -5 19.5t15 9.5q14 2 34.5 0.5t25.5 -0.5h2q-43 164 -54.5 215t-17.5 108l-287 6q-5 -30 -19.5 -97t-17.5 -85q-7 -29 -11.5 -66t-8.5 -59q13 3 27 2t25 -4l11 -2 q-1 -6 -2 -15.5t-3 -31.5t-1 -35q-21 0 -59 -2t-59 -2q-12 0 -36.5 -2t-43.5 -2t-35 4q-6 1 -8.5 5t-3 10.5zM256 1505q148 113 195 142q125 -98 188 -142l-59 -67q5 4 -8 15l-42 34q-70 48 -79 53q-58 -33 -88 -51.5t-34 -23t-9.5 -10.5t-18.5 -15q2 4 -4.5 11.5t-17 19.5 t-15.5 22zM340 510q38 -4 139 -4h99l-13 98q-46 305 -98 471q-25 -56 -45 -127t-28.5 -116.5t-20.5 -122t-15 -93.5z" />
<glyph unicode="&#xc3;" horiz-adv-x="909" d="M66.5 19.5q-0.5 6.5 0.5 13t3.5 15t4.5 14.5t4.5 12.5t2.5 7.5q54 4 57 4q63 313 152.5 692t126.5 557h-29q-23 -3 -49 4q-1 8 -1 26t-1 26t-5.5 14.5t-2.5 15.5q6 0 16 3t12 3q14 2 70.5 0t81.5 3q20 -94 70 -373q20 -140 75.5 -436t112.5 -545q10 0 14 2q10 2 30 -1 t26 -9q9 -6 7.5 -36.5t4.5 -35.5q-19 -2 -52.5 2t-45.5 4q-8 0 -74 -5t-72 1q0 24 -8 45q-7 13 -5 19.5t15 9.5q14 2 34.5 0.5t25.5 -0.5h2q-43 164 -54.5 215t-17.5 108l-287 6q-5 -30 -19.5 -97t-17.5 -85q-7 -29 -11.5 -66t-8.5 -59q13 3 27 2t25 -4l11 -2 q-1 -6 -2 -15.5t-3 -31.5t-1 -35q-21 0 -59 -2t-59 -2q-12 0 -36.5 -2t-43.5 -2t-35 4q-6 1 -8.5 5t-3 10.5zM145 1567q4 29 43 63q67 67 148 64q26 -3 51 -17q18 -7 31 -20l6 -6q58 -54 113 -74q69 -24 92 18q7 14 14 35q6 40 6 41q27 45 62 39q39 -9 49 -51 q10 -86 -49 -139q-27 -22 -64 -41q-33 -13 -69 -13q-45 0 -98.5 21.5t-90.5 52.5q-51 39 -94 39q-6 0 -17 -2t-16 -2q-8 0 -16 -16l-10 -35q-14 -28 -23 -31q-35 -18 -59 31q-10 35 -9 43zM340 510q38 -4 139 -4h99l-13 98q-46 305 -98 471q-25 -56 -45 -127t-28.5 -116.5 t-20.5 -122t-15 -93.5z" />
<glyph unicode="&#xc4;" horiz-adv-x="909" d="M66.5 19.5q-0.5 6.5 0.5 13t3.5 15t4.5 14.5t4.5 12.5t2.5 7.5q54 4 57 4q63 313 152.5 692t126.5 557h-29q-23 -3 -49 4q-1 8 -1 26t-1 26t-5.5 14.5t-2.5 15.5q6 0 16 3t12 3q14 2 70.5 0t81.5 3q20 -94 70 -373q20 -140 75.5 -436t112.5 -545q10 0 14 2q10 2 30 -1 t26 -9q9 -6 7.5 -36.5t4.5 -35.5q-19 -2 -52.5 2t-45.5 4q-8 0 -74 -5t-72 1q0 24 -8 45q-7 13 -5 19.5t15 9.5q14 2 34.5 0.5t25.5 -0.5h2q-43 164 -54.5 215t-17.5 108l-287 6q-5 -30 -19.5 -97t-17.5 -85q-7 -29 -11.5 -66t-8.5 -59q13 3 27 2t25 -4l11 -2 q-1 -6 -2 -15.5t-3 -31.5t-1 -35q-21 0 -59 -2t-59 -2q-12 0 -36.5 -2t-43.5 -2t-35 4q-6 1 -8.5 5t-3 10.5zM306.5 1550q0.5 24 15 49t36.5 33q33 11 64 -16q19 -26 6 -58.5t-37 -48.5q-42 -11 -63.5 3t-21 38zM340 510q38 -4 139 -4h99l-13 98q-46 305 -98 471 q-25 -56 -45 -127t-28.5 -116.5t-20.5 -122t-15 -93.5zM498 1542q-21 39 13 69q32 28 70 15q26 -11 40 -41q18 -43 -21 -63q-23 -15 -55.5 -10t-46.5 30z" />
<glyph unicode="&#xc5;" horiz-adv-x="909" d="M57.5 8q1.5 11 4 20t6.5 20.5t4 12.5q13 1 27.5 5t31.5 4q63 312 156 698t131 567q38 47 93 101q10 10 9.5 8t-10.5 -14q20 -94 70 -373q20 -141 77 -443.5t113 -550.5h14q3 1 18 5t22.5 5.5t15.5 -1.5q6 -4 7.5 -14.5t0 -26.5t-1.5 -17q1 -7 3 -7q3 1 3 -1q1 -1 0 -6 q-82 -10 -98 -10q-8 0 -74 -5t-72 1q0 25 -10 43q-1 3 -2.5 7t-2.5 6t-1.5 4.5t-0.5 4t1 3t3.5 3t6.5 2.5q8 3 20.5 3t27.5 -1.5t20 -1.5h2q-42 159 -54.5 217.5t-19.5 118.5l-287 6q-5 -30 -19.5 -97t-17.5 -85q-19 -82 -28 -147q12 3 26 2.5t24 -3.5l11 -3q-1 -6 -2 -15.5 t-2 -31.5t0 -35q-22 1 -64.5 -5t-62.5 -6q-77 0 -108 7q-7 1 -9.5 8t-1 18zM306 1500q1 14 5 38t4 37q6 33 31.5 58t61.5 36h-2q28 8 51 8q87 0 137 -80q16 -31 16 -75q3 -65 -41 -125q-21 -31 -58.5 -47t-78.5 -9q-82 21 -121 117q-6 28 -5 42zM340 510q38 -4 139 -4h99 l-13 98q-46 305 -98 471q-25 -56 -45 -127t-28.5 -116.5t-20.5 -122t-15 -93.5zM383 1473q20 -44 72 -41q5 0 37 14q26 13 38 34t7 42q-6 19 -35 44t-47 25q-48 0 -69.5 -40.5t-0.5 -80.5z" />
<glyph unicode="&#xc6;" horiz-adv-x="1232" d="M54.5 -10q-1.5 7 2.5 17.5t8.5 20.5t10 20.5t6.5 12.5q14 1 29.5 5t29.5 4q118 312 280 698.5t232 566.5h-30q-4 -1 -16 -3.5t-17.5 -3t-14.5 0.5q0 8 2.5 25.5t2.5 25.5q1 7 -1.5 14.5t1.5 14.5q4 0 8.5 1t10 2.5t9.5 2.5q5 1 12 1t15 -0.5t12 -0.5q2 0 27.5 4.5t52 8.5 t35.5 2q2 -76 2 -373q-4 -96 0 -422.5t16 -571.5h15q1 0 17 5t23 6t17 -2q11 -8 -6 -58q0 -7 3 -7t3 1q0 -2 -2 -8q-82 -10 -100 -10q-7 0 -74.5 -5t-73.5 1q5 24 0 43q-5 13 -4 19.5t14 10.5q8 3 20 3t26 -1.5t20 -1.5h2q-14 159 -16 227.5t4 108.5l-289 6q-6 -18 -68 -182 q-28 -65 -55 -147q13 3 26.5 2.5t23.5 -3.5l11 -3q-16 -53 -20 -82q-21 1 -63.5 -5t-61.5 -6q-78 0 -109 7q-7 1 -8.5 8zM430 510q37 -4 137 -4h99l6 98q0 13 1 89t0.5 121.5t-5.5 121.5t-15 139q-34 -56 -66 -127t-48 -116.5t-41 -122.5t-31 -93zM567 1309q-2 10 2 30t4 27 q0 6 -3 24t-1 29q47 0 110 3t118.5 6.5t114.5 6.5t105 5t82 1.5t53.5 -5t12.5 -13.5q7 -30 9 -79t-5 -91q-3 -10 -38 -11.5t-44 3.5q-4 1 -7 6.5t-4 10.5t-2 13.5t-1 10.5q-8 27 -16 49h-17h-92q-131 0 -170 -6q-10 -347 -10 -439.5t12 -178.5l113 10q70 12 113 12 q6 -15 6 -57q0 -47 -4 -51h2q-40 -12 -103 -15q-72 0 -133 -18q-10 -92 -10 -236q0 -158 6 -247q74 -21 178 -21h84h10q-4 13 -12 48.5t-4 41.5q19 2 40 1.5t51 -2t34 -1.5q4 -19 4 -115q0 -10 2.5 -35t1.5 -40q-10 0 -225 2t-225 2q-91 -8 -136 -2v49q0 5 -2.5 15t-2 16 t6.5 10q17 10 68 14q-11 1162 -12 1223q-40 -8 -64 -6z" />
<glyph unicode="&#xc7;" horiz-adv-x="743" d="M80 1083q8 137 74.5 242t191.5 137q31 8 60 8q54 0 124 -23t103 -71q4 -7 13.5 -20.5t15.5 -24.5t10 -22q33 -91 -13 -125q-37 -26 -81 -23t-78 31q-23 18 -56 59t-45 52q-47 45 -106 2q-37 -32 -64 -80q-15 -37 -22 -88q-4 -46 -4 -70q-7 -219 -10 -389q0 -58 -1.5 -172 t-1.5 -172q1 -44 5 -73.5t16 -64t40 -56.5t71 -31q30 -10 74.5 0t52.5 45q3 16 -1 57t3 57q10 35 61 39t78 -14q1 -1 4 -2q37 -23 46 -42l3 -9q3 -19 3.5 -23t-6 -22.5t-7.5 -22.5q-29 -71 -94.5 -113t-147.5 -53q-73 -6 -146.5 25.5t-115.5 89.5q-110 99 -49 962zM180 -166 q0 1 2 8.5t4 12.5q3 9 9 18q4 8 20 16q28 7 49 -8q3 -3 9 -10t11.5 -12t10.5 -9q16 -10 37 -6q12 0 24 6q6 4 17 15q1 2 3 5t3 5q1 1 2 3t2 3l2 4v-2q19 44 -29 70l-49 16q0 27 -7.5 61t-6.5 58q33 -8 71.5 -9t65.5 9q0 -23 -2 -31q-7 -68 47 -94q20 -14 34 -33t20 -43 t-11 -45q-20 -27 -53.5 -54.5t-63.5 -37.5q-14 -5 -34 -8q-28 -4 -39 -4h-41q-2 0 -6.5 1t-6.5 1q-9 -3 -18 0q-29 3 -51 29q-12 10 -19 30q-6 18 -6 35z" />
<glyph unicode="&#xc8;" horiz-adv-x="706" d="M57 1362q-2 10 2 31.5t4 27.5t-3 25.5t-1 30.5q46 0 107 3t115.5 6.5t111.5 7t102 5.5t80 1.5t52 -5.5t12 -14q7 -30 9 -81.5t-5 -94.5q-3 -10 -37 -12t-43 3q-4 1 -7 6.5t-4 10.5t-2 13.5t-1 10.5q-5 20 -17 52h-14q-31 2 -90 2q-122 0 -166 -9q-10 -360 -10 -457.5 t12 -185.5l111 11q77 14 108 14q6 -18 6 -62q0 -49 -4 -53h2q-36 -11 -100 -14q-67 0 -129 -19q-10 -98 -10 -245q0 -167 6 -258q71 -21 174 -21h82h10q-4 13 -12 49.5t-4 44.5q37 6 121 -4q4 -19 4 -119q0 -10 2.5 -36t1.5 -41q-10 0 -219 2t-219 2q-88 -8 -132 -2v51 q0 5 -2.5 15t-1.5 17t7 11q18 10 65 14q-11 1209 -12 1272q-37 -8 -62 -6zM250 1699q-6 13 0 21q23 27 104 33q12 0 20 -9.5t12.5 -25t6.5 -29.5t3.5 -30.5t2.5 -20.5q1 -7 3.5 -25.5t2.5 -25.5t-2 -24q-6 -28 -29 -29.5t-38 18.5q-13 18 -30.5 54t-22.5 45q-1 3 -14 19 t-19 29z" />
<glyph unicode="&#xc9;" horiz-adv-x="706" d="M57 1362q-2 10 2 31.5t4 27.5t-3 25.5t-1 30.5q46 0 107 3t115.5 6.5t111.5 7t102 5.5t80 1.5t52 -5.5t12 -14q7 -30 9 -81.5t-5 -94.5q-3 -10 -37 -12t-43 3q-4 1 -7 6.5t-4 10.5t-2 13.5t-1 10.5q-5 20 -17 52h-14q-31 2 -90 2q-122 0 -166 -9q-10 -360 -10 -457.5 t12 -185.5l111 11q77 14 108 14q6 -18 6 -62q0 -49 -4 -53h2q-36 -11 -100 -14q-67 0 -129 -19q-10 -98 -10 -245q0 -167 6 -258q71 -21 174 -21h82h10q-4 13 -12 49.5t-4 44.5q37 6 121 -4q4 -19 4 -119q0 -10 2.5 -36t1.5 -41q-10 0 -219 2t-219 2q-88 -8 -132 -2v51 q0 5 -2.5 15t-1.5 17t7 11q18 10 65 14q-11 1209 -12 1272q-37 -8 -62 -6zM303.5 1607.5q0.5 8.5 3.5 26t4 25.5q0 2 0.5 13t1.5 20t3 22t5 22.5t7 18.5t11 14t15 5q85 -5 105 -33q7 -5 2.5 -16.5t-10 -20t-14.5 -19.5t-11 -14q-5 -9 -22.5 -44.5t-30.5 -53.5 q-15 -20 -38.5 -19t-29.5 29q-2 16 -1.5 24.5z" />
<glyph unicode="&#xca;" horiz-adv-x="706" d="M57 1362q-2 10 2 31.5t4 27.5t-3 25.5t-1 30.5q46 0 107 3t115.5 6.5t111.5 7t102 5.5t80 1.5t52 -5.5t12 -14q7 -30 9 -81.5t-5 -94.5q-3 -10 -37 -12t-43 3q-4 1 -7 6.5t-4 10.5t-2 13.5t-1 10.5q-5 20 -17 52h-14q-31 2 -90 2q-122 0 -166 -9q-10 -360 -10 -457.5 t12 -185.5l111 11q77 14 108 14q6 -18 6 -62q0 -49 -4 -53h2q-36 -11 -100 -14q-67 0 -129 -19q-10 -98 -10 -245q0 -167 6 -258q71 -21 174 -21h82h10q-4 13 -12 49.5t-4 44.5q37 6 121 -4q4 -19 4 -119q0 -10 2.5 -36t1.5 -41q-10 0 -219 2t-219 2q-88 -8 -132 -2v51 q0 5 -2.5 15t-1.5 17t7 11q18 10 65 14q-11 1209 -12 1272q-37 -8 -62 -6zM158 1616q147 112 194 141q102 -79 189 -141l-60 -68q2 2 2.5 3.5t-4.5 6.5t-15.5 13.5l-31.5 25.5q-73 50 -80 54q-58 -32 -88 -51t-34 -24t-9 -11t-18 -15q2 4 -4.5 12t-17 20t-15.5 22z" />
<glyph unicode="&#xcb;" horiz-adv-x="706" d="M57 1362q-2 10 2 31.5t4 27.5t-3 25.5t-1 30.5q46 0 107 3t115.5 6.5t111.5 7t102 5.5t80 1.5t52 -5.5t12 -14q7 -30 9 -81.5t-5 -94.5q-3 -10 -37 -12t-43 3q-4 1 -7 6.5t-4 10.5t-2 13.5t-1 10.5q-5 20 -17 52h-14q-31 2 -90 2q-122 0 -166 -9q-10 -360 -10 -457.5 t12 -185.5l111 11q77 14 108 14q6 -18 6 -62q0 -49 -4 -53h2q-36 -11 -100 -14q-67 0 -129 -19q-10 -98 -10 -245q0 -167 6 -258q71 -21 174 -21h82h10q-4 13 -12 49.5t-4 44.5q37 6 121 -4q4 -19 4 -119q0 -10 2.5 -36t1.5 -41q-10 0 -219 2t-219 2q-88 -8 -132 -2v51 q0 5 -2.5 15t-1.5 17t7 11q18 10 65 14q-11 1209 -12 1272q-37 -8 -62 -6zM196.5 1595q0.5 24 15 49t36.5 33q32 11 63 -16q19 -26 6.5 -58.5t-36.5 -48.5q-42 -11 -63.5 3t-21 38zM387 1587q-21 39 13 69q32 28 70 15q26 -10 40 -41q18 -43 -21 -63q-23 -15 -55.5 -10 t-46.5 30z" />
<glyph unicode="&#xcc;" horiz-adv-x="362" d="M39 6q-4 10 6 70q20 4 55 4q3 626 16 1175l1 103v-2q0 19 -4 43q0 1 -1 3t-1 3h-5q-31 0 -45 2q0 2 -2.5 19.5t-1 30.5t8.5 18q1 5 24.5 4.5t26.5 -0.5q78 8 123 8q3 0 9.5 0.5t8.5 0t5.5 -2.5t4.5 -6q9 -24 11 -33q3 -18 -13 -23q-21 -11 -43 -8v-1286q0 -11 2 -23 t2 -24v-6q20 4 33 4q24 0 29 -6q7 -7 -4 -47q-7 -27 3 -27h3q-2 -1 -35 -0.5t-79 -1t-75 -4.5q-12 -2 -35.5 0.5t-27.5 11.5zM39 1709.5q-6 13.5 0 21.5q22 26 104 32q12 0 20 -9t12.5 -25t6.5 -29.5t3.5 -30t2.5 -20.5q1 -8 3.5 -26t3 -26t-1.5 -24q-6 -28 -29.5 -29 t-38.5 19q-13 18 -30.5 53.5t-22.5 44.5q-1 2 -14 18.5t-19 30z" />
<glyph unicode="&#xcd;" horiz-adv-x="362" d="M39 6q-4 10 6 70q20 4 55 4q3 626 16 1175l1 103v-2q0 19 -4 43q0 1 -1 3t-1 3h-5q-31 0 -45 2q0 2 -2.5 19.5t-1 30.5t8.5 18q1 5 24.5 4.5t26.5 -0.5q78 8 123 8q3 0 9.5 0.5t8.5 0t5.5 -2.5t4.5 -6q9 -24 11 -33q3 -18 -13 -23q-21 -11 -43 -8v-1286q0 -11 2 -23 t2 -24v-6q20 4 33 4q24 0 29 -6q7 -7 -4 -47q-7 -27 3 -27h3q-2 -1 -35 -0.5t-79 -1t-75 -4.5q-12 -2 -35.5 0.5t-27.5 11.5zM113.5 1580.5q0.5 8.5 3.5 26t4 25.5q0 2 0.5 13t1.5 20t3 22t5 22.5t7 18.5t11 14t15 5q84 -5 104 -33q7 -5 3 -16.5t-10 -19.5t-14.5 -19 t-10.5 -14q-5 -8 -23 -44.5t-31 -54.5q-15 -20 -38 -19t-29 29q-2 16 -1.5 24.5z" />
<glyph unicode="&#xce;" horiz-adv-x="493" d="M74 1565q147 112 194 141q102 -79 189 -141l-60 -68q2 2 2.5 3.5t-4.5 6.5t-15.5 13.5l-31.5 25.5q-67 46 -80 53q-58 -33 -88 -51.5t-34 -23t-9 -10.5t-18 -15q2 4 -4.5 11.5t-17 19.5t-15.5 22zM135 6q-4 10 6 70q20 4 56 4q3 615 15 1166l1 113v-3q0 19 -4 43 q0 1 -1 3t-1 3h-4q-31 0 -45 2q0 3 -2.5 20t-1.5 30t8 18q1 5 24.5 4.5t26.5 -0.5q78 8 123 8q3 0 9.5 0.5t9 0t6 -2.5t4.5 -6q8 -19 10 -33q3 -18 -13 -23q-21 -11 -43 -8v-1286q0 -11 2.5 -23t2.5 -24v-6q20 4 32 4q24 0 29 -6q7 -7 -4 -47q-7 -27 3 -27h3 q-2 -1 -34.5 -0.5t-78.5 -1t-75 -4.5q-12 -2 -36 0.5t-28 11.5z" />
<glyph unicode="&#xcf;" horiz-adv-x="436" d="M54.5 1558.5q0.5 23.5 15 48.5t36.5 33q33 11 64 -16q19 -26 6 -58t-37 -48q-42 -11 -63.5 3t-21 37.5zM113 6q-4 10 6 70q20 4 55 4q3 615 15 1166l1 113v-3q0 19 -4 43q0 1 -1 3t-1 3h-4q-31 0 -45 2q0 3 -2.5 20t-1.5 30t8 18q1 5 24.5 4.5t26.5 -0.5q78 8 123 8 q3 0 9.5 0.5t9 0t6 -2.5t4.5 -6q8 -19 10 -33q3 -19 -12 -23q-21 -11 -43 -8v-1286q0 -11 2 -23t2 -24v-6q20 4 33 4q24 0 28 -6q5 -5 4 -14t-3.5 -20t-5.5 -20.5t-1.5 -15t9.5 -4.5q-2 -1 -35 -0.5t-79 -1t-75 -4.5q-12 -2 -35.5 0.5t-27.5 11.5zM246 1550q-21 39 13 69 q32 28 70 15q26 -10 40 -41q18 -43 -21 -63q-23 -15 -55.5 -10t-46.5 30z" />
<glyph unicode="&#xd0;" horiz-adv-x="806" d="M57 715v102q0 19 6 25q2 2 9 2l94 -4h289q18 -3 39 -9l12 -6q4 -4 4 -18q4 -74 4 -109q0 -30 -12 -30q-19 0 -29 2q-3 1 -52.5 4.5t-107.5 7.5t-73 6q-20 2 -70.5 2.5t-67.5 -0.5q-12 0 -18 -4q-3 -2 -21 4q-6 0 -6 25zM59 45q-6 22 3.5 31.5t33.5 9.5q18 0 64 4l14 1260 q-4 0 -10 -1t-8 -1q-36 0 -50 2q-3 11 4 34.5t7 34.5v39q0 1 -3.5 9t-2.5 14q58 4 84 4q42 10 102 6q118 -4 172 -10q176 -24 221 -92q21 -33 33.5 -80t15.5 -82t6 -92q0 -4 1.5 -15.5t1.5 -15.5q5 -198 2.5 -326t-8 -271t-5.5 -177q0 -74 -10 -113v2q-17 -48 -76 -127 q-38 -47 -94.5 -66t-136.5 -26q-45 -4 -177.5 -12.5t-150.5 -5.5q-9 2 -12.5 3.5t-4.5 3t-1.5 7.5t-1.5 10q-1 7 -6 20.5t-7 18.5zM258 213q0 -53 8 -115q99 -15 226 21h-3h13q58 12 84.5 52.5t38.5 107.5q10 49 14 196q4 315 14 545q4 127 -22 219q-42 131 -219 131 q-61 0 -127 -16l-17 -865q1 -48 -4.5 -141t-5.5 -135z" />
<glyph unicode="&#xd1;" horiz-adv-x="911" d="M57 1391q9 1 27 5t27 5q53 8 77 6q131 -328 207 -498q78 -174 130 -339t118 -296q22 645 39 1033q-47 0 -53 4t-13 24q-5 12 -5 30t7 26q10 5 103 4.5t98 -4.5l6 -72q2 -15 -41 -6q-7 2 -9 0.5t-9 -2.5q-7 -891 -33 -1239q19 2 37 0q9 -5 8.5 -26t-6.5 -38q-5 -5 -58 -9 t-61 3q-51 103 -98 229q-58 142 -124.5 327t-111.5 294.5t-100 200.5l-2 -987h2q4 -1 17.5 -1t19.5 -2q9 -3 10.5 -22t-2.5 -31q-4 -8 -16 -10h-43q-53 0 -80 -2q-39 -7 -43 -6q-1 7 -1 21t-1 20q-6 25 2 30q1 1 9.5 2.5t10.5 2.5q3 1 8.5 2t8.5 2q-1 20 -2 59.5t-2 61.5 q-4 32 -1.5 542t1.5 592q-45 -9 -52 4q-2 3 -2.5 15.5t-1.5 15.5q0 4 -1.5 14t-0.5 15zM154 1534q4 29 43 63q67 67 147 64q29 -3 51 -16q17 -7 31 -21l6 -6q58 -54 113 -74q20 -10 50 -6.5t42 25.5q8 16 14 34q6 40 6 41q27 45 62 39q39 -9 49 -51q10 -86 -49 -139 q-27 -22 -64 -41q-30 -12 -69 -12q-46 0 -99 21.5t-90 51.5q-51 39 -94 39q-6 0 -17 -2t-16 -2q-8 0 -16 -16l-10 -35q-14 -28 -23 -31q-35 -18 -59 31q-9 33 -8 43z" />
<glyph unicode="&#xd2;" horiz-adv-x="747" d="M56 621q-2 137 1 253.5t9.5 195t20.5 142t30 101t43 66.5t56 44t71 27q24 6 55 6q67 0 133 -27.5t111 -72.5q54 -47 80 -131t26 -170q-1 -345 -11.5 -509.5t-37.5 -301.5q-60 -155 -151 -211h2q-75 -43 -162 -43q-82 0 -137 41q-49 35 -92 123t-40 143q-5 187 -7 324z M146 516q-1 -44 1 -91t11 -108q8 -68 28 -104q24 -48 71 -74t101 -26q71 0 127 39q12 9 21.5 20t15.5 19.5t12.5 23.5t9 21.5t8 25t7.5 23.5h-2q19 67 27 180q10 34 10 602q0 95 -33 168q-28 54 -83.5 87.5t-117.5 33.5q-44 0 -88 -21h2q-37 -26 -62 -67t-36.5 -94 t-15.5 -91t-6 -92q-1 -158 -4 -294.5t-4 -180.5zM227 1695q-6 13 0 21q23 27 105 33q12 0 20 -9.5t12.5 -25t6.5 -29.5t3.5 -30.5t2.5 -20.5q1 -7 3.5 -25.5t2.5 -25.5t-2 -24q-6 -28 -29.5 -29.5t-38.5 18.5q-13 18 -30.5 54t-22.5 45q-1 3 -14 19t-19 29z" />
<glyph unicode="&#xd3;" horiz-adv-x="747" d="M56 621q-2 137 1 253.5t9.5 195t20.5 142t30 101t43 66.5t56 44t71 27q24 6 55 6q67 0 133 -27.5t111 -72.5q54 -47 80 -131t26 -170q-1 -345 -11.5 -509.5t-37.5 -301.5q-60 -155 -151 -211h2q-75 -43 -162 -43q-82 0 -137 41q-49 35 -92 123t-40 143q-5 187 -7 324z M146 516q-1 -44 1 -91t11 -108q8 -68 28 -104q24 -48 71 -74t101 -26q71 0 127 39q12 9 21.5 20t15.5 19.5t12.5 23.5t9 21.5t8 25t7.5 23.5h-2q19 67 27 180q10 34 10 602q0 95 -33 168q-28 54 -83.5 87.5t-117.5 33.5q-44 0 -88 -21h2q-37 -26 -62 -67t-36.5 -94 t-15.5 -91t-6 -92q-1 -158 -4 -294.5t-4 -180.5zM330.5 1572.5q0.5 8.5 3.5 26t4 25.5q0 2 0.5 13t1.5 20t3 22t5 22.5t7 18.5t11 14t15 5q84 -5 104 -33q7 -5 3 -16.5t-10 -20t-14.5 -19.5t-10.5 -14q-5 -8 -23 -44t-31 -54q-15 -20 -38 -19t-29 29q-2 16 -1.5 24.5z" />
<glyph unicode="&#xd4;" horiz-adv-x="747" d="M56 621q-2 137 1 253.5t9.5 195t20.5 142t30 101t43 66.5t56 44t71 27q24 6 55 6q67 0 133 -27.5t111 -72.5q54 -47 80 -131t26 -170q-1 -345 -11.5 -509.5t-37.5 -301.5q-60 -155 -151 -211h2q-75 -43 -162 -43q-82 0 -137 41q-49 35 -92 123t-40 143q-5 187 -7 324z M146 516q-1 -44 1 -91t11 -108q8 -68 28 -104q24 -48 71 -74t101 -26q71 0 127 39q12 9 21.5 20t15.5 19.5t12.5 23.5t9 21.5t8 25t7.5 23.5h-2q19 67 27 180q10 34 10 602q0 95 -33 168q-28 54 -83.5 87.5t-117.5 33.5q-44 0 -88 -21h2q-37 -26 -62 -67t-36.5 -94 t-15.5 -91t-6 -92q-1 -158 -4 -294.5t-4 -180.5zM182 1577q148 112 195 141q111 -87 188 -141l-59 -68q6 4 -10 18l-39 32q-67 46 -80 53q-58 -33 -88 -51.5t-34 -23.5t-9.5 -11t-18.5 -15q2 4 -4.5 12t-17 20t-15.5 22z" />
<glyph unicode="&#xd5;" horiz-adv-x="747" d="M56 621q-2 137 1 253.5t9.5 195t20.5 142t30 101t43 66.5t56 44t71 27q24 6 55 6q67 0 133 -27.5t111 -72.5q54 -47 80 -131t26 -170q-1 -345 -11.5 -509.5t-37.5 -301.5q-60 -155 -151 -211h2q-75 -43 -162 -43q-82 0 -137 41q-49 35 -92 123t-40 143q-5 187 -7 324z M68 1761q4 30 43 64q66 66 147 63q29 -3 51 -16q17 -7 31 -21l6 -6q56 -52 113 -73q69 -24 92 18q7 14 14 35q6 40 6 41q27 45 62 39q39 -9 49 -52q10 -86 -49 -139q-27 -22 -64 -41q-30 -12 -69 -12q-45 0 -98.5 21.5t-90.5 52.5q-51 39 -94 39q-6 0 -17 -2.5t-16 -2.5 q-8 0 -16 -16l-10 -35q-13 -27 -23 -30q-36 -19 -59 30q-9 33 -8 43zM146 516q-1 -44 1 -91t11 -108q8 -68 28 -104q24 -48 71 -74t101 -26q71 0 127 39q12 9 21.5 20t15.5 19.5t12.5 23.5t9 21.5t8 25t7.5 23.5h-2q19 67 27 180q10 34 10 602q0 95 -33 168 q-28 54 -83.5 87.5t-117.5 33.5q-44 0 -88 -21h2q-37 -26 -62 -67t-36.5 -94t-15.5 -91t-6 -92q-1 -158 -4 -294.5t-4 -180.5z" />
<glyph unicode="&#xd6;" horiz-adv-x="747" d="M56 621q-2 137 1 253.5t9.5 195t20.5 142t30 101t43 66.5t56 44t71 27q24 6 55 6q67 0 133 -27.5t111 -72.5q54 -47 80 -131t26 -170q-1 -345 -11.5 -509.5t-37.5 -301.5q-60 -155 -151 -211h2q-75 -43 -162 -43q-82 0 -137 41q-49 35 -92 123t-40 143q-5 187 -7 324z M146 516q-1 -44 1 -91t11 -108q8 -68 28 -104q24 -48 71 -74t101 -26q71 0 127 39q12 9 21.5 20t15.5 19.5t12.5 23.5t9 21.5t8 25t7.5 23.5h-2q19 67 27 180q10 34 10 602q0 95 -33 168q-28 54 -83.5 87.5t-117.5 33.5q-44 0 -88 -21h2q-37 -26 -62 -67t-36.5 -94 t-15.5 -91t-6 -92q-1 -158 -4 -294.5t-4 -180.5zM224.5 1601.5q0.5 23.5 15 48.5t36.5 33q33 11 64 -16q19 -26 6 -58t-37 -48q-42 -11 -63.5 3t-21 37.5zM416 1593q-21 39 13 69q32 28 70 15q26 -11 40 -41q18 -43 -21 -63q-23 -15 -55.5 -10t-46.5 30z" />
<glyph unicode="&#xd7;" horiz-adv-x="602" d="M55 825q18 21 66 74q15 12 74 -47l12 -12l102 -86q125 162 150 166q42 -9 60 -24.5t15 -26.5l-2 -11q-104 -139 -153 -184q0 -5 27 -30.5t73.5 -67t63.5 -56.5l4 -4q-13 -24 -38.5 -54t-35.5 -30q-77 54 -186 168l-18 -24t-16 -20.5t-21 -24t-22 -23.5t-29.5 -31.5 t-33.5 -36.5q-16 -16 -24 -16.5t-14 8.5h2l-15 14l-30 21h2q-18 13 -7 22l76 80q7 8 23.5 26t31 35t29.5 38q-100 93 -100 94q-52 52 -66 63z" />
<glyph unicode="&#xd8;" horiz-adv-x="780" d="M55 -39q29 105 64 203q-8 20 -14 40t-10.5 44t-7.5 39.5t-6 45t-4 40t-3.5 45t-3.5 41.5q-4 51 -9 200q0 7 -1 21.5t-1 21.5q-4 88 -2 132v94q0 63 1 98.5t9.5 88.5t24.5 93q39 93 113 154q67 59 203 63q77 3 149 -59q43 117 51 121q18 10 54 6q33 -2 50.5 -12t6.5 -35 v-10q-6 -12 -6 -21l-60 -168q17 -50 21 -71q5 -26 8 -31v2l2 -4h-2q8 -63 8 -135q0 -15 -1 -60.5t-1 -62.5q-2 -47 -2 -144v-106q0 -178 -2 -262v-68q2 -31 0.5 -67.5t-5 -68.5t-15 -61.5t-31.5 -46.5l-8 -6h2q-77 -69 -125 -84h2q-70 -12 -103 -12q-46 0 -86 12 q-31 0 -57 23l-31 18q-12 5 -22 15q-22 -58 -27 -58q-19 -3 -59.5 -3.5t-63.5 -4.5zM188 713q0 -35 5 -187q4 -40 4 -59v-23q0 -33 2 -49q198 558 313 860q-31 22 -70 31q-69 13 -118 -6t-73 -47t-37.5 -91t-15 -93.5t-2.5 -99.5q-1 -28 -1 -40q0 -8 -1 -25t-1 -24 q-5 -122 -5 -147zM256 160q16 -25 39 -45q46 -39 129 -39q42 0 74 16t45 47q13 29 22 115q0 6 2 19t2 18q11 57 11 104q0 23 6 47l6 27q8 73 8 174q0 58 -4 168q0 4 -1 13.5t-1 13.5q-2 35 2 94q2 23 2 74q0 48 -4 71q-197 -544 -338 -917z" />
<glyph unicode="&#xd9;" horiz-adv-x="878" d="M45 1464q0 9 18 13q15 1 49.5 -1t47.5 -1q7 0 30.5 1t41 0.5t30.5 -3.5q9 -2 14 -13q3 -6 6 -28t7 -27q-9 -2 -35.5 -3.5t-30.5 -2.5q0 -63 -12 -189v2q-8 -113 -10 -170q-4 -126 -4 -192q0 -148 8 -252q6 -116 18 -217q0 -2 1 -7.5t1 -8.5t2 -19.5t2.5 -21.5t2.5 -20 t3.5 -22t4.5 -20.5t6.5 -22.5t8 -20.5t9.5 -21.5h-2q25 -49 72.5 -75t105.5 -26q65 0 123 33q107 62 111 256v70q0 30 -1 93t-1 95q-3 94 -11.5 282t-11.5 279q-5 103 -8 139q0 36 6 60q-3 0 -9 -0.5t-10.5 -0.5t-9.5 0.5t-8 2t-4 4.5q-2 1 -2 21v26q4 28 125 21 q77 -6 74 -13q5 -2 6.5 -5.5t2.5 -11t1 -9.5q8 -39 0 -45q-36 4 -45 6q-4 -14 -4 -45v-41v2q19 -240 22 -455q0 -13 1 -42t1 -44q0 -21 1.5 -65.5t1.5 -67.5q0 -131 -11 -244q-14 -121 -52.5 -214t-119.5 -146q-70 -47 -154.5 -54.5t-163 29.5t-120.5 113v-2q-22 41 -33 113 q0 2 -1 7t-1 7q-31 163 -39 457v57q0 10 6 268q10 190 11 242v96q0 4 -1 12t-1 11q-52 0 -56 -2q-2 5 -3.5 13.5t-2.5 10.5q-4 12 -4 49zM307 1742q-6 13 0 21q23 27 105 33q12 0 20 -9.5t12.5 -25t6.5 -29.5t3.5 -30.5t2.5 -20.5q1 -7 3.5 -25.5t2.5 -25.5t-2 -24 q-6 -28 -29.5 -29.5t-38.5 18.5q-13 18 -30.5 54t-22.5 45q-1 3 -14 19t-19 29z" />
<glyph unicode="&#xda;" horiz-adv-x="878" d="M45 1464q0 9 18 13q15 1 49.5 -1t47.5 -1q7 0 30.5 1t41 0.5t30.5 -3.5q9 -2 14 -13q3 -6 6 -28t7 -27q-9 -2 -35.5 -3.5t-30.5 -2.5q0 -63 -12 -189v2q-8 -113 -10 -170q-4 -126 -4 -192q0 -148 8 -252q6 -116 18 -217q0 -2 1 -7.5t1 -8.5t2 -19.5t2.5 -21.5t2.5 -20 t3.5 -22t4.5 -20.5t6.5 -22.5t8 -20.5t9.5 -21.5h-2q25 -49 72.5 -75t105.5 -26q65 0 123 33q107 62 111 256v70q0 30 -1 93t-1 95q-3 94 -11.5 282t-11.5 279q-5 103 -8 139q0 36 6 60q-3 0 -9 -0.5t-10.5 -0.5t-9.5 0.5t-8 2t-4 4.5q-2 1 -2 21v26q4 28 125 21 q77 -6 74 -13q5 -2 6.5 -5.5t2.5 -11t1 -9.5q8 -39 0 -45q-36 4 -45 6q-4 -14 -4 -45v-41v2q19 -240 22 -455q0 -13 1 -42t1 -44q0 -21 1.5 -65.5t1.5 -67.5q0 -131 -11 -244q-14 -121 -52.5 -214t-119.5 -146q-70 -47 -154.5 -54.5t-163 29.5t-120.5 113v-2q-22 41 -33 113 q0 2 -1 7t-1 7q-31 163 -39 457v57q0 10 6 268q10 190 11 242v96q0 4 -1 12t-1 11q-52 0 -56 -2q-2 5 -3.5 13.5t-2.5 10.5q-4 12 -4 49zM400 1634.5q1 8.5 4 25.5t4 26q0 2 0.5 13t1.5 19.5t3 21.5t5 22.5t7 18.5t11 14t15 5q84 -5 104 -33q7 -5 2.5 -16.5t-10 -19.5 t-14.5 -18.5t-11 -14.5q-5 -9 -22.5 -45t-30.5 -54q-15 -20 -38.5 -18.5t-29.5 29.5q-2 16 -1 24.5z" />
<glyph unicode="&#xdb;" horiz-adv-x="878" d="M45 1464q0 9 18 13q15 1 49.5 -1t47.5 -1q7 0 30.5 1t41 0.5t30.5 -3.5q9 -2 14 -13q3 -6 6 -28t7 -27q-9 -2 -35.5 -3.5t-30.5 -2.5q0 -63 -12 -189v2q-8 -113 -10 -170q-4 -126 -4 -192q0 -148 8 -252q6 -116 18 -217q0 -2 1 -7.5t1 -8.5t2 -19.5t2.5 -21.5t2.5 -20 t3.5 -22t4.5 -20.5t6.5 -22.5t8 -20.5t9.5 -21.5h-2q25 -49 72.5 -75t105.5 -26q65 0 123 33q107 62 111 256v70q0 30 -1 93t-1 95q-3 94 -11.5 282t-11.5 279q-5 103 -8 139q0 36 6 60q-3 0 -9 -0.5t-10.5 -0.5t-9.5 0.5t-8 2t-4 4.5q-2 1 -2 21v26q4 28 125 21 q77 -6 74 -13q5 -2 6.5 -5.5t2.5 -11t1 -9.5q8 -39 0 -45q-36 4 -45 6q-4 -14 -4 -45v-41v2q19 -240 22 -455q0 -13 1 -42t1 -44q0 -21 1.5 -65.5t1.5 -67.5q0 -131 -11 -244q-14 -121 -52.5 -214t-119.5 -146q-70 -47 -154.5 -54.5t-163 29.5t-120.5 113v-2q-22 41 -33 113 q0 2 -1 7t-1 7q-31 163 -39 457v57q0 10 6 268q10 190 11 242v96q0 4 -1 12t-1 11q-52 0 -56 -2q-2 5 -3.5 13.5t-2.5 10.5q-4 12 -4 49zM266 1595q148 113 195 142q125 -98 188 -142l-59 -67q2 2 2.5 3.5t-4.5 6.5t-15.5 13.5l-31.5 25.5q-67 46 -80 53q-58 -33 -88 -51.5 t-34 -23t-9.5 -10.5t-18.5 -15q2 4 -4.5 11.5t-17 19.5t-15.5 22z" />
<glyph unicode="&#xdc;" horiz-adv-x="851" d="M57 1507q4 10 52 13.5t92.5 2.5t66.5 1q16 2 3 -44q-3 -13 -7 -20q-22 -3 -45 4q30 -132 103.5 -333.5t101.5 -301.5q25 52 49 116.5t47.5 144.5t37 128t36 135.5t24.5 96.5q-9 -4 -18.5 -5t-24.5 0t-18 1q0 7 -1.5 34t-0.5 40h231q6 -8 9.5 -32t-4.5 -32q-3 -2 -27 -2 h-35q-94 -278 -144 -425.5t-76.5 -229t-32 -102t-7.5 -33.5q10 -478 4 -601q2 0 8.5 1t11.5 1t9 -2q10 -3 12.5 -12t0 -25t-2.5 -18q-10 -8 -80.5 -9.5t-89.5 3.5q-3 1 -6 12q-2 4 -6 13.5t-6 16t-2 13.5q24 5 53 9q-3 270 -1.5 397.5t2.5 163.5t1 37q-16 66 -125 382.5 t-135 413.5q-33 4 -45 0q-3 2 -5 11.5t-4 11.5q0 1 -3.5 11t-2.5 13zM296.5 1647q0.5 24 15 49t36.5 33q32 11 64 -17q19 -26 6 -58t-37 -48q-42 -11 -63.5 3t-21 38zM487 1638q-21 39 13 69q32 28 70 15q26 -11 40 -41q18 -43 -20 -63q-23 -15 -56 -10t-47 30z" />
<glyph unicode="&#xdd;" horiz-adv-x="851" d="M57 1507q4 10 52 13.5t92.5 2.5t66.5 1q16 2 3 -44q-3 -13 -7 -20q-22 -3 -45 4q30 -132 103.5 -333.5t101.5 -301.5q25 52 49 116.5t47.5 144.5t37 128t36 135.5t24.5 96.5q-9 -4 -18.5 -5t-24.5 0t-18 1q0 7 -1.5 34t-0.5 40h231q6 -8 9.5 -32t-4.5 -32q-3 -2 -27 -2 h-35q-94 -278 -144 -425.5t-76.5 -229t-32 -102t-7.5 -33.5q10 -478 4 -601q2 0 8.5 1t11.5 1t9 -2q10 -3 12.5 -12t0 -25t-2.5 -18q-10 -8 -80.5 -9.5t-89.5 3.5q-3 1 -6 12q-2 4 -6 13.5t-6 16t-2 13.5q24 5 53 9q-3 270 -1.5 397.5t2.5 163.5t1 37q-16 66 -125 382.5 t-135 413.5q-33 4 -45 0q-3 2 -5 11.5t-4 11.5q0 1 -3.5 11t-2.5 13zM389.5 1638.5q0.5 8.5 3.5 26t4 25.5q0 2 0.5 13t1.5 19.5t3 21.5t5 22.5t7 18.5t11 14t15 5q85 -6 105 -32q7 -5 2.5 -16.5t-10 -20t-14.5 -19.5t-11 -14q-5 -9 -22.5 -44.5t-30.5 -53.5 q-15 -20 -38.5 -19t-29.5 29q-2 16 -1.5 24.5z" />
<glyph unicode="&#xde;" horiz-adv-x="731" d="M57 -4q1 9 3.5 10.5t13.5 3.5q29 0 45 2q-3 1149 16 1374h-14q-18 -3 -37 0q10 31 2 58q-1 3 -3 10t-3 10l-4 4q-5 3 -6 5q-1 4 -1 4.5t4 0.5t7 1q11 3 22 5t26.5 2t26.5 -0.5t36.5 -2t41.5 -2.5q2 0 8 -1t7 -1v-2q0 -4 -3.5 -17.5t-4 -22.5t5.5 -26q137 31 176 31 q33 0 57 -8q36 -12 70 -41.5t55 -65.5q72 -138 72 -328q0 -42 -4 -112v-86q0 -107 -10 -158q-19 -112 -80 -184q-40 -53 -96.5 -83t-118.5 -26q-22 -3 -48 7t-43.5 22t-46.5 35q0 -6 -1 -32.5t-1 -31.5l-8 -334q44 5 57 2q1 -13 -1 -27t-6 -31.5t-5 -27.5q-10 -2 -29 -2.5 t-24 -1.5q-33 -2 -94 -2q-41 0 -47 2q-7 4 -11 25q0 5 -1.5 20t-0.5 23zM221 661q0 -12 0.5 -16.5t1.5 -15t2 -16t2.5 -15t3.5 -16t5 -14.5t6 -15q106 -116 217 -74q79 57 102 199q19 109 19 256q0 76 -7 172q-15 105 -69 174q-36 55 -98 55q-36 0 -78 -22 q-47 -23 -64.5 -64.5t-25.5 -105.5q-15 -99 -15 -287q0 -82 -2 -119v-30v-15v-16v-15z" />
<glyph unicode="&#xdf;" horiz-adv-x="911" d="M57 6q-5 14 2 21q6 6 31 6h14l-18 1028q0 155 4 227q8 115 25 176q13 62 56 102.5t108 55.5h-3q52 12 101 12q42 0 94 -10q87 -16 139 -80q65 -72 96.5 -176.5t26.5 -206.5q-3 -82 -41 -133l-61 -61l43 -47l28 -29q53 -53 80 -109q49 -107 56 -182l6 -39q10 -55 10 -92 q3 -180 -98 -289q-50 -54 -99 -84q-31 -24 -57 -33l4 3l-24 -11q-4 -2 -13 -4t-12 -4q-6 -2 -14 -6q-6 -4 -18.5 -7.5t-14.5 -4.5q-27 -6 -55 -6q-40 0 -47 2q-32 5 -41 12q-40 24 -48 57q-4 8 -4 41q0 18 29 37q9 6 20 10t18.5 6.5t22.5 3.5t20 1h23h21q25 0 39 -7 q19 -8 39 -8q23 0 35 4l26 13q4 2 12.5 6t12.5 6q3 3 16.5 13t20.5 16q23 28 30 38q43 58 50 86q10 41 10 103q3 121 -19.5 199t-66.5 127.5t-129 105.5q-25 18 -58 25v-2q-67 21 -118 18q-11 -2 -16.5 3t-8.5 22q-1 10 3.5 18.5t6.5 21.5l1 6q1 6 1 11q10 20 31 20 q65 -17 131 19q34 18 69.5 54t45.5 67l6 63q3 44 -27 115t-63 104q-15 31 -69.5 53.5t-122.5 13t-107 -66.5q-45 -67 -55 -217l-5 -78q-9 -113 -6 -180l27 -670q2 -23 2 -63q0 -7 0.5 -42.5t0.5 -65.5t-1 -44v-37q6 0 18 -4q4 0 18.5 1.5t20.5 0.5q5 -1 7.5 -4.5t3.5 -7 t1.5 -9t0.5 -7.5q0 -5 4 -21q0 -3 -1 -10t-1 -10q6 -12 4 -19q-2 -2 -6 -2q-7 0 -18.5 -3t-14.5 -3h-51q-3 0 -45 -6q-8 -2 -26 -4t-20 -2q-24 -8 -30 -4q-3 1 -4.5 5t-3.5 11t-2 8q-4 23 -9 33z" />
<glyph unicode="&#xe0;" d="M57 428q2 72 32.5 148.5t80.5 117.5q143 117 297 21q0 1 1 33.5t1 44.5q0 96 -12 137t-58.5 59.5t-72.5 -22.5q-3 -17 -3.5 -22t2.5 -24t3 -22q6 -40 -16.5 -61.5t-63.5 -16.5q-38 6 -64 29q-7 7 -11 12.5t-5.5 13.5t-2 11.5t0 15t0.5 15.5q0 53 18 90q22 43 62 72.5 t88 29.5q63 0 127 -33.5t94 -87.5q16 -29 24 -69t7.5 -77t-0.5 -79l-11 -672q56 11 97 6v-24q1 -6 3 -19.5t3 -24.5t0 -20q-8 -4 -17.5 -5t-25.5 0t-19 1q-22 0 -81 3t-68 5l2 86l-37 -45q-91 -52 -152 -41.5t-130 84.5q-60 57 -77.5 136t-15.5 194zM152.5 410.5 q0.5 -49.5 4 -82t7.5 -45.5q14 -58 53 -95.5t88 -37.5q56 0 105 49q65 70 65 207q0 79 -16 141q-10 45 -31.5 64t-69.5 30q-89 20 -145 -41q-31 -34 -46 -87t-14.5 -102.5zM243.5 1351q-5.5 13 0.5 21q23 27 104 33q12 0 20 -9.5t12.5 -25t6.5 -29.5t3.5 -30.5t2.5 -20.5 q1 -7 3.5 -25.5t2.5 -26t-2 -24.5q-6 -28 -29 -29t-38 19q-13 18 -31 54.5t-23 44.5q-1 2 -14 18.5t-18.5 29.5z" />
<glyph unicode="&#xe1;" d="M57 428q2 72 32.5 148.5t80.5 117.5q143 117 297 21q0 1 1 33.5t1 44.5q0 96 -12 137t-58.5 59.5t-72.5 -22.5q-3 -17 -3.5 -22t2.5 -24t3 -22q6 -40 -16.5 -61.5t-63.5 -16.5q-38 6 -64 29q-7 7 -11 12.5t-5.5 13.5t-2 11.5t0 15t0.5 15.5q0 53 18 90q22 43 62 72.5 t88 29.5q63 0 127 -33.5t94 -87.5q16 -29 24 -69t7.5 -77t-0.5 -79l-11 -672q56 11 97 6v-24q1 -6 3 -19.5t3 -24.5t0 -20q-8 -4 -17.5 -5t-25.5 0t-19 1q-22 0 -81 3t-68 5l2 86l-37 -45q-91 -52 -152 -41.5t-130 84.5q-60 57 -77.5 136t-15.5 194zM152.5 410.5 q0.5 -49.5 4 -82t7.5 -45.5q14 -58 53 -95.5t88 -37.5q56 0 105 49q65 70 65 207q0 79 -16 141q-10 45 -31.5 64t-69.5 30q-89 20 -145 -41q-31 -34 -46 -87t-14.5 -102.5zM375.5 1296.5q0.5 8.5 3.5 26t4 25.5q0 2 0.5 13t1.5 19.5t3 21.5t5 22.5t7 18.5t11 14t15 5 q84 -5 104 -32q7 -5 3 -16.5t-10 -20t-14.5 -19.5t-10.5 -14q-5 -8 -23 -44t-31 -54q-15 -20 -38 -19t-29 29q-2 16 -1.5 24.5z" />
<glyph unicode="&#xe2;" d="M57 428q2 72 32.5 148.5t80.5 117.5q143 117 297 21q0 1 1 33.5t1 44.5q0 96 -12 137t-58.5 59.5t-72.5 -22.5q-3 -17 -3.5 -22t2.5 -24t3 -22q6 -40 -16.5 -61.5t-63.5 -16.5q-38 6 -64 29q-7 7 -11 12.5t-5.5 13.5t-2 11.5t0 15t0.5 15.5q0 53 18 90q22 43 62 72.5 t88 29.5q63 0 127 -33.5t94 -87.5q16 -29 24 -69t7.5 -77t-0.5 -79l-11 -672q56 11 97 6v-24q1 -6 3 -19.5t3 -24.5t0 -20q-8 -4 -17.5 -5t-25.5 0t-19 1q-22 0 -81 3t-68 5l2 86l-37 -45q-91 -52 -152 -41.5t-130 84.5q-60 57 -77.5 136t-15.5 194zM152.5 410.5 q0.5 -49.5 4 -82t7.5 -45.5q14 -58 53 -95.5t88 -37.5q56 0 105 49q65 70 65 207q0 79 -16 141q-10 45 -31.5 64t-69.5 30q-89 20 -145 -41q-31 -34 -46 -87t-14.5 -102.5zM168 1210q147 113 194 142q116 -90 189 -142l-59 -67q5 4 -8 15l-42 34q-67 46 -80 53 q-58 -33 -88 -51.5t-34 -23t-9 -10.5t-18 -15q2 4 -4.5 11.5t-17 19.5t-15.5 22z" />
<glyph unicode="&#xe3;" horiz-adv-x="743" d="M57 428q2 72 32.5 148.5t80.5 117.5q143 117 297 21q0 1 1 33.5t1 44.5q0 96 -12 137t-58.5 59.5t-72.5 -22.5q-3 -17 -3.5 -22t2.5 -24t3 -22q6 -40 -16.5 -61.5t-63.5 -16.5q-38 6 -64 29q-7 7 -11 12.5t-5.5 13.5t-2 11.5t0 15t0.5 15.5q0 53 18 90q22 43 62 72.5 t88 29.5q63 0 127 -33.5t94 -87.5q16 -29 24 -69t7.5 -77t-0.5 -79l-11 -672q56 11 97 6v-24q1 -6 3 -19.5t3 -24.5t0 -20q-8 -4 -17.5 -5t-25.5 0t-19 1q-22 0 -81 3t-68 5l2 86l-37 -45q-91 -52 -152 -41.5t-130 84.5q-60 57 -77.5 136t-15.5 194zM72 1268q4 29 43 63 q67 67 147 64q26 -3 51 -17q18 -7 31 -20l6 -6q58 -54 113 -74q69 -24 92 18q7 14 14 35q6 40 6 41q27 45 62 39q39 -9 49 -51q10 -86 -49 -139q-27 -22 -64 -41q-32 -13 -69 -13q-45 0 -98.5 21.5t-90.5 52.5q-51 39 -94 39q-6 0 -17 -2t-16 -2q-8 0 -16 -16l-10 -35 q-14 -28 -23 -31q-35 -18 -59 31q-9 33 -8 43zM152.5 410.5q0.5 -49.5 4 -82t7.5 -45.5q14 -58 53 -95.5t88 -37.5q56 0 105 49q65 70 65 207q0 79 -16 141q-10 45 -31.5 64t-69.5 30q-89 20 -145 -41q-31 -34 -46 -87t-14.5 -102.5z" />
<glyph unicode="&#xe4;" d="M57 428q2 72 32.5 148.5t80.5 117.5q143 117 297 21q0 1 1 33.5t1 44.5q0 96 -12 137t-58.5 59.5t-72.5 -22.5q-3 -17 -3.5 -22t2.5 -24t3 -22q6 -40 -16.5 -61.5t-63.5 -16.5q-38 6 -64 29q-7 7 -11 12.5t-5.5 13.5t-2 11.5t0 15t0.5 15.5q0 53 18 90q22 43 62 72.5 t88 29.5q63 0 127 -33.5t94 -87.5q16 -29 24 -69t7.5 -77t-0.5 -79l-11 -672q56 11 97 6v-24q1 -6 3 -19.5t3 -24.5t0 -20q-8 -4 -17.5 -5t-25.5 0t-19 1q-22 0 -81 3t-68 5l2 86l-37 -45q-91 -52 -152 -41.5t-130 84.5q-60 57 -77.5 136t-15.5 194zM152.5 410.5 q0.5 -49.5 4 -82t7.5 -45.5q14 -58 53 -95.5t88 -37.5q56 0 105 49q65 70 65 207q0 79 -16 141q-10 45 -31.5 64t-69.5 30q-89 20 -145 -41q-31 -34 -46 -87t-14.5 -102.5zM243.5 1210q0.5 24 15 49t36.5 33q32 11 63 -16q19 -26 6.5 -58.5t-36.5 -48.5q-42 -11 -63.5 3 t-21 38zM434 1202q-21 39 13 69q32 28 70 15q26 -11 40 -41q18 -43 -20 -63q-23 -15 -56 -10t-47 30z" />
<glyph unicode="&#xe5;" d="M57 428q2 72 32.5 148.5t80.5 117.5q143 117 297 21q0 1 1 33.5t1 44.5q0 96 -12 137t-58.5 59.5t-72.5 -22.5q-3 -17 -3.5 -22t2.5 -24t3 -22q6 -40 -16.5 -61.5t-63.5 -16.5q-38 6 -64 29q-7 7 -11 12.5t-5.5 13.5t-2 11.5t0 15t0.5 15.5q0 53 18 90q22 43 62 72.5 t88 29.5q63 0 127 -33.5t94 -87.5q16 -29 24 -69t7.5 -77t-0.5 -79l-11 -672q56 11 97 6v-24q1 -6 3 -19.5t3 -24.5t0 -20q-8 -4 -17.5 -5t-25.5 0t-19 1q-22 0 -81 3t-68 5l2 86l-37 -45q-91 -52 -152 -41.5t-130 84.5q-60 57 -77.5 136t-15.5 194zM152.5 410.5 q0.5 -49.5 4 -82t7.5 -45.5q14 -58 53 -95.5t88 -37.5q56 0 105 49q65 70 65 207q0 79 -16 141q-10 45 -31.5 64t-69.5 30q-89 20 -145 -41q-31 -34 -46 -87t-14.5 -102.5zM218 1328q1 14 5 38t4 37q6 33 31 58t61 36h-2q28 8 52 8q87 0 137 -80q16 -31 16 -75 q3 -65 -41 -125q-21 -31 -58.5 -47t-78.5 -9q-82 21 -121 117q-6 28 -5 42zM295 1300q19 -43 72 -40q5 0 36 14q26 13 38.5 34t7.5 42q-6 19 -35 44t-47 25q-48 0 -69.5 -40.5t-0.5 -80.5z" />
<glyph unicode="&#xe6;" horiz-adv-x="1093" d="M57 428q2 72 32.5 148.5t80.5 117.5q143 117 297 21q0 1 1 33.5t1 44.5q0 96 -12 137t-58.5 59.5t-72.5 -22.5q-3 -17 -3.5 -22t2.5 -24t3 -22q6 -40 -16.5 -61.5t-63.5 -16.5q-38 6 -64 29q-7 7 -11 12.5t-5.5 13.5t-2 11.5t0 15t0.5 15.5q0 53 18 90q22 43 62 72.5 t88 29.5q63 0 127 -33.5t94 -87.5q16 -29 24 -69t7.5 -77t-0.5 -79l-11 -672q56 11 97 6v-24q1 -6 3 -19.5t3 -24.5t0 -20q-8 -4 -17.5 -5t-25.5 0t-19 1q-22 0 -81 3t-68 5l2 86l-37 -45q-91 -52 -152 -41.5t-130 84.5q-60 57 -77.5 136t-15.5 194zM152.5 410.5 q0.5 -49.5 4 -82t7.5 -45.5q14 -58 53 -95.5t88 -37.5q56 0 105 49q65 70 65 207q0 79 -16 141q-10 45 -31.5 64t-69.5 30q-89 20 -145 -41q-31 -34 -46 -87t-14.5 -102.5zM487 360q-3 190 35 383q11 57 30 107.5t50 98t78.5 73t105.5 20.5q113 -7 175 -81q53 -68 69 -216 q8 -44 8 -104q0 -72 -8 -135v-6h-45q-15 0 -47 2t-47 2q-106 4 -160 4q-41 0 -115 -4q-46 -11 -26 -219q7 -72 43.5 -129t101.5 -64q64 -7 84 39q10 17 6 66t0 67q5 25 29.5 37t52.5 9t47 -17q20 -13 27 -39t6 -41.5t-6 -48.5q-15 -110 -66 -135q-96 -39 -161 -39 q-84 0 -154 55q-65 50 -88 128t-25 187zM608 683.5q-4 -50.5 6 -87.5q32 2 140 2q12 0 35 -1t34 -1q70 0 129 12q10 85 0 137l-6 19q-26 92 -61 129q-43 43 -88 43q-31 0 -74 -18h2q-38 -13 -65 -52t-37.5 -85.5t-14.5 -97z" />
<glyph unicode="&#xe7;" horiz-adv-x="620" d="M55 381q0 43 4 133q0 12 1 35t1 35v121q0 57 5 96q9 81 51.5 152.5t109.5 111.5h-2q50 29 99 29q28 0 61 -13q19 -7 39 -17t48.5 -27t48.5 -38t34.5 -46t11 -55.5t-25.5 -61.5q-7 -9 -30 -17t-53 -5.5t-48 22.5q-10 10 -24 48.5t-24 49.5q-1 1 -10 12t-13 15t-12.5 9.5 t-17.5 6.5q-34 8 -69 -31q-6 -6 -21 -26q-37 -66 -48 -144.5t-11 -183.5v-21q0 -116 6 -215v-20q4 -99 29 -148q21 -36 72 -64q68 -37 90 1q8 14 8 39q0 30 12 57q14 28 42 37t56 -8q30 -17 39.5 -51.5t-6.5 -63.5q-30 -58 -89 -89.5t-126 -31.5q-55 0 -98 19t-74 73 q-16 23 -37 68q-29 79 -29 207zM123 -176q0 1 2 8t4 12q5 14 8 19q4 7 21 16q28 7 49 -8q3 -3 9 -10t11.5 -12t10.5 -9q16 -9 36 -6q13 0 25 6q3 2 16 15q1 2 3.5 5t3.5 5q1 1 2 3t2 3l2 4v-2q19 44 -29 70l-49 16q0 27 -7.5 61t-6.5 58q33 -8 71.5 -9t65.5 9q0 -23 -2 -31 q-7 -68 47 -94q20 -14 34 -33t20 -43t-11 -45q-20 -27 -53.5 -54.5t-63.5 -37.5q-13 -4 -35 -8q-28 -4 -39 -4h-41q-2 0 -6 1t-6 1q-9 -3 -18 0q-31 3 -52 28q-10 8 -18 31q-6 18 -6 35z" />
<glyph unicode="&#xe8;" horiz-adv-x="663" d="M57 360q-3 190 35 383q11 57 30 107.5t50 98t78.5 73t105.5 20.5q112 -7 174 -81q54 -69 70 -216q8 -44 8 -104q0 -72 -8 -135v-6h-45q-15 0 -47 2t-47 2q-106 4 -160 4q-41 0 -115 -4q-46 -11 -26 -219q7 -72 43.5 -129t101.5 -64q64 -7 84 39q10 17 6 66t0 67 q5 25 29.5 37t52.5 9t47 -17q20 -13 27 -39t6 -41.5t-6 -48.5q-15 -110 -66 -135q-96 -39 -161 -39q-84 0 -154 55q-65 50 -88 128t-25 187zM178 683.5q-4 -50.5 6 -87.5q31 2 140 2q12 0 35 -1t34 -1q70 0 129 12q10 85 0 137l-6 19q-26 92 -61 129q-43 43 -88 43 q-31 0 -74 -18h2q-38 -13 -65 -52t-37.5 -85.5t-14.5 -97zM239.5 1271q-5.5 13 0.5 21q23 27 104 33q12 0 20 -9.5t12.5 -25t6.5 -29.5t3.5 -30.5t2.5 -20.5q1 -7 3.5 -25.5t2.5 -25.5t-2 -24q-6 -28 -29 -29.5t-38 18.5q-13 18 -31 54.5t-23 44.5q-1 2 -14 18.5t-18.5 29.5 z" />
<glyph unicode="&#xe9;" horiz-adv-x="663" d="M57 360q-3 190 35 383q11 57 30 107.5t50 98t78.5 73t105.5 20.5q112 -7 174 -81q54 -69 70 -216q8 -44 8 -104q0 -72 -8 -135v-6h-45q-15 0 -47 2t-47 2q-106 4 -160 4q-41 0 -115 -4q-46 -11 -26 -219q7 -72 43.5 -129t101.5 -64q64 -7 84 39q10 17 6 66t0 67 q5 25 29.5 37t52.5 9t47 -17q20 -13 27 -39t6 -41.5t-6 -48.5q-15 -110 -66 -135q-96 -39 -161 -39q-84 0 -154 55q-65 50 -88 128t-25 187zM178 683.5q-4 -50.5 6 -87.5q31 2 140 2q12 0 35 -1t34 -1q70 0 129 12q10 85 0 137l-6 19q-26 92 -61 129q-43 43 -88 43 q-31 0 -74 -18h2q-38 -13 -65 -52t-37.5 -85.5t-14.5 -97zM324.5 1171.5q0.5 8.5 3.5 26t4 25.5q0 2 0.5 13t1.5 19.5t3 21.5t5 22.5t7 18.5t11 14t15 5q84 -5 104 -32q7 -5 2.5 -16.5t-10 -20t-14.5 -19.5t-11 -14q-5 -9 -22.5 -44.5t-30.5 -53.5q-15 -20 -38 -19t-29 29 q-2 16 -1.5 24.5z" />
<glyph unicode="&#xea;" horiz-adv-x="663" d="M57 360q-3 190 35 383q11 57 30 107.5t50 98t78.5 73t105.5 20.5q112 -7 174 -81q54 -69 70 -216q8 -44 8 -104q0 -72 -8 -135v-6h-45q-15 0 -47 2t-47 2q-106 4 -160 4q-41 0 -115 -4q-46 -11 -26 -219q7 -72 43.5 -129t101.5 -64q64 -7 84 39q10 17 6 66t0 67 q5 25 29.5 37t52.5 9t47 -17q20 -13 27 -39t6 -41.5t-6 -48.5q-15 -110 -66 -135q-96 -39 -161 -39q-84 0 -154 55q-65 50 -88 128t-25 187zM168 1157q147 112 194 141q102 -79 189 -141l-59 -67q5 4 -8 15l-42 34q-67 46 -80 53q-58 -33 -88 -51.5t-34 -23t-9 -10.5 t-18 -15q2 4 -4.5 11.5t-17 19.5t-15.5 22zM178 683.5q-4 -50.5 6 -87.5q31 2 140 2q12 0 35 -1t34 -1q70 0 129 12q10 85 0 137l-6 19q-26 92 -61 129q-43 43 -88 43q-31 0 -74 -18h2q-38 -13 -65 -52t-37.5 -85.5t-14.5 -97z" />
<glyph unicode="&#xeb;" horiz-adv-x="663" d="M57 360q-3 190 35 383q11 57 30 107.5t50 98t78.5 73t105.5 20.5q112 -7 174 -81q54 -69 70 -216q8 -44 8 -104q0 -72 -8 -135v-6h-45q-15 0 -47 2t-47 2q-106 4 -160 4q-41 0 -115 -4q-46 -11 -26 -219q7 -72 43.5 -129t101.5 -64q64 -7 84 39q10 17 6 66t0 67 q5 25 29.5 37t52.5 9t47 -17q20 -13 27 -39t6 -41.5t-6 -48.5q-15 -110 -66 -135q-96 -39 -161 -39q-84 0 -154 55q-65 50 -88 128t-25 187zM178 683.5q-4 -50.5 6 -87.5q31 2 140 2q12 0 35 -1t34 -1q70 0 129 12q10 85 0 137l-6 19q-26 92 -61 129q-43 43 -88 43 q-31 0 -74 -18h2q-38 -13 -65 -52t-37.5 -85.5t-14.5 -97zM194.5 1196q0.5 24 15 49t36.5 33q32 11 63 -16q19 -26 6.5 -58.5t-36.5 -48.5q-42 -11 -63.5 3t-21 38zM385 1188q-21 39 13 69q32 28 70 15q26 -10 40 -41q18 -44 -21 -64q-23 -15 -55.5 -9.5t-46.5 30.5z" />
<glyph unicode="&#xec;" horiz-adv-x="354" d="M55 -10q6 15 6 33q0 1 -1 8t-0.5 12t3.5 8q4 6 25 6l23 936q-34 -8 -48 -6q0 3 3.5 9.5t3.5 9.5q0 4 -1 11.5t-1 10.5q-12 35 2 47q2 1 14.5 3t15.5 3q14 2 37.5 6.5t32.5 6.5q27 2 78 2q29 4 43 2q0 -4 1 -15t1 -16q0 -2 3 -20t1 -25q-5 -8 -25 -12q-5 0 -14.5 -1 t-15.5 -1q-25 -498 -25 -693q0 -206 2 -245q38 0 49 -9q4 -4 5 -11.5t0.5 -16.5t0.5 -13q0 -1 4 -12t3 -18h-33h-62q-14 0 -41 -1.5t-49 -1.5t-41 3zM69.5 1316q-5.5 13 0.5 21q23 27 104 33q12 0 20 -9.5t12.5 -25t6.5 -29.5t3.5 -30.5t2.5 -20.5q1 -7 3.5 -25.5t2.5 -25.5 t-2 -24q-6 -28 -29 -29.5t-38 18.5q-13 18 -31 54.5t-23 44.5q-1 2 -14 18.5t-18.5 29.5z" />
<glyph unicode="&#xed;" horiz-adv-x="354" d="M55 -10q6 15 6 33q0 1 -1 8t-0.5 12t3.5 8q4 6 25 6l23 936q-34 -8 -48 -6q0 3 3.5 9.5t3.5 9.5q0 4 -1 11.5t-1 10.5q-12 35 2 47q2 1 14.5 3t15.5 3q14 2 37.5 6.5t32.5 6.5q27 2 78 2q29 4 43 2q0 -4 1 -15t1 -16q0 -2 3 -20t1 -25q-5 -8 -25 -12q-5 0 -14.5 -1 t-15.5 -1q-25 -498 -25 -693q0 -206 2 -245q38 0 49 -9q4 -4 5 -11.5t0.5 -16.5t0.5 -13q0 -1 4 -12t3 -18h-33h-62q-14 0 -41 -1.5t-49 -1.5t-41 3zM137.5 1208.5q0.5 8.5 3.5 26t4 25.5q0 2 0.5 13t1.5 19.5t3 21.5t5 22.5t7 18.5t11 14t15 5q85 -5 105 -33 q7 -5 2.5 -16.5t-10 -19.5t-14.5 -18.5t-11 -14.5q-5 -9 -22.5 -44.5t-30.5 -53.5q-15 -20 -38.5 -19t-29.5 29q-2 16 -1.5 24.5z" />
<glyph unicode="&#xee;" horiz-adv-x="493" d="M55 1202q148 112 195 141q111 -87 188 -141l-59 -67q2 2 2.5 3.5t-4.5 6.5t-15.5 13.5l-31.5 25.5q-67 46 -80 53q-58 -33 -88 -51.5t-34 -23t-9.5 -10.5t-18.5 -15q2 4 -4.5 11.5t-17 19.5t-15.5 22zM113 -10q6 15 6 33q0 1 -1 8t-0.5 12t3.5 8q4 6 24 6l23 936 q-33 -8 -47 -6q0 3 3 9.5t3 9.5q0 4 -1 11.5t-1 10.5q-12 35 2 47q2 1 15 3t16 3q14 2 36.5 6.5l32.5 6.5q27 2 78 2q29 4 43 2q0 -4 1 -15t1 -16q0 -2 3 -20t1 -25q-5 -8 -24 -12q-5 0 -15 -1t-16 -1q-25 -498 -25 -693q0 -206 2 -245q39 0 50 -9q4 -4 5 -11.5t0.5 -16.5 t0.5 -13l3 -9t3 -11t0 -10h-33h-61q-14 0 -41 -1.5t-49 -1.5t-41 3z" />
<glyph unicode="&#xef;" horiz-adv-x="430" d="M54.5 1227q0.5 24 15 49t36.5 33q32 11 64 -17q19 -26 6 -58t-37 -48q-42 -11 -63.5 3t-21 38zM68 -10q6 15 6 33q0 1 -1 8t-0.5 12t3.5 8q4 6 24 6l23 936q-33 -8 -47 -6q0 3 3 9.5t3 9.5q0 4 -1 11.5t-1 10.5q-12 35 2 47q2 1 15 3t16 3q14 2 36.5 6.5l32.5 6.5 q27 2 78 2q28 4 43 2q0 -4 1 -15t1 -16q0 -2 3 -20t1 -25q-5 -8 -24 -12q-5 0 -15 -1t-16 -1q-25 -498 -25 -693q0 -206 2 -245q39 0 50 -9q4 -4 5 -11.5t0.5 -16.5t0.5 -13l3 -9t3 -11t0 -10h-33h-61q-14 0 -41 -1.5t-49 -1.5t-41 3zM246 1219q-21 39 13 69q32 28 70 15 q26 -10 40 -41q18 -44 -21 -64q-23 -15 -55.5 -9.5t-46.5 30.5z" />
<glyph unicode="&#xf0;" horiz-adv-x="714" d="M55 1153l6 2zM59 453q0 330 131 444q24 23 58 35h-2q91 31 153 31q29 0 123 -33q1 22 4.5 61t3.5 49q0 117 -20 172t-88 123q0 -83 6 -131v2q4 -58 -2 -78q-33 -10 -61 -10q-34 0 -64 6q1 31 -2.5 107t0.5 112q-8 -5 -21.5 -17.5t-15.5 -14.5t-7 -4t-7 -4q-1 -2 -3 -6.5 t-3 -6.5q-9 -15 -11 -28q-2 -8 -2 -29v-37q0 -53 -6 -70q-21 -32 -57 -32q-50 0 -66 36q-4 16 -4 27v12v52q4 16 4 28q1 5 1 14.5t1 14.5q8 30 9 33q1 2 4 8.5t4 11.5q13 29 39 45q9 5 18 17t14 16q37 34 113 55q-11 101 0 166l4 2q83 10 103 -10q4 -15 6 -52t3.5 -67.5 t4.5 -32.5q54 -36 85 -58.5t59 -53.5t40 -54.5t23 -69.5t15 -89.5t9 -122.5q0 -9 1 -24t1 -23q-1 -60 1 -149t-4.5 -205.5t-18 -222.5t-40 -199.5t-69.5 -137.5q-51 -61 -112 -77q-37 -11 -66 -11q-104 0 -190 97q-99 135 -99 383zM156 506q0 -98 26 -211q26 -106 88 -168 q30 -29 61.5 -32.5t58 16t46 42.5t37.5 54q50 91 66 262q4 50 4 80q0 114 -37 192q-12 24 -39.5 45.5t-52.5 32.5q-58 16 -122.5 -4t-88.5 -70q-22 -43 -29 -81q-18 -97 -18 -158z" />
<glyph unicode="&#xf1;" horiz-adv-x="778" d="M57 991q-1 8 2.5 22t3.5 19q1 3 1 9.5t1 11t5 6.5h170l-4 -86q1 3 8.5 11.5t25 22t43 22.5t63 13t85.5 -6q54 -11 90 -39t55.5 -73.5t28 -87t14.5 -105.5q25 -238 25 -428q0 -138 -10 -233q36 4 55 2q4 -48 0 -72q-9 -1 -27.5 -1t-27.5 -1q-15 -2 -52.5 -0.5t-52.5 0.5 h-33q-6 2 -7 6l-1 4q0 28 -2 33l-6 18q28 4 45 4q6 147 6 287q0 199 -6 291q0 6 -1 17t-1 18q-3 53 -7 85t-21.5 76t-49.5 72q-38 21 -82 21q-94 0 -135 -70l2 2q-21 -31 -31 -69.5t-10 -73v-74.5q-5 -107 0.5 -332t5.5 -241q6 -2 16 -2.5t16.5 -2t8.5 -6.5q1 -5 -6 -45 q0 -2 0.5 -6t0.5 -6t-1.5 -5t-5.5 -5t-17 2.5t-18 3.5q-2 -2 -30.5 -1t-30.5 1q-52 0 -78 4q-5 11 -5.5 20.5t2.5 24t3 19.5q10 2 41 2q-7 444 -2 919q-52 0 -62 2zM84 1184q4 29 43 63q67 67 147 64q28 -3 52 -17q17 -7 30 -20l6 -6q58 -54 113 -74q69 -24 92 18 q10 20 15 35q6 40 6 41q27 44 61 39q39 -9 49 -51q10 -86 -49 -139q-29 -23 -63 -41q-33 -13 -70 -13q-45 0 -98 21.5t-90 52.5q-51 39 -95 39q-6 0 -16.5 -2t-15.5 -2q-9 0 -17 -16l-10 -35q-1 -2 -4 -9t-5 -10t-5.5 -7t-7.5 -5q-36 -19 -60 31q-9 33 -8 43z" />
<glyph unicode="&#xf2;" horiz-adv-x="673" d="M57 399q-4 234 31 394q18 80 65 143t119 96q46 17 80 17q50 0 101 -20.5t84 -55.5q86 -39 81 -472q-2 -188 -12 -259q-7 -81 -45 -142q-23 -43 -125 -75q-47 -15 -80 -15q-13 0 -37.5 6t-31.5 7q-65 9 -112 45t-71.5 91t-35.5 114t-11 126zM154 479q0 -103 14 -162 q14 -74 43 -124t90 -80q70 -30 127 16.5t70 118.5q6 34 6 82q0 14 -1 41t-1 41q-2 25 -2 71q3 116 -8 267v22q0 33 -2 53.5t-10.5 46.5t-28.5 42.5t-52 25.5v-2q-126 36 -194 -107q-32 -73 -49 -241q0 -17 -1 -54.5t-1 -56.5zM235.5 1273q-5.5 13 0.5 21q23 27 104 33 q12 0 20 -9.5t12.5 -25t6.5 -29.5t3.5 -30.5t2.5 -20.5q1 -7 3.5 -25.5t2.5 -25.5t-2 -24q-6 -28 -29 -29.5t-38 18.5q-13 18 -31 54.5t-23 44.5q-1 2 -14 18.5t-18.5 29.5z" />
<glyph unicode="&#xf3;" horiz-adv-x="673" d="M57 399q-4 234 31 394q18 80 65 143t119 96q46 17 80 17q50 0 101 -20.5t84 -55.5q86 -39 81 -472q-2 -188 -12 -259q-7 -81 -45 -142q-23 -43 -125 -75q-47 -15 -80 -15q-13 0 -37.5 6t-31.5 7q-65 9 -112 45t-71.5 91t-35.5 114t-11 126zM154 479q0 -103 14 -162 q14 -74 43 -124t90 -80q70 -30 127 16.5t70 118.5q6 34 6 82q0 14 -1 41t-1 41q-2 25 -2 71q3 116 -8 267v22q0 33 -2 53.5t-10.5 46.5t-28.5 42.5t-52 25.5v-2q-126 36 -194 -107q-32 -73 -49 -241q0 -17 -1 -54.5t-1 -56.5zM293.5 1204q0.5 8 3.5 25.5t4 25.5q0 2 0.5 13 t1.5 20t3 22t5 22.5t7 18.5t11 14t15 5q85 -5 105 -33q7 -5 2.5 -16.5t-10 -19.5t-14.5 -18.5t-11 -14.5q-5 -8 -23 -44.5t-31 -54.5q-15 -20 -38 -18.5t-29 29.5q-2 16 -1.5 24z" />
<glyph unicode="&#xf4;" horiz-adv-x="673" d="M57 399q-4 234 31 394q18 80 65 143t119 96q46 17 80 17q50 0 101 -20.5t84 -55.5q86 -39 81 -472q-2 -188 -12 -259q-7 -81 -45 -142q-23 -43 -125 -75q-47 -15 -80 -15q-13 0 -37.5 6t-31.5 7q-65 9 -112 45t-71.5 91t-35.5 114t-11 126zM152 1149q147 112 194 141 q102 -79 189 -141l-60 -68q2 2 2.5 3.5t-4.5 6.5t-15.5 13.5l-31.5 25.5q-73 50 -80 54q-58 -32 -88 -51t-34 -24t-9 -11t-18 -15q2 4 -4.5 12t-17 20t-15.5 22zM154 479q0 -103 14 -162q14 -74 43 -124t90 -80q70 -30 127 16.5t70 118.5q6 34 6 82q0 14 -1 41t-1 41 q-2 25 -2 71q3 116 -8 267v22q0 33 -2 53.5t-10.5 46.5t-28.5 42.5t-52 25.5v-2q-126 36 -194 -107q-32 -73 -49 -241q0 -17 -1 -54.5t-1 -56.5z" />
<glyph unicode="&#xf5;" d="M57 399q-4 234 31 394q18 80 65 143t119 96q46 17 80 17q50 0 101 -20.5t84 -55.5q86 -39 81 -472q-2 -188 -12 -259q-7 -81 -45 -142q-23 -43 -125 -75q-47 -15 -80 -15q-13 0 -37.5 6t-31.5 7q-65 9 -112 45t-71.5 91t-35.5 114t-11 126zM61 1190q4 29 43 63 q67 67 148 64q26 -3 51 -17q18 -7 31 -20l6 -6q58 -54 113 -74q20 -10 50 -6.5t42 25.5q8 16 14 34q6 40 6 41q27 45 62 39q39 -9 49 -51q10 -86 -49 -139q-27 -22 -64 -41q-30 -12 -69 -12q-46 0 -99 21.5t-90 51.5q-51 39 -94 39q-6 0 -17 -2t-16 -2q-8 0 -16 -16l-10 -35 q-14 -28 -23 -31q-35 -18 -59 31q-10 35 -9 43zM154 479q0 -103 14 -162q14 -74 43 -124t90 -80q70 -30 127 16.5t70 118.5q6 34 6 82q0 14 -1 41t-1 41q-2 25 -2 71q3 116 -8 267v22q0 33 -2 53.5t-10.5 46.5t-28.5 42.5t-52 25.5v-2q-126 36 -194 -107q-32 -73 -49 -241 q0 -17 -1 -54.5t-1 -56.5z" />
<glyph unicode="&#xf6;" horiz-adv-x="673" d="M57 399q-4 234 31 394q18 80 65 143t119 96q46 17 80 17q50 0 101 -20.5t84 -55.5q86 -39 81 -472q-2 -188 -12 -259q-7 -81 -45 -142q-23 -43 -125 -75q-47 -15 -80 -15q-13 0 -37.5 6t-31.5 7q-65 9 -112 45t-71.5 91t-35.5 114t-11 126zM154 479q0 -103 14 -162 q14 -74 43 -124t90 -80q70 -30 127 16.5t70 118.5q6 34 6 82q0 14 -1 41t-1 41q-2 25 -2 71q3 116 -8 267v22q0 33 -2 53.5t-10.5 46.5t-28.5 42.5t-52 25.5v-2q-126 36 -194 -107q-32 -73 -49 -241q0 -17 -1 -54.5t-1 -56.5zM235 1178.5q15 36.5 46 48.5q31 10 63 -17 q19 -26 6 -58t-37 -48q-55 -14 -74 12t-4 62.5zM420 1137q-21 39 13 69q32 28 70 15q26 -11 40 -41q18 -44 -21 -64q-23 -15 -55.5 -9.5t-46.5 30.5z" />
<glyph unicode="&#xf7;" horiz-adv-x="706" d="M56 578.5q-1 -10.5 1 -17.5q20 -8 81 -7t179.5 4.5t325.5 -1.5q4 0 5 10.5t0 26.5t-2.5 32t-3 30t-1.5 18l-578 12q0 -28 -3 -62.5t-4 -45zM266 936q15 46 70 59q1 0 2 -1t2 -1l-2 2h2q17 3 35 -9t24 -28q11 -22 6 -46.5t-22 -37.5q-5 -8 -18 -16.5t-23 -9.5 q-35 -2 -60.5 26t-15.5 62zM280.5 320q-8.5 37 8.5 63q16 26 46 33t54 -15q13 -13 23.5 -37.5t9.5 -46.5q1 1 2 3q0 1 0.5 1.5t1.5 0.5q2 -1 0 -3q0 -3 -3 -11.5t-5 -10.5q-12 -24 -46 -33t-57 4q-26 15 -34.5 52zM334 995h6h-6z" />
<glyph unicode="&#xf8;" horiz-adv-x="679" d="M55 500q0 255 103 415h-2q61 89 163 89q38 0 76 -13l31 -12q76 269 86 276q14 7 41 7q25 -2 39 -13.5t6 -36.5v-8q-4 -8 -4 -20l-76 -277q34 -46 51 -88q19 -43 29.5 -92t13 -75t6.5 -97q8 -99 3 -178q-11 -90 -35.5 -185.5t-48.5 -130.5q-58 -73 -156 -73q-59 0 -115 18 q-77 -276 -84 -280q-14 -3 -46 -4t-50 -5q13 72 86 342q-86 69 -100 209q-17 162 -17 232zM145 465q5 -31 5 -70q0 -31 6 -65q10 -111 41 -172q176 636 206 739q-15 10 -38 14q-67 6 -115 -39q-47 -50 -57 -120l-35 -127q-22 -106 -13 -160zM289 84q42 -10 71 -10 q58 0 84 26h-2q40 33 62 100.5t22 127.5v22q2 49 2 148q0 77 -2 110q0 4 -1 11.5t-1 11.5q-4 80 -37 162q-128 -467 -198 -709z" />
<glyph unicode="&#xf9;" horiz-adv-x="899" d="M56.5 1029.5q-4.5 28.5 0.5 41.5q6 2 20.5 2.5t18.5 1.5q60 4 90 8q16 4 40.5 3.5t33.5 -13.5q23 -41 23 -63q0 -8 -2 -9l-15 -4h-22q-25 -441 -25 -551v-49q-4 -105 23 -166q22 -43 30 -53q17 -14 55.5 -29.5t86.5 -15.5q61 0 108 23q21 12 39.5 35t24.5 45 q27 69 30 151v109v147q0 13 -1 40t-1 42q-4 163 -16 272q-2 0 -12.5 -2t-16.5 -4q-1 3 4 19v28q-1 5 -7 17.5t-5 21.5q12 3 25.5 4t31 1t27.5 1q91 14 119 11q5 -33 6 -37q1 -3 6.5 -19t5.5 -18q-2 -12 -41 -12v-56q-3 -549 11 -714q4 -53 4 -181q10 2 28 2q29 3 58 0 q2 -6 -1 -18t-3 -14q0 -27 -2 -37q-2 -5 -5.5 -8.5t-9 -5.5t-10.5 -3t-12.5 -1.5t-12 -0.5h-11.5h-9q-14 0 -57.5 -5.5t-69.5 -2.5v25q0 1 1 2t1 2l-6 61q-34 -8 -80.5 -29t-86 -33.5t-79.5 -8.5q-59 5 -129 41q-47 24 -80 77q-21 26 -41 99q-28 78 -28 538q0 47 0.5 95 t1 79.5t0.5 36.5v23v28q-25 -4 -35 -2q-17 4 -21.5 32.5zM319 1348.5q-6 13.5 0 21.5q23 27 105 33q12 0 20 -9.5t12.5 -25t6.5 -29.5t3.5 -30.5t2.5 -20.5q1 -7 3.5 -25.5t2.5 -26t-2 -24.5q-6 -28 -29 -29t-38 19q-13 18 -31 54t-23 44q-1 2 -14 18.5t-19 30z" />
<glyph unicode="&#xfa;" horiz-adv-x="899" d="M56.5 1029.5q-4.5 28.5 0.5 41.5q6 2 20.5 2.5t18.5 1.5q60 4 90 8q16 4 40.5 3.5t33.5 -13.5q23 -41 23 -63q0 -8 -2 -9l-15 -4h-22q-25 -441 -25 -551v-49q-4 -105 23 -166q22 -43 30 -53q17 -14 55.5 -29.5t86.5 -15.5q61 0 108 23q21 12 39.5 35t24.5 45 q27 69 30 151v109v147q0 13 -1 40t-1 42q-4 163 -16 272q-2 0 -12.5 -2t-16.5 -4q-1 3 4 19v28q-1 5 -7 17.5t-5 21.5q12 3 25.5 4t31 1t27.5 1q91 14 119 11q5 -33 6 -37q1 -3 6.5 -19t5.5 -18q-2 -12 -41 -12v-56q-3 -549 11 -714q4 -53 4 -181q10 2 28 2q29 3 58 0 q2 -6 -1 -18t-3 -14q0 -27 -2 -37q-2 -5 -5.5 -8.5t-9 -5.5t-10.5 -3t-12.5 -1.5t-12 -0.5h-11.5h-9q-14 0 -57.5 -5.5t-69.5 -2.5v25q0 1 1 2t1 2l-6 61q-34 -8 -80.5 -29t-86 -33.5t-79.5 -8.5q-59 5 -129 41q-47 24 -80 77q-21 26 -41 99q-28 78 -28 538q0 47 0.5 95 t1 79.5t0.5 36.5v23v28q-25 -4 -35 -2q-17 4 -21.5 32.5zM371.5 1286q0.5 8 3.5 25.5t4 25.5q0 2 0.5 13t1.5 20t3 22t5 22.5t7 18.5t11 14t15 5q84 -5 104 -33q7 -5 3 -16.5t-10 -19.5t-14.5 -19t-10.5 -14q-5 -8 -23 -44.5t-31 -54.5q-15 -20 -38 -18.5t-29 29.5 q-2 16 -1.5 24z" />
<glyph unicode="&#xfb;" horiz-adv-x="899" d="M56.5 1029.5q-4.5 28.5 0.5 41.5q6 2 20.5 2.5t18.5 1.5q60 4 90 8q16 4 40.5 3.5t33.5 -13.5q23 -41 23 -63q0 -8 -2 -9l-15 -4h-22q-25 -441 -25 -551v-49q-4 -105 23 -166q22 -43 30 -53q17 -14 55.5 -29.5t86.5 -15.5q61 0 108 23q21 12 39.5 35t24.5 45 q27 69 30 151v109v147q0 13 -1 40t-1 42q-4 163 -16 272q-2 0 -12.5 -2t-16.5 -4q-1 3 4 19v28q-1 5 -7 17.5t-5 21.5q12 3 25.5 4t31 1t27.5 1q91 14 119 11q5 -33 6 -37q1 -3 6.5 -19t5.5 -18q-2 -12 -41 -12v-56q-3 -549 11 -714q4 -53 4 -181q10 2 28 2q29 3 58 0 q2 -6 -1 -18t-3 -14q0 -27 -2 -37q-2 -5 -5.5 -8.5t-9 -5.5t-10.5 -3t-12.5 -1.5t-12 -0.5h-11.5h-9q-14 0 -57.5 -5.5t-69.5 -2.5v25q0 1 1 2t1 2l-6 61q-34 -8 -80.5 -29t-86 -33.5t-79.5 -8.5q-59 5 -129 41q-47 24 -80 77q-21 26 -41 99q-28 78 -28 538q0 47 0.5 95 t1 79.5t0.5 36.5v23v28q-25 -4 -35 -2q-17 4 -21.5 32.5zM250 1229q147 112 194 141q102 -79 189 -141l-60 -68q2 2 2.5 3.5t-4.5 6.5t-15.5 13.5l-31.5 25.5q-73 50 -80 54q-58 -32 -88 -51t-34 -24t-9 -11t-18 -15q2 4 -4.5 12t-17 20t-15.5 22z" />
<glyph unicode="&#xfc;" horiz-adv-x="899" d="M56.5 1029.5q-4.5 28.5 0.5 41.5q6 2 20.5 2.5t18.5 1.5q60 4 90 8q16 4 40.5 3.5t33.5 -13.5q23 -41 23 -63q0 -8 -2 -9l-15 -4h-22q-25 -441 -25 -551v-49q-4 -105 23 -166q22 -43 30 -53q17 -14 55.5 -29.5t86.5 -15.5q61 0 108 23q21 12 39.5 35t24.5 45 q27 69 30 151v109v147q0 13 -1 40t-1 42q-4 163 -16 272q-2 0 -12.5 -2t-16.5 -4q-1 3 4 19v28q-1 5 -7 17.5t-5 21.5q12 3 25.5 4t31 1t27.5 1q91 14 119 11q5 -33 6 -37q1 -3 6.5 -19t5.5 -18q-2 -12 -41 -12v-56q-3 -549 11 -714q4 -53 4 -181q10 2 28 2q29 3 58 0 q2 -6 -1 -18t-3 -14q0 -27 -2 -37q-2 -5 -5.5 -8.5t-9 -5.5t-10.5 -3t-12.5 -1.5t-12 -0.5h-11.5h-9q-14 0 -57.5 -5.5t-69.5 -2.5v25q0 1 1 2t1 2l-6 61q-34 -8 -80.5 -29t-86 -33.5t-79.5 -8.5q-59 5 -129 41q-47 24 -80 77q-21 26 -41 99q-28 78 -28 538q0 47 0.5 95 t1 79.5t0.5 36.5v23v28q-25 -4 -35 -2q-17 4 -21.5 32.5zM321 1282.5q15 36.5 46 48.5q32 11 63 -16q19 -26 6 -58.5t-37 -48.5q-55 -14 -74 12t-4 62.5zM506 1241q-21 39 13 69q32 28 70 15q26 -11 40 -41q18 -43 -21 -63q-23 -15 -55.5 -10t-46.5 30z" />
<glyph unicode="&#xfd;" horiz-adv-x="788" d="M57 1112q4 0 27.5 3.5t49.5 6.5t56 6.5t45.5 4.5t18.5 0q16 0 22 -19q12 -28 9 -43q-24 -8 -56 -8v-55q0 -26 -1 -69t-1 -52q-3 -34 -5.5 -100.5t-0.5 -178t12.5 -207.5t39.5 -174.5t75 -93.5q27 -9 67.5 -1.5t61.5 22.5q24 17 40 50t23.5 81.5t10 75t4.5 73.5q4 62 4 90 q0 9 -1 30.5t-1 31.5v116q4 50 4 158v162h-14q-33 -4 -51 -2q0 7 -8 20.5t-9 16.5q0 2 -1.5 10.5t-3.5 15.5t-5 11q155 20 231 20q4 -1 6 -6t4.5 -12t4.5 -11q19 -26 16 -49q-6 -1 -14.5 -1t-18.5 0.5t-14 0.5h-4q-6 -198 -6 -229q4 -143 4 -430q0 -44 4 -137t4 -144 q0 -56 -10 -121q-18 -95 -47 -143q-47 -71 -103 -100q-42 -22 -92 -19q-3 0 -17.5 3t-21.5 3q-16 -2 -35 7q-38 14 -66 42.5t-9 59.5q14 26 52 39t64 0q7 -3 20.5 -14.5t22.5 -12.5q58 -14 99 76q16 30 26 76q6 20 9 43q0 38 2 39q-128 -102 -246 -75.5t-162 157.5h-2 q-3 8 -10.5 23.5t-11 24t-7 21.5t-4.5 25q-8 33 -8 67q0 31 -2 43v-2q-3 57 -8 340v86q-6 74 -6 250v25q-8 -1 -25 -4t-25 -4q0 9 -3.5 29.5t-2.5 31.5zM359 1230.5q1 8.5 4 25.5t4 26q0 2 0.5 13t1.5 20t3 22t5 22.5t7 18.5t11 14t15 5q84 -5 104 -33q7 -5 2.5 -16.5 t-10 -20t-14.5 -19.5t-11 -14q-5 -9 -22.5 -44.5t-30.5 -53.5q-15 -20 -38.5 -19t-29.5 29q-2 16 -1 24.5z" />
<glyph unicode="&#xfe;" horiz-adv-x="731" d="M57 -328q1 5 1.5 7t2.5 4t4.5 2.5t8.5 1.5q29 0 45 2q-4 1309 16 1540h-14q-18 -3 -37 0q10 30 2 57q-1 3 -3 10.5t-3 10.5l-4 3q-5 3 -6 5q-1 4 -1 4.5t4 0.5t7 1q11 3 22 5t26.5 2t26.5 -0.5t36.5 -2t41.5 -2.5q2 0 8 -1t7 -1v-2q0 -2 -2 -38t-4 -73.5t-1.5 -74.5 t5.5 -46q137 31 176 31q33 0 57 -8q36 -12 70 -41t55 -65q72 -138 72 -328q0 -43 -4 -113v-86q0 -107 -10 -158q-19 -112 -80 -184q-40 -53 -96.5 -82.5t-118.5 -25.5q-29 0 -54 14q-5 2 -9 4.5t-8 4t-21 5t-46 6.5q0 -8 -1 -18.5t-1 -15.5l-8 -334q44 5 57 2q1 -13 -1 -27 t-6 -31.5t-5 -27.5q-10 -2 -29 -2.5t-24 -1.5q-33 -2 -94 -2q-41 0 -47 2q-7 4 -11 24q0 5 -1.5 20t-0.5 23zM221 337q0 -12 0.5 -16.5t1.5 -15t2 -16t2.5 -15t3.5 -16t5 -14.5t6 -15q106 -115 217 -73q79 57 102 198q19 109 19 256q0 76 -7 172q-15 105 -69 174 q-37 56 -98 56q-34 0 -78 -23q-47 -23 -64.5 -64.5t-25.5 -105.5q-15 -99 -15 -287q0 -81 -2 -118v-31v-15v-16v-15z" />
<glyph unicode="&#xff;" horiz-adv-x="788" d="M57 1112q4 0 27.5 3.5t49.5 6.5t56 6.5t45.5 4.5t18.5 0q16 0 22 -19q12 -28 9 -43q-24 -8 -56 -8v-55q0 -26 -1 -69t-1 -52q-3 -34 -5.5 -100.5t-0.5 -178t12.5 -207.5t39.5 -174.5t75 -93.5q27 -9 67.5 -1.5t61.5 22.5q24 17 40 50t23.5 81.5t10 75t4.5 73.5q4 62 4 90 q0 9 -1 30.5t-1 31.5v116q4 50 4 158v162h-14q-33 -4 -51 -2q0 7 -8 20.5t-9 16.5q0 2 -1.5 10.5t-3.5 15.5t-5 11q155 20 231 20q4 -1 6 -6t4.5 -12t4.5 -11q19 -26 16 -49q-6 -1 -14.5 -1t-18.5 0.5t-14 0.5h-4q-6 -198 -6 -229q4 -143 4 -430q0 -44 4 -137t4 -144 q0 -56 -10 -121q-18 -95 -47 -143q-47 -71 -103 -100q-42 -22 -92 -19q-3 0 -17.5 3t-21.5 3q-16 -2 -35 7q-38 14 -66 42.5t-9 59.5q14 26 52 39t64 0q7 -3 20.5 -14.5t22.5 -12.5q58 -14 99 76q16 30 26 76q6 20 9 43q0 38 2 39q-128 -102 -246 -75.5t-162 157.5h-2 q-3 8 -10.5 23.5t-11 24t-7 21.5t-4.5 25q-8 33 -8 67q0 31 -2 43v-2q-3 57 -8 340v86q-6 74 -6 250v25q-8 -1 -25 -4t-25 -4q0 9 -3.5 29.5t-2.5 31.5zM282.5 1221q0.5 24 15 49t36.5 33q31 10 63 -17q19 -26 6.5 -58t-36.5 -48q-42 -11 -63.5 3t-21 38zM473 1212 q-21 39 13 69q32 28 70 15q26 -11 40 -41q18 -43 -21 -63q-23 -15 -55.5 -10t-46.5 30z" />
<glyph unicode="&#x152;" horiz-adv-x="1165" d="M56 621q-2 137 1 253.5t9.5 195t20.5 142t30 101t43 66.5t56 44t71 27q24 6 55 6q67 0 133 -27.5t111 -72.5q54 -47 80 -131t26 -170q-1 -345 -11.5 -509.5t-37.5 -301.5q-60 -155 -151 -211h2q-75 -43 -162 -43q-82 0 -137 41q-49 35 -92 123t-40 143q-5 187 -7 324z M146 516q-1 -44 1 -91t11 -108q8 -68 28 -104q24 -48 71 -74t101 -26q71 0 127 39q12 9 21.5 20t15.5 19.5t12.5 23.5t9 21.5t8 25t7.5 23.5h-2q19 67 27 180q10 34 10 602q0 95 -33 168q-28 54 -83.5 87.5t-117.5 33.5q-44 0 -88 -21h2q-37 -26 -62 -67t-36.5 -94 t-15.5 -91t-6 -92q-1 -158 -4 -294.5t-4 -180.5zM592 -8q3 347 4.5 709t1 544.5t0.5 188.5q58 4 147.5 4t199.5 -2t153 -2q7 -30 9 -79.5t-5 -92.5q-3 -8 -36 -10t-42 3q-3 1 -5.5 4t-4 8t-2 9t-1.5 10t-1 8q-3 11 -17 49h-14q-46 3 -88 3q-120 0 -164 -9q-9 -348 -9 -442 t11 -180l109 10q77 14 106 14q6 -18 6 -59q0 -47 -4 -51h2q-37 -12 -98 -15q-68 0 -127 -18q-10 -93 -10 -238q0 -160 6 -249q72 -19 172 -19h80h10q-3 6 -11.5 44t-4.5 46q22 2 62 0t56 -4q4 -18 4 -115q0 -10 3 -35t2 -40q-9 0 -250 3t-250 3z" />
<glyph unicode="&#x153;" horiz-adv-x="1058" d="M57 399q-4 234 31 394q18 80 65 143t119 96q46 17 80 17q50 0 101 -20.5t84 -55.5q86 -39 81 -472q-2 -188 -12 -259q-7 -81 -45 -142q-23 -43 -125 -75q-47 -15 -80 -15q-13 0 -37.5 6t-31.5 7q-65 9 -112 45t-71.5 91t-35.5 114t-11 126zM154 479q0 -103 14 -162 q14 -74 43 -124t90 -80q70 -30 127 16.5t70 118.5q6 34 6 82q0 14 -1 41t-1 41q-2 25 -2 71q3 116 -8 267v22q0 33 -2 53.5t-10.5 46.5t-28.5 42.5t-52 25.5v-2q-126 36 -194 -107q-32 -73 -49 -241q0 -17 -1 -54.5t-1 -56.5zM453 360q-3 195 34 383q9 45 22 85.5t35.5 82.5 t51 71.5t69 46.5t87.5 13q112 -7 174 -81q53 -68 69 -216q9 -49 9 -104q0 -65 -9 -135v-6h-45q-16 0 -47 2t-47 2q-106 4 -160 4q-40 0 -114 -4q-47 -12 -27 -219q7 -72 43.5 -129t101.5 -64q64 -7 84 39q10 22 6.5 65.5t0.5 67.5q5 25 29.5 37t52.5 9t47 -17q15 -10 23 -24 t8 -37t-0.5 -32t-4.5 -36q-15 -110 -65 -135q-96 -39 -162 -39q-84 0 -154 55q-65 50 -87.5 127.5t-24.5 187.5zM573.5 683.5q-3.5 -50.5 6.5 -87.5q32 2 139 2q11 0 34 -1t35 -1q71 0 130 12q10 85 0 137l-7 19q-26 92 -61 129q-43 43 -88 43q-30 0 -74 -18h2 q-38 -13 -65 -52t-37.5 -85.5t-14 -97z" />
<glyph unicode="&#x178;" horiz-adv-x="851" d="M57 1507q4 10 52 13.5t92.5 2.5t66.5 1q16 2 3 -44q-3 -13 -7 -20q-22 -3 -45 4q30 -132 103.5 -333.5t101.5 -301.5q25 52 49 116.5t47.5 144.5t37 128t36 135.5t24.5 96.5q-9 -4 -18.5 -5t-24.5 0t-18 1q0 7 -1.5 34t-0.5 40h231q6 -8 9.5 -32t-4.5 -32q-3 -2 -27 -2 h-35q-94 -278 -144 -425.5t-76.5 -229t-32 -102t-7.5 -33.5q10 -478 4 -601q2 0 8.5 1t11.5 1t9 -2q10 -3 12.5 -12t0 -25t-2.5 -18q-10 -8 -80.5 -9.5t-89.5 3.5q-3 1 -6 12q-2 4 -6 13.5t-6 16t-2 13.5q24 5 53 9q-3 270 -1.5 397.5t2.5 163.5t1 37q-16 66 -125 382.5 t-135 413.5q-33 4 -45 0q-3 2 -5 11.5t-4 11.5q0 1 -3.5 11t-2.5 13zM306.5 1565q0.5 24 15 49t36.5 33q32 11 64 -17q19 -26 6 -58t-37 -48q-42 -11 -63.5 3t-21 38zM498 1556q-21 39 13 69q32 28 70 15q26 -11 40 -41q18 -43 -21 -63q-23 -15 -55.5 -10t-46.5 30z" />
<glyph unicode="&#x2c6;" horiz-adv-x="493" d="M55 1423q148 113 195 142q125 -98 188 -142l-59 -67q2 2 2.5 3.5t-4.5 6.5t-15.5 13.5l-31.5 25.5q-67 46 -80 53q-58 -33 -88 -51.5t-34 -23t-9.5 -10.5t-18.5 -15q2 4 -4.5 11.5t-17 19.5t-15.5 22z" />
<glyph unicode="&#x2dc;" horiz-adv-x="727" d="M57 1538q4 30 43 64q66 66 148 63q29 -3 51 -16q17 -7 31 -21l6 -6q58 -54 113 -74q20 -10 50 -6.5t42 25.5q7 14 14 35q5 38 6 40q27 45 62 39q39 -9 49 -51q10 -86 -49 -139q-27 -22 -64 -41q-30 -12 -70 -12q-46 0 -98.5 21t-89.5 52q-51 39 -94 39q-6 0 -17 -2 t-16 -2q-8 0 -16 -16l-11 -35q-1 -2 -4 -9t-5 -10t-5.5 -7t-7.5 -5q-35 -18 -59 31q-10 35 -9 43z" />
<glyph unicode="&#x2000;" horiz-adv-x="952" />
<glyph unicode="&#x2001;" horiz-adv-x="1905" />
<glyph unicode="&#x2002;" horiz-adv-x="952" />
<glyph unicode="&#x2003;" horiz-adv-x="1905" />
<glyph unicode="&#x2004;" horiz-adv-x="635" />
<glyph unicode="&#x2005;" horiz-adv-x="476" />
<glyph unicode="&#x2006;" horiz-adv-x="317" />
<glyph unicode="&#x2007;" horiz-adv-x="317" />
<glyph unicode="&#x2008;" horiz-adv-x="238" />
<glyph unicode="&#x2009;" horiz-adv-x="381" />
<glyph unicode="&#x200a;" horiz-adv-x="105" />
<glyph unicode="&#x2010;" horiz-adv-x="647" d="M57 663.5q4 30.5 17 28.5l49 -6q9 0 31.5 -1t35.5 -1h398q5 -2 2.5 -64.5t-4.5 -64.5q-8 2 -31.5 2t-55 -0.5t-77.5 2.5l-129 6q-204 9 -219 8q-10 -1 -15.5 29.5t-1.5 61z" />
<glyph unicode="&#x2011;" horiz-adv-x="647" d="M57 663.5q4 30.5 17 28.5l49 -6q9 0 31.5 -1t35.5 -1h398q5 -2 2.5 -64.5t-4.5 -64.5q-8 2 -31.5 2t-55 -0.5t-77.5 2.5l-129 6q-204 9 -219 8q-10 -1 -15.5 29.5t-1.5 61z" />
<glyph unicode="&#x2012;" horiz-adv-x="647" d="M57 663.5q4 30.5 17 28.5l49 -6q9 0 31.5 -1t35.5 -1h398q5 -2 2.5 -64.5t-4.5 -64.5q-8 2 -31.5 2t-55 -0.5t-77.5 2.5l-129 6q-204 9 -219 8q-10 -1 -15.5 29.5t-1.5 61z" />
<glyph unicode="&#x2013;" horiz-adv-x="696" d="M55 651v60q0 11 8 14q2 2 11 2l121 -2h370q24 -3 51 -6q5 0 17 -4q4 0 4 -10q4 -40 4 -64q0 -18 -12 -18q-27 0 -39 2q-48 0 -303 10h-174h-25h-25q-8 0 -8 16z" />
<glyph unicode="&#x2014;" horiz-adv-x="1089" d="M57.5 696.5q-2.5 19.5 1.5 24.5q6 4 15.5 5.5t22.5 1.5t18 1q8 0 23.5 1t23.5 1q19 1 60.5 2t60.5 2q161 0 243 -2q41 0 86.5 -1t101.5 -2.5t87 -2.5h129q10 0 30 -1t35.5 -1t28.5 2q5 -8 6.5 -18t0.5 -27t-1 -20q0 -2 2 -17t0.5 -25.5t-8.5 -15.5q-99 0 -285 15.5 t-270 17.5q-97 2 -285 -2l-65 -4q-5 0 -16 -1.5t-20.5 -1.5t-16.5 3q-4 1 -6 6.5t-2 10.5t0.5 12.5t0.5 9.5q1 7 -1.5 26.5z" />
<glyph unicode="&#x2018;" horiz-adv-x="284" d="M59 1391q3 3 9.5 24t19.5 31q4 13 17 23.5t30 3.5q7 -8 4.5 -16.5t-5 -11.5t-9.5 -8.5t-10 -9.5q-16 -18 -19 -61q11 4 18 19.5t13 19.5q17 10 41 6q32 -1 47.5 -24.5t13 -53.5t-19.5 -51q-27 -33 -58 -34.5t-53 19.5t-34 56t-5 68z" />
<glyph unicode="&#x2019;" horiz-adv-x="268" d="M60.5 1435q-10.5 38 9.5 66q19 29 50.5 29.5t57.5 -21.5t33 -53q7 -47 -10 -86q-7 -25 -21 -39q-1 -1 -4.5 -5.5t-5 -6l-5 -5t-6 -5t-6 -3.5t-6.5 -1.5t-6.5 1t-7.5 3.5q-3 22 21.5 51.5t19.5 54.5q-1 -1 -8 -6.5t-9.5 -7t-10.5 -6t-11.5 -4.5t-13 -2t-15.5 2 q-35 6 -45.5 44z" />
<glyph unicode="&#x201a;" horiz-adv-x="284" d="M57 111q5 37 43.5 56t75.5 -1q47 -37 51 -84q4 -76 -43 -107q-2 -1 -14.5 -8t-24.5 -11.5t-20 -2.5q-13 21 -10 33q3 2 12.5 5t19.5 7q27 14 27 45q-38 -26 -80 -0.5t-37 68.5z" />
<glyph unicode="&#x201c;" horiz-adv-x="468" d="M56.5 1388.5q7.5 48.5 35.5 75.5q16 16 33 30t20 17q7 4 20.5 -6t18.5 -22q-6 -5 -19.5 -16.5t-18 -16t-12.5 -14t-13 -18.5t-8 -21q26 20 63 2q36 -29 31 -80q-4 -18 -14 -31q-5 -2 -16.5 -8t-20.5 -9.5t-19 -4.5q-46 -3 -67 35.5t-13.5 87zM244 1360q-4 74 41 104 q1 1 10 6.5t15.5 8.5t17 6.5t14.5 -0.5q18 -18 12 -31q-3 -2 -32 -12q-24 -12 -27 -45q38 24 80 0t39 -66q-5 -39 -44.5 -58t-76.5 1q-47 32 -49 86z" />
<glyph unicode="&#x201d;" horiz-adv-x="421" d="M59.5 1472q7.5 30 24.5 54q23 21 56.5 13t45.5 -36q29 -67 7 -129q-7 -26 -19 -43q-11 -15 -34 -22q-26 -8 -25 19v3q0 10 15.5 25t12.5 33q-20 -10 -44.5 -4.5t-35.5 26.5q-11 31 -3.5 61zM227 1483.5q12 46.5 39 58.5q38 16 70 -22t29 -76q-4 -32 -7 -49t-12.5 -39 t-23.5 -35q-7 -7 -27 -20.5t-29 -12.5q-18 11 -18 29q2 12 17 22.5t28 22t10 27.5q-11 -1 -21.5 1.5t-17 5t-17.5 8t-16 7.5q-16 26 -4 72.5z" />
<glyph unicode="&#x201e;" horiz-adv-x="421" d="M59 84.5q7 28.5 25 52.5q23 22 56.5 15t45.5 -35q29 -70 7 -129q-6 -23 -19 -45q-11 -15 -34 -22q-26 -8 -25 19v3q0 11 15.5 25.5t12.5 31.5q-19 -9 -44 -3t-36 28q-11 31 -4 59.5zM227 97q12 46 39 59q38 14 70 -24.5t29 -76.5q-4 -32 -7 -48.5t-12.5 -38.5t-23.5 -34 q-4 -6 -25.5 -20.5t-30.5 -13.5q-18 11 -18 30q2 11 17 21t28 21.5t10 27.5q-11 -1 -22 1.5t-16.5 5t-18 9.5t-15.5 9q-16 26 -4 72z" />
<glyph unicode="&#x2022;" horiz-adv-x="372" d="M58 757q5 26 14 44q20 38 51 49q32 11 71 6.5t66 -22.5q20 -13 35.5 -34.5t19.5 -45.5q8 -61 -41 -92q-57 -29 -118 -23q-25 0 -37 5t-29 22q-2 2 -8 7.5t-8 8l-6 7.5t-6 9.5t-3 10.5q-6 22 -1 48z" />
<glyph unicode="&#x2026;" horiz-adv-x="632" d="M60 43q-12 30 7.5 57t59.5 33q-2 -2 -8 -2h6q57 8 77 -37q16 -39 -8 -72q-28 -38 -83 -22q-39 13 -51 43zM260 67q4 20 17.5 37.5t31.5 24.5q30 13 64 -16q19 -26 6 -57.5t-37 -47.5q-35 -9 -55 -2.5t-25.5 24t-1.5 37.5zM449 39q-20 38 12 69q31 29 68 16q28 -9 42 -42 q18 -44 -20 -64q-23 -15 -55.5 -9.5t-46.5 30.5z" />
<glyph unicode="&#x202f;" horiz-adv-x="381" />
<glyph unicode="&#x2039;" horiz-adv-x="573" d="M63 776q154 211 259 377v-2q12 21 18 29q35 69 74 102l104 -39q-5 -11 -23 -37.5t-57 -83t-57 -82.5q-180 -260 -178 -297q1 -34 119.5 -230.5t171.5 -264.5q-5 -11 -27.5 -41t-24.5 -33q-10 -6 -25 1.5t-26 21.5q-61 69 -282 442l-13 20h2q-56 83 -35 117z" />
<glyph unicode="&#x203a;" horiz-adv-x="557" d="M55 1118q9 10 38 21.5t46 11.5q7 6 103 -137.5t183 -290.5t73 -152q-30 -45 -88.5 -139.5t-124.5 -203t-66 -109.5q-2 -2 -5 -9t-6.5 -16t-4.5 -12q-10 -20 -13 -23q-5 -3 -11 -4t-13 1t-12.5 3.5t-14 6.5t-13 7.5t-14 8.5t-12.5 8q-2 4 -14 8q5 24 207 353q58 87 61 104 l-2 -2q13 35 -83 209t-163 246l-22 41q-23 44 -29 69z" />
<glyph unicode="&#x205f;" horiz-adv-x="476" />
<glyph unicode="&#x20ac;" horiz-adv-x="743" d="M80 1094q8 137 74.5 242t191.5 137q31 8 60 8q54 0 124 -23.5t103 -71.5q4 -7 13.5 -20.5t15.5 -24.5t10 -22q33 -91 -13 -125q-37 -26 -81 -23t-78 31q-23 18 -56 59t-45 52q-47 45 -106 2q-37 -32 -64 -80q-15 -37 -22 -88q-4 -46 -4 -70q-7 -219 -10 -389 q0 -58 -1.5 -172.5t-1.5 -171.5q1 -44 5 -73.5t16 -64t40 -56.5t71 -31q30 -10 74.5 0t52.5 45q3 16 -1 57.5t3 57.5q10 35 61 38.5t78 -14.5q37 -23 47 -39q4 -7 6 -14q3 -19 3.5 -23t-6 -22.5t-7.5 -22.5q-29 -71 -94.5 -113t-147.5 -53q-73 -6 -146.5 25.5t-115.5 89.5 q-110 99 -49 963zM171 659q-3 22 3 39q2 5 6 8t10 4t10.5 1.5t11.5 0t9 -0.5q6 -1 101.5 -1t186 -1.5t91.5 -6.5q2 -12 2 -40q0 -37 -10 -37q-292 0 -410 12q-8 0 -11 22zM172.5 824.5q-0.5 16.5 3 35.5t8.5 19q44 2 182.5 -2.5t235.5 6.5q8 -1 7.5 -39t-7.5 -45 q-30 0 -166 3t-260 3q-3 3 -3.5 19.5z" />
<glyph unicode="&#x2122;" horiz-adv-x="942" d="M56.5 1462q-2.5 9 2 23t4.5 16l259 6q4 -4 5 -12.5t0 -20.5l-1 -12v-55q0 -12 -4 -16h-25q-1 6 0 17t0.5 19.5t-4.5 14.5l-12 -6q-5 -1 -15 -2t-17 -2t-11 -2l12 -463q25 0 31 -2q14 -11 8 -43q-6 1 -37.5 -0.5t-63 -1t-45.5 5.5q-4 3 -4 18t2 23q14 2 49 2v16 q2 83 -2 179.5t-9 164.5t-5 76v33q-39 8 -104 8q-11 7 -13.5 16zM387 1481q11 15 100 10l144 -283q23 23 71.5 118t67.5 149q9 6 45 6t45 -6q0 -5 6 -29t4 -31q-1 -5 -6.5 -6.5t-17.5 -2.5t-15 -1q9 -357 9 -436l28 -2q12 -12 16 -34t-10 -26q-12 -4 -73 -4q-56 0 -72 2 q0 4 -2 25.5t-2 25.5q-1 5 3.5 7t14.5 3t11 1h8q-8 53 3.5 181t4.5 144q-108 -212 -117 -262q-12 0 -16 2q-8 17 -34 79.5t-49.5 113.5t-47.5 94q-20 -230 4 -356q25 7 39 -11q5 -3 8 -21t4 -20q-15 -5 -74.5 -7.5t-80.5 7.5q-4 3 -7 21t0 24q30 4 45 2q-17 437 -16 451v21 q-27 0 -39 2q-8 38 -2 49z" />
<glyph unicode="&#x25fc;" horiz-adv-x="1095" d="M0 0v1096h1096v-1096h-1096z" />
<glyph unicode="&#xfb01;" horiz-adv-x="749" d="M43 967q-6 30 6 92h31q84 0 117 4q2 121 32.5 228.5t96.5 162.5q33 29 76 49t77 13q6 -1 24 -4.5t26 -5t23 -6t24.5 -8.5t22 -11t22.5 -15q1 -1 4 -3.5t5.5 -5t4.5 -5.5q20 -25 22 -51.5t-18 -52.5q-40 -53 -113 -41q-19 2 -41 47t-30 51q-7 6 -15.5 7t-18.5 -4 t-17.5 -10t-18.5 -16.5t-15.5 -16.5t-15.5 -17q-22 -25 -35 -64t-16.5 -63.5t-7.5 -73.5l-8 -84q28 4 72.5 1.5t68.5 2.5q23 -5 27.5 -6t12.5 -7t8.5 -14t0.5 -26q0 -44 -6 -56q-30 1 -65 3.5t-53 4t-34.5 2t-23 -2t-6.5 -7.5q3 -312 14 -550.5t12 -329.5q3 0 10 0.5t12 0.5 t10.5 -1t9 -3t5.5 -5q11 -11 -4 -64q-103 -19 -190 2q-8 3 -8 35q-9 22 0 31q10 8 63 8h2q-3 151 -10 330t-11.5 292.5t-4.5 133.5q0 63 -4 129q-57 -10 -152 0zM453 -10q6 15 6 33q0 1 -1 8t-0.5 11.5t3.5 6.5q4 6 24 6l23 918q-33 -8 -47 -6q0 3 3 8.5t3 7.5q0 4 -1 12 t-1 11q-12 35 2 47q2 1 15 3t16 3q35 6 67 12q27 2 78 2q14 2 43 2q0 -4 1 -15t1 -16q0 -2 3 -20t1 -25q-5 -8 -24 -12q-5 0 -15 -1t-16 -1q-25 -485 -25 -676q0 -202 2 -241q39 0 50 -9q4 -4 5 -11t0.5 -15.5t0.5 -12.5l3 -9t3 -11t0 -10h-33h-61q-13 0 -39.5 -1.5 t-48.5 -1.5t-41 3z" />
<glyph unicode="&#xfb02;" horiz-adv-x="638" />
</font>
</defs>
</svg>
