<?xml version="1.0" standalone="no"?>
<!DOCTYPE svg PUBLIC "-//W3C//DTD SVG 1.1//EN" "http://www.w3.org/Graphics/SVG/1.1/DTD/svg11.dtd" >
<svg xmlns="http://www.w3.org/2000/svg">
<metadata></metadata>
<defs>
<font id="lunchbox_slabbold" horiz-adv-x="796" >
<font-face units-per-em="2048" ascent="1536" descent="-512" />
<missing-glyph horiz-adv-x="473" />
<glyph horiz-adv-x="0" />
<glyph horiz-adv-x="682" />
<glyph horiz-adv-x="0" />
<glyph horiz-adv-x="0" />
<glyph unicode="&#xd;" horiz-adv-x="655" />
<glyph unicode=" "  horiz-adv-x="473" />
<glyph unicode="&#x09;" horiz-adv-x="473" />
<glyph unicode="&#xa0;" horiz-adv-x="473" />
<glyph unicode="!" horiz-adv-x="342" d="M33 1241q-12 125 40 172t193 47q85 0 126.5 -54t33.5 -134q-5 -42 -18.5 -129.5t-16.5 -130.5l-51 -525q-3 -34 -4 -94.5t-4 -87.5q-4 -29 -26 -38t-75 -9q-48 0 -75 2h2q-42 2 -56 158l-10 108q-5 45 -7.5 155t-8.5 177q-5 54 -20.5 181t-22.5 202zM109 80q0 39 27 78 t65 39q54 0 87.5 -24.5t33.5 -76.5q0 -33 -26 -56.5t-60 -31.5h2q-28 -8 -48 -8q-81 0 -81 80z" />
<glyph unicode="&#x22;" horiz-adv-x="460" d="M68 1438q0 24 8 32v-2q6 15 53 15q64 0 82 -14t18 -74q0 -13 -4.5 -37t-5.5 -35q-1 -10 -1.5 -22.5t-1 -17t-2.5 -10t-8 -6.5t-15 -2t-27 -1q-60 0 -80 10q-2 10 -8 80q-1 8 -4.5 37.5t-3.5 46.5zM265 1351q0 14 0.5 34.5t3 36.5t6 31t10.5 24t16 10h4q70 0 117 -21 l10 -30q-4 -10 -5 -28t0 -43.5t1 -29.5q0 -52 -13.5 -65t-66.5 -13q-26 0 -54 9.5t-28 31.5q0 4 -0.5 21.5t-0.5 31.5zM422 1466v4q2 0 6 -2.5t4 -3.5z" />
<glyph unicode="#" horiz-adv-x="1216" d="M72 917q-1 15 0.5 40.5t1.5 31.5q0 5 6 41q16 13 54.5 18t86.5 6.5t64 4.5q4 36 5.5 79.5t1.5 73.5t-0.5 83t-0.5 75q0 13 -1 27t-2.5 31.5t-2.5 27.5q43 21 92 21q16 0 45 3t43 3q43 0 63 -33q0 -198 -18 -391q117 0 176 -2q0 32 -5.5 123t-2.5 141q-4 10 -4 47 q0 70 39 82h-4q32 14 127 14q39 0 59 -12t20 -49q0 -34 -4 -102.5t-4 -102.5v-154q20 0 62.5 -2t64.5 -2q21 0 64 13q7 -15 11.5 -30.5t6.5 -37.5t2.5 -31.5t0 -39.5t-0.5 -33q0 -52 -22 -76q-101 0 -203 12v-102v-62q63 7 108 2q3 7 39 7q20 0 34 -9t20.5 -20.5t10 -32 t3.5 -34.5t-1 -38t-1 -32q0 -37 -9.5 -57.5t-41.5 -20.5q-19 0 -57 6t-58 6h-39q0 -27 -3 -80t-3 -78q0 -24 3 -73t3 -74q0 -67 -10 -129l-174 8q-45 30 -45 107q0 12 1 25t2.5 29t2.5 25q12 123 12 248q-56 6 -110 6q-18 0 -51.5 -2t-49.5 -2q0 -54 4 -162.5t4 -162.5 q0 -9 3.5 -27.5t3.5 -26.5q0 -17 -4.5 -28.5t-15.5 -17.5t-21 -9t-31 -2.5t-35 1.5t-43 4.5t-45 4.5q-20 29 -20 340l1 43q0 43 -1 43q-15 0 -47 -3t-48 -3q-44 0 -84 19q-22 50 -22 133v28q29 50 90 50q19 0 55.5 -6t50.5 -7h5v201q-82 -10 -152 -10q-20 0 -33 10t-17 30 t-5 35zM479 643h82q88 0 131 2v197q-133 14 -176 14q-2 0 -12 -1t-12 1q-1 -20 -6.5 -96t-6.5 -117z" />
<glyph unicode="$" horiz-adv-x="829" d="M31 250q2 52 31.5 88t78.5 39q68 4 93 -42t-15 -97q-30 -39 -17 -69t46.5 -48t73.5 -21q8 57 9 122.5t-2 151t-3 122.5q-27 31 -82 86q-80 77 -140 189t-61 212q-2 69 24 128t65.5 95t79 60t67.5 33t28 4l-2 104q117 4 121 6q4 -6 7 -35t4 -54l1 -26q33 -6 60 -14 q45 -13 101.5 -58t88.5 -100q54 -86 10 -147q-26 -37 -89 -49q-68 -13 -93 21q-14 20 -6 53q5 23 6.5 30t4.5 26.5t1.5 26.5t-5 20.5t-11.5 19t-22 11t-33 7.5q-2 -41 -1.5 -110.5t-0.5 -110.5q-1 -22 -3.5 -72t-2.5 -72.5t1 -72.5v-72q30 -34 75.5 -82.5t67.5 -76.5t40 -62 q30 -60 45 -102.5t15.5 -96.5t-23.5 -102q-44 -83 -117 -119q-15 -8 -34.5 -14t-31.5 -8l-12 -1v-75q0 -93 -76 -93q-50 0 -66 11t-10 55l5 82q-25 0 -54 6q-87 22 -159 104q-83 98 -78 189zM183.5 978.5q0.5 -49.5 27.5 -110.5q1 -5 25.5 -43t52 -72t33.5 -26q-4 57 -1 204 t-6 202q-11 -1 -29.5 -7t-44.5 -25t-42 -46t-15.5 -76.5zM446 90q66 24 84 47q27 31 30 71.5t-13 76.5t-36 66.5t-37 48t-17 14.5q0 -54 -2 -105t-5 -112.5t-4 -106.5z" />
<glyph unicode="%" horiz-adv-x="1591" d="M80 1073q0 60 14 121.5t42.5 118t77.5 95t112 44.5q18 2 57 2q61 0 114 -34.5t88.5 -88t61.5 -119.5t37.5 -129t11.5 -116q0 -68 -15.5 -127t-47.5 -108t-86.5 -77t-126.5 -28q-73 0 -132 25.5t-97 68t-63.5 101t-36.5 121t-11 130.5zM266 1097.5q-5 -60.5 2.5 -121 t39 -103t77.5 -42.5q42 0 69 35t35.5 74.5t8.5 81.5q0 34 -7 69.5t-21.5 71t-42.5 58t-65 22.5q-38 0 -64.5 -42.5t-31.5 -103zM432 14q0 25 7 53.5t14 46.5t22 52.5t19 44.5q44 110 86 227t105.5 303t78.5 230q5 15 31 86.5t46 128.5t39.5 119t22.5 86q9 61 19 77 q16 26 53 35q13 4 69 4q79 0 113 -34q-6 -36 -18 -75.5t-30.5 -91t-25.5 -73.5q-36 -117 -170 -535l-219 -684q-16 -51 -129 -51q-14 0 -33 2t-43 7t-40.5 16t-16.5 26zM932 498q0 53 7 102t25.5 99.5t46.5 87.5t73.5 60t103.5 23q81 0 164 -36l2 -3q95 -60 130.5 -141 t35.5 -203q0 -105 -13 -182q-16 -111 -91 -192.5t-183 -81.5q-66 0 -119.5 31t-86.5 79.5t-55 112t-31 124t-9 120.5zM1124 449q0 -34 3.5 -66t14 -70.5t34.5 -62t59 -23.5q24 0 42.5 29.5t27 72.5t12.5 79t4 61q0 30 -3.5 59.5t-12 65t-29.5 57t-51 21.5q-32 0 -54 -24.5 t-31.5 -64.5t-12.5 -71t-3 -63z" />
<glyph unicode="&#x26;" horiz-adv-x="1040" d="M61 211q-67 230 175 567q-11 27 -51 103t-53.5 131t-0.5 118q17 86 98.5 145t169.5 48q75 -11 118 -58.5t49 -112.5t-9 -136t-50 -134.5t-79 -101.5l219 -393q13 57 11 142.5t-11 168.5h-47l2 3q2 3 4 4l-8 4q-32 73 -29 100q14 5 32.5 6.5t48 0.5t32.5 -1q26 0 84.5 5.5 t87.5 4.5q5 -90 4 -106q-13 -1 -67 -6q14 -49 19 -137.5t-6 -195.5t-40 -177q4 -7 24 -46t33 -57q12 -13 28 -20.5t41.5 -13.5t33.5 -9q52 -19 81.5 -62.5t10.5 -94.5q-11 -29 -33 -44t-48.5 -15t-53 7.5t-50.5 22.5q-52 33 -99.5 90t-65.5 111q-21 -9 -55 -31.5t-50 -30.5 q-73 -39 -143 -39q-132 0 -223.5 65.5t-133.5 174.5zM213 236q18 -68 83 -102t136 -19q37 9 75.5 36t61.5 58q-4 8 -10.5 22.5t-27 56.5t-39.5 80.5t-44 86.5t-45.5 84t-38.5 63t-28 33q-12 -14 -46 -86t-62 -168t-15 -145zM273 1038.5q12 -87.5 77 -127.5q8 3 35 40 t47.5 90.5t7.5 86.5q-10 30 -48 47t-73 -6q-58 -43 -46 -130.5z" />
<glyph unicode="'" horiz-adv-x="30" d="M-102 1430q6 21 19 34.5t33 18.5t35 6.5t38 1.5q25 0 61 -18q7 -136 18 -216l-2 7q5 -21 -52.5 -33t-115.5 -12q-16 30 -18 106.5t-16 104.5z" />
<glyph unicode="(" horiz-adv-x="559" d="M68 766q0 283 96 639q4 14 14 78t27 96q15 35 82 35q41 0 63 -5t32 -22t11.5 -32t1.5 -52q0 -65 -32.5 -194t-38.5 -166q-31 -195 -31 -342q0 -128 34 -341t79 -298q4 -8 21 -36t26 -44.5t17.5 -40.5t8.5 -41q0 -23 -10 -33l2 2q-19 -37 -113 -37h-49q-22 1 -41.5 17.5 t-34 47t-22 48.5t-16.5 47l-11 27q-50 116 -78 239q-38 177 -38 408z" />
<glyph unicode=")" horiz-adv-x="546" d="M68 1587v8q67 21 157 21h41l27 -19q15 -41 48 -115t42 -96q42 -99 64 -279.5t22 -324.5q0 -383 -121 -673l-2 -3q-27 -79 -45 -104q-33 -43 -92 -43q-67 0 -88 11q-31 16 -31 63q0 12 2 16v-2q50 162 77 259.5t52 241.5t25 267q0 84 -39 298t-70 280q-5 11 -21.5 44 t-24 51t-15.5 46.5t-8 52.5z" />
<glyph unicode="*" horiz-adv-x="690" d="M70 1372q0 5 1 10.5t2.5 9.5t5 8.5t5 7.5t7 7t7.5 6t8 6t8 5t9 5t8 5q-16 7 -25 13t-16.5 17t-7.5 27q0 37 21.5 88t52.5 51q13 0 55 -14v37q0 24 18 49q27 9 129 14h-4q8 2 29 2q29 0 39.5 -25.5t5.5 -53.5v2q-2 -6 -2 -21q9 5 19.5 15.5t21 16t27.5 5.5q27 0 56 -30.5 t48 -63.5v2q12 -24 12 -37q0 -5 -1 -9.5t-3 -9t-4 -8t-6 -8.5l-6 -7.5t-7 -7.5l-6.5 -6.5t-7 -6.5t-6.5 -5l2 2q-2 -1 -9.5 -5.5t-12.5 -8.5q21 2 42 -17t21 -40q0 -6 -2 -13t-5.5 -15t-4.5 -13l2 2q-1 -2 -6.5 -14t-8.5 -17.5l-9 -16.5t-11 -17t-12 -13.5t-14 -10.5t-15 -3 q-20 0 -33 10v-2q-22 5 -49 24q-1 -12 -1.5 -31t-1.5 -26.5t-6 -18t-17.5 -16t-34.5 -10.5q-58 -8 -88 -8q-24 0 -35.5 17t-11.5 42q-35 -35 -52 -35q-20 0 -57 53.5t-45 59.5q-18 18 -18 45z" />
<glyph unicode="+" d="M72 692q0 28 10.5 47t25 28.5t40 13.5t44 4t48.5 -0.5t43 -0.5q-9 56 -9 113q0 119 103 119q53 0 92 -39q10 -161 6 -201q1 5 11.5 9t28 6t37 3t43 1.5t40.5 0.5t34.5 -0.5t20.5 -0.5q19 -42 19 -117q0 -88 -39 -96q-63 -11 -181 -11q5 -64 5 -159q0 -23 -3.5 -36.5 t-14 -19t-18.5 -7.5t-27 -2.5t-30 -2.5q-6 -1 -25.5 -4.5t-29.5 -3.5q-20 0 -32.5 17t-16.5 47.5t-4.5 55t1 59t1.5 40.5v14h-90q-72 0 -127 -8q0 23 -3 66.5t-3 64.5z" />
<glyph unicode="," horiz-adv-x="358" d="M66 127q0 40 34 67t74 27q44 0 77.5 -38.5t33.5 -84.5q0 -73 -52.5 -113.5t-128.5 -47.5q-20 32 -20 57q0 2 19.5 18t19.5 17l12 6q-30 11 -49.5 36t-19.5 56z" />
<glyph unicode="-" d="M70 590v108q0 54 47 54q19 0 58.5 -2t60.5 -2q8 0 79.5 1.5t136.5 2t129 -1t78 -7.5h-4l4 -2q14 0 24 -6.5t15.5 -19.5t9 -26.5t4 -32t0.5 -31.5t-0.5 -30.5t-0.5 -23.5q0 -18 -1.5 -29.5t-11 -21.5t-26.5 -10q-29 0 -43 2q-7 5 -190 14t-244 9q-12 0 -37.5 -3.5 t-32.5 -3.5t-23 4h7q-23 9 -31 21t-8 37z" />
<glyph unicode="." horiz-adv-x="335" d="M63 123q0 41 29 71t70 35v-2q46 1 74 -29.5t28 -76.5q0 -41 -24.5 -72t-65.5 -31q-44 0 -77.5 31t-33.5 74z" />
<glyph unicode="/" horiz-adv-x="890" d="M61 14q1 54 247.5 723t297.5 768q23 13 60 13q46 0 86.5 -16.5t40.5 -55.5q0 -10 -5 -26.5t-6 -22.5q-30 -107 -277.5 -750.5t-262.5 -650.5q-115 3 -141 5.5t-40 12.5z" />
<glyph unicode="0" horiz-adv-x="858" d="M31 856q0 72 8 139.5t27 141t58 134.5t95 97q25 17 56 24.5t84 11.5t61 5h-2q46 6 90 6q80 0 127 -29q90 -50 135 -146.5t53 -213.5q7 -96 0 -379.5t-14 -345.5q-1 -13 -3 -25t-4 -21t-6 -20t-6 -17.5t-8.5 -17.5t-8.5 -15.5t-10.5 -17t-11 -16t-13 -18t-13.5 -18.5 q-45 -60 -133 -87.5t-176 -27.5q-90 0 -172 45q-33 19 -59.5 47t-44.5 54t-32.5 67.5t-22.5 68.5t-15 76.5t-9 73t-6.5 77t-5.5 69.5q-2 32 -7 88.5t-8 102.5t-3 87zM254.5 692q0.5 -47 4.5 -128t13 -161q0 -76 29 -147q49 -49 160 -49q82 0 106 49q9 20 15 45t9.5 43t5 48 t1.5 41.5v43.5v35q0 46 -3 138t-3 138q0 22 4 74t6.5 92t-3.5 91t-22.5 85.5t-54 59.5t-94.5 27q-36 -3 -64.5 -13.5t-46.5 -25.5t-31 -34.5t-18 -40t-9 -42t-3 -41t0 -37.5v-3v-3v-3.5v-3.5v-3q0 -39 -1 -133.5t-0.5 -141.5z" />
<glyph unicode="1" horiz-adv-x="516" d="M31 1143v8q0 40 83 172.5t91 153.5q22 20 69 20q63 0 115 -20q12 -32 12 -52q0 -97 -6 -290t-6 -291q0 -110 3 -332t3 -332q24 -1 39 -3.5t30 -13t13 -28.5q-1 -10 3 -59.5t-3 -59.5q-4 -16 -22 -17.5t-44 5t-32 6.5q-7 0 -41 -2.5t-70.5 -4.5t-74.5 -2.5t-63.5 4.5 t-27.5 15q-1 12 3 36t4 34q0 51 2 78q2 25 98 25q-5 234 -1 570t17 456q-6 0 -28 -36.5t-43 -72t-25 -33.5h2q-30 13 -100 66z" />
<glyph unicode="2" horiz-adv-x="772" d="M31 1092q-3 64 24 143q6 16 27 40t27 34q3 5 8 14.5t8 15t9 12.5t13 13q105 82 222 82q133 0 229 -98t96 -232q0 -99 -34 -197.5t-88.5 -185t-112 -167t-116 -176t-89.5 -179.5q102 14 281 14q5 60 4 76q0 3 -3 17.5t-3 26.5t6 17q10 6 20 5t28 -5t23 -4q6 0 19.5 0.5 t22 1t19 -1.5t17.5 -6q24 -15 24 -56t-7 -63q-7 -50 -3 -137q0 -6 2.5 -21t3 -25t-1 -21.5t-9 -17.5t-21.5 -7q-33 -2 -105 -2q-57 -2 -151 -2q-295 0 -346 14q-16 5 -22.5 37t-6.5 58q0 193 64 313l-3 -2q47 105 158 231h-2q254 316 254 457q0 62 -31 111t-90 49 q-39 0 -84.5 -21.5t-52.5 -56.5q-5 -19 7.5 -48.5t13.5 -39.5q5 -44 -10 -83t-54 -50q-57 -14 -119 26t-65 97z" />
<glyph unicode="3" horiz-adv-x="825" d="M32 1403q0 6 3 16q9 9 61 4q0 2 2 4h172q75 0 224.5 -1t224.5 -1q-21 -73 -59.5 -143.5t-98 -158.5t-84.5 -130q76 -32 127 -80.5t77.5 -112.5t37 -130.5t10.5 -151.5q0 -68 -7.5 -133t-29 -137t-55 -125t-91 -88t-132.5 -35q-40 0 -74 6q-96 16 -168 117q-68 91 -80 149 q-17 105 31 166q29 36 83 55.5t97 4.5q31 -13 53 -54q6 -10 8.5 -20.5t3.5 -17.5t-1 -17.5t-3.5 -16t-6.5 -19t-7 -19.5q-1 -2 -2 -5.5t-2 -4.5q-14 -47 -14 -62q0 -33 25.5 -44.5t58.5 -4.5q52 11 80 72q45 83 45 227q0 118 -27 207v-2q-17 42 -59.5 69t-90 37.5t-92.5 18 t-74.5 19t-29.5 32.5q0 26 44 92t102 142t71 98q-14 3 -83 0.5t-83 -2.5q1 -3 2 -11t2 -10q1 -5 4.5 -17.5t5 -21.5t1 -19.5t-7 -16.5t-19.5 -7q-42 -5 -146 -14q-19 -1 -23 11t0.5 32.5t4.5 24.5q-1 22 1 63t1 61q-1 7 -1.5 31t-2.5 37q0 1 -4.5 16t-4.5 21z" />
<glyph unicode="4" horiz-adv-x="864" d="M31 543q29 68 74 162.5t51 109.5q27 70 94.5 210t95.5 214q35 85 84 197q31 80 111 80l73 -3q10 -71 9.5 -424t-9.5 -409q20 0 59 4t58 4q55 0 103 -26q0 -14 4 -43t4 -44q0 -54 -37 -77q-13 0 -42 1t-42 1q-76 0 -115 -4q-8 -51 -8 -156q0 -107 2 -160q18 0 31 -1t30 -5 t25.5 -14t7.5 -25q-1 -10 3 -59.5t-3 -59.5q-4 -16 -22 -17.5t-44 5t-32 6.5q-7 0 -41 -2.5t-70.5 -4.5t-74 -2.5t-62.5 4.5t-26 15q-1 17 -1 23t2 23.5t3 23.5q0 64 2 78q2 25 92 25q-2 54 1 136t3 87q0 10 -1.5 36t-0.5 40q-28 5 -57.5 6t-70.5 -0.5t-58 -1.5q-13 0 -35 3 t-33 3q-14 0 -38 -3t-38 -3q-61 0 -61 47zM297 690q43 -6 90 -6q27 0 43 2q4 164 4 250q0 42 6 86q-15 -33 -63.5 -151t-79.5 -181z" />
<glyph unicode="5" horiz-adv-x="778" d="M31 1358q0 43 17.5 64.5t60.5 21.5q98 0 276.5 -4.5t247.5 -5.5v-7q60 4 69 -24q4 -29 4 -41t-5.5 -43t-6.5 -41q-7 -70 0 -117q6 -33 -5.5 -45.5t-45.5 -15.5h-6h4q-95 -7 -117 10q-7 4 -7 14t3.5 22.5t3.5 16.5q0 12 -2 37t-2 39q-39 -1 -112 1.5t-101 2.5 q-39 0 -59 -2l4 -12l-2 2q11 -39 20 -137q104 2 181.5 -23.5t126 -71t78.5 -115t41.5 -146t11.5 -173.5q0 -70 -7 -139t-29 -148.5t-56 -139t-94 -99t-138 -39.5q-177 0 -268 104q-58 65 -78 145.5t16 160.5q28 54 88 81.5t119 10.5q38 -11 52 -51.5t5 -81.5q-1 -9 -12 -33 t-8 -37q3 -12 16 -32.5t23 -26.5q23 -15 49.5 -2.5t40.5 34.5q19 27 28.5 69.5t11 70.5t1.5 77q0 88 -19.5 191t-60.5 145q-24 24 -69 40t-82 16q-24 0 -82 -13q-21 -12 -50 -12q-35 0 -45 37q-8 25 -19 215t-11 250z" />
<glyph unicode="6" horiz-adv-x="772" d="M31 528q0 175 16.5 393t52.5 310q30 74 101 117t153 43q18 0 74 -9q52 0 102 -22q85 -35 123 -98q35 -51 39 -123q10 -79 -2 -117q-13 -34 -56 -44t-87 0t-70 30q-62 48 -47 104q5 46 2 57q-18 21 -37 35v4q-4 0 -12 1t-12 1q-18 0 -33 -6t-26.5 -19t-20.5 -26.5 t-15.5 -34t-10.5 -36.5t-7.5 -40t-5 -37.5t-3.5 -36t-3 -28.5q95 31 153 31q57 0 103.5 -23.5t75.5 -61.5t48.5 -88.5t27.5 -100.5t8 -101q0 -32 -15 -190q-4 -45 -7 -71t-10 -70t-16 -71.5t-25.5 -63t-37.5 -57.5t-52 -42t-69 -29q-27 -8 -61 -8q-90 0 -177.5 63 t-125.5 148q-35 82 -35 317zM221 487q0 -141 53 -219v2q17 -24 43.5 -41.5t53.5 -17.5q10 0 24.5 7t20.5 15q17 22 31.5 176t5.5 183q4 10 4 33q0 38 -25 90q-46 37 -90 37q-39 0 -65.5 -29.5t-37 -77t-14.5 -84t-4 -74.5z" />
<glyph unicode="7" horiz-adv-x="851" d="M33 1434q1 3 6.5 5.5t15.5 4t17.5 2t20.5 1.5t18 1q16 4 24 4q33 2 262 6.5t240 5.5q10 0 29.5 2t29.5 2q18 0 31.5 -4t22 -9t14.5 -15.5t9 -18.5t4.5 -24t1.5 -25t-0.5 -28t-0.5 -27q0 -15 -30.5 -59t-69 -94.5t-49.5 -69.5q-67 -118 -133 -372t-74 -400q-4 -82 -4 -129 q2 0 19 4.5t24 4.5t18 -5q6 -4 6.5 -18t-1.5 -31.5t-1 -22.5q0 -8 2 -24.5t2 -30t-4 -23.5q-16 -32 -96 -27q-34 -10 -78 -10q-19 0 -43 6q-24 -4 -37 -6q-6 0 -25.5 -4t-31.5 -5.5t-24 4.5t-13 22q-15 116 -16 145q-1 19 12.5 23.5t38.5 -0.5t27 -5h2q2 43 10 129 q50 417 168 711v-2q27 90 55 133v-2q8 16 30 50.5t32 54.5h-95q-36 0 -108 -4.5t-109 -4.5q2 -8 2 -24q0 -2 3.5 -13.5t4 -16t-1.5 -13.5q-3 -5 -12.5 -7.5t-22 -3t-23 -0.5t-23 0.5t-15.5 0.5q-17 -1 -27 10.5t-13.5 33t-4.5 40.5t-0.5 42.5t0.5 30.5q-1 8 -10 47t-6 52z " />
<glyph unicode="8" horiz-adv-x="841" d="M31 451q0 100 42 259.5t99 211.5q-70 70 -70 194q0 134 83.5 231t215.5 97q222 0 297 -170v2q2 -5 7.5 -18.5t7.5 -18.5t5.5 -16.5t5 -18.5t2.5 -17.5t1 -21.5q0 -65 -18 -134.5t-54 -108.5q150 -103 150 -342q0 -105 -23 -230q-11 -69 -49 -147.5t-103.5 -140.5 t-135.5 -62q-119 0 -221 39t-152 127q-1 2 -12.5 18t-16.5 24t-13.5 22t-12.5 26t-5 23h2q-32 79 -32 172zM244 414q0 -219 151 -219q27 0 49 7.5t36.5 16.5t27.5 29.5t19.5 33t14 41.5t9.5 40.5t8 44.5q0 157 -15 243t-42 116t-76 30q-47 0 -82 -29t-53.5 -69.5t-29.5 -97 t-14 -99.5t-3 -88zM303 1155q0 -45 35.5 -84t79.5 -39q43 0 67.5 39.5t24.5 85.5q0 45 -25 75t-69 30q-31 0 -47 -7q-5 -6 -21.5 -21.5t-23.5 -24t-14 -23.5t-7 -31z" />
<glyph unicode="9" horiz-adv-x="755" d="M31 993q0 66 9 127t32 121.5t58.5 105t92.5 72t129 27.5q121 0 211 -64.5t99 -179.5q12 -150 12 -377q0 -58 -4 -172q-1 -22 -2 -92.5t-2.5 -112.5t-9 -110t-20.5 -113.5t-37.5 -92.5t-59.5 -75h2q-29 -24 -90 -43q-68 -14 -93 -14q-48 0 -88 12q-61 21 -102 90 q-6 10 -22.5 34.5t-26.5 43.5t-15 39q-10 57 -10 64q0 37 19 73q31 52 75 60q50 13 78 2q18 -6 28.5 -19t14.5 -34t5 -34t1 -37v-9q0 -5 -1 -18.5t-1 -22t3.5 -19t11.5 -16.5q22 -17 67 8v2q56 34 56 156q0 20 -2.5 62.5t-2.5 64.5q-56 -17 -98 -17q-16 0 -26 2 q-68 11 -137.5 74t-100.5 131q-53 114 -53 301zM244 922q0 -48 12.5 -94t46.5 -82.5t82 -36.5q84 0 84 245v13q0 33 -0.5 54t-2.5 61.5t-7.5 68t-14.5 56.5t-24.5 44t-36.5 15q-12 0 -23 -4t-21 -14.5t-17 -17.5t-16 -24.5t-11.5 -22.5t-11.5 -25l-9 -21v2q-30 -89 -30 -217 z" />
<glyph unicode=":" horiz-adv-x="350" d="M66 649q0 37 29 63t67 33h6q37 0 63.5 -25t26.5 -63q0 -34 -28 -69t-62 -35q-38 0 -70 29.5t-32 66.5zM82 92q0 42 27.5 71.5t68.5 29.5q30 0 55 -25h-2q22 -25 25.5 -68.5t-18 -78.5t-60.5 -35q-43 0 -69.5 31t-26.5 75z" />
<glyph unicode=";" horiz-adv-x="342" d="M66 98q0 34 18 58q28 39 74 39t79 -36.5t33 -82.5q0 -44 -26 -99t-64 -55q-12 0 -28 12l-13 19v8q0 22 15 43q-39 1 -63.5 28t-24.5 66zM68 637q0 48 26.5 76t73.5 28q40 0 66 -27t26 -67q0 -43 -33.5 -71.5t-76.5 -28.5q-15 0 -27 6q-13 2 -31 37q-10 3 -17 19t-7 28z " />
<glyph unicode="&#x3c;" horiz-adv-x="690" d="M72 786q0 24 14 52q28 42 78 110l160 236q-1 4 23 40.5t61 73.5t63 37q31 0 86 -35l-2 3l29 -19q2 -1 5 -2t5 -2v-2l14 -16v-2q0 -11 -11.5 -34.5t-32 -57t-36 -56.5t-38.5 -56l-23 -34q-3 -5 -22.5 -33t-40.5 -58.5t-43 -63.5t-36 -57t-14 -30q0 -29 121.5 -221.5 t157.5 -230.5q-13 -41 -51 -89.5t-74 -48.5q-33 0 -72 43q-14 16 -29 35t-32 44.5t-30.5 45t-33 52t-30 49.5t-32 54t-28 47.5t-28 49t-23.5 41.5h2q-57 69 -57 135z" />
<glyph unicode="=" horiz-adv-x="1222" d="M82 539q0 110 90 110q10 0 29 -4t28 -4q78 0 233 1t232 1q406 0 416 -39q6 -31 6 -94v-29q0 -24 -2 -38t-13.5 -27t-33.5 -13q-309 0 -623 9q-231 5 -313 16q-24 3 -36.5 40.5t-12.5 70.5zM113 864q0 37 6.5 96t21.5 62q15 1 33 1t40 -0.5t34 -0.5q73 0 221 -4t223 -4 q159 0 398 18h2q41 0 41 -98q0 -32 -8 -78.5t-21 -64.5q-163 0 -490 5t-491 5q-10 0 -10 63z" />
<glyph unicode="&#x3e;" horiz-adv-x="671" d="M68 1241q6 25 58 55.5t79 30.5q4 0 18 -16t19 -23q38 -47 186 -264t156 -244q4 -16 4 -26q0 -4 -1 -15t-1 -16q-70 -107 -170 -274q-7 -11 -31.5 -51t-40.5 -67.5t-29 -54.5l-6 -10h2q-14 -30 -30.5 -44.5t-47.5 -14.5q-13 0 -26.5 3.5t-28 11t-23.5 12.5t-26 16.5 t-23 15.5q-2 2 -2 8q0 38 59.5 148.5t119 206.5t59.5 98q0 49 -84.5 191.5t-132.5 195.5q-6 20 -28.5 59.5t-28.5 67.5z" />
<glyph unicode="?" horiz-adv-x="851" d="M96 1032q-18 46 4 148q11 72 58 137q46 65 114 105t142 40q98 0 181.5 -54t131 -140.5t47.5 -182.5q0 -168 -51 -281t-174 -231q-2 -2 -12.5 -12t-14 -14t-12.5 -13.5t-13.5 -15t-11 -14t-11 -16t-7.5 -15.5q-4 -8 -4 -41q0 -77 8 -110q0 -3 1 -8.5t1 -8.5q0 -39 -25 -52 t-69 -13q-85 0 -117.5 24.5t-32.5 108.5q0 208 236 428q50 47 76 92.5t26 105.5q0 48 -13 100.5t-47.5 97t-82.5 44.5q-33 0 -69 -17.5t-36 -47.5q0 -14 5.5 -25t20.5 -27.5t17 -19.5q26 -37 17 -84.5t-43 -79.5q-40 -33 -88.5 -24.5t-92.5 43t-59 73.5zM268 88 q0 27 15 53.5t39 38.5h-3q25 19 58 19q36 0 62 -30.5t26 -68.5q0 -41 -31.5 -71.5t-73.5 -30.5q-51 0 -79 47h2q-15 21 -15 43z" />
<glyph unicode="@" horiz-adv-x="1304" d="M100 561q0 197 70 424q33 108 78 186.5t93.5 125t111 74t120.5 37t132 9.5q97 0 172 -14.5t131 -41t96 -70.5t65 -96t40 -125.5t20.5 -151t5.5 -179.5q0 -131 -25 -262q-9 -46 -29 -93.5t-49 -93t-72 -74t-91 -28.5q-36 0 -87.5 24.5t-78.5 53.5q-68 -33 -113 -33 q-72 0 -129 48q-89 60 -127.5 182.5t-38.5 255.5q0 167 49 293v2q30 74 95.5 122t142.5 48q41 0 88 -37l4 4h-2q5 14 21 27q55 10 99 -5.5t64 -52.5q0 -45 -1 -160.5t-1 -160.5q0 -307 -12 -312q2 -3 6 -9.5t7.5 -12.5t8 -13t9.5 -11.5t10.5 -7.5t11 -2.5t11.5 5.5 q9 8 13.5 26t6 45t2.5 32q12 82 12 120q18 158 13 267q0 44 -2 72t-12.5 65t-30.5 65q-63 91 -174 119q-80 22 -160 4q-128 -27 -201 -108q-68 -72 -126 -263.5t-58 -306.5q0 -190 100 -290q84 -87 189 -99q4 0 12 -1q79 -8 103 -23q37 -24 44 -101v-18q0 -17 -4.5 -29 t-9 -18.5t-17.5 -9t-19.5 -3t-25.5 0t-26 0.5q-85 0 -240 69q-80 25 -139 78t-92 124t-48.5 148t-15.5 160zM635 666q0 -169 55 -181q46 40 59 98t13 142q0 24 -1.5 53t-6 70.5t-16 68.5t-27.5 27q-27 0 -46 -64.5t-24.5 -122t-5.5 -91.5z" />
<glyph unicode="A" horiz-adv-x="985" d="M59 168q2 10 9.5 11.5t19.5 -1.5t16 -2q28 4 39 4q11 62 37 133v-2q25 82 31 119l98 500q44 234 82 375q-14 1 -26 1q-33 0 -58 -6q-29 -4 -34 33q-2 13 1 51v26t1 29.5t7.5 27t18.5 16.5q25 4 59 4q10 -1 22 -1q48 -2 113 -5.5t68 -3.5q21 0 33 2q11 -18 21 -55 t24.5 -119t29 -173.5t44 -273t61.5 -364.5v2q55 -222 70 -328q24 2 40.5 2t26.5 -12t13 -39v-2q2 -25 2 -46q0 -69 -21 -79q-15 -2 -36 -1.5t-55.5 2t-43.5 1.5q-13 1 -41 1q-13 -1 -31 -1h-21q-37 0 -52 2q-4 0 -32 -1.5t-32 3.5q-5 3 -7.5 7.5t-3.5 11t-1.5 11t0 12 t0.5 9.5q-4 12 -4 40q0 11 1 25q2 48 17 58q21 12 56 8q-34 151 -39 215q-66 4 -97 4q-52 0 -79 -4q-8 -18 -26 -87t-28 -122q29 -11 43 -6q11 0 19 2t13 -4.5t8 -10t4.5 -14t1.5 -16t0.5 -17t0.5 -16.5q0 -1 0.5 -19.5t0 -30t-2.5 -27.5t-8 -24.5t-16 -8.5h-19 q-26 0 -64 -2q-53 -2 -73 -2q-38 3 -75 3q-47 0 -89 -5h-3q-11 0 -18 7q-8 8 -10.5 21.5t-3.5 29.5t0 30t0 24q-4 34 -4 51q0 12 2 17zM446 590q18 0 53 3t52 3q-13 182 -23 248q-4 50 -12 69q0 3 -2 7q-1 3 -3 2h-1z" />
<glyph unicode="B" horiz-adv-x="837" d="M56 1321l5 39q0 37 12.5 48.5t51.5 14.5q35 2 86 12.5t72 12.5q37 5 77 5q48 0 101 -7q56 -6 94 -13.5t84 -25t73.5 -42.5t46.5 -67.5t19 -99.5q0 -70 -30 -154t-78 -124q29 -39 41 -76v2q71 -155 71 -410q0 -97 -18 -168v2q0 -59 -47.5 -112.5t-106.5 -79.5 q-101 -46 -291 -62q-16 -3 -54 -3q-31 0 -77 2q-101 5 -106 26q-2 12 0.5 39.5t1.5 38.5q-1 9 -1 28t-1 29q0 18 11.5 22.5t32.5 1t28 -2.5q12 0 18 2l10 1034h-2q-1 0 -98 6q-18 3 -24 23q-3 12 -4 29q0 14 2 30zM369 1233q10 -92 10 -162q0 -36 5 -42q8 -9 34 -9 q147 0 147 139q0 52 -36.5 80.5t-90.5 28.5q-30 0 -65 -6v-7v7v-7q2 -13 -4 -22zM385 782q0 -362 14 -542q86 0 139.5 54t53.5 138q0 40 -1 118t-1 118q0 50 -25 76t-55 29t-69 3.5t-52 5.5h-4z" />
<glyph unicode="C" horiz-adv-x="829" d="M55 606q0 134 8.5 260.5t43 282t92.5 237.5q44 62 113.5 98t144.5 36q37 0 69 -11t51.5 -23.5t53.5 -39.5q102 -75 131 -148q10 -42 10 -64v-7q0 -67 -57 -121q-39 -38 -99 -42h-8q-54 0 -88 40q-5 6 -7.5 19t-4 29t-2.5 22q-14 40 -29 65q-30 43 -65 43q-15 0 -31 -8 q-32 -18 -51 -58.5t-23.5 -71.5t-8.5 -81v-5t-0.5 -4.5t-0.5 -4.5q-2 -23 -2.5 -67t-1.5 -58l-6 -160q-1 -31 -4.5 -133.5t-3.5 -157.5q0 -208 94 -223q26 -4 39.5 15.5t17.5 45.5t19 49t43 25q8 1 17 1q75 0 137 -58q49 -44 49 -99q0 -24 -9 -49q-26 -70 -101.5 -117 t-152.5 -47q-88 0 -156 38.5t-108.5 98.5t-67 141t-36 157t-9.5 155z" />
<glyph unicode="D" horiz-adv-x="876" d="M56 76q2 31 1 37q-2 24 -1.5 48.5t1.5 49.5q0 27 15.5 32t45 -3.5t38.5 -8.5h37q0 493 16 1051h-21q-4 0 -26 -2t-38.5 -2.5t-32.5 4.5t-19 16q-4 7 -0.5 37t2.5 39q-1 10 -1 30t-1 30q-1 18 10 22.5t32 1t27 -3.5q75 10 135 10q120 9 234 9q188 0 246 -101 q65 -110 65 -444q0 -26 -5 -81t-5 -83q0 -58 -4 -176t-4 -178q0 -137 -25 -209q-17 -52 -47.5 -90t-72.5 -59t-83.5 -33.5t-98.5 -15.5t-99 -3t-102.5 2t-92.5 2q-113 0 -123 35q-4 4 -4 21q0 7 1 16zM428 229q2 0 2 -2l2 2h-2h2q50 -10 68 -10q62 0 94 35q20 22 26 158 q4 88 5 172q1 44 -1 88q-1 51 -2 93q0 59 3 99q10 127 10 156q0 136 -76 227q-51 23 -100 23h-8q0 -79 -7 -129q-5 -48 -7 -100t-2.5 -128t-0.5 -102q-6 -558 -6 -561v-21z" />
<glyph unicode="E" horiz-adv-x="907" d="M56 1425l5 39q0 40 13 53.5t51 10.5q18 -1 52.5 -4t51.5 -4q20 -1 46 -1q62 1 157 7q103 7 164 7q19 0 35 -1h9q16 0 46 -4q6 -1 25 -2t31 -2.5t24.5 -8.5t15.5 -20t3 -31q0 -36 -12 -90q-16 -68 -16 -105q0 -8 1 -14q4 -32 -9 -43.5t-47 -13.5h-6h6h-16.5h-21.5t-22 0.5 t-23 2.5t-19 5t-16 8q-6 10 -6 16t5 20.5t5 17.5v26q-106 -3 -215 -12q0 -70 -11.5 -211t-11.5 -213q0 -21 2 -33q166 19 213 19q12 0 25 -1t28.5 -2.5t24.5 -2.5q8 -22 21.5 -84.5t13.5 -83.5q0 -24 -14 -35q-12 -7 -56.5 -11.5t-87 -6t-98.5 -2.5t-64 -1v-20 q0 -30 5 -86.5t6 -79.5q0 -11 1 -38.5t1.5 -43t3 -38.5t6.5 -42q98 -14 248 -14q0 3 -1 8.5t-1 7.5q-1 8 -4 21.5t-4.5 21t-1 17t4 15t12.5 9.5t23 4q19 1 65 14q39 11 62 11h7q16 -1 31.5 -55t23.5 -118q5 -40 4 -77q0 -23 -2 -43q-4 -56 -23 -59q-25 -2 -80 -2 q-111 -9 -374 -13q-85 -3 -168 -6q-6 0 -26 -3l-35 -5q-5 -1 -11 0q-9 0 -19 2q-16 2 -24 10q-3 5 -5 13t-2 14t0.5 16t0.5 13q-14 66 -16 82q-3 34 0 63q14 2 41.5 5t42.5 5q3 1 8 2t8 2q-4 98 -4 133q0 123 -4 369.5t-4 368.5q0 41 1 121t1 120q-12 1 -37 2t-37 2 q-18 3 -24 23q-3 12 -4 29q0 14 2 30z" />
<glyph unicode="F" horiz-adv-x="819" d="M59 178q4 27 52 26q12 0 26 -1v2q0 91 19 461q2 38 3 113.5t3 113.5q3 59 4 231t10 265q31 57 135 57q18 0 128 1t197.5 1t108.5 -2q3 -24 8 -77.5t8 -117.5q1 -17 1 -31q0 -36 -6 -42q-6 -8 -50 -10q-19 -1 -37 -1q-24 0 -47 1l-40 3q1 9 1 21q0 23 -3 57h-2h-13 q-28 -1 -88 -3q-77 -4 -92 -3q4 -70 4 -98q0 -29 -2 -86t-2 -86q-1 -20 1 -64q1 -33 2 -61v-18q0 -34 -5 -66q15 -2 32 -2t38.5 1t33.5 1q22 0 34.5 -1t30.5 -5.5t27 -17t9 -31.5l8 -140q-19 -1 -48 -2t-89 -3q-40 -1 -64 -1h-20q-17 -114 -17 -364h6q19 0 29.5 -0.5 t26.5 -3t23.5 -9t7.5 -16.5q1 -23 -15 -133q-2 -19 -15.5 -27t-28.5 -8t-39.5 2.5t-35.5 1.5q-102 -4 -157 -4q-9 0 -28 -1q-13 -1 -21 -1h-7q-8 0 -19 4t-14.5 14t-2.5 27v9q0 19 -6 55q-5 28 -5 47q0 13 2 22z" />
<glyph unicode="G" horiz-adv-x="929" d="M57 743v2q0 154 47 385q25 118 126 206.5t221 88.5q57 0 125.5 -33t121.5 -77q42 -39 68 -95q20 -42 20 -82q0 -12 -2 -24q-4 -30 -25 -52.5t-50 -31.5q-28 -12 -67 -12q-15 0 -32 2q-60 6 -84 45q-8 15 -17 44.5t-11 35.5q-14 27 -23 35q-24 27 -52 27q-24 0 -50 -19 q-76 -61 -101 -213q-10 -58 -10 -107q0 -61 11 -178t12 -172q6 -139 21 -197q33 -128 126 -128q71 0 98 42.5t31 118.5q10 143 10 170q-15 0 -41 1t-41 1q-53 0 -94 -8q-41 21 -41 90q0 32 1.5 47t9.5 31t26 21.5t49 5.5q8 0 26.5 -2t27.5 -2q24 -3 105.5 -5.5t125.5 -11.5 q6 -1 48 -1t71 -7.5t30 -28.5v-27v-38v-38.5v-27.5v6v-6q0 -11 -3.5 -18.5t-7 -11t-12.5 -4.5t-12.5 -0.5t-16 2.5t-13.5 2q-4 0 -13.5 1t-13.5 1v-68q0 -82 -16 -147v2q-30 -142 -99 -212.5t-208 -70.5q-83 0 -148.5 28t-107 66.5t-71 108t-44 124t-22 144t-8.5 137.5 t-1 135z" />
<glyph unicode="H" horiz-adv-x="890" d="M27 174q3 23 48 23q14 0 31 -2q2 110 15.5 349.5t15.5 350.5q0 60 5 178.5t5 177.5v70q-42 -8 -49 18q-8 23 -10 71l-4 63q0 25 69 39q64 13 125 12h17q69 -2 92 -4q21 -7 21 -121q2 -17 -9.5 -27.5t-23.5 -13.5t-33 -6q0 -97 -8 -287t-8 -285q17 0 46.5 -1t43.5 -1 q28 0 72 9.5t57 11.5q2 92 10 276.5t10 276.5q-26 -7 -55 -7q-6 1 -12 1q-36 2 -35 26q1 10 -2 39t-3 54t7 36q2 3 14.5 5t31.5 2.5t43 0.5t48 -1t47 -2t41 -2.5t30 -1.5l11 -1h76q5 0 20.5 1.5t22 1t13.5 -7.5t7 -21q0 -3 -1.5 -27t-2.5 -38t-4.5 -31.5t-9.5 -24.5 q-11 -7 -17.5 -7t-22.5 5.5t-19 5.5q-29 0 -45 -2q0 -3 -1.5 -10t-1.5 -11q-2 -27 -2 -59t1 -71.5t1 -59.5q0 -157 6.5 -472t6.5 -472v-8q14 0 21.5 -0.5t18.5 -3t16.5 -8t6.5 -15.5q0 -10 0.5 -26.5t-0.5 -39t-1 -39.5t1 -28q1 -13 -3.5 -20.5t-14.5 -9.5t-16.5 -2.5 t-22 1.5t-19.5 2q-18 2 -107.5 7t-105.5 7q-13 1 -20 10.5t-8 25t-0.5 30t2.5 32t2 23.5q2 30 9.5 45t25.5 19v22q0 27 3 80t3 80q0 37 -3 109.5t-3 109.5q-116 -3 -228 -12q-14 -144 -14 -399q76 0 78 -29q1 -18 -1 -41t-6 -51.5t-5 -42.5q-3 -18 -15.5 -26t-25.5 -8 t-34.5 1.5t-31.5 1.5q-49 -2 -143 -2q-8 0 -25 -2q-13 -1 -20 -1q-3 1 -5 1q-8 0 -17.5 3.5t-13 13.5t-1.5 28q3 17 -5 63q-4 27 -5 48q0 14 2 24z" />
<glyph unicode="I" horiz-adv-x="487" d="M59 178q5 27 56 27q0 15 4 47q16 190 16 500q0 105 -7.5 300.5t-8.5 282.5q-16 0 -24 1t-16 6t-11 16q-4 18 -5.5 43t-1 45t-0.5 43q-2 24 17 36q18 12 50 12q0 -1 2 -1q34 0 60.5 -3t55.5 -9h30q27 0 37 -4q38 4 63.5 4t37.5 -4q5 -2 8.5 -8t5.5 -16t3 -20.5t1 -23.5 v-22v-19.5v-13.5v2v-2q0 -12 -5.5 -20t-19 -12.5t-21 -6t-26.5 -3.5q-5 -1 -8 -1q-6 -46 -6 -94v-132q0 -60 -7 -177t-7 -175q0 -50 4 -148.5t4 -148.5q0 -24 -2 -72t-2 -71q0 -22 2 -68t2 -69q72 0 74 -29q0 -24 -7 -74t-8 -59q-2 -19 -14.5 -27t-25.5 -8t-34.5 2t-31.5 2 q-94 -4 -143 -4q-8 0 -25 -1q-11 -1 -18 -1h-7q-8 0 -17 4t-12.5 14t-2.5 27v9q0 19 -6 55q-5 28 -5 47q0 13 2 22zM432 1401v2v-2zM432 1403z" />
<glyph unicode="J" horiz-adv-x="892" d="M57 414v18q0 59 17 109q24 59 92 89q33 14 64 14t59 -15q50 -25 64 -73q4 -16 4 -30q0 -33 -21 -63q-40 -54 -40 -110q0 -54 38 -109l-4 2q20 -20 22 -21q12 -16 27 -16q26 0 48 15t36.5 44.5t26 61t17.5 78.5t10.5 82.5t5.5 87t1 78.5q1 13 1 30t-1 38v48v506q0 14 4 43 t4 43q-7 0 -46 -5t-63 -0.5t-24 25.5q0 7 -3.5 38t-3 55.5t8.5 35.5q5 7 23 8h10q12 0 26 -1q18 -3 39 -6t27 -3h25q22 0 57 -1h43q24 0 37 1q12 2 25.5 2t30.5 -1t26 -1q7 0 22.5 0.5t23.5 0t15 -7.5t7 -21q0 -95 -19 -121q-10 -5 -18.5 -4t-24.5 6t-20 6h-19v-55 q0 -64 -7 -188.5t-7 -186.5q0 -35 2 -104.5t2 -104.5q0 -50 -3 -106t-8 -124t-7 -106q-4 -107 -21.5 -173t-77.5 -126q-43 -41 -110 -68.5t-125 -27.5q-46 0 -96.5 22t-85.5 54q-12 10 -22.5 22.5t-18 22.5t-16 26.5t-13.5 26t-12.5 28.5t-10.5 27t-10.5 30t-9.5 28 q-20 57 -23 127z" />
<glyph unicode="K" horiz-adv-x="927" d="M58 54v15v15q1 14 3 31t2 24q0 37 13 51t49 13v18q5 79 7 181q1 68 1 127v57q0 41 -0.5 86.5t0.5 95.5l4 537q-48 -4 -51 4q-5 12 -6.5 29.5t-0.5 45.5t1 31v11q0 57 41 57q73 0 147 -6q8 -1 20 0t26.5 0t27 -2.5t21.5 -7.5t10 -15q4 -43 9 -137q1 -18 -10.5 -26.5 t-31.5 -8.5q0 -16 -1 -49t-1 -49q0 -28 -4 -84t-4 -84q29 44 84.5 135t85.5 135q1 1 3 4t3 4h-35q-27 6 -27 63v10q2 66 21 79q36 22 74 22q9 0 99 4q62 3 115 4q23 0 45 -1q70 -2 72 -17q1 -18 -9 -56.5t-11 -43.5q-2 -9 -3 -27t-3 -25t-14.5 -12.5t-36.5 -1.5 q-5 1 -15.5 2t-15.5 2q-34 -49 -113.5 -164t-120.5 -176t-41 -67q0 -4 42.5 -100t48.5 -107q137 -311 192 -475q72 0 74 -29q1 -18 -1.5 -41.5t-6.5 -51.5t-5 -40q-3 -19 -15.5 -27.5t-25.5 -8.5t-35 1.5t-32 1.5q-47 -2 -143 -2q-8 0 -24 -1.5t-24 -1t-17.5 3.5t-13 13 t-1.5 27v9q0 21 -6 58q-6 31 -6 52q0 10 1 18q5 25 54 25q-15 34 -23 55q-89 239 -162 412l-2 6l-4 -12v-23q0 -304 -4 -456q56 0 58 -27q1 -14 1 -38v-27v-28q0 -25 1 -40q1 -13 -4 -20.5t-16 -9.5q-11 -3 -19 -3h-4q-8 0 -21 2q-17 2 -22 2q-21 2 -63.5 4t-63.5 4 q-107 6 -109 6q-13 1 -20 10.5t-8 25.5z" />
<glyph unicode="L" horiz-adv-x="753" d="M32 1282q-2 7 -2 16q0 12 4 28q6 28 5 30q0 5 -3.5 18.5t-3 24t8.5 16.5q34 27 63 29q10 0 46.5 4t75.5 8q40 4 80 6q18 1 34 1q20 0 34 -2q26 -3 27 -13q2 -14 0 -30.5t-6.5 -37t-5.5 -30.5q0 -16 -0.5 -29.5t-2 -24t-13 -15t-33.5 -1.5h-18q-1 -20 -6 -70t-5 -77 q0 -38 3 -113t3 -113q0 -75 -2 -112v2q-4 -208 -4 -310q0 -40 4 -120t4 -119q0 -25 3 -43q43 -13 147 -17q-1 13 -1 26q0 31 5 65q2 6 11 10.5t23.5 7t26 4t26 3.5t15.5 1q23 5 45 5q9 0 19 -1q1 -9 16 -132.5t17 -133.5v-7q0 -16 -13 -20q-16 -4 -38 0q-11 -5 -170 -10.5 t-238 -5.5q-36 0 -56.5 13t-27.5 48h2q-8 22 -13.5 78.5t-9 140.5t-5.5 164t-2.5 186t-0.5 167v146.5v88.5q0 34 9.5 100.5t9.5 100.5q0 6 -1 20t-1 21q-33 -10 -62 -10q-19 1 -23 18z" />
<glyph unicode="M" horiz-adv-x="1060" d="M72 192q22 3 43 4l43 -4l16 1039q0 27 -2 41q-2 0 -6 -1t-6 -1q-30 0 -60 -6q-7 -4 -11.5 -0.5t-7.5 3.5t-4 6.5t-1 8v8.5v8q3 49 3 79q0 15 -1 26q-1 4 -5 13.5t-5 15t2 14.5q4 4 12.5 5t21.5 0t15 -1q8 0 24.5 1.5t42 4t43.5 4.5h2q8 2 35 2q76 0 78 -14q0 -2 1 -7.5 t1 -8.5q9 -12 12 -37q13 -62 49 -175t42 -135v2q6 -19 18 -57.5t19 -61t18.5 -54.5t23.5 -58q30 82 80 228.5t84 250t35 103.5q0 6 2 8q4 4 13 5t22.5 0t15.5 -1q6 0 68 6q57 5 101 5q4 -1 8 -1q46 0 47 -12q2 -4 2 -18t-2 -34q-4 -44 -3 -53q0 -6 1 -19t0.5 -18t-3.5 -12.5 t-11.5 -10.5t-22.5 -3h-37q2 -49 2 -147q0 -65 -3 -199t-3 -201q0 -87 -1 -262t-1 -262h30q17 1 23.5 -14t7.5 -42.5t2 -33.5q5 -16 3.5 -53.5t-13.5 -49.5q-3 -3 -60.5 -4t-126 -1.5t-88.5 -2.5l-12 -4q-8 -4 -12 -4h-1q-3 0 -7 3t-6 13q-9 56 -9 76v6v-6q0 3 -0.5 20 t-0.5 28.5t2 26.5t7 23.5t13 10.5q32 4 45 4q1 59 4.5 246t3.5 290v70l-22 -66q-16 -47 -66 -168.5t-64 -168.5l-116 -13q-79 283 -115 396q-1 -102 -9 -303.5t-9 -303.5q4 0 22.5 3t28 4t23.5 0.5t21.5 -6t8.5 -15.5q3 -35 3 -61q0 -68 -19 -78q-5 -2 -28 -2.5t-28 -1.5 q-31 0 -75 -7q-68 -6 -131 -6q-2 0 -18.5 -1.5t-28.5 -0.5t-17 6q-4 5 -5.5 20t-0.5 28t0 24q-1 3 -3.5 18.5t-6 27t-9.5 18.5q-7 8 -7 18q0 16 16 20z" />
<glyph unicode="N" horiz-adv-x="1028" d="M56 128q0 24 7 34q8 16 58 8q-2 8 -2 23q0 60 1.5 127.5t3.5 119t6.5 131t7 119t8.5 130.5t8 122q4 57 10 174.5t10 173.5q-25 0 -37 -2q-10 -1 -14 13.5t-4 45.5v33q-3 31 -3 53q0 35 7 50q3 3 16 8t17 8q3 2 40 2q18 -1 44 -1q34 -1 54 0q26 0 28 1q21 -36 39.5 -78.5 t40.5 -100t32 -81.5q146 -375 164 -424q9 -28 37 -86v2l16 -39q0 457 4 600q-3 0 -15.5 -0.5t-20 -0.5t-17 2.5t-14.5 7.5q-5 6 -6 19t0 28t0 20q0 8 -4 25t-6 31t-2 28.5t8 22t24 6.5q18 -2 45 -2q31 1 73 3q80 4 141 10l61 7q2 0 5 -1t11 -7t14.5 -15t12 -26.5t6.5 -40.5 q0 -4 1 -19t1 -27t-1.5 -25.5t-7.5 -21.5t-16 -9q-15 -1 -82 -6q0 -29 2 -86t2 -84q0 -139 -9.5 -457t-26.5 -504q4 0 15 2.5t19.5 3.5t18.5 0.5t15.5 -6.5t6.5 -16q2 -11 2 -40q-1 -15 -1 -34q-2 -58 -11 -66q-1 -4 -19 -2.5t-20 0.5q-25 -6 -98 -12q-33 -3 -54 -2 q-26 0 -36 4l-2 4q-11 0 -17 2q-36 121 -85 254.5t-113 294t-97 250.5q0 -88 -12 -272q-3 -61 -7 -184.5t-7 -184.5q4 0 13 -1t13 -1t18.5 1.5t20.5 0.5t12 -8t5 -21q0 -94 -17 -121q-7 -6 -14.5 -4.5t-20 6.5t-16.5 5q-14 0 -59 -5q-62 -6 -101 -6h-18q-7 1 -22 -1 t-29 -3.5t-28 -1.5t-22.5 6t-7.5 19q1 10 -1 40q-2 25 -3 46q1 5 1 9z" />
<glyph unicode="O" horiz-adv-x="819" d="M66 1040q3 65 13 121t33 113.5t57.5 98t89 66t124.5 25.5q68 0 139 -29t123 -77q119 -112 119 -389q0 -108 -16 -326q-1 -34 -10 -94.5t-11 -79.5q-1 -14 -2 -59.5t-4.5 -75.5t-11.5 -60q-31 -125 -120 -199.5t-216 -74.5q-90 0 -159.5 54t-103.5 134.5t-34 167.5 q-12 150 -12 420q0 120 2 264zM252 475q0 -24 14 -115q2 -8 4 -23.5t5.5 -28t9.5 -23.5q15 -31 46 -49.5t66 -18.5q41 0 86 29q33 24 54 135.5t25.5 200t4.5 159.5q0 28 -4 82t-4 80q0 25 1 74t1 74q0 88 -22 133l2 -2q-20 37 -59 60.5t-81 23.5q-46 0 -77 -31h-2 q-9 -8 -16 -19t-13 -29t-8.5 -26t-8.5 -31t-6 -24v4q-5 -15 -7 -38.5t-2 -41.5t0.5 -46.5t0.5 -37.5q0 -58 -1 -173t-1 -173q0 -20 -4 -61.5t-4 -63.5z" />
<glyph unicode="P" horiz-adv-x="835" d="M56 1392q4 40 5 40q0 39 13 52.5t51 10.5q40 -3 77 -3q38 0 70 3q56 5 125 5h23q84 -1 145 -17q70 -16 121 -74q47 -52 70.5 -129.5t23.5 -155.5q0 -42 -4 -125t-4 -125q0 -56 -3 -92t-13.5 -75t-31 -65t-55 -49.5t-85.5 -39.5q-46 -14 -101 -14q-15 0 -42 2t-42 2 q-6 0 -18 -1t-19 -1q-2 -8 -2 -25q0 -12 2.5 -34.5t2.5 -32.5q0 -50 -3 -140.5t-4 -113.5q56 0 56 -23q6 -48 10 -139q0 10 2 0q1 -19 -13 -27q-11 -6 -27 -6h-11q-24 2 -47.5 7.5t-48 12t-33.5 7.5q-16 -4 -23 -4q-14 0 -22 2q-28 -2 -45 -2q-26 0 -27 4q-8 23 -8 108v11 q0 49 35 55v71l18 809q4 34 5.5 70.5t1.5 83.5t1 68h-2q-1 0 -98 6q-18 3 -24 23q-3 11 -4 28q0 14 2 32zM368 1100q0 -114 7 -344q33 -11 57 -11q103 0 133 64h-2q35 66 35 186q0 63 -16 138h2q-2 7 -5 21q-21 82 -34 99q-15 18 -64 23q-9 1 -32 2q-44 3 -72 6 q-1 -13 -5.5 -50t-3.5 -58v-76z" />
<glyph unicode="Q" horiz-adv-x="839" d="M55 1071q0 115 54 252v-2q24 55 41 74q50 57 126.5 90.5t154.5 36.5q7 1 15 1q70 0 136 -31q72 -33 112 -101q23 -39 38.5 -85.5t23 -105t11 -97t6.5 -109.5t5 -95q8 -196 8 -299v-43.5v-46.5t-0.5 -43t-2.5 -46.5t-5 -42.5t-7.5 -45.5t-11.5 -41.5t-16 -43 q-4 -6 -12.5 -25.5t-15.5 -29.5q3 -10 5 -22t4 -26t3 -22q5 -30 14.5 -88.5t14.5 -87.5q2 -15 6 -47t8.5 -56t11.5 -45q17 -43 51 -84.5t68 -42.5q22 0 24.5 9.5t-1.5 29.5q-1 14 -1 26q0 24 5 42q12 52 64 83q34 22 70 22q17 0 34 -5q44 -14 81 -56t44 -89q1 -10 1 -20 q0 -76 -69 -154q-70 -76 -154 -76q-8 0 -15 1q-93 7 -176 68t-120 142q-18 38 -33 86t-22 78.5t-19.5 91.5t-17.5 82q-50 -33 -160 -33q-91 0 -151 25h2q-69 26 -113 78t-55 118q-9 45 -16.5 97t-11.5 86.5t-9 102t-6 87t-5.5 101.5t-4.5 91q-11 259 -11 285zM248 700 q7 -141 33 -256q19 25 49 43q55 29 112 29q48 0 97 -20q23 -9 55 -37q8 63 8 131q0 81 -10 186q-5 53 -11.5 167t-13.5 175q-1 4 -3 20t-3 22.5t-4 20t-6.5 21t-9.5 17t-13 16.5q-45 45 -112 45q-118 0 -148 -154v2q-10 -113 -10 -135q-11 -107 -11 -210q0 -42 1 -83z M317 328q17 -43 41 -67.5t50 -24.5q68 0 114 49q-17 34 -28 45q-31 33 -67 33q-7 0 -15 -1q-66 -8 -95 -34z" />
<glyph unicode="R" horiz-adv-x="1030" d="M59 1481q10 23 190 23q33 0 73 -1q250 -5 313 -26q82 -26 127 -102.5t45 -168.5q0 -62 3 -182t3 -182q0 -7 0.5 -44t0.5 -46.5t-3.5 -38.5t-9 -43.5t-16 -36t-25.5 -39.5q59 -81 98 -188.5t43 -208.5q60 -4 62 -25q2 -23 5 -68.5t5 -68.5v3v-5q2 -22 -82 -24h-32l-136 7 q-84 8 -86 11q-5 10 -7 25.5t-2 27t0.5 31t0.5 26.5v9q0 55 47 57h4q-17 250 -131 274q-46 10 -117 10q-1 0 -8 0.5t-10.5 0t-8.5 -1.5t-7.5 -4.5t-2.5 -8.5q0 -20 -4 -57.5t-4 -55.5q0 -33 3.5 -91t4.5 -76q35 -8 35 -27q0 -10 0.5 -26.5t0 -39t-0.5 -39.5v-28 q2 -29 -26 -32q-9 -1 -18 -1q-17 0 -32 4q-20 2 -58 4t-58 4l-99 6q-19 2 -24 22.5t-0.5 58.5t4.5 40q0 38 11.5 51.5t45.5 12.5l-16 512q-4 102 -4 153q0 292 6 435h-12q-8 0 -25 -1t-24.5 -0.5t-17 4t-13 13.5t-2.5 27v9q0 19 -6 55q-5 27 -5 48q0 13 2 23zM358 1172 q3 -30 7 -67t4 -58q0 -148 4 -222v2q2 -14 2 -79q0 -32 2 -46q19 0 55 -2t55 -2q17 0 46 16.5t40 30.5q16 23 25.5 100.5t9.5 125.5q0 193 -28 252v-2q-12 20 -28.5 33t-40 19.5t-40.5 9t-46.5 4.5t-41.5 3h-4q-13 0 -19 -14t-6 -40q0 -28 4 -64z" />
<glyph unicode="S" horiz-adv-x="811" d="M57 303v9q0 46 28 82q31 40 75 57q24 9 49 9q21 0 44 -6q49 -14 79 -59q12 -18 15.5 -39t3.5 -48t3 -42q3 -19 11.5 -23.5t29.5 -2.5q51 4 72 14q9 5 16.5 13t17 19t15.5 17l-2 -2q6 15 6 37q0 59 -53 168h2q-26 44 -67 90.5t-78 80t-80 79.5t-70 88v-2q-71 99 -86 153 v-2q-20 64 -20 140q0 137 95.5 235t231.5 98q93 0 154 -30q98 -45 170 -189q28 -50 35 -133q1 -9 1 -17q0 -52 -38 -80q-44 -32 -113 -32q-38 0 -47 4q-21 9 -41 21q-37 23 -37 75q-1 17 3.5 51t4.5 38q0 3 2.5 18.5t-0.5 17.5q-4 15 -22 33q-17 12 -55 12q-62 0 -104 -48.5 t-42 -110.5q0 -50 36.5 -108t82.5 -103v2l33 -33q50 -47 85 -82.5t81.5 -91t75 -103t49 -107t20.5 -116.5q0 -87 -36.5 -167t-107 -133t-157.5 -54h-4q-75 0 -157 39q-84 40 -145 112t-65 152z" />
<glyph unicode="T" horiz-adv-x="884" d="M57 1257q5 26 9.5 113.5t19.5 128.5q4 9 26.5 12t44 2t33.5 0q26 4 46 -2q0 1 131 10t272 16q90 4 131 4q24 0 31 -1q11 -1 17 -8t7 -18.5t0 -22.5t-2.5 -24.5t-1.5 -18.5q0 -16 4 -57q3 -27 3 -47q0 -10 -1 -17q1 -5 1 -23v-16v-13q0 -12 -6.5 -23.5t-18.5 -12.5 q-29 -1 -44 -0.5t-46.5 3t-44.5 3.5q-15 1 -23 6.5t-10.5 16.5t-2.5 20.5t1.5 24.5t1.5 22v2q-29 -2 -86 -2h-23v-18q0 -41 4.5 -122.5t4.5 -121.5q0 -23 -3.5 -70.5t-3.5 -72.5q0 -18 11 -221q12 -345 20 -510q36 8 53 6q14 -1 19.5 -12.5t3.5 -25t-5 -30.5t-3 -22 q0 -1 3 -17t4 -26.5t-1 -23t-8 -17.5q-31 -25 -64 -27q-6 0 -45.5 -1t-77.5 -1q-13 0 -26 -1q-26 0 -54 1q-42 1 -67.5 6.5t-26.5 14.5q-2 14 0 30.5t6.5 37t5.5 30.5q1 9 1.5 23.5t1 22t4.5 15.5t14 10.5t27 0.5q4 0 11.5 -1.5t10.5 -1.5q-3 85 -8 506q-6 318 -6 322 q0 43 5 130.5t5 131.5q0 9 -1 26.5t-1 26.5q-7 0 -20.5 -1t-20.5 -1q-8 0 -25 1t-26 1v-35q0 -21 4 -57q0 -11 -2.5 -17t-9 -7.5t-11 -1t-16 2.5t-16.5 3q-8 1 -28.5 -0.5t-39.5 -2.5t-37 1q-18 1 -28 11q-7 7 -8 19q0 4 1 8z" />
<glyph unicode="U" horiz-adv-x="960" d="M56 1436q0 14 8 21.5t22 6.5h10q18 0 58 2q58 2 65 2q2 0 33 3t57 5t49 -1q36 -4 46 -21.5t12 -62.5q2 -23 2 -41q0 -60 -23 -62q-10 -1 -30.5 -2t-30.5 -2q-1 -12 -9.5 -105.5t-9.5 -142.5q-4 -118 -4 -180q0 -124 14.5 -326t41.5 -251q37 -66 118 -66q85 0 123.5 63 t38.5 154q0 198 -22 752q-3 60 -9 127h-10q-1 0 -10 -3t-14.5 -4.5t-14 -3t-14.5 0t-10 4.5q-6 5 -6 19t2.5 30.5t1.5 21.5q0 8 -2.5 24.5t-2.5 30t5 23.5q9 18 93 32q74 13 148 13h20q83 -2 87 -24q1 -11 7 -64.5t7 -79.5v-5q0 -4 -1 -8q-2 -6 -6 -8.5t-9 -4t-12.5 -0.5 t-12.5 1.5t-13.5 2t-12.5 2.5q2 -6 2 -19q24 -279 24 -626q0 -60 -2 -106t-7.5 -110.5t-18.5 -115.5t-33 -104t-53.5 -95.5t-77.5 -71.5v2q-101 -63 -236 -63q-61 0 -130.5 45t-115.5 114q-41 62 -41 120v12q-36 188 -36 434q0 87 8 262t8 262v27q-42 -5 -53 6q-4 6 -5.5 20 t-0.5 26t0 22q-1 8 -4.5 26t-5.5 32q-2 11 -2 22v6z" />
<glyph unicode="V" horiz-adv-x="944" d="M56 1466q2 28 14 37q6 5 28.5 9.5t24.5 5.5q17 4 43 4q28 0 70 -5q55 -7 87 -7q12 0 21 1q2 0 14.5 3.5t17.5 1t7 -12.5q8 -36 8 -57v-4v4q2 -18 2 -31q0 -48 -24 -53q-11 0 -17 -2q11 -51 22.5 -114t23 -130t14.5 -82q1 -9 9.5 -64t15.5 -101.5t16.5 -93.5t15.5 -60 q20 109 51.5 312.5t46.5 291.5q-16 0 -24 8q-5 6 -6 19.5t0 30t0 22.5q-1 4 -3 19.5t-5.5 26.5t-8.5 17q-10 10 -9 23t15 16q15 3 39 3q32 0 82 -5q4 -2 10 -2q24 -4 57 -4q46 0 107 8q9 1 16 1q46 0 48 -21q3 -36 3 -63q0 -68 -18 -79q-7 -2 -27.5 -1.5t-27.5 -0.5 q-6 0 -10 -2q-2 -13 -17 -75q-64 -332 -90 -447l-67 -307q-4 -20 -30.5 -127t-44 -191.5t-17.5 -121.5q0 -9 -8.5 -28.5t-14.5 -27.5q-25 -10 -86 -10q-25 0 -41 8h2q-20 8 -39 72l2 -2q-14 30 -22 71t-14.5 93t-10.5 75l-12 70q-67 364 -121 703q-40 224 -45 266h-37 q-14 -1 -21 7.5t-8 18t-1 25t-1 20.5q-5 9 -5 29v10z" />
<glyph unicode="W" horiz-adv-x="1468" d="M57 1372v10q0 24 8 40q10 19 46 22q84 8 194 8q6 0 27 2.5t37 3t35 0.5t31 -4.5t14 -13.5q8 -47 20 -137v2v-5q1 -4 1 -7q0 -29 -67 -29q3 -21 10.5 -62t10.5 -61q60 -358 108 -551q18 88 68.5 302t71.5 331v-2q6 45 24.5 58t67.5 13t79 -13.5t40 -53.5q8 -29 32 -174 q63 -290 101 -453q13 248 31 350q30 171 86 369q-23 3 -37 8q-10 4 -15 24.5t-6 47t-2 30.5q-3 16 -3 32.5t3 33.5h96q15 0 69.5 1t55.5 1t17.5 1.5t36.5 3t30 1.5h8q21 0 23 -14q3 -17 -4 -39q-1 -8 6 -50q4 -21 4 -38.5t-4 -30.5q-7 -26 -39 -22q-24 4 -39 4 q-6 -78 -26 -234q-59 -420 -93 -622q-42 -255 -77 -367q-20 -61 -35 -65l10 -3q-9 0 -60 -7q-40 -5 -69 -5h-17q-34 2 -38 19l-158 706q-21 -74 -49.5 -266.5t-30.5 -204.5q-28 -127 -32 -174q-3 -56 -18.5 -72t-74.5 -16q-79 0 -116 20q-18 9 -66.5 156.5t-56.5 194.5 q-77 423 -133 641q-18 72 -37 190q-2 9 -8 31.5t-9 34.5q-58 -8 -61 -2q-8 13 -12 31t-6 44.5t-3 30.5z" />
<glyph unicode="X" horiz-adv-x="993" d="M72 1509q19 5 44 5q34 0 77 -9q3 0 10.5 -1t11.5 -1q21 6 41 6q19 0 35 -8h31q5 0 20.5 2.5t28.5 3.5t27 1t22.5 -5.5t9.5 -15.5q3 -36 3 -63q0 -66 -19 -74q-3 -3 -10 -3.5t-19.5 0.5t-15.5 1q5 -14 8 -31v2q7 -19 55.5 -152.5t69.5 -205.5q19 50 38.5 107t42 127 t35.5 108h-26q-20 -2 -27.5 13t-8 43.5t-1.5 33.5q-6 16 -4.5 53t14.5 49q7 5 35 10.5t29 5.5q7 2 18 2q11 -1 27 -3q30 -6 35 -5q52 -4 95.5 -3.5t76.5 3.5q5 1 19 5q9 3 15 2h5q6 -2 8 -15q1 -14 4 -39t4 -39q0 -3 1 -19q1 -11 0 -20q1 -4 1 -8q0 -12 -2.5 -27t-8.5 -23.5 t-16 -10.5q-46 -4 -69 -4q-228 -629 -228 -645q0 -5 11.5 -35t25 -63.5t15.5 -39.5q29 -69 122 -344q33 7 46 -4.5t16 -46.5v-6v6q2 -28 2 -50q0 -53 -12 -69q-4 -7 -14 -7.5t-23 2.5t-17 3q-13 1 -40.5 0t-40.5 0q-6 0 -34.5 1.5t-42.5 2t-35.5 0t-35.5 -3.5q-29 -5 -35 28 t0 56q0 6 -0.5 24t0.5 30.5t7 25.5t18 18q12 3 20 3q-11 30 -32.5 91.5t-32.5 92.5q-53 -162 -66 -197q38 -4 49 -19.5t13 -54.5q2 -19 2 -34q0 -58 -25 -60q-22 -1 -63 -3t-62 -3q-16 -1 -46 -3t-54 -3h-24h-23q-5 1 -21 0h-12h-16q-13 2 -19 8q-6 5 -7 16.5t0.5 25.5 t0.5 18q-1 7 -5 23.5t-6 28.5t-1.5 25.5t8 20.5t22.5 6q30 -3 50 -2h18q15 42 86 218t98 274l-118 385q-6 22 -40.5 124.5t-52.5 161.5h-36q-3 0 -18.5 -2t-28 -1.5t-17.5 5.5q-4 6 -5.5 21.5t-0.5 28.5t0 24q-1 3 -3.5 18.5t-6 26.5t-9.5 16q-7 8 -7 18q0 17 16 21z M850 123zM936 1413v4v-4z" />
<glyph unicode="Y" horiz-adv-x="915" d="M57 1414q0 32 73 42q46 7 93 7q31 0 63 -3q78 -7 103 -16q6 -3 9.5 -14t4.5 -28.5t1 -31t-0.5 -31.5t-0.5 -20q0 -37 -65 -41q95 -290 119 -383q41 131 104 410q-6 1 -31 6q-11 3 -16 24t-6 48.5t-2 31.5q-2 14 -2 28q0 19 4 36q19 0 163 2t154 2h7q8 0 14 -1q7 -3 9 -10 t2 -11.5t-2 -17t-3 -16.5l2 7q-2 -3 -2 -7q-1 -8 6 -51q3 -20 3 -36q0 -18 -3 -31q-8 -25 -41 -21q-32 4 -47 4q-3 -7 -7 -22t-7 -21l-123 -391q-5 -18 -26 -79.5t-38 -115t-20 -75.5q-5 -52 -5 -112t2.5 -133.5t2.5 -113.5v-30q15 0 23.5 -0.5t20.5 -3t17.5 -9t5.5 -16.5 v-10q0 -40 -12 -123q-1 -19 -11.5 -27t-22 -8t-30.5 2.5t-28 1.5q-82 -4 -121 -4q-7 0 -22 -1q-10 -1 -16 -1h-5q-7 1 -16 4.5t-11.5 13.5t-1.5 27t-5 63q-5 28 -5 48q0 12 2 22q4 27 38 27q8 0 18 -2q-2 64 -2 329q0 42 -123 406v-2q-10 33 -32 102t-38 123.5t-29 104.5 q-22 -8 -48.5 -7.5t-31.5 21.5q-6 21 -6 60q0 3 1 6v26zM403 1321v2v-2z" />
<glyph unicode="Z" horiz-adv-x="821" d="M55 59q0 28 19 62q20 36 38.5 76t36.5 88t29 80t30.5 90.5t27.5 81.5q17 48 55 150t59.5 162.5t50.5 148t50 161.5q2 8 10 34.5t12 44t6 34.5q-28 0 -59.5 -1t-70.5 -2.5t-62 -2.5q4 -29 2 -41q-4 -30 -21.5 -39.5t-60.5 -11.5h-3h1q-2 0 -18.5 -0.5t-28 -0.5t-26 1.5 t-23 6t-9.5 11.5q0 15 -1 31t-2.5 36t-2.5 31q-1 13 -3.5 38.5t-3 38.5t0.5 40q0 2 -0.5 11.5t-0.5 15.5t2 14t7 12q6 4 33 4q21 9 518 9q117 0 117 -41q0 -13 -22 -64t-33 -70q-20 -41 -38.5 -91.5t-38.5 -113t-32 -94.5l-176 -524q-3 -10 -26 -85.5t-42 -130.5t-32 -77h26 q46 0 134 9t96 10v8q0 4 -1.5 16.5t-2.5 25t0 25.5t6 22t14 11q11 2 38.5 -0.5t37.5 -1.5q0 1 30 1l29 -1q18 2 23 -8t1.5 -28.5t-3.5 -22.5q3 -21 6 -62.5t4 -54.5q0 -4 1.5 -20t1.5 -24.5v-22t-3 -23.5t-8 -18t-27 -15h-4q-20 -8 -223 -8q-11 0 -66 -0.5t-100 -0.5 t-100.5 1t-94.5 4t-55 8q-29 12 -29 47z" />
<glyph unicode="[" horiz-adv-x="671" d="M66 1505q0 20 6.5 33.5t14.5 20.5t25 10t27 3.5t31 0.5h6.5h5.5q55 0 115.5 -2.5t138 -7.5t115.5 -7q6 -22 11 -63.5t9 -60.5l-2 2q4 -16 4 -25q0 -15 -5 -26t-11.5 -16.5t-18.5 -8.5t-21.5 -3.5t-24.5 -0.5q-16 0 -46 1t-45 1q-17 0 -49 -1t-49 -1q4 -53 6.5 -111 t4.5 -136t3 -110q5 -246 5 -591q0 -23 1 -66.5t1 -79t-2 -67.5q47 -3 90 -3q12 0 36.5 2.5t38.5 2.5q48 0 75.5 -31t27.5 -82q0 -54 -47 -78q-22 4 -49 6t-46.5 1.5t-50.5 -1t-47 -0.5h-82q-38 0 -63 0.5t-46.5 4.5t-33 7t-21 14t-12.5 18.5t-5 28t-1 35t1.5 47t0.5 56.5 q0 136 -3.5 383.5t-4.5 327.5q0 48 1.5 156.5t1 191t-4.5 156.5q-1 11 -6.5 34t-5.5 35z" />
<glyph unicode="\" horiz-adv-x="921" d="M72 1196q0 34 30 57q8 0 35 9q18 7 47.5 10t42.5 6q33 -9 78 -103.5t70 -168.5l45 -113q233 -584 278 -703q12 -31 36.5 -93.5t39.5 -100.5t34 -92t32 -99h-76q-83 0 -127 9q-61 121 -313 728.5t-252 653.5z" />
<glyph unicode="]" horiz-adv-x="679" d="M68 1432q0 74 17 101.5t83 27.5q43 0 129.5 -3.5t130.5 -3.5q10 0 30 1t29 1q96 0 107 -57q4 -27 4 -83v-68v-344q0 -56 -2 -166t-2 -164q0 -5 0.5 -37t1 -69t0.5 -89.5t-1.5 -103t-5 -104t-10 -99t-16 -82.5t-23.5 -58.5t-32 -23.5h2q0 -4 -60.5 -2t-62.5 2 q-15 0 -44 -3t-44 -3q-45 0 -178 18q-19 40 -19 93q0 49 25.5 67.5t77.5 18.5q29 0 88 -4.5t88 -4.5q0 100 10 298t10 298q0 97 -7 288.5t-7 287.5q-27 -6 -205 -6h-9q-25 0 -36 0.5t-27.5 4t-23.5 11.5t-12.5 23t-5.5 37z" />
<glyph unicode="^" horiz-adv-x="765" d="M55 1333q28 20 93.5 70.5t115 86t96.5 66.5h7q38 0 94 -40t127.5 -104t107.5 -89q-14 -24 -50.5 -73.5t-49.5 -49.5q-24 0 -68.5 27t-96.5 66t-66 48q-23 -12 -46 -38h3q-32 -32 -134 -99h2q-8 -8 -20 -8q-24 0 -46 30.5t-36 63.5q0 10 -33 43z" />
<glyph unicode="_" horiz-adv-x="1101" d="M72 43q0 33 10 51q19 29 78 29h14q31 1 219.5 10.5t288.5 9.5q32 0 94 -4h4h15l39 -2q139 -8 163 -26q1 -18 7 -60t6 -63q0 -15 -4 -35l-15 -21q-43 -18 -647 -18q-2 0 -49 -0.5t-74.5 -0.5t-64 3.5t-52.5 9.5q-9 4 -12 5.5t-7 3t-4 5t-1 4.5t-0.5 8t0.5 11q0 13 -4 40 t-4 40z" />
<glyph unicode="`" horiz-adv-x="344" d="M63 1432q0 24 26 40.5t54 21.5t52 5q17 0 29.5 -8.5t19 -19t11.5 -30t6 -30.5t3 -31q1 -9 4.5 -34.5t3.5 -42.5q0 -15 -2 -23v2q-11 -49 -55 -49q-22 0 -40.5 15t-28 31.5t-23 44.5t-19.5 38l2 -2l-10 14v-2q-2 2 -8.5 10.5t-9.5 12.5t-7 11t-6 13t-2 13z" />
<glyph unicode="a" horiz-adv-x="757" d="M57 434q2 71 35 153t82 126q34 30 88.5 49.5t106.5 19.5q26 0 53 -6q2 9 -2 26t-4 23q0 4 0.5 32t-4.5 32q-11 30 -37 33q-16 3 -27 -5t-8 -22q2 -8 7 -22t7 -21.5t-2 -17.5t-18 -17q-44 -24 -119 -24q-54 1 -83.5 24t-31.5 57v10q0 30 11 64q13 38 39.5 72.5t58.5 54.5 q41 26 100 27h6q56 0 108 -18q55 -18 103 -52.5t70 -75.5q35 -67 35 -196v-27v-172q0 -121 -2 -180q-2 -27 -2 -82q0 -30 -4 -88v-10q8 0 24 4q35 6 43 -2t10 -43v-4v-8q0 -20 -4 -54q-4 -40 -4 -59q0 -12 -6 -18.5t-17 -7.5h-9q-6 1 -12 1q-10 2 -24 4t-20 2q-27 0 -43 2 q-10 -2 -33 -2q-43 0 -63 2q-8 2 -16 8t-9 13l-2 10q-5 -1 -24.5 -7.5t-25 -7.5t-26 -5.5t-26 -3.5t-27.5 0q-81 3 -155 77h2q-64 64 -82 143q-17 71 -17 168v21zM250 360q0 -21 6 -45q7 -34 27.5 -53.5t46.5 -19.5q32 0 53 24q47 53 47 148q0 42 -16 112q-6 22 -15 30.5 t-34 16.5h2q-17 3 -30 3q-34 0 -50 -21q-7 -7 -12 -19.5t-7 -23t-4.5 -28.5t-3.5 -25q0 -1 -1 -4t-1 -4q0 -11 -4 -31q-4 -40 -4 -60z" />
<glyph unicode="b" horiz-adv-x="772" d="M59 180q26 4 82 8q20 5 21 5q-2 73 -10.5 266.5t-8.5 298.5q0 130 13 286q10 148 10 177q0 8 -1 24t-1 23h-4q-1 0 -18.5 -4.5t-24.5 -5t-19 3.5q-6 6 -6.5 19.5t2 31t2.5 22.5q0 6 -2 18.5t-3 21t0 19.5t5 19q5 11 14.5 17t24 8.5t25 3t28.5 -0.5t23 -1h15q46 0 124 10 q5 1 19 4.5t24 5t21.5 1.5t18.5 -7t9 -20q9 -54 17 -146q2 -19 -12 -23t-38 0.5t-30 4.5h-19q-1 -5 -2 -17t-2 -18v4q-6 -26 -6 -68v-19q1 -24 1 -43q0 -26 -1 -44q33 8 72 8q64 0 115 -21t84.5 -56t55.5 -84t31 -102.5t9 -113.5q0 -95 -23 -252q-3 -19 -7 -57.5t-7.5 -62.5 t-10 -59.5t-16.5 -60t-25 -50.5t-38 -45t-53 -31q-74 -18 -129 -18q-23 0 -43 3v-9q0 -36 -29 -36h-4h-15q-34 0 -108 -6q-38 -3 -65 -3q-40 0 -56 7q-6 2 -10 11t-7 23.5t-4 26t-2.5 26t-1.5 16.5q-6 19 -6 38q0 11 2 23zM332 786q0 -446 26 -487v2q18 -35 70 -35 q57 0 64 62q24 133 24 448q0 48 -21 79.5t-67 31.5q-42 0 -69 -29.5t-27 -71.5z" />
<glyph unicode="c" horiz-adv-x="667" d="M57 454q0 16 -0.5 32t0.5 30v31q0 226 72 366q46 95 121 134q45 24 96.5 24t99.5 -14q52 -14 95 -44t57 -73q10 -24 10 -53q0 -17 -4 -35q-8 -51 -39 -76q-22 -18 -46 -29.5t-52.5 -15t-48.5 13.5q-13 10 -28 54t-36 49q-6 2 -16 2q-10 -1 -18.5 -6t-15 -15t-11.5 -18 t-9.5 -22.5t-7 -21.5t-6 -22.5t-4.5 -17.5q-37 -151 -37 -295q0 -120 43 -180q31 -42 65 -42q9 0 19 3q18 7 28 23.5t17 42t13 36.5q2 3 6 9.5t5.5 8.5t5 6.5t6 5.5t7 3.5t9.5 3.5t12 2h11q23 0 54 -6q81 -19 81 -116q0 -12 -1 -25q-10 -85 -90.5 -138t-171.5 -53 q-72 0 -137 35q-28 16 -51 38.5t-38.5 48t-27.5 56t-18.5 62t-11 65.5t-5.5 67z" />
<glyph unicode="d" horiz-adv-x="843" d="M55 594q0 62 12 133.5t36 146t69 134.5t104 84q23 8 80 8q14 0 43.5 -2t46.5 -2l23 -13q-18 76 -18 209h-2q-5 1 -22 0t-30.5 0.5t-19.5 7.5t-7 19t0.5 28.5t0.5 20.5q-1 7 -5 25t-6 31.5t-2 28t8.5 22t24.5 6.5q12 -1 35 -1q40 0 113 3q19 1 72 7q36 4 61 4q11 0 20 -1 q41 -6 53.5 -23t14.5 -61q0 -3 1 -19t0.5 -27t-2.5 -25t-8 -22t-16 -9q-13 -1 -39.5 -3.5t-40.5 -3.5q4 -65 4 -288q0 -76 -5 -227.5t-6 -227.5q4 -168 5 -350q2 0 7.5 1t7.5 1q22 2 39 2q70 0 75 -29q5 -6 5 -53v-17q-1 -62 -1 -69q1 -14 -5 -22.5t-18 -11t-21.5 -3 t-26.5 0.5t-23 1q-21 0 -44 -2t-50.5 -5.5t-42.5 -4.5q-3 0 -16 -2t-20.5 -2t-18.5 1t-18 5t-11 12l-12 29l-8 -4l2 2q-38 -23 -74 -23q-98 0 -211 105q-35 32 -59.5 92.5t-35 134t-14.5 131.5t-4 117zM262 547q0 -80 4 -121q5 -30 20 -73.5t42 -84.5t55 -41q10 0 12 2 l41 19q4 119 9 223t7.5 156.5t2.5 89.5q0 29 -3 50.5t-12 44t-28.5 34.5t-49.5 12q-15 0 -28 -5t-22 -15.5t-16 -21t-11.5 -27.5t-7.5 -30t-5 -32.5t-3 -30.5t-2 -29.5t-1 -23.5q0 -17 -2 -48t-2 -48z" />
<glyph unicode="e" horiz-adv-x="702" d="M55 397q0 59 4 117t14 135t31.5 141t53 120.5t82.5 89t116 32.5q291 0 291 -409q0 -21 -2 -64t-2 -65q0 -48 -41 -50h-53q-38 0 -113.5 4.5t-113.5 4.5q-29 0 -91 -4q5 0 5 -9q0 -126 30 -190q15 -36 64 -58q35 -15 64 -15q12 0 24 3q23 4 25.5 11t-11.5 22 q-5 5 -18.5 17.5t-19.5 20t-12.5 19.5t-4.5 24.5t12 27.5q37 52 121 52q22 0 47 -3q71 -11 71 -97q0 -24 -5 -53q-15 -101 -96 -165t-183 -64q-80 0 -139 36t-90.5 97.5t-45.5 129t-14 142.5zM264 637h25q19 0 57 -1t57 -1q48 0 68 4v14q0 42 -12.5 87t-36.5 71v-2 q-25 25 -41 25q-33 0 -57.5 -20t-36.5 -52t-17.5 -63t-5.5 -62z" />
<glyph unicode="f" horiz-adv-x="782" d="M55 948q0 43 15 109q81 0 120 2q4 216 136 321q45 34 106 56q59 21 124 21h6q67 -1 112 -32q39 -26 48 -75q4 -17 4 -33q0 -31 -13 -60q-14 -38 -51.5 -62t-81.5 -30q-26 -5 -42.5 8.5t-23 32.5t-19.5 35.5t-32 15.5q-71 -2 -86 -190v-6q33 -2 100 -2q16 0 26.5 -6.5 t16 -14t8 -24t2.5 -24v-27.5q0 -55 -20.5 -79.5t-55.5 -23.5t-83 4v-18v-12q0 -43 6 -126q7 -94 14.5 -173.5t19.5 -200.5t15 -154q22 6 36 6q27 0 30 -20q12 -94 14 -139q3 -25 -24 -29.5t-52 4.5q-44 4 -60 4q-1 1 -4 1q-17 0 -60 -3q-50 -4 -60 -4q-7 0 -20 -2.5 t-22 -3.5q-8 -2 -15 -2h-5q-11 1 -17 6t-7 16q-10 100 -13 121t19 39q4 5 11.5 5t18 -2.5t15.5 -2.5q0 66 -3 136.5t-9.5 175.5t-8.5 137q-1 17 -1 39q0 28 1 64q3 66 3 87q0 28 -3 55q-69 3 -122 17q-13 23 -13 63z" />
<glyph unicode="g" horiz-adv-x="770" d="M60 -168q-3 10 -3 19q0 30 21 63q43 58 100 58h2q59 -2 113 -54q8 -6 21 -20.5t25 -23.5t28 -13q12 0 20.5 -1t15.5 5t12 10t9 14.5t6.5 17t4.5 18t3 18.5t2 18t2 16q-60 -6 -61 -6q-26 0 -53 9q-49 13 -88 41.5t-64.5 63.5t-44 83.5t-28 92t-15.5 100.5t-7 96.5t-1 91.5 q0 62 6.5 120t25.5 123t49.5 113t83 79.5t120.5 31.5q37 0 94 -23v8q0 23 18 37q17 12 79 20q29 4 58 4q31 0 61 -4q58 -9 60 -38q1 -11 1 -32v-36q-1 -28 -1 -46v-19q0 -11 -2.5 -18.5t-7 -11t-12 -4.5t-13 -0.5t-15 2t-13.5 1.5q-5 1 -14 2t-13 2q-4 -54 -4 -82 q-2 -117 -2 -348v-147q0 -33 3 -96.5t3 -96.5q0 -74 -15.5 -137t-47.5 -116.5t-88 -86.5t-132 -39q-47 -5 -86 -5q-62 0 -102 13q-44 15 -75 45t-39 68zM252 524q0 -356 119 -356h8q8 1 15 4t12.5 5.5t10.5 9t8 10.5t6.5 13t5 13t4 14.5t3 13.5t3 15t2.5 13q7 42 11.5 84 t6.5 99t3 82v37v62q-1 75 -1 84q0 43 -12 55v-2q-39 39 -103 39q-23 0 -39 -8q-63 -33 -63 -287z" />
<glyph unicode="h" horiz-adv-x="835" d="M59 1421q3 19 21 23q10 2 25 2q13 0 29 -2q35 -4 36 -4q9 -1 22 -1q20 0 48 2t48 2q13 0 23 -1q6 -1 26.5 -1.5t35 -1.5t27.5 -8t14 -20q0 -24 -7 -76t-8 -57q-6 -35 -37 -35q-10 -170 -10 -203v-14q16 0 48.5 2t50.5 2q72 0 126 -25.5t86 -70.5t47 -102t15 -125 q0 -31 -4 -93q-4 -48 -4 -103t2 -121t2 -101v-92q15 0 43 -4q4 -2 6.5 -8.5t4 -16.5t2.5 -20.5t1 -24v-22.5v-19.5v-13.5v6v-6q0 -15 -11.5 -24.5t-23 -12t-33 -5t-26.5 -3.5q-21 -5 -54 -5h-20q-24 1 -43 1t-32 -1q-5 -1 -19.5 -4t-25 -5t-23 -2t-21.5 5.5t-12 16.5 q-5 5 -5 50v15q1 60 1 66q-3 26 16 36.5t54 12.5q4 66 4 98q0 20 -2 73q-2 38 -2 63v18l6 137q0 15 1 45t1 47q0 98 -21 148q-13 24 -53 24q-54 0 -90 -33q-6 -51 -6 -103v-38q0 -40 1 -90q1 -76 1 -102q0 -52 -3 -156.5t-3 -155.5q57 0 59 -26q1 -11 1 -36v-28 q0 -10 -1 -19q0 -34 2 -48q0 -8 -1.5 -14t-5 -9.5t-7 -6.5t-9.5 -4t-10 -1q-1 0 -3 -1q-4 0 -9 1q-8 1 -11.5 1t-11.5 1.5t-10 1.5q-22 3 -62.5 6t-53.5 4q-17 1 -49.5 2t-49.5 2q-18 2 -23 22t-1 59.5t4 41.5q0 38 13 51.5t50 10.5q0 133 -8 399v-2q-4 180 -4 268 q0 63 1 190.5t1 192.5q-20 -1 -35.5 -2t-24.5 9t-7 34v9q0 21 -6 57q-5 28 -5 49q0 12 2 22zM778 74v2v-2z" />
<glyph unicode="i" horiz-adv-x="466" d="M56 78q1 23 1 67q0 36 54 43q0 18 -1 56t-1 57q0 81 4 191t4 190q0 54 -8 172q-17 0 -25 2q-12 1 -19 10t-8 24.5t0 29t3.5 32t2.5 23.5q0 37 13 50.5t49 12.5q97 -12 154 -14q3 0 16 1t23.5 1t22 -1.5t18.5 -7.5t8 -16q0 -12 0.5 -28t-0.5 -37.5t-1 -37.5t1 -28 q1 -16 -6 -23.5t-16.5 -8.5t-25.5 0l-6 -133q0 -37 -1 -112.5t-1 -113.5q0 -63 1 -142t1 -144q0 -11 2 -19q28 4 48 3q25 0 38 -5q19 -5 19 -119q0 -16 -11.5 -25t-24.5 -11.5t-33.5 -4.5t-28.5 -4q-23 -6 -61 -6h-17q-21 1 -38 1q-23 0 -38 -1q-3 0 -35 -6q-21 -4 -35 -5 q-8 -1 -14 1q-17 4 -21 22q-7 8 -7 45v19zM104 1188q0 40 34 64t73 24q35 0 78 -32.5t43 -65.5q0 -37 -41.5 -75t-77.5 -38q-43 0 -76 40t-33 83zM420 57z" />
<glyph unicode="j" horiz-adv-x="497" d="M-192 -160q-1 7 -1 13q0 58 29 100q16 22 48.5 31t62.5 4q11 -3 19.5 -7.5t15 -13t10.5 -13t8 -18t5.5 -17t5 -21t3.5 -19.5q5 -33 20 -33q14 0 38 31q37 50 55 139q10 92 10 168v285q0 229 4 346h-12q-5 1 -22 0t-31 0.5t-21 7.5q-7 8 -14 53q-4 23 -4 47q0 20 3 40 q6 43 32 41q21 -2 45 -2t54.5 1t47.5 1q14 1 70 8q39 5 65 5q11 0 19 -1q41 -4 53 -22t12 -62q2 -2 2 0q0 -3 1 -18q1 -11 1 -20v-8q-1 -12 -2.5 -26t-7.5 -22t-16 -9q-11 -1 -33.5 -2t-32.5 -2q1 -70 1 -160v-96q-1 -151 -4 -292t-17 -266.5t-37 -180.5q-47 -109 -203 -170 q-30 -10 -61 -10q-29 0 -59 8q-63 18 -107 61l-15 15q-37 41 -40 106zM141 1169q0 42 24 69.5t66 27.5q40 0 74.5 -25t34.5 -65q0 -9 -4 -25l2 6q-3 -39 -32.5 -67.5t-67.5 -28.5q-43 0 -70 32.5t-27 75.5z" />
<glyph unicode="k" horiz-adv-x="884" d="M56 1363q0 25 7 36q3 7 22 9q7 1 14 0q12 0 25 -2q20 -2 39.5 -4.5t20.5 -2.5q0 2 4 2q5 0 7 -2q18 0 85.5 2t77.5 2q3 0 16.5 1.5t19.5 0.5t12.5 -8t5.5 -21q0 -93 -17 -121q-8 -6 -15 -5t-19.5 5.5t-16.5 4.5h-4q-8 -223 -9 -318v-18q0 -89 9 -205l16 20l-2 -2 q82 90 123 137q-25 0 -39 7q-12 6 -12 54q0 28 4 69v-3v3q0 20 89 34q69 10 139 11q21 0 41 -1q91 -4 96 -24q3 -4 3 -25q0 -15 -2 -39q-3 -56 -3 -70q0 -39 -64 -39q-11 0 -24 1q-152 -201 -152 -203q0 -25 82 -235v2q0 -1 19 -44.5t45.5 -108t43.5 -111.5q6 1 19 2t20 2 q12 1 19 -0.5t9 -6t2.5 -8.5t-0.5 -13t-1 -13q0 -9 10 -43q7 -24 7 -40q0 -8 -2 -15q-5 -21 -38 -19h-13q-29 0 -122 -2q-50 -1 -83 0q-53 0 -64 2q-8 1 -14 12.5t-8.5 23.5t-5 27.5t-3.5 18.5q-8 20 -4 49q32 4 49 4q-13 37 -18 60v-3q-28 82 -31 89v-3q-6 16 -21 59 t-26.5 73.5t-24.5 58.5q-24 -31 -33.5 -44t-19 -26.5t-10 -27t-2 -24.5t0 -41.5t1.5 -55.5q0 -5 6 -98q43 4 52 -2t14 -37q2 -17 -3.5 -51t-5.5 -46q1 -10 -7 -16q-7 -6 -20 -6h-12h-14q-12 0 -28 2t-23 2q-24 0 -68.5 1t-66.5 1q-30 1 -43.5 7t-16.5 12.5t-8 29.5 q-6 28 -6 49q0 18 4 31q6 13 57 16q-4 50 -4 72q0 32 3.5 94.5t3.5 93.5q0 78 -8.5 233.5t-8.5 233.5q0 57 6 173.5t6 175.5q0 20 -2 30q-28 -5 -47 -5q-24 0 -31 8q-6 7 -6 18q1 8 -1 38q-2 25 -3 47q1 4 1 8z" />
<glyph unicode="l" horiz-adv-x="489" d="M57 1300q1 27 1 43l-1 25q0 26 82 34q54 5 107 5q32 0 64 -2q86 -5 100 -10q6 -2 10 -12.5t5.5 -27.5t1.5 -31t-0.5 -31t-0.5 -19q0 -16 -13.5 -26t-25 -12t-35.5 -5q-1 -97 -7.5 -278.5t-8.5 -250.5q-3 -97 -4.5 -273t-3.5 -245q22 7 59 11q28 4 31.5 -13t-2.5 -39v7v-7 v-2v2q0 -9 10 -51q7 -29 8 -50q0 -10 -2 -18q-4 -26 -37 -24h-20q-41 0 -126 -5q-45 -3 -77 -3q-46 0 -66 6q-11 3 -17.5 23.5t-9.5 47t-5 31.5q-6 20 -6 40q0 12 2 24q46 4 67 4q-1 57 -2.5 158.5t-2.5 184.5t-1 157q0 61 4 185t4 187q0 25 -1 54t-2.5 64.5t-2.5 55.5 q-17 -3 -30 -3q-35 0 -40 24q-6 10 -6 52v13z" />
<glyph unicode="m" horiz-adv-x="1251" d="M58 940q0 14 1.5 31.5t1.5 23.5q-1 37 11 51q11 13 41 13h4q30 -3 57 -6h6q82 0 107 -6q34 0 37 -25v-4q3 1 12 5.5t16 6.5h-2q70 25 119 25q40 0 88 -26t80 -60h2q39 47 106 71q34 19 84 19q48 0 95 -21h-2q43 -18 74.5 -49t49 -62.5t30.5 -80t17.5 -81t10.5 -88 t10 -79.5q19 -134 19 -356v-58q13 2 23 2.5t16.5 -4.5t7.5 -16q5 -42 14 -139q1 -25 -25 -29.5t-51 4.5q-41 4 -56 4.5t-62.5 -3t-57.5 -3.5q-7 0 -25 -4q-19 -3 -29 -4h-3q-9 0 -17 4q-10 5 -12 18q-4 82 -10 121q-3 21 18 39q7 7 31 2q-2 18 -2 53q0 37 3 111t3 111 q0 60 -5.5 152t-16.5 124v-2q-5 11 -9 29h2q-6 21 -9.5 30.5t-12.5 29t-21 29t-26 9.5q-16 0 -54.5 -57t-41.5 -78q-5 -29 -5 -68q0 -95 19 -461h14h17t16.5 -0.5t17 -2.5t13.5 -4.5t10.5 -7.5t3.5 -11q2 -17 0 -38.5t-6.5 -48t-5.5 -38.5q-2 -14 -9.5 -22t-20.5 -9.5 t-24.5 -1t-28.5 2t-26 1.5q-47 -2 -141 -2q-8 0 -24.5 -1.5t-24.5 -1t-17.5 4t-13 12.5t-2.5 25q1 17 -5 59q-4 26 -5 45q0 12 2 21q4 24 49 24q7 0 14 -2v76q0 50 -5 149t-5 148q0 9 1 37.5t1 50.5t-1.5 54t-7.5 55t-16 45t-28.5 33.5t-42.5 11.5q-18 0 -32.5 -5.5 t-23.5 -13t-15.5 -22.5t-10 -25t-5 -30.5t-2.5 -29t0 -31.5t1 -27q0 -89 9.5 -255t10.5 -198q0 -4 1 -14.5t1 -14.5q38 0 41 -22t5 -66.5t5 -66.5q4 -29 -23.5 -35t-49.5 0q-20 0 -59 -1t-58 -1q-17 0 -48 -1t-48 -1q-13 0 -20.5 9t-10 25t-3 30.5t0 32.5t0.5 24 q-2 39 10 53t49 14h13q-2 95 -11.5 329.5t-11.5 360.5q-8 1 -26 2t-27 2q-10 1 -15.5 10t-6.5 25q-1 11 -1 21q1 5 1 10z" />
<glyph unicode="n" horiz-adv-x="874" d="M56 953q1 5 1 8q0 4 -1 18.5t-0.5 24t2 22t7.5 21t15 12.5q33 11 194 11q54 0 52 -3q8 -5 9 -41t3 -41q124 37 180 37q73 0 115 -37q127 -115 127 -663q0 -48 -4 -138q59 -4 61 -18v-8q1 -12 -1 -30q-2 -24 -3 -34q0 -51 -2 -78q-3 -24 -69 -24q-18 0 -40 2 q-22 1 -64.5 5t-62.5 5q-58 4 -74 17q-13 10 -12 28q0 9 -1 61t4 58q4 17 26 17q14 0 35 -7q4 122 4 184v39v52.5t-0.5 55t-2 63t-4 59.5t-7 60.5t-10 50.5t-13.5 46t-18 31q-21 6 -45 6q-29 0 -49.5 -13.5t-30 -30.5t-15 -48t-6 -48.5t-0.5 -49.5v-10q0 -21 -1 -62t-1 -61 q0 -49 5.5 -147t5.5 -146v-16q39 0 55 -9q13 -7 16 -34.5t0.5 -63t-2.5 -41.5q1 -16 -7 -24t-18 -8.5t-28.5 0.5t-26.5 1l-22 -1q-21 -1 -48.5 -2t-61.5 -1t-62 1.5t-48 5.5t-22 10q-3 10 0.5 37t1.5 38v60q-2 18 9 22t32.5 0.5t28.5 -2.5h4q-10 390 -10 467q0 34 1 72.5 t2.5 86t2.5 73.5q-53 0 -76 -4q-16 -3 -24 9q-7 11 -7 27z" />
<glyph unicode="o" horiz-adv-x="686" d="M55 432q0 54 1.5 96.5t8 106.5t18 113t34 102t53 88t77.5 57.5t105 22.5q64 0 113 -21t79.5 -55.5t49.5 -83.5t26 -99.5t7 -109.5q0 -31 -3 -94t-3 -94t5 -91t5 -91q0 -106 -44.5 -172.5t-142.5 -98.5q-46 -16 -88 -16q-37 0 -80 16q-51 18 -88.5 42.5t-61 57t-38.5 65 t-22 78.5t-9 84.5t-2 96.5zM229 461q0 -30 2 -60t9.5 -72.5t20.5 -74t37 -54t56 -22.5q25 0 41.5 15.5t24 41.5t10 48t2.5 45q0 66 -3 196t-3 195q0 20 -1 31t-4.5 27t-13.5 26t-26 14q-6 2 -23 2q-30 0 -53 -20t-36 -55.5t-22 -71.5t-12.5 -82t-4.5 -72.5t-1 -56.5z" />
<glyph unicode="p" horiz-adv-x="761" d="M57 1067q3 18 18 23q7 2 17.5 2t23.5 -2q26 -5 29 -5q18 -2 54 2h6h8q17 3 35 0h26q11 0 17 -2q31 0 43 -14q4 -8 4 -12v-19q7 1 44 7t58 6q64 0 114.5 -30t80.5 -76t49.5 -107t27 -117.5t7.5 -112.5q0 -34 -4 -104q-2 -29 -2.5 -87t-3 -89t-10 -76t-26 -83t-48.5 -75 q-41 -53 -98 -84.5t-121 -31.5q-30 0 -80 16h-4v2q-3 -109 -9 -221q3 0 7.5 1t7.5 1q10 2 16 0t8 -8t2.5 -11t0 -16.5t-0.5 -15.5v4v-4q0 -8 8 -50q5 -28 5 -48q0 -12 -1 -22q-5 -26 -32 -24q-10 1 -22 1q-24 0 -58 -3q-52 -4 -83 -5h-7q-29 0 -72 7q-10 1 -16 20.5t-9.5 49 t-3.5 31.5q-5 26 -2 63q9 1 28 2t28 2q-11 135 -11 293q0 77 6.5 230.5t6.5 230.5q0 235 18 385h-8q-6 0 -19 -1.5t-19.5 -1t-14 3.5t-11 13t-2.5 27q1 6 1 13q0 20 -4 53q-4 30 -4 50q0 11 1 19zM315 302.5q0 -6.5 1 -20t3.5 -23.5t6.5 -19q50 -54 94 -54q12 0 29 7 q23 23 38.5 60t23 67t11.5 83t4 73.5v72.5v33.5v34t-0.5 30.5t-2 33t-4 29t-7 31.5t-10 28t-13.5 31t-18 29.5q-17 27 -43 27q-22 0 -47 -14q-6 -3 -11 -7.5t-9 -8.5t-8 -11t-6 -11t-4.5 -12.5t-3.5 -11.5t-3 -13l-2.5 -12.5t-2 -13.5t-1.5 -12q-15 -117 -15 -381v-21.5v-24 z" />
<glyph unicode="q" horiz-adv-x="749" d="M55 459q0 577 275 577q59 0 121 -30l-2 30q5 20 116 24q19 1 36 1q88 0 112 -18q8 -6 2 -13q4 -43 8 -137q1 -25 -19.5 -31.5t-46.5 0.5q-4 -74 -4 -112q0 -34 0.5 -97t0.5 -114.5t-1 -96.5q0 -52 -5 -157.5t-5 -157.5q0 -4 -3 -59q-3 -32 -3 -58q0 -19 1 -35 q3 -38 15 -51q12 -17 22 -14t14.5 12t14.5 23t21 20q13 7 26 7q22 0 42 -20q32 -30 41 -71q5 -24 5 -46q0 -31 -11 -55q-19 -42 -58 -58q-39 -17 -86 -17q-2 0 -3 1q-49 0 -97 18q-80 31 -116 108t-36 176q-54 -12 -78 -12q-19 0 -47 8h4q-40 4 -82.5 31.5t-72.5 64.5 q-59 73 -80 160t-21 199zM258 459q0 -256 94 -256q23 0 43 17t25 40q12 45 12 416q0 16 -1 51t-1 51q-13 21 -34.5 40.5t-39.5 19.5q-11 0 -20.5 -9.5t-16.5 -27.5t-11.5 -32t-9 -34.5t-5.5 -23.5v2q-35 -106 -35 -254z" />
<glyph unicode="r" horiz-adv-x="776" d="M59 1049q2 5 9.5 7t14 2t16.5 -0.5t12 -0.5q7 0 72.5 6t99.5 6h10q45 0 86 -18q10 -27 10 -50q57 21 86 21q66 0 141 -47q25 -13 54 -45q48 -55 51 -158q0 -49 -6 -81.5t-27 -61.5q-20 -25 -42.5 -31t-63.5 -6q-53 0 -76 37q-14 24 -14 47q0 9 2 18q9 25 9 39t-14 31 q-22 25 -51.5 21t-42.5 -33v2q-8 -33 -8 -127q-4 -136 -4 -209q-2 -57 -2 -80q0 -10 6 -145q70 0 72 -31q1 -19 -1 -39.5t-7.5 -54.5t-6.5 -41q-2 -18 -14.5 -25.5t-25.5 -7.5t-34.5 2.5t-31.5 1.5q-47 -4 -143 -4q-8 0 -25 -1q-11 -1 -18 -1h-6q-8 0 -17.5 4t-13 14 t-2.5 27v10q1 20 -5 55q-5 29 -5 50q0 11 1 20q4 20 32 23.5t54 -2.5q-2 18 -2 53q0 37 2.5 46.5t2.5 47.5q0 76 -9.5 230t-9.5 231q0 25 -2 37h-20q-39 -4 -60 -11q-13 -4 -20 4t-6.5 19.5t0.5 21.5q2 42 2 73.5t-2 53.5q0 4 -6 23q-3 10 -3 17q0 6 2 10z" />
<glyph unicode="s" horiz-adv-x="729" d="M57 201q-1 9 -1 18q0 47 28 91q32 52 88 57q5 1 10 1q32 0 66 -24q38 -28 53 -65q1 -4 4.5 -12t5 -11.5t4.5 -11t5.5 -10t7 -9t8 -7.5t9.5 -5t11.5 -2.5t14.5 0.5q67 9 67 74q0 98 -139 188l4 -2q-46 34 -70 53.5t-57 52t-48.5 60.5t-27.5 68.5t-12 87.5q0 62 28.5 119.5 t78.5 97.5q42 33 94 49q59 20 117 20q12 1 26 -1q72 -6 136 -49.5t96 -113.5q10 -22 10 -46q0 -33 -20 -69q-35 -61 -93 -69q-16 -2 -29 -2q-73 0 -81 47q0 27 -7 43q-9 16 -20 21q-1 1 -8.5 7.5t-12.5 8.5q-20 20 -45 14q-23 -8 -35 -31t-12 -48q0 -31 20 -63t40 -50.5 t54 -45.5q2 -1 3 -2t3 -2.5t3 -2.5h-2q232 -168 232 -332q0 -48 -14 -99.5t-40 -84.5v2q-6 -9 -12 -15q-41 -55 -102 -79q-53 -21 -107 -21h-16q-62 4 -131 27q-21 6 -40.5 18.5t-41.5 30.5t-35 26q-58 31 -68 103z" />
<glyph unicode="t" horiz-adv-x="745" d="M57 971q0 30 6 57q33 21 91 21l8 4q2 4 2 12q0 18 -4 76q-8 -1 -17 -1q-26 0 -55 7q-9 2 -14.5 21.5t-8.5 47.5t-4 31q-4 22 -4 40q0 13 2 24q24 4 114 11.5t151 20.5h1q7 0 15 -11q8 -12 15 -32.5t10 -42.5l4 -8q5 -81 5 -136q0 -27 -1 -48q33 -4 97.5 -6.5t90.5 -5.5 q23 -67 23 -103q0 -46 -19 -67.5t-50 -22.5t-69.5 -1t-76.5 -3q0 -64 -7.5 -188t-7.5 -185v-22q4 -95 23 -156q10 -38 33 -67q11 -17 29 -25t38 6q5 5 14 21.5t15 23.5q30 30 66 37q8 2 15 2q28 0 56 -20q42 -34 46 -99v-12q0 -57 -36 -90q-63 -48 -110 -66 q-62 -23 -115 -23q-10 0 -20 1q-45 5 -64 12q-17 4 -25 12q-4 2 -7 5t-5.5 7t-3.5 5q-55 37 -88 120.5t-43 188.5q-10 104 -12 198v57q0 66 2 132q2 60 3 93q0 19 -1 28q-44 0 -98 16q-9 79 -9 103z" />
<glyph unicode="u" horiz-adv-x="952" d="M57 1035.5q0 14.5 8.5 22t24.5 5.5q13 -1 37 -1q40 0 111 3q14 1 70 7q42 5 70 5h15q41 -6 52.5 -23t13.5 -61q0 -3 1 -19.5t0.5 -27.5t-2.5 -25t-8 -21.5t-16 -8.5q-13 -1 -67 -6q-3 -51 -17 -225t-14 -269q0 -72 28.5 -126t94.5 -54q35 0 65 20q82 52 82 496 q0 45 -4 147q-22 0 -38.5 2.5t-31.5 13.5t-14 30q1 10 -3 59t3 59q3 12 17 17.5t26.5 5.5t31.5 -2t23 -2t41 1q37 2 71 2h18q26 0 56 -2q40 -2 65 -8t26 -16q1 -13 -1.5 -37.5t-2.5 -31.5q-1 -9 -1 -36.5t-3 -41.5q-2 -27 -78 -27q-2 -89 -13.5 -296t-11.5 -318v-35 q35 0 62 8q4 0 14.5 4.5t15 2t7.5 -14.5q12 -74 12 -76v-4v4q0 -4 1 -19q2 -16 2 -28v-8q0 -8 -1 -18q-1 -14 -5.5 -23.5t-12.5 -11.5q-29 -7 -99 -15q-50 -5 -85 -5q-14 0 -25 1q-17 0 -41 -4h-2q-11 0 -18 8q-7 10 -9 25q-4 6 -10 12q-53 -29 -99 -29q-82 0 -145 24.5 t-102 65t-63.5 100t-34 123t-9.5 140.5q0 75 8 214.5t9 186.5h-5h-21.5t-30.5 2.5t-19 8.5q-5 5 -6 17.5t0 27.5t0 20q-1 7 -5 25t-6 32t-2 28.5z" />
<glyph unicode="v" horiz-adv-x="755" d="M57 958q1 10 0 19v7q1 6 1 10q2 8 5.5 13t13 7.5t25.5 1.5q24 -3 50.5 -4t59 -1t50.5 -1h66q22 3 27 -11.5t-1 -25.5q-8 -62 -8 -99q0 -2 5.5 -16.5t0.5 -21.5q-5 -5 -33 -5q3 -77 11 -158.5t13.5 -120.5t19 -123.5t14.5 -88.5q4 53 29.5 226t35.5 257q-2 0 -11 -2 t-13 -1.5t-9.5 2.5t-8 10.5t-1.5 21.5q7 130 17 154q3 6 9.5 6.5t12.5 -2.5t12.5 -6.5t8.5 -4.5q3 0 31 5.5t61 10.5t67 7q10 1 20 1q22 0 37 -4q22 -6 21 -22q0 -7 2 -49q1 -25 0 -45v-25q-1 -30 -6 -44q-7 -17 -49 -9q-4 -24 -10 -74.5t-10 -74.5l-101 -393l-35 -238 q-7 -55 -55 -55q-94 0 -125 16q-26 66 -92.5 351t-95.5 472q-56 3 -56 13v3v-1q-7 53 -7 90q0 12 1 22z" />
<glyph unicode="w" horiz-adv-x="1202" d="M57 1026.5q0 14.5 8.5 22t24.5 6.5q26 -2 56 -2q42 0 92 4q10 0 68 7q37 4 62 4q15 0 25 -1q41 -6 52.5 -22t13.5 -60q0 -3 1 -19.5t0.5 -28t-2.5 -25.5t-8 -22t-16 -9t-33 -3.5t-36 -3.5q14 -63 35.5 -181t25.5 -138q2 9 15 68.5t21.5 98.5t19.5 95t17 97.5t7 66.5 q29 20 80 20q8 0 45.5 -2.5t44.5 0.5h3q29 0 51 -78q24 -82 40 -191.5t21 -125.5q14 115 51 258q-2 0 -8 -1t-9 -1q-18 -1 -24.5 14.5t-6.5 42.5t-1 33q-6 17 -5 55t13 50q5 3 28 8t29 8q5 1 11 1q11 0 29 -4q28 -6 36 -5q60 -2 100 -2.5t60 2.5q5 1 17.5 5t17.5 1.5 t6 -14.5q8 -57 10 -78v-4v4q1 -1 1 -19v-16v-12q0 -10 -2.5 -26t-8.5 -24.5t-15 -9.5q-2 -1 -57 -6q-35 -205 -106.5 -515t-92.5 -341q-16 4 -32 5t-42 0t-32 -1q-19 15 -46.5 123t-55.5 232.5t-44 160.5q-12 -40 -22.5 -90.5t-16.5 -83t-16 -95.5t-14 -85q-4 -32 -18.5 -97 t-22.5 -73q-12 -12 -88 -12h-39q-4 10 -14 32.5t-16 39t-9 32.5l-55 240q-8 35 -55.5 230t-69.5 300h-9q-5 1 -22 0t-30 0.5t-19 7.5q-5 6 -6 19t0 28.5t0 20.5q-1 7 -5 25t-6 31.5t-2 28z" />
<glyph unicode="x" horiz-adv-x="841" d="M56 965q4 30 3 39q-1 10 -1 29.5t-1 29.5q-1 17 10 21t32 1t28 -2q67 6 135 9q2 0 22 1.5t28.5 1.5h25t28.5 -2.5t21 -7.5q12 -7 15 -34.5t1 -62.5t-2 -40q2 -35 -34 -35q5 -14 14 -43t14.5 -44t13 -33.5t13.5 -28.5q23 35 47 129q-37 12 -35 41q0 4 -4 60t2 59 q4 16 20.5 17.5t40 -5t29.5 -6.5q4 -1 72 7q64 7 114 8h6q52 0 56 -17q1 -13 -1.5 -38t-2.5 -34q0 -8 0.5 -24t0.5 -29.5t-1 -24.5q-2 -22 -64 -26q-11 -16 -12 -21q-92 -144 -166 -354q79 -170 156 -320q33 4 47 2q36 -6 45.5 -22t11.5 -60q0 -4 1 -19t1 -26.5t-1.5 -24.5 t-6.5 -20.5t-14 -7.5q-74 -8 -113 -8q-11 0 -60 -4q-40 -4 -65 -4h-10q-10 1 -20 0h-6q-8 0 -18 2q-14 2 -19 8q-4 5 -4.5 17t0.5 26.5t0 20.5q0 8 -3.5 25t-5.5 30.5t-2 27t7.5 20.5t21.5 5h16q-21 45 -69 166q-16 -31 -70 -170h2q3 0 17.5 2.5t27 2.5t17.5 -5 q4 -11 3 -21.5t-4.5 -28t-3.5 -22.5q-1 -8 0 -25t-0.5 -30t-7.5 -23q-5 -11 -14.5 -16.5t-24 -6t-23.5 0t-27 3.5t-21 3q-22 2 -56 2t-79 -2q-5 0 -19 -2.5t-23.5 -3t-21 0.5t-17.5 8t-6 20q-4 98 -4 147q1 18 14.5 21t37.5 -4t26 -7q5 0 16 -1t17 -1q25 57 61.5 136.5 t58 125.5t21.5 48q0 24 -58 169.5t-106 247.5q-26 -4 -56 -0.5t-34 19.5q-2 4 -2 14q-1 9 1 23z" />
<glyph unicode="y" horiz-adv-x="854" d="M56 1029q1 24 7 34q5 9 24 9t43 -4.5t28 -4.5q18 2 60.5 1.5t60.5 2.5q10 2 61 2q2 0 19 1.5t24 -4t6 -24.5q0 -93 -16 -122q-3 -4 -9 -4.5t-11 1.5t-13 5t-10 4q-1 -52 -4.5 -213t-3.5 -248v-9v-41.5t2.5 -45.5t6.5 -49.5t12 -44t20 -39t30.5 -25t42.5 -10.5q46 0 82 65 q14 29 14 299q0 63 -3.5 179t-4.5 153q-25 -6 -58 -6t-34 20q-3 39 -3 67q0 67 17 75q4 3 14 3.5t24.5 -0.5t17.5 -1t78 6q57 8 129 8q3 0 19 1.5t27.5 0.5t16.5 -6t7 -20t1 -28t0 -24q0 -4 3.5 -16t6 -25t4.5 -26q1 -10 1 -16v-7q-1 -9 -7 -10q-21 -5 -45 -5q-11 0 -22 1 q8 -96 8 -207v-444q0 -59 -1 -98t-7 -101.5t-17 -104.5t-33 -91t-52 -78.5t-77.5 -49.5t-107.5 -20q-114 0 -178 84q-1 1 -3 4t-3 4q-17 27 -17 64q0 20 5 43q16 53 59 61q24 9 49 7.5t43 -21.5q18 -21 29 -41q2 -2 5.5 -7.5t6.5 -9.5t6 -4q21 -10 37 3.5t19 35.5 q1 4 1.5 16t2.5 19q4 8 12 23.5t12 23.5q-42 -18 -98 -18q-69 0 -123 36.5t-86 96.5t-50 122.5t-24 127.5q-2 39 -4 116.5t-4 116.5q-10 210 -10 256v57q-17 -4 -29.5 -4t-22 5.5t-8.5 19.5q0 9 -3 41q-2 27 -2 48v8z" />
<glyph unicode="z" horiz-adv-x="727" d="M56 1050q0 5 5 13q8 8 39 4q110 19 258 21h63q108 0 193 -5q-18 -101 -59 -219q-90 -262 -139 -393q-82 -233 -92 -267q31 1 89 7.5t76 7.5q0 59 -2 84q-8 32 38 35q13 0 36 -2h6q3 0 20.5 1t25.5 0t21.5 -3.5t21.5 -8.5t12 -16q3 -21 3 -34v-6q-1 -14 -7 -43.5t-7 -41.5 q-3 -29 -3 -57.5t3 -56.5q7 -33 -4.5 -46t-46.5 -16q-6 0 -24.5 -1.5t-35.5 -1.5t-30 3q-50 -5 -188.5 -5.5t-171.5 -6.5q-24 -4 -37 -4q-62 0 -62 47q0 20 5.5 40t15.5 43.5t14 37.5v-2q20 56 123.5 325.5t146.5 417.5q-22 0 -62.5 -3.5t-53.5 -4.5q2 -6 2 -19 q1 -3 4.5 -13t5 -17.5t1 -16.5t-7.5 -14.5t-20 -7.5q-92 -8 -145 -10q-18 -2 -22 8.5t0 28.5t4 22q-1 16 1.5 50.5t0.5 53.5q-1 6 -1.5 27t-2.5 31q0 2 -4 14q-6 14 -6 20z" />
<glyph unicode="{" horiz-adv-x="657" d="M70 791q0 39 16.5 70.5t40 54t46.5 46t39.5 59t16.5 81.5q0 24 -2 73t-2 74q0 187 144 240h-2q31 14 104 14q56 0 66 -18v2q14 -27 14 -94q0 -27 -4 -93q-50 13 -68 13q-16 0 -28 -6q-29 -19 -29 -80q0 -22 5 -66t5 -65q0 -154 -84 -260v2l-16 -23q-31 -31 -37 -22 q4 -10 27 -33q85 -95 115 -204.5t18 -246.5q12 -37 29 -54t32 -18t29 -1t22 -10t8 -38q0 -25 -7.5 -68t-18.5 -54q-7 0 -26.5 -3.5t-69.5 -5.5q-35 0 -64 9.5t-50 24t-37.5 40t-27 47.5t-18 57t-11 59t-5.5 62.5t-2 58.5v56q0 69 -21 107v-3q-13 20 -40.5 43.5t-49.5 41.5 t-39.5 52.5t-17.5 78.5z" />
<glyph unicode="|" horiz-adv-x="382" d="M66 63q0 5 6 80q14 196 14 506q0 141 -8 422t-8 422q0 29 7 48t16 29t30 15t34.5 5.5t44.5 0.5h13h6q24 0 35.5 -1t26.5 -6.5t21.5 -19t6.5 -36.5q0 -27 -5 -81.5t-5 -80.5v-348q0 -59 -8 -176t-8 -174q0 -50 5 -149.5t5 -149.5q0 -23 -3 -71.5t-3 -72.5q0 -26 3 -76.5 t3 -74.5q0 -39 -8 -72q-27 -49 -174 -49q-47 34 -47 110z" />
<glyph unicode="}" horiz-adv-x="649" d="M70 1372q0 25 10 55h-2q6 30 20 42t43 12q169 0 224 -97v2q26 -43 37.5 -99.5t12.5 -102.5t13.5 -99t40.5 -92v2q5 -6 22.5 -26.5t24 -29t19 -27t17.5 -31.5t10 -31.5t5 -36.5q0 -37 -14.5 -67.5t-35.5 -54t-42.5 -49t-36 -65.5t-14.5 -90q0 -29 4 -88t4 -88 q0 -57 -21 -108.5t-60.5 -91.5t-104.5 -59t-146 -9l11 205q28 0 68.5 13t47.5 34q3 12 5 40.5t2 52t-0.5 58.5t-0.5 41q0 207 86 295v-2q19 25 19 33l-6 12q-55 60 -75.5 98.5t-27.5 112.5q-2 19 -5 97t-13 116q-8 24 -32 36t-47.5 15.5t-42.5 21t-19 50.5z" />
<glyph unicode="~" horiz-adv-x="966" d="M72 698q0 27 35.5 57t70.5 46h-2q87 55 160 55q64 0 129 -45l-2 2q3 -2 25.5 -16t33 -20t30 -16t35 -14t29.5 -4q32 0 52 33v-2q12 20 34 31.5t46 11.5q27 0 57.5 -10t48.5 -27h-2q27 -27 27 -51q0 -44 -74 -108h2l-12 -15v2q-64 -67 -179 -67q-65 0 -132.5 25.5t-114 51 t-62.5 25.5q-35 0 -82.5 -36t-60.5 -36q-21 0 -56.5 51t-35.5 76z" />
<glyph unicode="&#xa1;" horiz-adv-x="342" d="M59 -236q7 75 22.5 202t20.5 181q6 66 9 176.5t8 155.5l10 109q13 155 55 157h-2q41 3 76 3q52 0 74 -9.5t26 -38.5q3 -27 4.5 -88t4.5 -94l51 -524q3 -43 16.5 -130.5t18.5 -129.5q8 -80 -33.5 -134.5t-126.5 -54.5q-141 0 -193.5 47t-40.5 172zM135 926q0 39 21.5 59.5 t60.5 20.5q16 0 47 -9h-2q34 -8 60 -31.5t26 -56.5q0 -52 -33.5 -76t-87.5 -24q-38 0 -65 39t-27 78z" />
<glyph unicode="&#xa2;" horiz-adv-x="714" d="M37 770q4 226 104 346q55 70 140 96q67 23 155.5 13t143.5 -51q22 -16 37 -42.5t20.5 -44.5t13.5 -53q14 -39 8 -92t-36 -84q-29 -33 -117 -33q-5 0 -21.5 0.5t-24 1t-21.5 3t-22.5 5.5t-18 9.5t-15.5 15.5q-11 15 -3 52t1 53q-15 43 -62 34q-10 -2 -18.5 -9.5t-14 -15.5 t-10.5 -22.5t-6.5 -21.5t-5 -23.5t-4.5 -19.5q-24 -110 -24 -277q0 -136 28 -282q6 -29 10 -44t19.5 -32t40.5 -19h10q33 0 42 10.5t1.5 26t-9.5 34t9 34.5q21 24 96 24q118 0 158 -38q33 -39 32.5 -92t-24.5 -95q-2 -6 -8 -16.5t-8 -14.5q-43 -66 -116.5 -93.5 t-150.5 -18.5t-151 45q-70 34 -115 123q-48 100 -61 217q-11 115 -2 391zM303 -125q1 7 2 22t2 21v27q0 13 1 36t1 35q0 5 -1 14.5t-1 14.5v10l162 -10v-10v-101q0 -4 -1 -10t-1 -8q3 -20 0 -37q-2 -7 2 -16q8 -10 0 -35q-23 -7 -43 -4h-12q-23 -7 -49 0q-23 0 -29 -2 q-8 -2 -10.5 -2t-9 2.5t-9.5 3.5q-4 0 -4 6q4 6 4 13.5t-2 16t-2 13.5zM305 1159q0 5 1 16t1 15q4 27 -2 35q-3 7 0 14q1 5 2 18t2 19q1 13 1.5 15.5t-1 13.5t-2.5 18q-3 21 0 43q2 6 2 27q0 10 2.5 21t6 23t4.5 19q4 8 8 8q20 4 32 6q21 3 37 3q7 0 22.5 -1.5t22.5 -1.5 q14 0 23 3q27 6 27 -23q0 -25 -7 -31v-8q2 -9 -1.5 -29t-0.5 -32q1 -2 -0.5 -7.5t-1.5 -7.5q-5 -5 -2 -12q7 -9 1.5 -34.5t-5.5 -33.5q0 -13 -1 -36.5t-1 -32.5v-15q-2 -5 -2 -32q0 -5 -2 -16.5t-2 -16.5l-162 8q2 13 2.5 15.5t-2 15t-2.5 14.5z" />
<glyph unicode="&#xa3;" horiz-adv-x="919" d="M55 637q0 24 10.5 34.5t34.5 10.5q30 0 88 4q9 12 5 33l-7 168q-2 0 -1 40l1 40v84q0 13 -2 40t-2 42q3 155 113 256q47 41 74 57q88 54 182 39q30 -4 47 -8q15 -4 23 -9q3 -1 10 -1t10 -1q13 -2 33 -14q6 -2 14 -6q1 0 5.5 -1.5t8 -3.5t5.5 -5q10 -9 32 -39 q15 -23 15 -60q0 -20 -2 -24l-7 -21q-3 -6 -9 -18.5t-9 -18.5q-3 -9 -10 -16q-5 -5 -8 -14q-26 -23 -62 -23q-12 0 -37 10q-25 13 -35 25l-12 12q-5 13 -8 17q-4 4 -7 8t-6 8.5l-5 7.5q-13 13 -19 17q-20 10 -31 10q-15 0 -36 -14q-44 -27 -56 -78q-11 -29 -24 -95 q-1 -3 -6 -71q-5 -42 -7 -49q-5 -64 -2 -142q1 -16 1.5 -44.5t1.5 -52t3 -44.5q0 -5 1.5 -17t1.5 -18q9 -4 41 -4l165 4h35q17 -2 24.5 -9t8.5 -24q4 -25 2 -43q-1 -9 -3 -27.5t-3 -27.5q-6 -29 -39 -26q-2 0 -5.5 1t-4.5 1q-24 -4 -50 -4t-58 2t-50 2q-16 -1 -25.5 -2 t-16 -3t-8 -6t-3 -9.5t-0.5 -14t0 -19.5q-3 -35 0 -69q2 -51 -19 -174q-1 -6 -10 -47q18 -13 43 -13q67 -6 135 -6q43 -2 115 21q44 15 53 59l10 33q6 16 23 16q61 3 117 -14q13 -3 18.5 -15.5t-0.5 -25.5q-29 -90 -80 -154q-25 -33 -78 -59q-75 -38 -141 -33q-13 2 -27 2 t-32 -1t-29 -1q-119 0 -207 10l-135 13q-2 0 -7 1t-7 1q-7 33 -11 120q2 2 12 11.5t17 13.5q49 37 64 98q11 37 8 84l-4 138q-4 26 -10 32h-50q-9 0 -29 -1t-30 -1q-20 0 -23 21q-4 10 -4 28q-2 23 -2 66z" />
<glyph unicode="&#xa4;" horiz-adv-x="837" d="M72 18q0 36 47.5 105.5t50.5 81.5q-19 47 -23 61q-5 18 -7 47t-2 50.5t0.5 56.5t0.5 47q0 67 4 102q3 23 25 93t22 102q0 6 -46 70t-46 84q0 11 22 32t52 45t35 29q30 -21 47 -40t34.5 -45.5t33.5 -45.5q28 25 44 33t46 8q29 0 69 -6t43 -19q13 20 25.5 39t20 30t13.5 21 l9 15t4 8q24 -4 45 -9t35.5 -9t26.5 -9t19.5 -9t12.5 -8.5t8 -7.5t4 -7.5t1 -6.5v-6v-4q0 -38 -16 -75t-31.5 -58.5t-14.5 -24.5q33 -94 43.5 -192.5t1 -178t-24.5 -137.5t-34 -96q-7 -14 12 -40.5t41.5 -57t22.5 -49.5q0 -21 -11 -47q-22 -16 -45 -27t-41.5 -15.5t-34.5 -6 t-25 0t-11 5.5h-2q-19 32 -19 45q-8 16 -16 26q-53 -24 -111 -24q-43 0 -131 39q-29 -67 -63 -101q-16 -4 -29 -4q-21 0 -38.5 13t-23.5 14l3 -2q-6 2 -13.5 9t-11.5 9q-5 2 -18 7.5t-18.5 8.5t-11 11t-5.5 20zM340 582q0 -31 3.5 -78.5t11.5 -112t27.5 -109t45.5 -44.5 q31 0 52.5 74.5t21.5 119.5q0 176 -33 237q-23 40 -59 40q-16 0 -31 -9l2 2q-26 -21 -33.5 -48t-7.5 -72z" />
<glyph unicode="&#xa5;" horiz-adv-x="823" d="M31 1411q-3 35 73 45.5t154.5 3.5t103.5 -16q6 -3 9.5 -14t4.5 -28.5t1.5 -30.5t0 -32t-0.5 -20q0 -37 -66 -41q95 -290 119 -383q45 142 105 410q-6 1 -31 6q-11 3 -16 24t-6.5 48.5t-2.5 31.5q-4 36 2 64q19 0 163.5 2t154.5 2q13 1 20.5 -1.5t9.5 -9.5t2 -11.5 t-2.5 -16.5t-3.5 -17l2 7q-2 -3 -2 -7q-1 -8 2 -28.5t5.5 -39t1.5 -36.5t-11.5 -28t-31.5 -7q-32 4 -48 4q-3 -7 -7 -22t-7 -21l-123 -391q-5 -18 -26 -79.5t-38 -115t-20 -75.5q-5 -52 -5 -112t2.5 -133.5t2.5 -113.5v-30q15 0 23.5 -0.5t20.5 -3t18 -9t6 -16.5 q2 -38 -12 -133q-1 -19 -12 -27t-22.5 -8t-30.5 2.5t-28 1.5q-82 -4 -120 -4q-7 0 -22 -1t-21.5 -0.5t-15.5 4t-11.5 13.5t-1.5 27t-5.5 62.5t-2.5 70.5q5 32 55 25q-2 64 -2 329q0 42 -123 406v-2q-8 28 -31 101t-38.5 125.5t-28.5 103.5q-22 -8 -48.5 -7.5t-31.5 21.5 q-6 23 -5.5 66t-0.5 65zM178 471q0 72 47 72q5 0 15.5 -3t15.5 -3q41 0 122 1t122 1q213 0 217 -25q4 -20 4 -63v-19q0 -51 -27 -51q-161 0 -325 6q-132 5 -164 10q-13 3 -20 28t-7 46zM195 684q0 99 14 104h55q39 0 117 -3t117 -3q57 0 209 13h2q20 0 20 -66q0 -69 -14 -94 q-86 0 -258 4t-258 4q-4 0 -4 41zM377 1321v2v-2z" />
<glyph unicode="&#xa6;" horiz-adv-x="378" d="M70 1161q0 15 12 43v-2q15 37 149 37q51 0 54 -45q16 -210 16 -559q0 -11 -4 -19q-6 -4 -18 -8t-13 -4q-18 -6 -39 -6h-2h-39q-23 0 -51 14l-35 21q0 21 -2 33l-14 143q-6 89 -6 270q0 15 -4 41t-4 41zM92 498v8q18 14 29 18l29 13q4 0 6 2q14 4 47 4q45 0 82 -19 q15 -5 20 -12q1 -9 -0.5 -29t-1.5 -26q0 -14 3 -45t3 -47q0 -66 -1 -198t-1 -196q0 -21 -12.5 -37.5t-30.5 -17.5l-94 -12q-26 -3 -47.5 11t-22.5 38q-2 18 -2 55q-1 55 -2.5 155t-2.5 181.5t-1 153.5z" />
<glyph unicode="&#xa7;" horiz-adv-x="1069" d="M45 -84q-3 52 28 93t74.5 56.5t92.5 2t79 -59.5q11 -17 15 -37.5t4 -48t2 -41.5q3 -19 12 -23.5t29 -2.5q53 4 72 14q12 7 28 24.5t21 22.5q4 10 4 37q0 29 -17.5 80t-35.5 86h2q-40 70 -148 175.5t-147 164.5l2 -2q-71 99 -86 153v-2q-21 68 -21 140q0 119 74.5 210.5 t189.5 116.5q-13 20 -16 43v-2q-20 56 -20 141q0 136 95.5 235t231.5 99q86 0 154 -32q98 -46 168 -187q32 -60 35 -133q8 -64 -36 -96.5t-112 -32.5q-4 0 -12 -0.5t-13.5 -0.5t-12 1t-11.5 4q-9 3 -41 19q-37 23 -37 75q-1 18 3.5 51t4.5 39q0 2 3 11.5t3 13t-1 12.5 q-2 5 -10.5 16t-14.5 15q-14 12 -55 12q-61 0 -103.5 -48t-42.5 -109q0 -49 33 -104.5t78 -100.5l8 -8v2l6 -6l19 -19l10 -8q52 -49 85 -83t80.5 -90.5t75.5 -103.5t49 -106.5t21 -116.5q0 -123 -74 -226.5t-190 -123.5q37 -79 37 -158q0 -87 -36.5 -167t-107.5 -133 t-159 -54q-76 -1 -159.5 39t-144.5 111.5t-65 150.5zM252 711q0 -51 36.5 -108t84.5 -103v2l33 -33l102 -102q70 -21 88 -19q28 2 84 29q11 7 26 24t21 23q6 15 6 37q0 59 -53 168h2q-24 42 -56 79.5t-87 90t-70 67.5l-4 4q-6 4 -19 4t-28.5 -2t-20.5 -2q-61 0 -103 -48.5 t-42 -110.5z" />
<glyph unicode="&#xa8;" horiz-adv-x="503" d="M45 1419q0 31 20.5 62t49.5 41h-2q12 6 26 6q31 0 55.5 -22t24.5 -52q0 -46 -28 -75t-74 -29q-33 0 -52.5 18.5t-19.5 50.5zM260 1436q0 37 28 62.5t66 25.5q35 0 62.5 -29t27.5 -63q0 -36 -27.5 -57t-64.5 -21q-38 0 -65 22.5t-27 59.5z" />
<glyph unicode="&#xa9;" horiz-adv-x="1169" d="M56 898q-1 34 1 106v22q4 33 11.5 108t15 131t18.5 107q13 56 35 96q9 13 39 52q7 7 27.5 28.5t35 35.5t31.5 26q93 69 179 92q5 1 40.5 11.5t55.5 12.5q10 2 71 9q30 0 76 -4q52 -2 123 -35q74 -40 100 -76q6 -8 21 -23q36 -22 57 -73q23 -52 29 -72q5 -10 16 -37.5 t19 -42.5q6 -15 20 -78q21 -133 23 -151q4 -46 4 -66q0 -57 6 -88q5 -69 2 -155q-9 -129 -35 -240q-12 -80 -51 -152q-57 -118 -141 -170q-116 -70 -197 -79q-106 -14 -143 -9l-32.5 6.5t-43.5 6.5q-74 10 -160 65q-23 13 -61 51q-67 72 -129 183q-20 41 -33 102 q-2 9 -12 59l-6 29q-1 34 -6 106t-6 106zM211 934q2 -55 2 -168l6 -37q3 -23 16.5 -62t16.5 -49q5 -16 13 -33.5t18.5 -38.5t15.5 -32q37 -72 102 -104l21 -15q52 -28 69 -35t72 -20q17 -3 35 0q13 2 26.5 6.5t30.5 12t27 10.5q84 32 139 92q56 56 76 121q29 85 35 180 q4 78 4 112q2 29 2 89h-2v65q0 78 -8 141l-10 76q-11 76 -31 117q-23 48 -41 68l-39 45q-42 51 -141 77q-75 19 -187 -14q-28 -7 -47 -18q-84 -63 -110 -90q-35 -39 -46 -68q-2 -4 -5 -15.5t-5 -15.5q-27 -88 -35 -168q-3 -31 -8 -92.5t-8 -91.5q-4 -28 -4 -45zM287 928 q-1 11 0.5 32.5t1.5 28.5q0 132 14 211q29 150 141 227q107 79 240 37q33 -7 57 -37q4 -5 23 -18q13 -10 29 -31q3 -5 10.5 -18t13.5 -21q1 -1 2.5 -4l3 -6t2.5 -6q1 -2 3 -5t3 -5q5 -25 5 -27q0 -17 -9 -29q-4 -12 -6 -14q-3 -10 -12 -16q-15 -19 -31 -27q-20 -12 -33 -12 q-20 -4 -30 0q-22 4 -33 18q-10 10 -20 33q-12 31 -41 72q-15 15 -25 20q-13 5 -23 -8q-3 -3 -22 -18t-27 -27q-1 -1 -6.5 -11t-7.5 -16q-40 -81 -45 -153l-6 -37q-5 -35 -10 -164q-3 -68 16 -125q22 -67 55 -100q19 -25 49 -31q6 -2 16 -2.5t13 -1.5q2 0 4.5 -1t3.5 -1 q11 -4 15 -2q10 2 18 18q10 17 18 51q15 46 23 56q12 12 27 18q6 3 26 8q16 2 41 -2q19 -4 27 -10q5 -4 7.5 -8t5.5 -10t5 -9q16 -48 17 -59q0 -82 -17 -113q-17 -29 -80 -79q-26 -20 -63 -33q-14 -5 -88 -15q-10 -1 -45 3q-27 0 -47 14q-40 20 -47 24q-11 6 -20.5 15 t-22 24t-15.5 19q-9 11 -17 24.5t-18 30.5t-16 27l-4 12q-40 62 -43 158q-6 129 -6 131z" />
<glyph unicode="&#xaa;" horiz-adv-x="542" d="M55 954q1 29 11 117q11 62 71 109l25 14q53 34 123 10l39 -16q13 17 0 43q-6 18 -14.5 26t-30.5 17q-12 -2 -29 -23q-12 -23 -41 -20l-49 6q-16 5 -23 10q-16 10 -10 29q32 106 111 135q71 28 120 16q54 -15 82 -63q25 -44 39 -115q14 -65 4 -149q-13 -115 -10 -217 q0 -15 1 -44t1 -44q0 -4 -1 -11.5t-1 -11.5q-3 -10 -7 -14t-15 -4q-29 -2 -86 -2q-19 0 -25 12l-12 24l-13 -6q-26 -21 -65.5 -26t-81.5 9t-68 46q-34 45 -39 90q-6 24 -6 53zM166 985q3 -45 29 -78q13 -20 33.5 -24t39.5 8q45 22 54 67v33q2 6 2.5 12.5t0 11.5t-3 12 t-4 10.5t-5.5 12t-5 11.5q-12 34 -51 37q-8 0 -12 -2q-36 -12 -58 -43t-20 -68z" />
<glyph unicode="&#xab;" horiz-adv-x="811" d="M68 662q26 75 53 102l-2 -4q92 121 147 225q3 5 7.5 14l8 16t7.5 11q25 29 51 29t69.5 -27.5t43.5 -54.5q0 -7 -4 -23v-2q-17 -17 -37 -57l2 2q-27 -48 -133 -203h2l-2 -4v2q-7 -14 -7 -16q0 -17 111 -172q7 -10 45 -53t53 -74l-2 -25q-6 -12 -17 -23t-17 -15.5 t-25 -15.5t-23 -13l2 2q-11 -11 -24 -11q-15 0 -31 13h2q-7 2 -18 16h-2q-67 80 -148 189.5t-112 171.5zM281 688v2v-2zM360 692q0 16 12.5 32.5t31.5 35t26 28.5v-2q26 42 93.5 123t82.5 117v-2q19 34 53 31q37 -14 74 -37.5t37 -46.5q0 -7 -5 -18t-15.5 -27t-10.5 -17h2 q-95 -150 -157 -237v-2q0 -8 67 -109v2q14 -26 49.5 -74t49.5 -71l-2 2q16 -20 16 -37q0 -28 -56.5 -55t-82.5 -27t-54 37q-13 16 -34.5 49.5t-48.5 77t-35 55.5q-54 82 -78 129q-15 23 -15 43z" />
<glyph unicode="&#xac;" horiz-adv-x="1150" d="M72 774q0 35 28 57q67 5 82 5h381q41 0 123 3t123 3q176 0 248 -23q0 -31 -4 -43l4 6q0 -28 -2 -83t-2 -83q0 -8 2.5 -45t1.5 -62t-6.5 -56t-22 -47.5t-43.5 -16.5h-19.5h-21.5t-19.5 1t-20.5 3t-17.5 5t-16.5 8.5t-11 13t-8.5 18t-2.5 23.5q0 25 -3 74t-3 73v35 q-7 0 -22.5 1t-22.5 1q-124 0 -183 -6h2q-16 -4 -51 -4q-1 0 -57 -1t-115.5 -1.5t-127.5 0.5t-117.5 6t-61.5 14q-14 12 -14 121zM844 643q1 0 2 -1t2 -1l-2 4q0 -2 -2 -2z" />
<glyph unicode="&#xad;" horiz-adv-x="722" d="M55 584v112q0 24 8 29q2 2 11 2q22 -1 64 -2t63 -2h387q16 -2 53 -10q4 0 16 -6q7 -3 7 -21q4 -82 4 -121q0 -35 -15 -35q-27 0 -39 2q-3 1 -70 5.5t-146 9t-99 6.5q-27 2 -93.5 2.5t-90.5 -0.5q-17 0 -25 -4q-4 -2 -27 4q-8 0 -8 29z" />
<glyph unicode="&#xae;" horiz-adv-x="1003" d="M55 1048.5q0 27.5 4 68.5t13 75q2 8 6.5 30t6.5 31.5t7.5 27.5t11 29.5t14 26t19.5 27.5q10 12 21 23t20.5 19.5t24.5 17t23 14t26.5 13t25 10.5t28 10t26 8.5t29.5 9t28 8.5q143 39 305 -14q165 -49 213 -240q8 -36 12 -78t6 -92.5t5 -79.5q24 -256 16 -448 q-1 -12 -2 -42t-2 -46.5t-4.5 -41.5t-10 -45.5t-16.5 -39.5q-41 -73 -61 -95q-26 -27 -64 -45q-31 -15 -71 -21.5t-104.5 -9t-73.5 -3.5q-154 0 -213 20q-77 29 -117 64q-142 116 -146 387q-4 180 -4 270q0 22 -1 73t-1 78.5zM206 890.5q5 -138.5 5 -159.5q4 -74 4 -110 q0 -57 6 -103q3 -16 7.5 -49t7.5 -49q26 -95 104 -109q23 -4 52.5 -4t48.5 1t54.5 3.5t47.5 3.5q9 1 37.5 2t47 3t47.5 6t49 13.5t40 23t31.5 36.5t13.5 52q9 103 -8.5 329t-18.5 256q-7 138 -43 211q-41 84 -96 107q-69 35 -223 4q-124 -24 -170 -101q-14 -24 -23.5 -60 t-12.5 -63t-7 -77q-6 -28 -1 -166.5zM285 1137v20q1 5 1 13.5t1 13.5v16q0 36 12 39q8 2 25 4t18 2h47v-2q16 4 33 4q118 14 188 -35q52 -37 81 -101t26 -128q-3 -84 -15 -140.5t-23 -74.5t-17 -14q21 -12 35 -34t21 -53.5t10 -54t4.5 -61t2.5 -47.5v-27q1 0 4 -1t4 -1h9 q-2 -6 -2 -16q0 -5 -2.5 -16.5t-2.5 -16.5q0 -13 -2 -14h-16h-10l-12 -4q-6 1 -14.5 -0.5t-10.5 -1.5q-9 -3 -16 -3q-2 0 -6 -1t-5 -1q-18 0 -26 -2q-11 0 -17 -2q-16 -3 -32 0q-13 0 -17 4t-4 25v25q0 12 4 18h14h9q-5 106 -17 147q-22 76 -84 60q-9 -40 -14 -197 q1 0 6 -1.5t8.5 -3.5t3.5 -5v-23v-22q0 -12 -4 -16q-3 -2 -10 -1.5t-10 -0.5q-35 -5 -41 -5q-12 0 -37 -1t-37 -1h-31q-3 0 -4.5 0.5t-1.5 2v3.5v3v47q0 14 6 14h9h12q-6 79 -9.5 227t-0.5 234q6 212 6 217h-2q-5 -3 -19 -8q-20 -4 -28 -2zM485 829q12 0 52 15q19 13 26 65 t-4.5 108t-40.5 77q-6 0 -14.5 2t-14.5 2q2 -60 2 -85t-2.5 -88.5t-3.5 -95.5z" />
<glyph unicode="&#xaf;" horiz-adv-x="757" d="M35 1479v98q0 51 49 51q23 0 66 -2t63 -2q10 0 87.5 1.5t148 2t139.5 -1t84 -6.5h-2l2 -2q20 0 33 -11t17.5 -34t6 -38t0 -43t-1.5 -30q0 -12 -0.5 -17.5t-2.5 -14.5t-5.5 -13.5t-11.5 -8t-19 -3.5q-35 0 -49 2q-7 4 -207 12t-260 8q-15 0 -42 -3t-34 -3q-8 0 -24 4h6 q-26 9 -34.5 19.5t-8.5 34.5z" />
<glyph unicode="&#xb0;" horiz-adv-x="575" d="M68 1298q0 62 30 111v-2q24 43 76.5 69.5t106.5 26.5q83 0 149 -69.5t66 -153.5q0 -80 -69.5 -138.5t-152.5 -58.5q-16 0 -41 7v-3q-33 8 -67 31t-51 51q-47 58 -47 129zM242 1290q0 -10 9 -16t15 -6q7 0 20 7.5t17 8.5q0 13 -4 22.5t-8 13t-8 3.5q-9 0 -25 -9t-16 -24z " />
<glyph unicode="&#xb1;" d="M70 137v109q0 53 47 53q19 0 58.5 -2t60.5 -2q7 0 79.5 1t137 2t128.5 -1t78 -8h-4l4 -2q14 0 24 -6.5t15.5 -19.5t9 -26.5t4 -32t0.5 -31t-0.5 -30t-0.5 -22.5q0 -19 -1.5 -30.5t-11 -21.5t-26.5 -10q-29 0 -43 2q-7 4 -193 13.5t-241 9.5q-12 0 -37.5 -3t-32.5 -3 t-23 4h7q-23 10 -31 20.5t-8 36.5zM72 692q0 28 10.5 47t25 28.5t40 13.5t44 4t48.5 -0.5t43 -0.5q-9 56 -9 113q0 119 103 119q53 0 92 -39q10 -161 6 -201q1 5 11.5 9t28 6t37 3t43 1.5t40.5 0.5t34.5 -0.5t20.5 -0.5q19 -42 19 -117q0 -88 -39 -96q-63 -11 -181 -11 q5 -64 5 -159q0 -23 -3.5 -36.5t-14 -19t-18.5 -7.5t-27 -2.5t-30 -2.5q-6 -1 -25.5 -4.5t-29.5 -3.5q-20 0 -32.5 17t-16.5 47.5t-4.5 55t1 59t1.5 40.5v14h-90q-72 0 -127 -8q0 23 -3 66.5t-3 64.5z" />
<glyph unicode="&#xb2;" horiz-adv-x="507" d="M57 715q2 40 6 61q5 26 59.5 111.5t94.5 140.5q1 2 13.5 18t15 20t13 18.5t14 20.5t11 19t11 21.5t7 20t5.5 22.5q3 18 4 29t2.5 31t-1.5 32.5t-9 25.5t-19 18t-32 3q-28 -13 -42 -35t-14 -41t-2.5 -34.5t-11.5 -16.5q-14 -4 -58 4t-48 29q-11 39 16 100q8 21 25.5 43.5 t36.5 32.5q61 36 110 33q74 -3 127 -56q35 -43 45 -86q17 -56 17 -100q-3 -101 -60 -186q-17 -26 -53.5 -71.5t-62 -84.5t-39.5 -82q35 -5 66.5 -2t64 -1t47.5 -19q3 -8 0.5 -60t-2.5 -53q-6 -5 -179 5t-176 16q-4 13 -2 53z" />
<glyph unicode="&#xb3;" horiz-adv-x="505" d="M55 1126q0 5 35.5 42t74 80t44.5 59q-18 5 -69 -7.5t-62 -7.5q-3 78 -15 138q0 2 19.5 5.5t50 6.5t59 6t54 5.5t28.5 2.5q14 1 45.5 2t45.5 2q3 0 16.5 1t23 0t15.5 -5q6 -43 -25 -78q-9 -14 -31 -39t-32 -39q-13 -14 -36.5 -51t-29.5 -45q4 5 42.5 -10.5t47.5 -22.5 q33 -29 58 -84q37 -78 37 -186q1 -37 -4 -76.5t-20 -85t-38 -80t-62.5 -57t-90.5 -20.5q-27 1 -59 20t-54 43q-35 40 -45 107q-2 12 -6 33.5t-6 33.5q0 2 -3.5 16t-3 18.5t3.5 16.5q10 7 26 10t40.5 4t38.5 3q12 -9 17.5 -25.5t9.5 -45t8 -42.5q1 -3 3 -13t3.5 -14t4 -10 t6.5 -8.5t9 -3.5q8 -1 31.5 9.5t26.5 15.5q21 26 28 69q10 48 -16 129q-1 3 -5.5 19t-6.5 23t-7 22t-9.5 22.5t-11 16t-13.5 12.5q-17 11 -92.5 18.5t-77.5 8.5q-8 5 -14.5 16t-6.5 20z" />
<glyph unicode="&#xb4;" horiz-adv-x="374" d="M68 1241v8q0 38 26 121.5t47 112.5q54 4 78 4h9.5h13t13.5 -0.5t14.5 -2t11.5 -4t9 -6.5t3 -10q0 -26 -42.5 -138.5t-55.5 -115.5h-19q-57 0 -108 31z" />
<glyph unicode="&#xb5;" horiz-adv-x="886" d="M53 1035.5q0 14.5 8.5 22t24.5 5.5q33 -3 147 2q15 1 71 7.5t85 4.5q41 -6 52.5 -23t13.5 -61q0 -3 1 -19.5t0.5 -27.5t-2.5 -25t-8 -21.5t-16 -8.5q-7 -1 -68 -6q-2 -48 -16 -223t-14 -271q0 -72 28.5 -126t94.5 -54q35 0 65 20q82 52 82 496q0 45 -4 147 q-22 0 -38.5 2.5t-31.5 13.5t-14 30q1 10 -3 59t3 59q3 12 17 17.5t26.5 5.5t31.5 -2t23 -2t41 1t71.5 1.5t74 -1t64.5 -8t26 -16.5q1 -13 -1.5 -37.5t-2.5 -31.5q-1 -9 -1.5 -36.5t-2.5 -41.5q-2 -27 -78 -27q-2 -89 -13.5 -296t-11.5 -318v-35q35 0 62 8q4 0 14.5 4.5 t15 2t7.5 -14.5q12 -74 12 -76v-4v4q0 -4 1 -19t1.5 -27.5t-0.5 -27t-6 -23.5t-13 -11q-28 -7 -98 -14.5t-110 -4.5q-17 0 -41 -4q-13 -1 -20 8.5t-9 24.5q-4 6 -10 12q-53 -29 -99 -29q-82 0 -145 24.5t-102 65t-63.5 100t-34 123t-9.5 140.5q0 76 7.5 216.5t8.5 184.5h-4 h-21.5t-30.5 2.5t-19 8.5q-5 5 -6 17.5t0 27.5t0 20q-1 7 -5 25t-6 32t-2 28.5zM57 -287q0 11 13 11l24 6h15h14q9 0 11.5 2t2.5 10q0 7 1 22t1 23q0 10 -2 14q-2 12 2 39v29q0 13 4 33q0 2 1 5t1 5q-4 11 0 22q0 11 -4 19q0 2 -1 5t-1 5q0 4 1 10t1 9l6 36v9q-3 3 -4 7.5 t-0.5 7.5t1.5 8.5t1 8.5q-2 16 -2 47q-1 0 -1 14l1 15q0 32 2 39q2 9 0 29t0 30q0 2 1 5.5t1 5.5q0 1 1 4.5t1 7t-2 6.5q-2 2 -2 19q5 15 0 22q-3 4 -0.5 20.5t2.5 18.5v12q0 2 -2 4t-2 4q4 30 2 46q0 4 1.5 16t0.5 18q0 3 -2 8.5t-2 8.5q1 4 1.5 36.5t5.5 39.5q29 -31 26 7 q-3 37 -17 70v-1q0 -2 1 -5q6 0 16.5 -1t16.5 -1q4 2 8 2q2 0 5 1t5 1h41q3 0 8.5 -1t7.5 -1q14 -9 17.5 -23t-0.5 -26.5t-7.5 -24t-1 -17.5t16.5 -5v-6q4 -17 -2 -23v-4q-2 -10 -2 -31q0 -4 1 -11t1 -11q4 -8 2 -10q-3 -20 0 -37v-10v-13q-2 -6 -2 -16q-2 -10 -2 -27 q0 -4 1 -13t1 -13v-74q0 -6 -4 -18q5 -5 2 -15q0 -6 -2 -20t-2 -21q1 -3 1 -15.5t3 -19.5q3 -2 3 -6t-1.5 -9.5t-1.5 -8.5v-17q-1 -1 -1 -4t-1 -4v-39v-24q0 -21 2 -31v-4v-39l-2 -6q5 -4 3 -15.5t-1 -13.5q3 -17 -2 -31q0 -4 4 -12v-6q0 -5 -1 -16.5t-1 -16.5v-30 q0 -11 -2 -15v-8q7 -9 2 -18q-3 -13 10 -13q8 1 26 2t27 2q18 0 13 -16q-1 -6 4 -41q0 -16 -2 -24q-3 -13 -14 -21t-25 -6q-5 1 -11.5 1t-14 -0.5t-11.5 -0.5q-46 -4 -64 -4q-29 0 -41 2q-3 1 -9.5 3.5t-9 2.5t-9.5 -2q-4 -3 -8.5 -3.5t-11 0.5t-9.5 1l-12 6q-5 0 -14 -2 t-13 -2q-8 0 -20 4q-4 0 -4 4q0 1 -1.5 4.5t-1.5 5.5q0 35 -2 43q-4 7 -4 39z" />
<glyph unicode="&#xb6;" horiz-adv-x="1021" d="M57 977q-4 227 58 344l18 27q35 61 93.5 89t140.5 38q113 16 165 14q33 -2 96.5 -2t96.5 -2q34 -1 96 -13t80 -14q7 -1 17.5 -2t15.5 -2t10.5 -3.5t7.5 -6.5q2 -9 2.5 -11.5t-2 -12.5t-2.5 -13q-5 -46 -1.5 -164t1.5 -166l-16 -348q-4 -126 -4 -192q0 -135 2 -203 q4 -145 2 -221h14h15q4 0 4 -9v-81v-15q0 -6 -6 -6q-4 0 -11.5 1t-11.5 1q-25 0 -35 -2q-16 -2 -49 -2q-32 -4 -45 -4q-11 -1 -33.5 -2t-34.5 -2q-20 0 -32 -2h-35q-5 0 -16 -1t-17 -1q-10 -2 -35 -2q-4 0 -13 -1t-13 -1h-25q-27 0 -39 -4q0 2 -1 6.5t-1 5.5q-2 16 -2 49 q0 11 -4 35q-2 6 -2 18h8h8v49q-1 37 -4 126.5t-3 127t3 119.5q-10 1 -33.5 -1.5t-35.5 -0.5q-15 2 -44.5 13t-44.5 14q-5 1 -28 5.5t-30.5 6.5t-27 7.5t-29.5 10t-24.5 12.5t-25.5 17q-67 61 -101.5 167t-36.5 210zM688 1294q-4 0 0.5 -330.5t7.5 -402.5q0 -21 -1.5 -60.5 t-1.5 -71.5t3 -60q5 -78 2 -176v-93h11q7 -4 36 2q4 0 13.5 1t13.5 1q2 4 2 11q2 17 2 104q-1 37 -6 112t-6 113q-1 28 3.5 83.5t4.5 80.5q1 21 -0.5 95.5t2.5 97.5q14 185 -8 475q-8 2 -23.5 6.5t-28.5 7.5t-26 4z" />
<glyph unicode="&#xb7;" horiz-adv-x="348" d="M51 772q0 35 17 66v-2q14 25 45.5 41t60.5 16q49 0 88 -41.5t39 -89.5t-40.5 -81.5t-88.5 -33.5q-9 0 -25 4v-2q-48 11 -67 47q-29 36 -29 76z" />
<glyph unicode="&#xb8;" horiz-adv-x="499" d="M55 -150q0 25 15.5 40.5t40.5 15.5q13 0 27.5 -0.5t20 -1t14.5 1t18.5 5t25.5 11.5q-24 7 -39.5 17.5t-26 29.5t-15 32t-13.5 44q74 17 114 16t111 0q0 -24 3 -35.5t7 -16t18.5 -15.5t26.5 -23q15 -14 27 -41t12 -49q0 -29 -20 -59l2 2q-22 -34 -58.5 -59.5t-74.5 -34.5 h2q-87 -31 -148 -31q-38 0 -51 14.5t-18 55.5q-1 13 -11 40t-10 41z" />
<glyph unicode="&#xb9;" horiz-adv-x="360" d="M55 1391q0 11 44 55.5t44 46.5q36 31 160 8q1 -79 1 -172.5t-0.5 -208.5t-0.5 -176q0 -22 -2.5 -116t0.5 -113q-5 -4 -35 -6t-58 -1t-28 5q0 11 0.5 88t1 168.5t0.5 185t-0.5 155.5t-1.5 62q-2 0 -27 -22t-32 -21q-2 0 -35 27q-1 1 -10.5 9t-15 14.5t-5.5 11.5z" />
<glyph unicode="&#xba;" horiz-adv-x="575" d="M68 1298q0 62 30 111v-2q24 43 76.5 69.5t106.5 26.5q83 0 149 -69.5t66 -153.5q0 -80 -69.5 -138.5t-152.5 -58.5q-16 0 -41 7v-3q-33 8 -67 31t-51 51q-47 58 -47 129zM244 1280q0 -19 12.5 -28t22.5 -9q7 0 16.5 4.5t20.5 12t16 10.5q-3 32 -12.5 48.5t-18.5 16.5 q-13 0 -35 -15.5t-22 -39.5z" />
<glyph unicode="&#xbb;" horiz-adv-x="815" d="M57 340q0 16 36.5 78t89 143t53.5 82q4 0 4 2q-5 8 -24 44.5t-34 55.5q-40 47 -63 84v-2q-5 7 -15 25t-18 27v-2q-2 4 -9.5 16t-11.5 21.5t-4 17.5q0 16 11.5 32.5t23 26t33.5 23.5t27 18q24 19 39 19q9 0 80 -88t138.5 -184t65.5 -115q-1 -12 -13.5 -39.5t-35 -68 t-43.5 -76.5t-49.5 -84.5t-42.5 -71.5q-20 -30 -33 -56l2 4q-17 -26 -53 -26q-11 0 -27 4l2 -2l-100 51l6 -2q-35 25 -35 43zM262 266v2v-2zM360 350l170 316h-2q-39 74 -51 92q-106 172 -112 180l-5 20q0 41 48 62h2q6 4 17 13t18 14t18 9.5t22 4.5q22 0 39 -21 q33 -52 207 -290q21 -30 21 -70q0 -33 -39.5 -107t-77.5 -131v2q-51 -99 -90 -159q-9 -19 -39 -19q-15 0 -21 4l2 -2q-106 51 -127 82z" />
<glyph unicode="&#xbc;" horiz-adv-x="989" d="M55 1391q0 11 44 55.5t44 46.5q36 31 160 8q1 -79 1 -172.5t-0.5 -208.5t-0.5 -176q0 -22 -2.5 -116t0.5 -113q-5 -4 -35 -6t-58 -1t-28 5q0 11 0.5 88t1 168.5t0.5 185t-0.5 155.5t-1.5 62q-2 0 -27 -22t-32 -21q-2 0 -35 27q-1 1 -10.5 9t-15 14.5t-5.5 11.5zM92 0 q13 46 130.5 346t229.5 578l111 278l8 21q8 21 19.5 50t26 64t28.5 64.5t27 50.5t20 23q17 -6 31.5 -6.5t26.5 -2.5q11 -1 32 -9.5t33 -8.5q10 -8 12 -21.5t-0.5 -23.5t-10 -31t-9.5 -29q-11 -41 -267 -656t-290 -679q-100 -10 -158 -8zM451 244q4 4 6 4q-1 1 31.5 70 t41.5 85q10 17 59 127t94 206.5t54 99.5q6 5 54 4.5t49 -17.5q1 -11 3.5 -182.5t2.5 -245.5q11 -6 38 -3.5t34 -4.5q-1 -6 3.5 -31.5t8.5 -51t3 -48t-11 -25.5q-1 0 -29 -1t-45 -5q-2 -21 -1 -61t3.5 -79.5t3.5 -39.5t-3.5 -11t-6.5 -16q-3 -5 -38.5 -12t-70 -6.5 t-33.5 14.5v2q-1 2 -1 18.5t1.5 46.5t2.5 59t2 55t0 34q0 5 -62 6.5t-126.5 3t-67.5 5.5zM674 377q12 -10 45 -2q1 16 3 48.5t3 58.5t0 48q-13 -26 -30 -83.5t-21 -69.5z" />
<glyph unicode="&#xbd;" horiz-adv-x="1015" d="M55 1391q0 11 44 55.5t44 46.5q36 31 160 8q1 -79 1 -172.5t-0.5 -208.5t-0.5 -176q0 -22 -2.5 -116t0.5 -113q-5 -4 -35 -6t-58 -1t-28 5q0 11 0.5 88t1 168.5t0.5 185t-0.5 155.5t-1.5 62q-2 0 -27 -22t-32 -21q-2 0 -35 27q-1 1 -10.5 9t-15 14.5t-5.5 11.5zM92 0 q13 46 130.5 346t229.5 578l111 278l8 21q8 21 19.5 50t26 64t28.5 64.5t27 50.5t20 23q17 -6 31.5 -6.5t26.5 -2.5q11 -1 32 -9.5t33 -8.5q10 -8 12 -21.5t-0.5 -23.5t-10 -31t-9.5 -29q-11 -41 -267 -656t-290 -679q-100 -10 -158 -8zM564.5 73.5q2.5 44.5 6.5 61.5 q5 26 59.5 111.5t94.5 140.5q28 36 39.5 52.5t28 48.5t22.5 59q9 81 0 108q-12 36 -55 31q-29 -13 -43 -35t-14 -41.5t-2 -34.5t-11 -16q-14 -4 -58.5 4t-49.5 29q-4 19 1 48.5t15 49.5q26 58 61 78q57 33 111 33q77 -3 127 -56q34 -43 47 -86q17 -70 17 -100 q-3 -98 -62 -186q-17 -27 -52.5 -72t-61.5 -84.5t-40 -81.5q34 -5 66 -2t65 -1t48 -19q3 -8 0.5 -60t-2.5 -53q-8 -5 -180.5 4t-176.5 16q-3 9 -0.5 53.5z" />
<glyph unicode="&#xbe;" horiz-adv-x="1048" d="M55 1126q0 5 35.5 42t74 80t44.5 59q-18 5 -69 -7.5t-62 -7.5q-3 78 -15 138q0 2 19.5 5.5t50 6.5t59 6t54 5.5t28.5 2.5l91 4q3 0 16.5 1t23 0t15.5 -5q6 -43 -25 -78q-9 -14 -31 -39t-32 -39q-13 -14 -36.5 -51t-29.5 -45q9 3 45 -12t45 -21q33 -29 58 -84 q37 -78 37 -186q1 -37 -4 -76.5t-20 -85t-38 -80t-62.5 -57t-90.5 -20.5q-27 1 -59 20t-54 43q-35 40 -45 107l-12 67q0 2 -3.5 16t-3 18.5t3.5 16.5q10 7 26 10t40.5 4t38.5 3q12 -9 17.5 -25.5t9.5 -45t8 -42.5q1 -3 3 -13t3.5 -14t4 -10t6.5 -8.5t9 -3.5q8 -1 31.5 9.5 t26.5 15.5q21 26 28 69q10 48 -16 129q-1 3 -5.5 19t-6.5 23t-7 22t-9.5 22.5t-11 16t-13.5 12.5q-17 11 -92.5 18.5t-77.5 8.5q-8 5 -14.5 16t-6.5 20zM205 0q13 46 130.5 346t228.5 578l112 278l8 21q8 21 19.5 50t26 64t28.5 64.5t27 50.5t20 23q17 -6 31 -6.5t26 -2.5 q11 -1 32.5 -9.5t33.5 -8.5q10 -8 12 -21.5t-0.5 -23.5t-10 -31t-9.5 -29q-11 -41 -267.5 -656t-290.5 -679q-100 -10 -157 -8zM510 244q4 4 6 4q-1 1 32 70t42 85q10 17 59 127t94 206.5t54 99.5q6 5 52.5 4.5t49.5 -17.5q1 -11 3.5 -182.5t2.5 -245.5q11 -6 38 -3.5 t34 -4.5q-1 -6 3.5 -31.5t8.5 -51t3 -48t-11 -25.5q-1 0 -29 -1t-45 -5q-2 -21 -1 -61t3 -80l2 -39q1 0 -2.5 -11.5t-5.5 -15.5q-3 -5 -38.5 -12t-69.5 -6.5t-33 14.5v2q-2 -1 -0.5 47.5t3 96t-0.5 69.5q0 5 -61.5 6.5t-125.5 3t-67 5.5zM733 377q12 -10 45 -2q5 126 4 155 q-11 -25 -26.5 -79.5t-22.5 -73.5z" />
<glyph unicode="&#xbf;" horiz-adv-x="710" d="M-88 -373q0 168 51 281t174 231q68 68 82 101q4 8 4 41q0 77 -8 110q0 3 -1 8.5t-1 8.5q0 39 25 52t69 13q85 0 117.5 -24.5t32.5 -108.5q0 -208 -236 -428q-50 -46 -76 -92.5t-26 -106.5q0 -34 8 -73.5t24 -78t45 -64t66 -25.5q33 0 69 17.5t36 47.5q0 14 -5.5 25 t-20.5 27.5t-17 19.5q-26 37 -17 84.5t43 79.5q40 33 88.5 24.5t92.5 -43t59 -73.5q18 -46 -4 -148q-11 -72 -58 -137q-46 -65 -114 -105.5t-142 -40.5q-98 0 -181.5 54t-131 140.5t-47.5 182.5zM221 612q0 41 32 72t73 31q52 0 80 -47h-3q15 -21 15 -43q0 -28 -14.5 -54.5 t-38.5 -38.5h2q-24 -18 -58 -18q-36 0 -62 30t-26 68z" />
<glyph unicode="&#xc0;" horiz-adv-x="948" d="M33 168q2 10 9.5 11.5t19.5 -1.5t16 -2q28 4 39 4q11 62 37 133v-2q23 76 30 119l99 500q44 234 82 375q-50 3 -84 -5q-29 -4 -34 33q-2 13 1 51v25.5t0.5 31.5t7 25t18.5 17q33 5 81 3.5t113.5 -5.5t68.5 -4q20 0 32 2q11 -19 21 -55.5t24.5 -118.5t29 -173.5 t44.5 -273.5t62 -364v2q53 -213 69 -328q24 2 40.5 2t26.5 -12t13 -39v-2q8 -111 -18 -125q-15 -2 -36 -1.5t-56 2t-44 1.5q-19 1 -72.5 0.5t-72.5 1.5q-4 1 -31.5 -1t-31.5 3q-13 8 -13 51q-5 17 -2.5 65.5t17.5 57.5q21 12 55 8q-34 151 -39 215q-66 4 -96 4q-53 0 -80 -4 q-8 -18 -25.5 -86.5t-27.5 -122.5q29 -11 43 -6q11 0 19 2t13 -4.5t8 -10t4.5 -14t1.5 -16t0.5 -17t0.5 -16.5v-20q1 -19 0.5 -30t-2.5 -27t-8.5 -24.5t-16.5 -8.5q-30 1 -83 -1.5t-73 -2.5q-87 7 -163 -2q-13 -1 -21 7t-10.5 21.5t-3.5 29.5t0 30t0 24q-6 56 -2 68z M295 1759q0 19 14.5 33t36.5 21t42.5 10.5t37.5 3.5q21 0 35 -11t21 -32t9.5 -36.5t4.5 -39.5q1 -9 4.5 -35t3.5 -43q0 -14 -2 -22v2q-11 -49 -56 -49q-28 0 -47 18.5t-39.5 62t-23.5 48.5l2 -2l-10 14v-2q-2 3 -8.5 10.5t-9.5 12t-7 11t-6 12.5t-2 13zM420 590q18 0 52 3 t52 3q-14 195 -22 248q-4 47 -13 69q0 3 -1.5 6.5t-4.5 2.5z" />
<glyph unicode="&#xc1;" horiz-adv-x="913" d="M33 168q2 10 9.5 11.5t19.5 -1.5t16 -2q28 4 39 4q11 62 37 133v-2q23 76 30 119l99 500q44 234 82 375q-50 3 -84 -5q-29 -4 -34 33q-2 13 1 51v25.5t0.5 31.5t7 25t18.5 17q33 5 81 3.5t113.5 -5.5t68.5 -4q20 0 32 2q11 -19 21 -55.5t24.5 -118.5t29 -173.5 t44.5 -273.5t62 -364v2q53 -213 69 -328q24 2 40.5 2t26.5 -12t13 -39v-2q8 -111 -18 -125q-15 -2 -36 -1.5t-56 2t-44 1.5q-19 1 -72.5 0.5t-72.5 1.5q-4 1 -31.5 -1t-31.5 3q-13 8 -13 51q-5 17 -2.5 65.5t17.5 57.5q21 12 55 8q-34 151 -39 215q-66 4 -96 4q-53 0 -80 -4 q-8 -18 -25.5 -86.5t-27.5 -122.5q29 -11 43 -6q11 0 19 2t13 -4.5t8 -10t4.5 -14t1.5 -16t0.5 -17t0.5 -16.5v-20q1 -19 0.5 -30t-2.5 -27t-8.5 -24.5t-16.5 -8.5q-30 1 -83 -1.5t-73 -2.5q-87 7 -163 -2q-13 -1 -21 7t-10.5 21.5t-3.5 29.5t0 30t0 24q-6 56 -2 68z M410 1622v8q0 38 26 121.5t47 112.5q54 4 78 4h9.5h13t13.5 -0.5t14.5 -2t11.5 -4t9 -6.5t3 -10q0 -26 -42.5 -138.5t-55.5 -115.5h-19q-57 0 -108 31zM420 590q18 0 52 3t52 3q-14 195 -22 248q-4 47 -13 69q0 3 -1.5 6.5t-4.5 2.5z" />
<glyph unicode="&#xc2;" horiz-adv-x="942" d="M33 168q2 10 9.5 11.5t19.5 -1.5t16 -2q28 4 39 4q11 62 37 133v-2q23 76 30 119l99 500q44 234 82 375q-50 3 -84 -5q-29 -4 -34 33q-2 13 1 51v25.5t0.5 31.5t7 25t18.5 17q33 5 81 3.5t113.5 -5.5t68.5 -4q20 0 32 2q11 -19 21 -55.5t24.5 -118.5t29 -173.5 t44.5 -273.5t62 -364v2q53 -213 69 -328q24 2 40.5 2t26.5 -12t13 -39v-2q8 -111 -18 -125q-15 -2 -36 -1.5t-56 2t-44 1.5q-19 1 -72.5 0.5t-72.5 1.5q-4 1 -31.5 -1t-31.5 3q-13 8 -13 51q-5 17 -2.5 65.5t17.5 57.5q21 12 55 8q-34 151 -39 215q-66 4 -96 4q-53 0 -80 -4 q-8 -18 -25.5 -86.5t-27.5 -122.5q29 -11 43 -6q11 0 19 2t13 -4.5t8 -10t4.5 -14t1.5 -16t0.5 -17t0.5 -16.5v-20q1 -19 0.5 -30t-2.5 -27t-8.5 -24.5t-16.5 -8.5q-30 1 -83 -1.5t-73 -2.5q-87 7 -163 -2q-13 -1 -21 7t-10.5 21.5t-3.5 29.5t0 30t0 24q-6 56 -2 68z M160 1657q0 29 90.5 115t134.5 116q41 29 61 29t37 -21q86 -96 217 -188l-2 2q41 -25 41 -57q0 -19 -53 -67t-76 -48q-16 0 -28 12l2 -2q-11 8 -45 38.5t-63 56.5t-30 26q-131 -111 -148 -121q-16 -10 -28 -10q-5 0 -11.5 3.5t-14.5 10t-15 13t-15.5 16t-14 15t-13 14.5 t-8.5 10h2q-20 30 -20 37zM420 590q18 0 52 3t52 3q-14 195 -22 248q-4 47 -13 69q0 3 -1.5 6.5t-4.5 2.5z" />
<glyph unicode="&#xc3;" horiz-adv-x="946" d="M33 168q2 10 9.5 11.5t19.5 -1.5t16 -2q28 4 39 4q11 62 37 133v-2q23 76 30 119l99 500q44 234 82 375q-50 3 -84 -5q-29 -4 -34 33q-2 13 1 51v25.5t0.5 31.5t7 25t18.5 17q33 5 81 3.5t113.5 -5.5t68.5 -4q20 0 32 2q11 -19 21 -55.5t24.5 -118.5t29 -173.5 t44.5 -273.5t62 -364v2q53 -213 69 -328q24 2 40.5 2t26.5 -12t13 -39v-2q8 -111 -18 -125q-15 -2 -36 -1.5t-56 2t-44 1.5q-19 1 -72.5 0.5t-72.5 1.5q-4 1 -31.5 -1t-31.5 3q-13 8 -13 51q-5 17 -2.5 65.5t17.5 57.5q21 12 55 8q-34 151 -39 215q-66 4 -96 4q-53 0 -80 -4 q-8 -18 -25.5 -86.5t-27.5 -122.5q29 -11 43 -6q11 0 19 2t13 -4.5t8 -10t4.5 -14t1.5 -16t0.5 -17t0.5 -16.5v-20q1 -19 0.5 -30t-2.5 -27t-8.5 -24.5t-16.5 -8.5q-30 1 -83 -1.5t-73 -2.5q-87 7 -163 -2q-13 -1 -21 7t-10.5 21.5t-3.5 29.5t0 30t0 24q-6 56 -2 68z M160 1634q0 47 59 87t109 40q54 0 130 -39t101 -39q26 0 55.5 29t47.5 29q24 0 56 -47.5t32 -73.5q0 -42 -64 -77.5t-111 -35.5q-43 0 -92 17q-95 52 -100 55l2 -2q-20 10 -35 10q-24 0 -40.5 -7.5t-23 -16t-18 -16t-26.5 -7.5q-28 0 -55 33t-27 61zM420 590q18 0 52 3t52 3 q-14 195 -22 248q-4 47 -13 69q0 3 -1.5 6.5t-4.5 2.5z" />
<glyph unicode="&#xc4;" horiz-adv-x="925" d="M33 168q2 10 9.5 11.5t19.5 -1.5t16 -2q28 4 39 4q11 62 37 133v-2q23 76 30 119l99 500q44 234 82 375q-50 3 -84 -5q-29 -4 -34 33q-2 13 1 51v25.5t0.5 31.5t7 25t18.5 17q33 5 81 3.5t113.5 -5.5t68.5 -4q20 0 32 2q11 -19 21 -55.5t24.5 -118.5t29 -173.5 t44.5 -273.5t62 -364v2q53 -213 69 -328q24 2 40.5 2t26.5 -12t13 -39v-2q8 -111 -18 -125q-15 -2 -36 -1.5t-56 2t-44 1.5q-19 1 -72.5 0.5t-72.5 1.5q-4 1 -31.5 -1t-31.5 3q-13 8 -13 51q-5 17 -2.5 65.5t17.5 57.5q21 12 55 8q-34 151 -39 215q-66 4 -96 4q-53 0 -80 -4 q-8 -18 -25.5 -86.5t-27.5 -122.5q29 -11 43 -6q11 0 19 2t13 -4.5t8 -10t4.5 -14t1.5 -16t0.5 -17t0.5 -16.5v-20q1 -19 0.5 -30t-2.5 -27t-8.5 -24.5t-16.5 -8.5q-30 1 -83 -1.5t-73 -2.5q-87 7 -163 -2q-13 -1 -21 7t-10.5 21.5t-3.5 29.5t0 30t0 24q-6 56 -2 68z M268 1718q0 31 20.5 62t49.5 41h-2q12 6 26 6q31 0 55.5 -22t24.5 -52q0 -46 -28 -75t-74 -29q-33 0 -52.5 18.5t-19.5 50.5zM420 590q18 0 52 3t52 3q-14 195 -22 248q-4 47 -13 69q0 3 -1.5 6.5t-4.5 2.5zM483 1735q0 37 28.5 62.5t66.5 25.5q35 0 62.5 -29t27.5 -63 q0 -36 -28 -57t-65 -21q-38 0 -65 22.5t-27 59.5z" />
<glyph unicode="&#xc5;" horiz-adv-x="958" d="M33 168q2 10 9.5 11.5t19.5 -1.5t16 -2q28 4 39 4q11 62 37 133v-2q23 76 30 119l99 500q44 234 82 375q6 13 18 47.5t21.5 53.5t27 41.5t43.5 29.5t62 0q10 -2 32 2q11 -19 21 -55.5t24.5 -118.5t29 -173.5t44.5 -273.5t62 -364v2q53 -213 69 -328q24 2 40.5 2t26.5 -12 t13 -39v-2q8 -111 -18 -125q-15 -2 -36 -1.5t-56 2t-44 1.5q-19 1 -72.5 0.5t-72.5 1.5q-4 1 -31.5 -1t-31.5 3q-13 8 -13 51q-5 17 -2.5 65.5t17.5 57.5q21 12 55 8q-34 151 -39 215q-66 4 -96 4q-53 0 -80 -4q-8 -18 -25.5 -86.5t-27.5 -122.5q29 -11 43 -6q11 0 19 2 t13 -4.5t8 -10t4.5 -14t1.5 -16t0.5 -17t0.5 -16.5v-20q1 -19 0.5 -30t-2.5 -27t-8.5 -24.5t-16.5 -8.5q-30 1 -83 -1.5t-73 -2.5q-87 7 -163 -2q-13 -1 -21 7t-10.5 21.5t-3.5 29.5t0 30t0 24q-6 56 -2 68zM252 1511q0 15 8 43l4 27q10 66 70 108t135 42q94 0 155.5 -60.5 t61.5 -146.5q0 -84 -53 -146v2q-28 -37 -71 -58.5t-89 -21.5q-89 0 -155 65t-66 146zM418 1534l6 -51q10 -7 20.5 -8.5t16.5 0.5t14.5 5.5t11.5 4.5q54 33 7 74l-6 1q-7 1 -17 1t-20.5 -1t-19.5 -8t-13 -18zM420 590q18 0 52 3t52 3q-14 195 -22 248q-4 47 -13 69 q0 3 -1.5 6.5t-4.5 2.5z" />
<glyph unicode="&#xc6;" horiz-adv-x="1316" d="M1.5 26.5q-0.5 14.5 1 28.5t4.5 31t3 23q1 6 1 20t1.5 25t5.5 20q2 10 8.5 11.5t18 -1.5t16.5 -2q24 4 37 4q24 67 58 131v-2q35 72 49 115l174 490q71 210 139 366q-53 3 -84 -4q-16 -2 -23.5 5.5t-7 23t2.5 27t6 26.5q1 5 3.5 25t5.5 30.5t11.5 23.5t22.5 17q3 1 8 1.5 t12.5 1t13.5 1.5q10 4 46 4l106 -8q70 -4 209 6t205 7q12 1 57 -5q7 -1 25.5 -1.5t31 -2t25.5 -8t16 -18.5q10 -37 -9 -116.5t-15 -115.5q4 -31 -9 -42t-49 -13h-6l-20 -1q-20 0 -28 0.5t-24 2t-26.5 5t-17.5 9.5q-6 10 -6 16t4.5 19t5.5 17v24q-74 -2 -222 -10 q0 -38 -2.5 -78t-7 -94.5t-6.5 -77.5l4 -190q158 18 211 18q12 0 25.5 -1t29.5 -2.5t25 -2.5q8 -21 22.5 -81.5t14.5 -80.5q0 -22 -14 -33q-13 -7 -57.5 -11.5t-86 -5.5t-99 -2t-67.5 -1q0 -61 2 -96q0 -5 8.5 -96.5t10.5 -143.5q103 -12 252 -12q0 3 -1 8.5t-1 7.5 q-1 8 -4.5 24.5t-4.5 24t1 17t11.5 13.5t26.5 5q21 1 67.5 14t70.5 11q17 -1 33 -53t24 -114t3.5 -115.5t-24.5 -57.5q-27 -2 -81 -2q-45 -10 -304 -10.5t-286 -10.5q-51 -8 -76 0q-6 0 -14 4q-4 3 -6 7t-2 10v10t1.5 11t1.5 9v2v9q-13 59 -16 77q-3 33 0 62l86 10l14 4 q-7 121 -2 178q-66 4 -94 4q-55 0 -84 -4q-34 -65 -86 -204q3 -1 8.5 -3.5t8.5 -3.5t7.5 -2t9 -0.5t9.5 2.5q14 6 22.5 2t13 -6.5t5 -13.5t0 -17.5t-2 -19t-1.5 -18.5q-1 -3 -2.5 -19.5t-4 -29t-7 -28t-12 -24t-17.5 -8.5q-30 1 -84 -1.5t-74 -2.5q-85 7 -159 -2 q-12 -1 -18.5 6.5t-7 22zM465 588q16 0 51 3t53 3l-6 272z" />
<glyph unicode="&#xc7;" horiz-adv-x="784" d="M31 606q0 96 5 190t19 210t44.5 216.5t74.5 163.5q44 62 113.5 98t144.5 36q37 0 69 -11t51.5 -23.5t53.5 -39.5q102 -75 131 -148q13 -53 11 -71q0 -66 -58 -121q-38 -38 -98 -41.5t-96 39.5q-5 6 -8 19t-4.5 29t-2.5 22q-15 44 -28 65q-44 62 -97 35q-32 -18 -51 -58.5 t-23.5 -71.5t-8.5 -81v-5t-0.5 -4.5t-0.5 -4.5q-2 -23 -2.5 -67t-1.5 -58l-6 -160q-1 -31 -4.5 -133.5t-3.5 -157.5q0 -208 94 -223q26 -4 39.5 15.5t17.5 45.5t19 49t43 25q85 7 155 -56.5t40 -148.5q-26 -70 -101.5 -117t-152.5 -47q-88 0 -156 38.5t-108.5 98.5t-67 141 t-36 157t-9.5 155zM248 -150q0 25 15 40.5t40 15.5q14 0 32 -1t24 -0.5t18.5 4.5t32.5 13q-24 7 -39.5 17.5t-26 29t-15.5 32.5t-14 44q74 17 114.5 16t111.5 0q0 -24 3 -35.5t7 -16t18.5 -15.5t26.5 -23q15 -14 27 -41t12 -49q0 -27 -21 -59l2 2q-22 -34 -58.5 -59.5 t-74.5 -34.5h2q-87 -31 -147 -31q-39 0 -52 14.5t-18 55.5q-1 13 -10.5 40t-9.5 41z" />
<glyph unicode="&#xc8;" horiz-adv-x="886" d="M32.5 1425q4.5 38 4.5 39q0 40 12.5 53.5t50.5 10.5q17 -1 52 -4t53 -4q68 -4 202.5 5.5t198.5 6.5q16 2 56 -4q6 -1 25 -2t31 -2.5t24.5 -8.5t15.5 -20q10 -38 -9.5 -120.5t-15.5 -119.5q4 -32 -8.5 -43.5t-46.5 -13.5h-6h6h-17h-22t-22 0.5t-23 2.5t-19 5t-16 8 q-6 10 -6 16t5 20.5t5 17.5v26q-107 -3 -215 -12q0 -70 -11 -211t-11 -213q0 -21 2 -33q166 19 213 19q12 0 24.5 -1t28 -2.5t24.5 -2.5q8 -22 21.5 -84.5t13.5 -83.5q0 -24 -14 -35q-12 -7 -56.5 -11.5t-86.5 -6t-98 -2.5t-64 -1v-20q0 -31 4.5 -87.5t5.5 -78.5 q0 -11 1 -38.5t1.5 -43t3 -38.5t6.5 -42q98 -14 248 -14q0 3 -1 8.5t-1 7.5q-1 8 -4.5 25.5t-4 25t1.5 18t11.5 14.5t26.5 5q20 1 64.5 14t68.5 11q16 -1 32 -55t23.5 -118t3 -119.5t-23.5 -59.5q-25 -2 -80 -2q-110 -9 -375 -13q-86 -3 -168 -6q-6 0 -26 -3t-34.5 -4.5 t-30.5 1t-24 10.5q-3 5 -5 13t-2 14t0.5 16t0.5 13q-14 66 -16 82q-3 34 0 63q15 2 42 5t42 5q3 1 8 2t8 2q-4 98 -4 133q0 123 -4 369.5t-4 368.5q0 41 1 121t1 120q-12 1 -37 2t-37 2q-19 2 -24 23t-0.5 59zM260 1800q0 19 14.5 33t36.5 21t42.5 10.5t37.5 3.5 q21 0 35 -11t21 -32t9.5 -36.5t4.5 -39.5q1 -9 4.5 -35t3.5 -43q0 -14 -2 -22v2q-11 -49 -55 -49q-22 0 -40.5 15t-28 31.5t-23 44.5t-19.5 38l2 -2l-10 14v-2q-2 3 -8.5 10.5t-9.5 12t-7 11t-6 12.5t-2 13z" />
<glyph unicode="&#xc9;" horiz-adv-x="845" d="M32.5 1425q4.5 38 4.5 39q0 40 12.5 53.5t50.5 10.5q17 -1 52 -4t53 -4q68 -4 202.5 5.5t198.5 6.5q16 2 56 -4q6 -1 25 -2t31 -2.5t24.5 -8.5t15.5 -20q10 -38 -9.5 -120.5t-15.5 -119.5q4 -32 -8.5 -43.5t-46.5 -13.5h-6h6h-17h-22t-22 0.5t-23 2.5t-19 5t-16 8 q-6 10 -6 16t5 20.5t5 17.5v26q-107 -3 -215 -12q0 -70 -11 -211t-11 -213q0 -21 2 -33q166 19 213 19q12 0 24.5 -1t28 -2.5t24.5 -2.5q8 -22 21.5 -84.5t13.5 -83.5q0 -24 -14 -35q-12 -7 -56.5 -11.5t-86.5 -6t-98 -2.5t-64 -1v-20q0 -31 4.5 -87.5t5.5 -78.5 q0 -11 1 -38.5t1.5 -43t3 -38.5t6.5 -42q98 -14 248 -14q0 3 -1 8.5t-1 7.5q-1 8 -4.5 25.5t-4 25t1.5 18t11.5 14.5t26.5 5q20 1 64.5 14t68.5 11q16 -1 32 -55t23.5 -118t3 -119.5t-23.5 -59.5q-25 -2 -80 -2q-110 -9 -375 -13q-86 -3 -168 -6q-6 0 -26 -3t-34.5 -4.5 t-30.5 1t-24 10.5q-3 5 -5 13t-2 14t0.5 16t0.5 13q-14 66 -16 82q-3 34 0 63q15 2 42 5t42 5q3 1 8 2t8 2q-4 98 -4 133q0 123 -4 369.5t-4 368.5q0 41 1 121t1 120q-12 1 -37 2t-37 2q-19 2 -24 23t-0.5 59zM358 1597v9q0 37 26.5 120.5t47.5 112.5q54 4 78 4h9.5h13 t14 -0.5t14.5 -1.5t11.5 -3.5t8.5 -6.5t3 -10q0 -26 -43 -138.5t-56 -115.5h-18q-59 0 -109 30z" />
<glyph unicode="&#xca;" horiz-adv-x="876" d="M32.5 1425q4.5 38 4.5 39q0 40 12.5 53.5t50.5 10.5q17 -1 52 -4t53 -4q68 -4 202.5 5.5t198.5 6.5q16 2 56 -4q6 -1 25 -2t31 -2.5t24.5 -8.5t15.5 -20q10 -38 -9.5 -120.5t-15.5 -119.5q4 -32 -8.5 -43.5t-46.5 -13.5h-6h6h-17h-22t-22 0.5t-23 2.5t-19 5t-16 8 q-6 10 -6 16t5 20.5t5 17.5v26q-107 -3 -215 -12q0 -70 -11 -211t-11 -213q0 -21 2 -33q166 19 213 19q12 0 24.5 -1t28 -2.5t24.5 -2.5q8 -22 21.5 -84.5t13.5 -83.5q0 -24 -14 -35q-12 -7 -56.5 -11.5t-86.5 -6t-98 -2.5t-64 -1v-20q0 -31 4.5 -87.5t5.5 -78.5 q0 -11 1 -38.5t1.5 -43t3 -38.5t6.5 -42q98 -14 248 -14q0 3 -1 8.5t-1 7.5q-1 8 -4.5 25.5t-4 25t1.5 18t11.5 14.5t26.5 5q20 1 64.5 14t68.5 11q16 -1 32 -55t23.5 -118t3 -119.5t-23.5 -59.5q-25 -2 -80 -2q-110 -9 -375 -13q-86 -3 -168 -6q-6 0 -26 -3t-34.5 -4.5 t-30.5 1t-24 10.5q-3 5 -5 13t-2 14t0.5 16t0.5 13q-14 66 -16 82q-3 34 0 63q15 2 42 5t42 5q3 1 8 2t8 2q-4 98 -4 133q0 123 -4 369.5t-4 368.5q0 41 1 121t1 120q-12 1 -37 2t-37 2q-19 2 -24 23t-0.5 59zM143 1694q0 29 91 115t135 116q41 29 61 29t37 -21 q86 -96 217 -188l-2 2q41 -25 41 -57q0 -19 -53 -67t-76 -48q-17 0 -29 12l2 -2q-11 8 -45 38.5t-62.5 56.5t-29.5 26q-131 -111 -148 -121q-16 -10 -28 -10q-5 0 -11.5 3.5t-14.5 10t-15 13t-15.5 16t-14 15t-13 14.5t-8.5 10h2q-2 3 -6.5 9t-7 10t-5 9t-2.5 9z" />
<glyph unicode="&#xcb;" horiz-adv-x="862" d="M32.5 1425q4.5 38 4.5 39q0 40 12.5 53.5t50.5 10.5q17 -1 52 -4t53 -4q68 -4 202.5 5.5t198.5 6.5q16 2 56 -4q6 -1 25 -2t31 -2.5t24.5 -8.5t15.5 -20q10 -38 -9.5 -120.5t-15.5 -119.5q4 -32 -8.5 -43.5t-46.5 -13.5h-6h6h-17h-22t-22 0.5t-23 2.5t-19 5t-16 8 q-6 10 -6 16t5 20.5t5 17.5v26q-107 -3 -215 -12q0 -70 -11 -211t-11 -213q0 -21 2 -33q166 19 213 19q12 0 24.5 -1t28 -2.5t24.5 -2.5q8 -22 21.5 -84.5t13.5 -83.5q0 -24 -14 -35q-12 -7 -56.5 -11.5t-86.5 -6t-98 -2.5t-64 -1v-20q0 -31 4.5 -87.5t5.5 -78.5 q0 -11 1 -38.5t1.5 -43t3 -38.5t6.5 -42q98 -14 248 -14q0 3 -1 8.5t-1 7.5q-1 8 -4.5 25.5t-4 25t1.5 18t11.5 14.5t26.5 5q20 1 64.5 14t68.5 11q16 -1 32 -55t23.5 -118t3 -119.5t-23.5 -59.5q-25 -2 -80 -2q-110 -9 -375 -13q-86 -3 -168 -6q-6 0 -26 -3t-34.5 -4.5 t-30.5 1t-24 10.5q-3 5 -5 13t-2 14t0.5 16t0.5 13q-14 66 -16 82q-3 34 0 63q15 2 42 5t42 5q3 1 8 2t8 2q-4 98 -4 133q0 123 -4 369.5t-4 368.5q0 41 1 121t1 120q-12 1 -37 2t-37 2q-19 2 -24 23t-0.5 59zM254 1686q0 31 20.5 61.5t49.5 40.5h-2q12 6 26 6 q31 0 55.5 -22t24.5 -52q0 -46 -28 -75t-74 -29q-32 0 -52 19t-20 51zM469 1702q0 37 28 62.5t66 25.5q35 0 62.5 -29t27.5 -63q0 -36 -27.5 -57t-64.5 -21q-38 0 -65 22.5t-27 59.5z" />
<glyph unicode="&#xcc;" horiz-adv-x="450" d="M39 178q5 27 55 27q0 15 4 47q17 202 17 500q0 105 -8 300t-9 283q-16 0 -24 1t-16 6t-11 16q-4 18 -5.5 43t-0.5 45t0 43q-2 24 17 36t52 11.5t59.5 -3.5t55.5 -9h31q27 0 37 -4q76 9 100 0q5 -2 8.5 -8t5.5 -16t3 -20t1.5 -23.5t0.5 -22v-20v-13.5v2v-2q0 -12 -5.5 -20 t-19 -12.5t-21 -6t-26.5 -3.5q-5 -1 -8 -1q-6 -46 -6 -94v-132q0 -60 -7.5 -177t-7.5 -175q0 -50 4 -148.5t4 -148.5q0 -24 -2 -72t-2 -71q0 -22 2 -68t2 -69q72 0 74 -29q0 -24 -6.5 -76t-7.5 -57q-2 -19 -14.5 -27t-26 -8t-35 2t-31.5 2q-94 -4 -143 -4q-8 0 -25 -1 t-24.5 -0.5t-17 4t-13 13.5t-2.5 27q2 18 -5.5 63t-2.5 70zM78 1812q0 19 14.5 33t36.5 21t42.5 10.5t37.5 3.5q21 0 35 -11t21 -32t9.5 -36.5t4.5 -39.5q1 -9 4.5 -35t3.5 -43q0 -14 -2 -22v2q-11 -49 -56 -49q-28 0 -47 18.5t-39.5 62t-23.5 48.5l2 -2l-10 14v-2 q-2 3 -8.5 10.5t-9.5 12t-7 11t-6 12.5t-2 13zM412 1401v2v-2zM412 1403z" />
<glyph unicode="&#xcd;" horiz-adv-x="450" d="M33 178q5 27 55 27q0 15 4 47q17 202 17 500q0 105 -8 300t-9 283q-16 0 -24 1t-16 6t-11 16q-4 18 -5.5 43t-0.5 45t0 43q-2 24 17 36t52 11.5t59.5 -3.5t55.5 -9h31q27 0 37 -4q76 9 100 0q5 -2 8.5 -8t5.5 -16t3 -20t1.5 -23.5t0.5 -22v-20v-13.5v2v-2q0 -12 -5.5 -20 t-19 -12.5t-21 -6t-26.5 -3.5q-5 -1 -8 -1q-7 -54 -7 -94v-132q0 -60 -7 -177t-7 -175q0 -50 4 -148.5t4 -148.5q0 -24 -2 -72t-2 -71q0 -22 2 -68t2 -69q72 0 74 -29q0 -24 -6.5 -76t-7.5 -57q-2 -19 -14.5 -27t-26 -8t-35 2t-31.5 2q-94 -4 -143 -4q-8 0 -25 -1 t-24.5 -0.5t-17 4t-13 13.5t-2.5 27q2 18 -5.5 63t-2.5 70zM182 1589v8q0 37 26.5 121t47.5 113q54 4 78 4h9.5h13t13.5 -0.5t14.5 -2t11.5 -4t9 -6.5t3 -10q0 -26 -43 -138t-56 -115h-18q-59 0 -109 30zM406 1401v2v-2zM406 1403z" />
<glyph unicode="&#xce;" horiz-adv-x="438" d="M-68 1696q0 29 91 115t135 116q41 29 61 29q19 0 37 -21q86 -96 217 -188l-2 2q41 -25 41 -57q0 -19 -53 -67t-76 -48q-17 0 -29 12l2 -2q-11 8 -45 38.5t-62.5 56.5t-29.5 26q-131 -111 -148 -121q-16 -10 -28 -10q-5 0 -11.5 3.5t-14.5 10t-15 13t-15.5 16t-14 15 t-13 14.5t-8.5 10h2q-2 3 -6.5 9t-7 10t-5 9t-2.5 9zM33 178q5 27 55 27q0 15 4 47q17 202 17 500q0 105 -8 300t-9 283q-16 0 -24 1t-16 6t-11 16q-4 18 -5.5 43t-0.5 45t0 43q-2 24 17 36t52 11.5t59.5 -3.5t55.5 -9h31q27 0 37 -4q76 9 100 0q5 -2 8.5 -8t5.5 -16t3 -20 t1.5 -23.5t0.5 -22v-20v-13.5v2v-2q0 -12 -5.5 -20t-19 -12.5t-21 -6t-26.5 -3.5q-5 -1 -8 -1q-7 -54 -7 -94v-132q0 -60 -7 -177t-7 -175q0 -50 4 -148.5t4 -148.5q0 -24 -2 -72t-2 -71q0 -22 2 -68t2 -69q72 0 74 -29q0 -24 -6.5 -76t-7.5 -57q-2 -19 -14.5 -27t-26 -8 t-35 2t-31.5 2q-94 -4 -143 -4q-8 0 -25 -1t-24.5 -0.5t-17 4t-13 13.5t-2.5 27q2 18 -5.5 63t-2.5 70zM406 1401v2v-2zM406 1403z" />
<glyph unicode="&#xcf;" horiz-adv-x="475" d="M33 178q5 27 55 27q0 15 4 47q17 202 17 500q0 105 -8 300t-9 283q-16 0 -24 1t-16 6t-11 16q-4 18 -5.5 43t-0.5 45t0 43q-2 24 17 36t52 11.5t59.5 -3.5t55.5 -9h31q27 0 37 -4q76 9 100 0q5 -2 8.5 -8t5.5 -16t3 -20t1.5 -23.5t0.5 -22v-20v-13.5v2v-2q0 -12 -5.5 -20 t-19 -12.5t-21 -6t-26.5 -3.5q-5 -1 -8 -1q-7 -54 -7 -94v-132q0 -60 -7 -177t-7 -175q0 -50 4 -148.5t4 -148.5q0 -24 -2 -72t-2 -71q0 -22 2 -68t2 -69q72 0 74 -29q0 -24 -6.5 -76t-7.5 -57q-2 -19 -14.5 -27t-26 -8t-35 2t-31.5 2q-94 -4 -143 -4q-8 0 -25 -1 t-24.5 -0.5t-17 4t-13 13.5t-2.5 27q2 18 -5.5 63t-2.5 70zM35 1679q0 31 20 62t49 41h-2q12 6 27 6q31 0 55.5 -22t24.5 -52q0 -46 -28.5 -75t-74.5 -29q-32 0 -51.5 18.5t-19.5 50.5zM250 1696q0 37 28 62.5t66 25.5q35 0 62.5 -29t27.5 -63q0 -36 -27.5 -57t-64.5 -21 q-38 0 -65 22.5t-27 59.5zM406 1401v2v-2zM406 1403z" />
<glyph unicode="&#xd0;" horiz-adv-x="823" d="M32 76q2 31 1 37q-3 49 0 98q0 21 11 28.5t24.5 4.5t33 -8t29.5 -5h37q0 493 16 1051h-20q-4 0 -26 -2t-39 -2.5t-33 4.5t-19 16q-4 7 -0.5 37t2.5 39q-1 10 -1 30t-1 30q-1 18 10.5 22.5t33 1t26.5 -3.5q75 10 135 10q120 9 233 9q188 0 246 -101q66 -112 66 -444 q0 -26 -5.5 -81t-5.5 -83q0 -58 -4 -176t-4 -178q0 -140 -24 -209q-17 -52 -47.5 -90t-72.5 -59t-83.5 -33.5t-98.5 -15.5t-99 -3t-102.5 2t-92.5 2q-113 0 -123 35q-5 6 -3 37zM66 721v98q0 47 34 47q16 0 45 -2t45 -2q6 0 59 1.5t102 2t96.5 -1t58.5 -6.5h-4l4 -2 q13 0 21.5 -10t11.5 -32.5t4 -36t0.5 -42.5t-0.5 -30q0 -56 -29 -56q-21 0 -33 2q-4 5 -139.5 13t-181.5 8q-10 0 -29.5 -3t-24.5 -3q-4 0 -16 4h4q-16 8 -22 18.5t-6 32.5zM403 229q3 0 3 -2l2 2h-2h2q50 -10 67 -10q62 0 94 35q20 22 26.5 158t3 260.5t1.5 191.5 q10 127 10 156q0 138 -75 227q-51 23 -101 23h-8q0 -86 -6 -129q-5 -48 -7 -100t-2.5 -128t-0.5 -102q0 -45 -3.5 -248t-3.5 -313v-21z" />
<glyph unicode="&#xd1;" horiz-adv-x="991" d="M31.5 127.5q0.5 24.5 7.5 34.5q8 16 57 8q-2 8 -2 23q0 60 1.5 127.5t3.5 119t6.5 131t7 119t8.5 130.5t8 122q4 58 10.5 175.5t10.5 172.5q-25 0 -37 -2q-10 -1 -14 13t-5 47v32q-7 79 4 103q3 3 16 8t17 8q5 3 84.5 1.5t81.5 0.5q21 -36 39.5 -78t41.5 -101t32 -81 q133 -340 163 -424q9 -28 37 -86v2l17 -39q0 457 4 600q-2 0 -15.5 -0.5t-21 -0.5t-17 2.5t-14.5 7.5q-5 6 -6 19t0 28t0 20q0 8 -4 25t-6 31t-1.5 28.5t8.5 22t24 6.5q38 -4 118 0.5t140 10.5l61 7q2 0 5 -1t11 -7t14.5 -15t12 -26.5t6.5 -40.5q0 -4 1 -19t1 -27 t-1.5 -25.5t-7 -21.5t-15.5 -9q-14 -1 -82 -6q0 -29 2 -86t2 -84q0 -134 -10 -454.5t-27 -506.5q4 0 15 2.5t20 3.5t19 0.5t15.5 -6.5t6.5 -16q3 -16 1 -74t-12 -66q-1 -4 -18.5 -2.5t-19.5 0.5q-25 -5 -98.5 -11.5t-90.5 1.5l-2 4q-10 0 -16 2q-36 121 -85 254.5t-113 294 t-97 250.5q0 -88 -12 -272q-3 -61 -7.5 -184.5t-7.5 -184.5q4 0 13.5 -1t13.5 -1q5 0 15 1t16 1t12.5 -2t9.5 -8.5t2 -18.5q0 -96 -16 -121q-7 -6 -14.5 -4.5t-20 6.5t-16.5 5q-15 0 -60 -5q-78 -8 -119 -6q-7 1 -21.5 -1t-29 -3.5t-28 -1.5t-22 6t-7.5 19q1 10 -1.5 40 t-2 54.5zM233 1618q0 47 59 87t109 40q54 0 130.5 -39t101.5 -39q26 0 55 28.5t47 28.5q24 0 56 -47t32 -73q0 -42 -63.5 -77.5t-110.5 -35.5q-46 0 -92 16q-85 47 -100 56l2 -2q-20 10 -35 10q-31 0 -48 -11.5t-29.5 -23.5t-31.5 -12q-28 0 -55 33t-27 61z" />
<glyph unicode="&#xd2;" horiz-adv-x="774" d="M41 1040q3 65 13 121t33 113.5t57.5 98t89 66t124.5 25.5q68 0 139.5 -29t123.5 -77q118 -111 118 -389q0 -108 -16 -326q-1 -34 -10 -94.5t-11 -79.5q-1 -14 -2 -59.5t-4.5 -75.5t-11.5 -60q-31 -125 -120 -199.5t-216 -74.5q-90 0 -159.5 54t-103.5 134.5t-34 167.5 q-18 216 -10 684zM217 1733q0 24 26 40.5t53.5 21.5t51.5 5q21 0 35 -11t21 -32t9.5 -36.5t4.5 -39.5q1 -9 4.5 -35t3.5 -42q0 -15 -2 -23v2q-11 -49 -55 -49q-22 0 -40.5 15t-28 31.5t-23 44.5t-19.5 38l2 -2l-10 14v-2q-2 2 -8.5 10.5t-9.5 12.5t-7 11t-6 13t-2 13z M227 475q0 -17 15 -115q2 -8 4 -23.5t5 -28t9 -23.5q15 -31 46.5 -49.5t66.5 -18.5q41 0 86 29q33 24 54 135.5t25.5 200t4.5 159.5q0 28 -4 82t-4 80q0 25 1 74t1 74q0 86 -23 133l2 -2q-21 37 -59 60.5t-80 23.5q-47 0 -78 -31h-2q-9 -8 -16 -19.5t-12.5 -28t-8.5 -26.5 t-8 -30t-6 -25v4q-5 -15 -7 -38.5t-2 -41.5t0.5 -46.5t0.5 -37.5q0 -58 -1 -173t-1 -173q0 -20 -4.5 -61.5t-4.5 -63.5z" />
<glyph unicode="&#xd3;" horiz-adv-x="790" d="M41 1040q3 65 13 121t33 113.5t57.5 98t89 66t124.5 25.5q68 0 139.5 -29t123.5 -77q118 -111 118 -389q0 -108 -16 -326q-1 -34 -10 -94.5t-11 -79.5q-1 -14 -2 -59.5t-4.5 -75.5t-11.5 -60q-31 -125 -120 -199.5t-216 -74.5q-90 0 -159.5 54t-103.5 134.5t-34 167.5 q-18 216 -10 684zM227 475q0 -17 15 -115q2 -8 4 -23.5t5 -28t9 -23.5q15 -31 46.5 -49.5t66.5 -18.5q41 0 86 29q33 24 54 135.5t25.5 200t4.5 159.5q0 28 -4 82t-4 80q0 25 1 74t1 74q0 86 -23 133l2 -2q-21 37 -59 60.5t-80 23.5q-47 0 -78 -31h-2q-9 -8 -16 -19.5 t-12.5 -28t-8.5 -26.5t-8 -30t-6 -25v4q-5 -15 -7 -38.5t-2 -41.5t0.5 -46.5t0.5 -37.5q0 -58 -1 -173t-1 -173q0 -20 -4.5 -61.5t-4.5 -63.5zM274 1556v9q0 37 26.5 120.5t47.5 112.5q54 4 78 4h9.5h13t14 -0.5t14.5 -1.5t11.5 -3.5t8.5 -6.5t3 -10q0 -26 -43 -138.5 t-56 -115.5h-18q-59 0 -109 30z" />
<glyph unicode="&#xd4;" horiz-adv-x="800" d="M41 1040q3 65 13 121t33 113.5t57.5 98t89 66t124.5 25.5q68 0 139.5 -29t123.5 -77q118 -111 118 -389q0 -108 -16 -326q-1 -34 -10 -94.5t-11 -79.5q-1 -14 -2 -59.5t-4.5 -75.5t-11.5 -60q-31 -125 -120 -199.5t-216 -74.5q-90 0 -159.5 54t-103.5 134.5t-34 167.5 q-18 216 -10 684zM100 1599q0 29 91 115.5t135 116.5q41 29 61 29q19 0 37 -21q86 -96 217 -188l-2 2q41 -25 41 -58q0 -19 -53 -66.5t-76 -47.5q-17 0 -29 12l2 -2q-11 8 -45 38.5t-62.5 56.5t-29.5 26q-131 -111 -148 -121q-16 -10 -28 -10q-5 0 -11.5 3.5t-14.5 10 t-15 13t-15.5 16t-14 15t-13 14.5t-8.5 10h2q-2 3 -8.5 11t-9.5 14t-3 11zM227 475q0 -17 15 -115q2 -8 4 -23.5t5 -28t9 -23.5q15 -31 46.5 -49.5t66.5 -18.5q41 0 86 29q33 24 54 135.5t25.5 200t4.5 159.5q0 28 -4 82t-4 80q0 25 1 74t1 74q0 86 -23 133l2 -2 q-21 37 -59 60.5t-80 23.5q-47 0 -78 -31h-2q-9 -8 -16 -19.5t-12.5 -28t-8.5 -26.5t-8 -30t-6 -25v4q-5 -15 -7 -38.5t-2 -41.5t0.5 -46.5t0.5 -37.5q0 -58 -1 -173t-1 -173q0 -20 -4.5 -61.5t-4.5 -63.5z" />
<glyph unicode="&#xd5;" horiz-adv-x="763" d="M41 1040q3 65 13 121t33 113.5t57.5 98t89 66t124.5 25.5q68 0 139.5 -29t123.5 -77q118 -111 118 -389q0 -108 -16 -326q-1 -34 -10 -94.5t-11 -79.5q-1 -14 -2 -59.5t-4.5 -75.5t-11.5 -60q-31 -125 -120 -199.5t-216 -74.5q-90 0 -159.5 54t-103.5 134.5t-34 167.5 q-18 216 -10 684zM94 1622q0 47 59 87t109 40q54 0 130.5 -39t101.5 -39q26 0 55 29t47 29q24 0 56 -47.5t32 -73.5q0 -42 -63.5 -77.5t-110.5 -35.5q-46 0 -92 16q-92 50 -101 56l2 -2q-20 10 -34 10q-31 0 -48 -11.5t-29.5 -23.5t-31.5 -12q-28 0 -55 33t-27 61zM227 475 q0 -17 15 -115q2 -8 4 -23.5t5 -28t9 -23.5q15 -31 46.5 -49.5t66.5 -18.5q41 0 86 29q33 24 54 135.5t25.5 200t4.5 159.5q0 28 -4 82t-4 80q0 25 1 74t1 74q0 86 -23 133l2 -2q-21 37 -59 60.5t-80 23.5q-47 0 -78 -31h-2q-9 -8 -16 -19.5t-12.5 -28t-8.5 -26.5t-8 -30 t-6 -25v4q-5 -15 -7 -38.5t-2 -41.5t0.5 -46.5t0.5 -37.5q0 -58 -1 -173t-1 -173q0 -20 -4.5 -61.5t-4.5 -63.5z" />
<glyph unicode="&#xd6;" horiz-adv-x="778" d="M41 1040q3 65 13 121t33 113.5t57.5 98t89 66t124.5 25.5q68 0 139.5 -29t123.5 -77q118 -111 118 -389q0 -108 -16 -326q-1 -34 -10 -94.5t-11 -79.5q-1 -14 -2 -59.5t-4.5 -75.5t-11.5 -60q-31 -125 -120 -199.5t-216 -74.5q-90 0 -159.5 54t-103.5 134.5t-34 167.5 q-18 216 -10 684zM201 1616q0 31 20 61.5t49 40.5h-2q12 6 27 6q31 0 55.5 -21.5t24.5 -51.5q0 -46 -28.5 -75.5t-74.5 -29.5q-32 0 -51.5 19t-19.5 51zM227 475q0 -17 15 -115q2 -8 4 -23.5t5 -28t9 -23.5q15 -31 46.5 -49.5t66.5 -18.5q41 0 86 29q33 24 54 135.5 t25.5 200t4.5 159.5q0 28 -4 82t-4 80q0 25 1 74t1 74q0 86 -23 133l2 -2q-21 37 -59 60.5t-80 23.5q-47 0 -78 -31h-2q-9 -8 -16 -19.5t-12.5 -28t-8.5 -26.5t-8 -30t-6 -25v4q-5 -15 -7 -38.5t-2 -41.5t0.5 -46.5t0.5 -37.5q0 -58 -1 -173t-1 -173q0 -20 -4.5 -61.5 t-4.5 -63.5zM416 1632q0 37 28 62.5t66 25.5q35 0 62.5 -29t27.5 -63q0 -36 -27.5 -57t-64.5 -21q-38 0 -65 22.5t-27 59.5z" />
<glyph unicode="&#xd7;" horiz-adv-x="729" d="M55 823q5 6 28.5 33t40 44t38.5 33.5t37 16.5q26 0 54 -19t61.5 -53t43.5 -42q107 131 156 131q43 0 77 -42t34 -87q-22 -25 -69 -73.5t-69 -74.5h2q5 0 41.5 -30t77 -65.5t45.5 -39.5q-14 -31 -70.5 -85t-84.5 -54q-2 0 -5.5 1t-5.5 1q-35 23 -135 119 q-17 -21 -52 -57.5t-44 -47.5v2q-32 -43 -59 -43q-8 0 -19 6.5t-19 13.5t-19.5 18t-14.5 13l6 -2q-22 9 -41.5 27.5t-19.5 38.5q0 21 29.5 52.5t66.5 65.5t47 50q-3 3 -24 25t-27 28l-24 24t-28.5 27t-25.5 22t-29 23z" />
<glyph unicode="&#xd8;" horiz-adv-x="819" d="M27 -29q1 54 247 723t297 768q23 13 60 13q46 0 86.5 -16.5t40.5 -55.5q0 -10 -4.5 -26.5t-5.5 -22.5q-29 -107 -277.5 -750.5t-263.5 -650.5q-115 3 -140.5 5.5t-39.5 12.5zM66 1040q3 65 13 121t33 113.5t57.5 98t89 66t124.5 25.5q68 0 139 -29t123 -77 q119 -112 119 -389q0 -108 -16 -326q-1 -34 -10 -94.5t-11 -79.5q-1 -14 -2 -59.5t-4.5 -75.5t-11.5 -60q-31 -125 -120 -199.5t-216 -74.5q-90 0 -159.5 54t-103.5 134.5t-34 167.5q-18 216 -10 684zM252 475q0 -24 14 -115q2 -8 4 -23.5t5.5 -28t9.5 -23.5 q15 -31 46 -49.5t66 -18.5q41 0 86 29q33 24 54 135.5t25.5 200t4.5 159.5q0 28 -4 82t-4 80q0 25 1 74t1 74q0 88 -22 133l2 -2q-20 37 -59 60.5t-81 23.5q-46 0 -77 -31h-2q-9 -8 -16 -19t-13 -29t-8.5 -26t-8.5 -31t-6 -24v4q-5 -15 -7 -38.5t-2 -41.5t0.5 -46.5 t0.5 -37.5q0 -58 -1 -173t-1 -173q0 -20 -4 -61.5t-4 -63.5z" />
<glyph unicode="&#xd9;" horiz-adv-x="913" d="M29.5 1435.5q0.5 14.5 8 22t21.5 6.5q10 -1 68 1.5t66 2.5q2 0 33 3t57 4.5t49 -0.5q36 -4 45.5 -21t11.5 -63q5 -17 3 -59.5t-23 -43.5q-10 -1 -31 -2t-31 -2q-2 -27 -6.5 -78t-7.5 -92.5t-4 -77.5q-4 -118 -4 -180q0 -126 14 -327t41 -250q37 -66 119 -66 q85 0 123.5 63t38.5 154q0 172 -23 752q-4 82 -8 127h-10q-1 0 -10.5 -3t-14.5 -4.5t-14 -3t-15 0t-10 4.5q-6 5 -6 19t2.5 30.5t1.5 21.5q0 8 -2.5 24.5t-2.5 30t5 23.5q9 18 93.5 32.5t167.5 12.5t87 -24q1 -15 7.5 -66.5t7.5 -77.5q1 -11 -2.5 -17.5t-13 -7.5t-15 -1 t-20.5 3t-17 3q2 -6 2 -19q25 -290 25 -626q0 -60 -2 -106t-7.5 -110t-19 -115.5t-33.5 -104.5t-53.5 -95.5t-77.5 -71.5v2q-101 -63 -235 -63q-61 0 -130.5 45t-115.5 114t-41 132q-37 193 -37 434q0 87 8 262t8 262v27q-42 -5 -53 6q-4 6 -5.5 20t-0.5 26t0 22 q-1 8 -4.5 26t-5.5 31.5t-1.5 28zM295 1759q0 19 14.5 33t36.5 21t42.5 10.5t37.5 3.5q21 0 35 -11t21 -32t9.5 -36.5t4.5 -39.5q1 -9 4.5 -35t3.5 -43q0 -14 -2 -22v2q-11 -49 -56 -49q-28 0 -47 18.5t-39.5 62t-23.5 48.5l2 -2l-10 14v-2q-2 3 -8.5 10.5t-9.5 12t-7 11 t-6 12.5t-2 13z" />
<glyph unicode="&#xda;" horiz-adv-x="925" d="M29.5 1435.5q0.5 14.5 8 22t21.5 6.5q10 -1 68 1.5t66 2.5q2 0 33 3t57 4.5t49 -0.5q36 -4 45.5 -21t11.5 -63q5 -17 3 -59.5t-23 -43.5q-10 -1 -31 -2t-31 -2q-2 -27 -6.5 -78t-7.5 -92.5t-4 -77.5q-4 -118 -4 -180q0 -126 14 -327t41 -250q37 -66 119 -66 q85 0 123.5 63t38.5 154q0 172 -23 752q-4 82 -8 127h-10q-1 0 -10.5 -3t-14.5 -4.5t-14 -3t-15 0t-10 4.5q-6 5 -6 19t2.5 30.5t1.5 21.5q0 8 -2.5 24.5t-2.5 30t5 23.5q9 18 93.5 32.5t167.5 12.5t87 -24q1 -15 7.5 -66.5t7.5 -77.5q1 -11 -2.5 -17.5t-13 -7.5t-15 -1 t-20.5 3t-17 3q2 -6 2 -19q25 -290 25 -626q0 -60 -2 -106t-7.5 -110t-19 -115.5t-33.5 -104.5t-53.5 -95.5t-77.5 -71.5v2q-101 -63 -235 -63q-61 0 -130.5 45t-115.5 114t-41 132q-37 193 -37 434q0 87 8 262t8 262v27q-42 -5 -53 6q-4 6 -5.5 20t-0.5 26t0 22 q-1 8 -4.5 26t-5.5 31.5t-1.5 28zM444 1559v8q0 37 26.5 120.5t47.5 112.5q54 4 78 4h9.5h13t14 -0.5t14.5 -1.5t11.5 -3.5t8.5 -6.5t3 -10q0 -26 -43 -138.5t-56 -115.5h-18q-58 0 -109 31z" />
<glyph unicode="&#xdb;" horiz-adv-x="911" d="M29.5 1435.5q0.5 14.5 8 22t21.5 6.5q10 -1 68 1.5t66 2.5q2 0 33 3t57 4.5t49 -0.5q36 -4 45.5 -21t11.5 -63q5 -17 3 -59.5t-23 -43.5q-10 -1 -31 -2t-31 -2q-2 -27 -6.5 -78t-7.5 -92.5t-4 -77.5q-4 -118 -4 -180q0 -126 14 -327t41 -250q37 -66 119 -66 q85 0 123.5 63t38.5 154q0 172 -23 752q-4 82 -8 127h-10q-1 0 -10.5 -3t-14.5 -4.5t-14 -3t-15 0t-10 4.5q-6 5 -6 19t2.5 30.5t1.5 21.5q0 8 -2.5 24.5t-2.5 30t5 23.5q9 18 93.5 32.5t167.5 12.5t87 -24q1 -15 7.5 -66.5t7.5 -77.5q1 -11 -2.5 -17.5t-13 -7.5t-15 -1 t-20.5 3t-17 3q2 -6 2 -19q25 -290 25 -626q0 -60 -2 -106t-7.5 -110t-19 -115.5t-33.5 -104.5t-53.5 -95.5t-77.5 -71.5v2q-101 -63 -235 -63q-61 0 -130.5 45t-115.5 114t-41 132q-37 193 -37 434q0 87 8 262t8 262v27q-42 -5 -53 6q-4 6 -5.5 20t-0.5 26t0 22 q-1 8 -4.5 26t-5.5 31.5t-1.5 28zM178 1647q0 29 90.5 115t134.5 116q41 29 62 29q19 0 37 -21q86 -96 217 -188l-2 2q41 -25 41 -58q0 -19 -53 -66.5t-76 -47.5q-17 0 -29 12l2 -2q-11 8 -45 38.5t-62.5 56.5t-29.5 26q-131 -111 -148 -121q-16 -10 -28 -10q-5 0 -11.5 3.5 t-14.5 10t-15 13t-15.5 16t-14 15t-13 14.5t-8.5 10h2q-2 3 -6.5 9t-7 10t-5 9t-2.5 9z" />
<glyph unicode="&#xdc;" horiz-adv-x="913" d="M29.5 1435.5q0.5 14.5 8 22t21.5 6.5q10 -1 68 1.5t66 2.5q2 0 33 3t57 4.5t49 -0.5q36 -4 45.5 -21t11.5 -63q5 -17 3 -59.5t-23 -43.5q-10 -1 -31 -2t-31 -2q-2 -27 -6.5 -78t-7.5 -92.5t-4 -77.5q-4 -118 -4 -180q0 -126 14 -327t41 -250q37 -66 119 -66 q85 0 123.5 63t38.5 154q0 172 -23 752q-4 82 -8 127h-10q-1 0 -10.5 -3t-14.5 -4.5t-14 -3t-15 0t-10 4.5q-6 5 -6 19t2.5 30.5t1.5 21.5q0 8 -2.5 24.5t-2.5 30t5 23.5q9 18 93.5 32.5t167.5 12.5t87 -24q1 -15 7.5 -66.5t7.5 -77.5q1 -11 -2.5 -17.5t-13 -7.5t-15 -1 t-20.5 3t-17 3q2 -6 2 -19q25 -290 25 -626q0 -60 -2 -106t-7.5 -110t-19 -115.5t-33.5 -104.5t-53.5 -95.5t-77.5 -71.5v2q-101 -63 -235 -63q-61 0 -130.5 45t-115.5 114t-41 132q-37 193 -37 434q0 87 8 262t8 262v27q-42 -5 -53 6q-4 6 -5.5 20t-0.5 26t0 22 q-1 8 -4.5 26t-5.5 31.5t-1.5 28zM219 1706q0 31 20.5 61.5t49.5 40.5h-2q14 7 26 7q31 0 55.5 -22t24.5 -52q0 -46 -28.5 -75.5t-73.5 -29.5q-32 0 -52 19t-20 51zM434 1722q0 37 28 62.5t66 25.5q35 0 62.5 -29t27.5 -63q0 -36 -27.5 -57t-64.5 -21q-38 0 -65 22.5 t-27 59.5z" />
<glyph unicode="&#xdd;" horiz-adv-x="874" d="M31 1411q-3 35 73 45.5t154.5 3.5t103.5 -16q6 -3 9.5 -14t4.5 -28.5t1.5 -30.5t0 -32t-0.5 -20q0 -37 -66 -41q95 -290 119 -383q45 142 105 410q-6 1 -31 6q-11 3 -16 24t-6.5 48.5t-2.5 31.5q-4 36 2 64q19 0 163.5 2t154.5 2q13 1 20.5 -1.5t9.5 -9.5t2 -11.5 t-2.5 -16.5t-3.5 -17l2 7q-2 -3 -2 -7q-1 -8 2 -28.5t5.5 -39t1.5 -36.5t-11.5 -28t-31.5 -7q-32 4 -48 4q-3 -7 -7 -22t-7 -21l-123 -391q-5 -18 -26 -79.5t-38 -115t-20 -75.5q-5 -52 -5 -112t2.5 -133.5t2.5 -113.5v-30q15 0 23.5 -0.5t20.5 -3t18 -9t6 -16.5 q2 -38 -12 -133q-1 -19 -12 -27t-22.5 -8t-30.5 2.5t-28 1.5q-82 -4 -120 -4q-7 0 -22 -1t-21.5 -0.5t-15.5 4t-11.5 13.5t-1.5 27t-5.5 62.5t-2.5 70.5q5 32 55 25q-2 64 -2 329q0 42 -123 406v-2q-8 28 -31 101t-38.5 125.5t-28.5 103.5q-22 -8 -48.5 -7.5t-31.5 21.5 q-6 23 -5.5 66t-0.5 65zM340 1624v8q0 37 26.5 121t47.5 113q54 4 78 4h9.5h13t13.5 -0.5t14 -2t11 -4t9 -6.5t3 -10q0 -26 -42.5 -138.5t-55.5 -115.5h-18q-58 0 -109 31zM377 1321v2v-2z" />
<glyph unicode="&#xde;" horiz-adv-x="686" d="M33 1391q3 18 18 22.5t41 0t29 -4.5q17 -2 53 2h6h8q17 3 35 0h27q10 0 16 -2q31 0 43 -14q4 -8 4 -13v-18q12 1 32.5 4.5t37.5 5.5t33 2q64 0 114.5 -30t80 -76t49.5 -107t27 -117t7 -112q0 -35 -4 -105q-2 -29 -2.5 -87t-3 -89t-10 -75.5t-26 -82.5t-48.5 -75 q-42 -53 -98.5 -85t-120.5 -32q-30 0 -80 16h-4v3q-4 -148 -8 -222q3 0 7 1t7 1q10 2 16 0.5t8.5 -8.5t3 -11t0 -16t-0.5 -16v4v-4q0 -8 7.5 -50.5t3 -68.5t-31.5 -24q-29 2 -80 -2t-82 -5t-79 7q-10 1 -16 20.5t-9.5 48.5t-3.5 31q-5 26 -2 64q9 1 27.5 2t27.5 2 q-10 122 -10 293q0 77 6 230t6 230q0 227 19 385h-9q-6 0 -19 -1.5t-19 -1t-14 3.5t-11 13t-2 27q2 21 -3.5 67t-2.5 69zM290.5 614.5q0.5 -8.5 3 -24t7.5 -27.5q49 -53 94 -53q14 0 29 6q28 28 45.5 70.5t24 101.5t7.5 91t1 93q0 123 -9 167q-12 63 -47 114q-17 27 -43 27 q-21 0 -47 -15q-19 -11 -30.5 -33t-13.5 -34t-7 -45q-14 -109 -14 -381q0 -4 -0.5 -26.5t0 -31z" />
<glyph unicode="&#xdf;" horiz-adv-x="940" d="M55 135v8q2 4 8 4q8 0 17 3q12 2 35 2l-4 41q-5 45 -5 61q-1 27 -6 164q-5 78 -2 176l2 192l6 199q0 125 5 215q8 113 22 168q15 68 59.5 111.5t114.5 58.5q93 24 195 2q85 -15 145 -84q84 -100 101 -213q2 -10 7 -27.5t7 -23.5q11 -55 8 -115q-3 -78 -43 -139 q-6 -8 -20 -22t-21 -23l47 -49q51 -51 80 -113q46 -104 55 -176q15 -107 15 -127q3 -181 -101 -291q-48 -51 -94 -84q-33 -26 -61 -33q-4 -1 -10.5 -3t-10.5 -3q-3 -1 -10 -3t-10 -3l-2 -4q-2 -3 -4 -4q-2 -2 -11 -2q-5 -1 -16 -2t-16 -2q-24 -4 -37 -4t-43 10 q-24 10 -39 25q-21 18 -29 38q-3 3 -6 9q-6 6 -6 16q-10 30 -10 35q-9 53 8 74q2 4 16 18q4 2 4 6q1 1 11 6q2 0 12 3t16 3q19 0 35 -8q34 -19 43 -22q20 -4 29 -4q4 0 13 -1t13 -1q9 0 13 2h10q6 0 10 4q15 5 16 6q11 3 15 18q2 13 16.5 34.5t18.5 31.5q7 15 14 45 q17 80 2 168q-5 20 -9.5 57t-6.5 49q-16 112 -121 193q-10 9 -43 18q-58 18 -103 15q-29 0 -38.5 9t-12.5 40q-1 21 8 90q3 24 19 36.5t45 6.5q49 -13 104 12q47 24 60 80q4 15 8 53q6 41 -25 105q-9 21 -12 26q-2 3 -8.5 13.5t-9.5 13.5q-26 28 -64.5 35t-75.5 -8 q-36 -16 -61 -52q-28 -40 -37 -66t-12 -81q0 -13 -6 -100t-2 -133v-152v-35q0 -73 6 -98q2 -8 4 -22.5t2 -16.5q12 -303 12 -305q2 -58 -2 -178q2 -6 2 -15v-39v-4v-8v-18v-19q-1 -1 -4 -7t-4 -7q-5 -10 -12 -6q-1 0 -3.5 1t-3.5 1h-6h-14h-14q-2 1 -7 2t-6 2q-25 0 -71 -4 q-7 -1 -22 -3t-27 -3t-23 0q-16 0 -18 6q-1 2 -1 7.5t-1 8.5q-5 40 -5 51q0 40 -4 60q-2 4 -2 18z" />
<glyph unicode="&#xe0;" horiz-adv-x="804" d="M55 426q0 53 8 94q11 53 27.5 88.5t48.5 73.5q33 42 74 70q72 31 115.5 34.5t103.5 -12.5v37q0 4 1 21.5t0 26t-4 20.5t-11.5 16t-22.5 2q-3 0 -5.5 -0.5t-4.5 -1.5t-3.5 -2t-3 -3t-2 -2.5t-2 -3t-2 -3.5t-2 -4.5t-1.5 -4.5q-16 -37 -54 -43q-48 -7 -99 4.5t-75 43.5 q-20 28 -16 62.5t21 65t40 50.5q38 35 83.5 47t91.5 2t87.5 -30t83.5 -50q67 -49 84 -182l1 -5q1 -5 1 -8l5 -30q13 -72 10 -142q-4 -40 -4 -63q0 -16 1 -34t2.5 -39t2.5 -34v-155q0 -109 2 -164q20 -2 59 -2q33 1 43.5 -8.5t8.5 -40.5v-107q0 -9 -1 -16t-6 -10.5t-8 -5.5 t-11.5 -2h-12t-14.5 2t-13 2q-23 3 -57.5 -1.5t-61.5 -10t-58 -3.5t-54 17l-2 38q0 5 -4 2l-3 -4q-43 -27 -84 -32q-94 -8 -157 32q-70 51 -98.5 128.5t-39.5 187.5v-2q-8 39 -8 94zM219 1407q0 19 14.5 33t36.5 21t42.5 10.5t37.5 3.5q21 0 35 -11t21 -32t9.5 -36.5 t4.5 -39.5q1 -9 4.5 -35t3.5 -43q0 -15 -2 -23v2q-11 -49 -55 -49q-22 0 -40.5 15t-28 31.5t-23 44.5t-19.5 38l2 -2l-10 15v-2q-2 3 -8.5 10.5t-9.5 12t-7 11t-6 12.5t-2 13zM238 395q0 -88 28 -159q24 -56 74 -56q55 0 78 53q33 68 33 162q0 66 -21 131q-21 53 -65 62 q-30 3 -60 -9t-41 -36q-22 -43 -26 -142v-6z" />
<glyph unicode="&#xe1;" horiz-adv-x="757" d="M57 434q2 71 35 153t82 126q34 30 88.5 49.5t106.5 19.5q26 0 53 -6q2 9 -2 26t-4 23q0 4 0.5 32t-4.5 32q-11 30 -37 33q-16 3 -27 -5t-8 -22q2 -8 7 -22t7 -21.5t-2 -17.5t-18 -17q-44 -24 -119 -24q-54 1 -83.5 24t-31.5 57.5t11 73t39.5 73t58.5 54.5q41 26 100 27 t114 -17.5t103 -53t70 -75.5q39 -74 35 -223v-172q0 -121 -2 -180q-2 -27 -2 -82q0 -30 -4 -88v-10q8 0 24 4q35 6 43 -2t10 -43v-4q1 -21 -3.5 -61.5t-4.5 -59.5q0 -12 -6 -18.5t-17 -7.5t-21 0.5t-24 4t-20 2.5q-27 0 -43 2q-10 -2 -33 -2q-43 0 -63 2q-8 2 -16 8t-9 13 l-2 10q-5 -1 -24.5 -7.5t-25 -7.5t-26 -5.5t-26 -3.5t-27.5 0q-81 3 -155 77h2q-64 64 -82.5 143t-16.5 189zM250 360q0 -21 6 -45q7 -34 27.5 -53.5t46.5 -19.5q32 0 53 24q47 53 47 148q0 42 -16 112q-6 22 -15 30.5t-34 16.5h2q-58 12 -80 -18q-7 -7 -12 -19.5t-7 -23 t-4.5 -28.5t-3.5 -25q0 -1 -1 -4t-1 -4q0 -11 -4 -31q-4 -40 -4 -60zM260 1245v8q0 37 26.5 121t47.5 113q54 4 78 4h9.5h13t13.5 -0.5t14 -2t11 -4t9 -6.5t3 -10q0 -26 -42.5 -138.5t-55.5 -115.5h-18q-58 0 -109 31z" />
<glyph unicode="&#xe2;" horiz-adv-x="778" d="M55 438q0 101 37 185q45 107 119 143q28 13 55 16t59 -4.5t50 -13.5t57 -21q14 25 15 53.5t-15 53.5q-21 38 -49 27q-10 -2 -24.5 -15.5t-22.5 -17.5q-27 -8 -80 -4q-20 4 -33 12q-54 28 -69 99t22 122q24 30 67 44t85.5 12t79.5 -15q115 -34 190 -139q23 -33 34.5 -80 t13 -79t1.5 -89q0 -44 -7 -141t-7 -154v-221v-16q85 11 88 -9q1 -14 -1 -30.5t-6 -38t-5 -33.5q0 -7 1 -21.5t0.5 -21.5t-3 -15.5t-11 -11t-22.5 -0.5q-46 10 -115 6q-7 0 -47 -12t-57 -4q-13 6 -9 43l-6 12q-66 -32 -106 -32t-88.5 25t-77.5 57v-3q-113 116 -113 332z M92 1307q0 29 90.5 115t134.5 116q41 29 62 29q19 0 37 -21q86 -96 217 -188l-2 2q41 -25 41 -57q0 -19 -53 -67t-76 -48q-17 0 -29 12l2 -2q-11 8 -45 38.5t-62.5 56.5t-29.5 26q-131 -111 -148 -121q-16 -10 -28 -10q-5 0 -11.5 3.5t-14.5 10t-15 13t-15.5 16t-14 15 t-13 14.5t-8.5 10h2q-2 3 -6.5 9t-7 10t-5 9t-2.5 9zM266 401q0 -22 2.5 -46t9 -55t21.5 -51t37 -20q37 0 62.5 36.5t34.5 77t9 75.5q0 23 -0.5 37.5t-3.5 41t-8.5 43.5t-17.5 34t-29 24q-18 0 -34.5 -5.5t-38.5 -22.5t-34.5 -60.5t-9.5 -108.5z" />
<glyph unicode="&#xe3;" horiz-adv-x="763" d="M55 408q0 34 4 84q4 74 30 147t77 109q70 47 156 47q56 0 120 -23v21q0 39 9 67q8 20 4 35q-3 20 -24 25t-34 -9q-7 -5 -16 -23t-23 -22q-52 -20 -102 -4q-50 21 -68.5 65.5t-3.5 91t56 75.5q73 52 178.5 30t159.5 -96q59 -83 59 -227q0 -17 -1 -48t-1 -46q0 -5 -1 -18 t-1 -15l-10 -191q-7 -110 -7 -190q-4 -54 -4 -82q0 -17 -2 -25h15q7 -1 29.5 3.5t36.5 2.5t16 -18q1 -21 -0.5 -62.5t-1.5 -54.5q0 -32 -14.5 -37.5t-43.5 0.5q-25 1 -68 -1.5t-59 -2.5h-2l-20 -4t-20.5 -3.5t-15 0t-13.5 6t-5 14.5l-4 2q-8 16 -8 28q-83 -46 -151 -34 q-40 6 -82.5 34.5t-71.5 63.5q-72 96 -72 285zM117 1290q0 47 59 87t109 40q54 0 130 -39t101 -39q26 0 55 29t47 29q25 0 57 -47.5t32 -73.5q0 -42 -64 -77.5t-111 -35.5q-43 0 -92 17q-95 52 -100 55l2 -2q-20 10 -35 10q-24 0 -40.5 -7.5t-23 -16t-18 -16t-26.5 -7.5 q-28 0 -55 33t-27 61zM242 422q3 -40 5 -60t11 -51.5t23 -50.5q35 -28 81 -12q47 19 72 96q19 45 19 102q0 51 -21 109q-26 33 -108 29q-91 -7 -82 -148v-14z" />
<glyph unicode="&#xe4;" horiz-adv-x="804" d="M55 461q0 53 8 94q11 53 27.5 88.5t48.5 73.5q32 39 74 69q73 31 115.5 35t103.5 -12v37q0 4 1 21.5t0 26t-4 20.5t-11.5 16t-22.5 2q-3 0 -5.5 -0.5t-4.5 -1.5t-3.5 -2t-3 -3t-2 -2.5t-2 -3t-2 -3.5t-2 -4.5t-1.5 -4.5q-16 -37 -54 -43q-48 -7 -99 4t-75 43 q-20 28 -16 62.5t21 65.5t40 51q38 35 83.5 47t91.5 2t87.5 -30t83.5 -50q67 -49 84 -182q0 -1 1 -5t1 -8l5 -30q13 -72 10 -142q-4 -40 -4 -63q0 -16 1 -34t2.5 -39t2.5 -34v-155q0 -109 2 -164q20 -2 59 -2q33 1 43.5 -8.5t8.5 -40.5v-107q0 -8 -1.5 -14.5t-3.5 -10t-7 -6 t-8 -3.5t-11 -0.5t-11 0.5t-12.5 1.5t-11.5 1.5q-23 3 -57.5 -1.5t-61.5 -10t-58 -3.5t-54 17l-2 39q0 5 -4 2q-3 -1 -3 -4q-45 -28 -84 -33q-39 -3 -82.5 5.5t-74.5 27.5q-70 51 -98.5 128.5t-39.5 187.5v-2q-8 39 -8 94zM150 1386q0 31 20 62t49 41h-2q12 6 27 6 q31 0 55.5 -22t24.5 -52q0 -46 -28.5 -75t-74.5 -29q-32 0 -51.5 18.5t-19.5 50.5zM238 430q0 -89 28 -160q24 -55 74 -55q55 0 78 53q33 68 33 162q0 66 -21 131q-21 53 -65 62q-30 3 -60 -9t-41 -36q-22 -43 -26 -142v-6zM365 1403q0 37 28 62.5t66 25.5q35 0 62.5 -29 t27.5 -63q0 -36 -27.5 -57t-64.5 -21q-38 0 -65 22.5t-27 59.5z" />
<glyph unicode="&#xe5;" horiz-adv-x="757" d="M57 418q2 70 35 152t82 126q35 30 89.5 50t105.5 20q26 0 53 -6q2 9 -2 26t-4 23q0 4 0.5 31.5t-4.5 31.5q-11 30 -37 33q-16 3 -27 -4.5t-8 -21.5q2 -8 7 -22t7 -21.5t-2 -17.5t-18 -17q-46 -25 -119 -25q-54 1 -83.5 24t-31.5 58t11 73t39.5 73t58.5 55q41 26 100 27 t114 -17.5t103 -53t70 -75.5q39 -74 35 -223v-172q0 -121 -2 -180q-2 -27 -2 -82q0 -30 -4 -88v-11q8 0 24 4q35 6 43 -2t10 -43v-4q1 -21 -3.5 -62t-4.5 -59q0 -12 -6 -18.5t-17 -7t-21 0.5t-24 4t-20 3q-27 0 -43 2q-10 -2 -33 -2q-43 0 -63 2q-8 2 -16 8t-9 13l-2 10 q-7 -2 -24.5 -7.5t-25 -7.5t-25.5 -6.5t-26.5 -4t-27.5 0.5q-80 3 -155 78h2q-64 64 -82.5 143t-16.5 189zM193 1372q0 15 8 43l4 25q9 66 62.5 106.5t121.5 40.5q85 0 140 -59t55 -144q0 -81 -47 -143v2q-25 -35 -64 -56.5t-80 -21.5q-80 0 -140 63.5t-60 143.5zM250 344 q0 -21 6 -45q8 -34 28 -54t46 -20q31 0 53 25q47 53 47 147q0 43 -16 113q-6 22 -15 30.5t-34 16.5h2q-58 12 -80 -18q-7 -7 -12 -19.5t-7 -23t-4.5 -29t-3.5 -25.5q0 -1 -1 -4t-1 -4q0 -11 -4 -31q-4 -40 -4 -59zM342 1395l6 -52q9 -6 19 -7.5t15.5 0.5t13.5 5.5t10 4.5 q22 14 25 29.5t-2 23.5t-17 20l-6 1q-6 0 -15 0.5t-18.5 -1t-18 -7.5t-12.5 -17z" />
<glyph unicode="&#xe6;" horiz-adv-x="1079" d="M57 420q2 70 35 152t82 126q35 30 89.5 50t105.5 20q26 0 53 -6q2 9 -2 26t-4 23q0 4 0.5 31.5t-4.5 31.5q-11 30 -37 33q-16 3 -27 -4.5t-8 -21.5q2 -8 7 -22t7 -21.5t-2 -17.5t-18 -17q-46 -25 -119 -25q-54 1 -83.5 24t-31.5 58t11 73t39.5 73t58.5 55q41 26 100 27 t114 -17.5t103 -53t70 -75.5q39 -74 35 -223v-172q0 -121 -2 -180q-2 -27 -2 -82q0 -30 -4 -88v-11q8 0 24 4q35 6 43 -2t10 -43v-4q1 -21 -3.5 -62t-4.5 -59q0 -12 -6 -18.5t-17 -7t-21 0.5t-24 4t-20 3q-27 0 -43 2q-10 -2 -33 -2q-43 0 -63 2q-8 2 -16 8t-9 13l-2 10 q-7 -2 -24.5 -7.5t-25 -7.5t-25.5 -6.5t-26.5 -4t-27.5 0.5q-80 3 -155 78h2q-64 64 -82.5 143t-16.5 189zM250 346q0 -21 6 -45q8 -34 28 -54t46 -20q31 0 53 25q47 53 47 147q0 43 -16 113q-6 22 -15 30.5t-34 16.5h2q-58 12 -80 -18q-7 -7 -12 -19.5t-7 -23t-4.5 -29 t-3.5 -25.5q0 -1 -1 -4t-1 -4q0 -10 -4 -30q-4 -40 -4 -60zM432 397q0 59 4 117t14 135t31.5 141t53 120.5t82.5 89t116 32.5q291 0 291 -409q0 -21 -2 -64t-2 -65q0 -48 -41 -50h-53q-38 0 -114 4.5t-114 4.5q-28 0 -90 -4q4 0 4 -9q0 -124 31 -190q15 -36 64 -57.5 t88 -12.5q23 4 25.5 11t-11.5 22q-5 5 -18.5 17.5t-19.5 20t-12.5 19.5t-4.5 24.5t12 27.5q46 66 168 49q90 -14 65 -150q-15 -101 -95.5 -165t-182.5 -64q-80 0 -139 36t-90.5 97.5t-45.5 129t-14 142.5zM641 637h25q20 0 57 -1t57 -1q48 0 68 4v14q0 42 -12.5 87t-36.5 71 v-2q-25 25 -41 25q-33 0 -57.5 -20t-36.5 -52t-17.5 -63t-5.5 -62z" />
<glyph unicode="&#xe7;" horiz-adv-x="667" d="M57 454q-1 33 0 62v31q0 226 72 366q46 95 121 134q45 24 96.5 24t99.5 -14q52 -14 95 -44t57 -73q15 -37 6.5 -88t-39.5 -76q-22 -18 -46 -29.5t-52.5 -15t-48.5 13.5q-13 10 -28 54t-36 49q-6 2 -16 2q-10 -1 -18.5 -6t-15 -15t-11.5 -18t-9.5 -22.5t-7 -21.5t-6 -22.5 t-4.5 -17.5q-37 -151 -37 -295q0 -120 43 -180q39 -54 84 -39q18 7 28 23.5t17 42t13 36.5q2 3 6 9.5t5.5 8.5t5 6.5t6 5.5t7 3.5t9.5 3.5t12 2q27 2 65 -6q91 -21 80 -141q-10 -85 -90.5 -138t-171.5 -53q-72 0 -137 35q-28 16 -51 38.5t-38.5 48t-27.5 56t-18.5 62 t-11 65.5t-5.5 67zM156 -150q0 25 15 40.5t40 15.5q13 0 27.5 -0.5t20 -1t14.5 1t18.5 5t25.5 11.5q-24 7 -39.5 17.5t-26 29.5t-15 32t-13.5 44q74 17 114.5 16t111.5 0q0 -24 3 -35.5t7 -16t18.5 -15.5t26.5 -23q15 -14 27 -41t12 -49q0 -27 -21 -59l2 2 q-22 -34 -58.5 -59.5t-74.5 -34.5h2q-87 -31 -147 -31q-39 0 -52 14.5t-18 55.5q-1 13 -10.5 40t-9.5 41z" />
<glyph unicode="&#xe8;" horiz-adv-x="702" d="M55 397q0 59 4 117t14 135t31.5 141t53 120.5t82.5 89t116 32.5q291 0 291 -409q0 -21 -2 -64t-2 -65q0 -48 -41 -50h-53q-38 0 -113.5 4.5t-113.5 4.5q-29 0 -91 -4q5 0 5 -9q0 -126 30 -190q15 -36 64 -57.5t88 -12.5q23 4 25.5 11t-11.5 22q-5 5 -18.5 17.5t-19.5 20 t-12.5 19.5t-4.5 24.5t12 27.5q46 66 168 49q91 -14 66 -150q-15 -101 -96 -165t-183 -64q-80 0 -139 36t-90.5 97.5t-45.5 129t-14 142.5zM229 1313q0 24 26 40.5t53.5 21.5t51.5 5q21 0 35 -10.5t21 -31.5t9.5 -36.5t4.5 -39.5q1 -9 4.5 -35t3.5 -43q0 -15 -2 -23v2 q-11 -49 -55 -49q-22 0 -40.5 15t-28 31.5t-23 44.5t-19.5 38l2 -2l-10 14v-2q-2 2 -8.5 10.5t-9.5 12.5t-7 11t-6 13t-2 13zM264 637h25q19 0 57 -1t57 -1q48 0 68 4v14q0 42 -12.5 87t-36.5 71v-2q-25 25 -41 25q-33 0 -57.5 -20t-36.5 -52t-17.5 -63t-5.5 -62z" />
<glyph unicode="&#xe9;" horiz-adv-x="702" d="M55 397q0 59 4 117t14 135t31.5 141t53 120.5t82.5 89t116 32.5q291 0 291 -409q0 -21 -2 -64t-2 -65q0 -48 -41 -50h-53q-38 0 -113.5 4.5t-113.5 4.5q-29 0 -91 -4q5 0 5 -9q0 -126 30 -190q15 -36 64 -57.5t88 -12.5q23 4 25.5 11t-11.5 22q-5 5 -18.5 17.5t-19.5 20 t-12.5 19.5t-4.5 24.5t12 27.5q46 66 168 49q91 -14 66 -150q-15 -101 -96 -165t-183 -64q-80 0 -139 36t-90.5 97.5t-45.5 129t-14 142.5zM264 637h25q19 0 57 -1t57 -1q48 0 68 4v14q0 42 -12.5 87t-36.5 71v-2q-25 25 -41 25q-33 0 -57.5 -20t-36.5 -52t-17.5 -63 t-5.5 -62zM293 1165v9q0 37 26.5 120.5t47.5 112.5q54 4 77 4h9.5h13t14 -0.5t14.5 -1.5t11.5 -3.5t8.5 -6.5t3 -10q0 -26 -42.5 -138.5t-55.5 -115.5h-19q-59 0 -108 30z" />
<glyph unicode="&#xea;" horiz-adv-x="731" d="M55 397q0 59 4 117t14 135t31.5 141t53 120.5t82.5 89t116 32.5q291 0 291 -409q0 -21 -2 -64t-2 -65q0 -48 -41 -50h-53q-38 0 -113.5 4.5t-113.5 4.5q-29 0 -91 -4q5 0 5 -9q0 -126 30 -190q15 -36 64 -57.5t88 -12.5q23 4 25.5 11t-11.5 22q-5 5 -18.5 17.5t-19.5 20 t-12.5 19.5t-4.5 24.5t12 27.5q46 66 168 49q91 -14 66 -150q-15 -101 -96 -165t-183 -64q-80 0 -139 36t-90.5 97.5t-45.5 129t-14 142.5zM96 1206q0 29 91 115.5t135 116.5q39 28 61 28q20 0 37 -20q89 -98 217 -189l-2 3q41 -25 41 -58q0 -19 -53 -67t-76 -48 q-16 0 -29 13l2 -2q-11 8 -45 38.5t-62.5 56.5t-29.5 26q-132 -111 -145 -120q-18 -12 -31 -12q-5 0 -11.5 3.5t-14.5 10t-15 13t-15.5 16t-14 15t-13 14.5t-8.5 10h2q-2 3 -6.5 9t-7 10t-5 9t-2.5 9zM264 637h25q19 0 57 -1t57 -1q48 0 68 4v14q0 42 -12.5 87t-36.5 71v-2 q-25 25 -41 25q-33 0 -57.5 -20t-36.5 -52t-17.5 -63t-5.5 -62z" />
<glyph unicode="&#xeb;" horiz-adv-x="702" d="M55 397q0 59 4 117t14 135t31.5 141t53 120.5t82.5 89t116 32.5q291 0 291 -409q0 -21 -2 -64t-2 -65q0 -48 -41 -50h-53q-38 0 -113.5 4.5t-113.5 4.5q-29 0 -91 -4q5 0 5 -9q0 -126 30 -190q15 -36 64 -57.5t88 -12.5q23 4 25.5 11t-11.5 22q-5 5 -18.5 17.5t-19.5 20 t-12.5 19.5t-4.5 24.5t12 27.5q46 66 168 49q91 -14 66 -150q-15 -101 -96 -165t-183 -64q-80 0 -139 36t-90.5 97.5t-45.5 129t-14 142.5zM147 1255q0 31 20.5 62t49.5 41h-2q12 6 27 6q31 0 55.5 -22t24.5 -52q0 -46 -28.5 -75t-74.5 -29q-33 0 -52.5 18.5t-19.5 50.5z M264 637h25q19 0 57 -1t57 -1q48 0 68 4v14q0 42 -12.5 87t-36.5 71v-2q-25 25 -41 25q-33 0 -57.5 -20t-36.5 -52t-17.5 -63t-5.5 -62zM362 1272q0 37 28.5 62.5t66.5 25.5q35 0 62.5 -29t27.5 -63q0 -36 -27.5 -57t-64.5 -21q-38 0 -65.5 22.5t-27.5 59.5z" />
<glyph unicode="&#xec;" horiz-adv-x="483" d="M57 79.5q1 53.5 0 65.5q-3 41 56 48q0 18 -1 57t-1 59q0 82 3 246t3 246q0 87 -6 176q-17 0 -27 2q-12 1 -19 10t-8 25t0 30t3.5 32.5t2.5 23.5q0 39 13 52.5t51 10.5q77 -9 156 -12q3 0 17.5 1t24.5 0.5t22.5 -2.5t19.5 -8t8 -16q1 -23 0 -67t0 -66q1 -16 -6.5 -23.5 t-17 -8.5t-25.5 0l-9 -136q0 -39 -1 -115.5t-1 -115.5q0 -66 2 -198t2 -197q0 -9 3 -21q63 8 88 -2q6 -2 10 -12.5t5.5 -27.5t1.5 -31t-0.5 -32t-0.5 -20v2v-2q1 -16 -10.5 -25t-24.5 -11.5t-34 -4.5t-29 -4q-18 -7 -79.5 -5t-78.5 1q-5 0 -36 -7t-49 -4t-22 21 q-7 12 -6 65.5zM63 1432q0 24 26 40.5t54 21.5t52 5q17 0 29.5 -8.5t19 -19t11.5 -30t6 -30.5t3 -31q1 -9 4.5 -34.5t3.5 -42.5q0 -15 -2 -23v2q-11 -49 -55 -49q-22 0 -40.5 15t-28 31.5t-23 44.5t-19.5 38l2 -2l-10 14v-2q-2 2 -8.5 10.5t-9.5 12.5t-7 11t-6 13t-2 13z M426 59z" />
<glyph unicode="&#xed;" horiz-adv-x="483" d="M57 79.5q1 53.5 0 65.5q-3 41 56 48q0 18 -1 57t-1 59q0 82 3 246t3 246q0 87 -6 176q-17 0 -27 2q-12 1 -19 10t-8 25t0 30t3.5 32.5t2.5 23.5q0 39 13 52.5t51 10.5q77 -9 156 -12q3 0 17.5 1t24.5 0.5t22.5 -2.5t19.5 -8t8 -16q1 -23 0 -67t0 -66q1 -16 -6.5 -23.5 t-17 -8.5t-25.5 0l-9 -136q0 -39 -1 -115.5t-1 -115.5q0 -66 2 -198t2 -197q0 -9 3 -21q63 8 88 -2q6 -2 10 -12.5t5.5 -27.5t1.5 -31t-0.5 -32t-0.5 -20v2v-2q1 -16 -10.5 -25t-24.5 -11.5t-34 -4.5t-29 -4q-18 -7 -79.5 -5t-78.5 1q-5 0 -36 -7t-49 -4t-22 21 q-7 12 -6 65.5zM156 1311v8q0 37 26 120.5t47 112.5q54 4 78 4h9.5h13t14 -0.5t14.5 -1.5t11.5 -3.5t8.5 -6.5t3 -10q0 -26 -42.5 -138.5t-55.5 -115.5h-19q-57 0 -108 31zM426 59z" />
<glyph unicode="&#xee;" horiz-adv-x="690" d="M55 1331q0 29 91 115.5t135 116.5q39 28 61 28q20 0 37 -20q89 -98 217 -189l-2 2q41 -25 41 -57q0 -19 -53 -67t-76 -48q-16 0 -29 13l2 -2q-11 8 -45 38t-62.5 56t-29.5 26q-131 -111 -148 -121q-16 -10 -28 -10q-5 0 -11.5 3.5t-14.5 10t-15 13t-15.5 16t-14 15 t-13 14.5t-8.5 10h2q-2 3 -6.5 9t-7 10t-5 9t-2.5 9zM166 79.5q1 53.5 0 65.5q-3 41 55 48q0 18 -1 57t-1 59q0 82 3 246t3 246q0 87 -6 176q-16 0 -26 2q-12 1 -19 10t-8 25t0 30t3.5 32.5t2.5 23.5q0 39 13 52.5t51 10.5q77 -9 155 -12q3 0 17.5 1t24.5 0.5t22.5 -2.5 t19.5 -8t8 -16q1 -22 0 -66.5t0 -66.5q1 -16 -6.5 -23.5t-17 -8.5t-25.5 0l-8 -136q0 -39 -1 -115.5t-1 -115.5q0 -66 2 -198t2 -197q0 -13 2 -21q63 8 88 -2q6 -2 10.5 -12t5.5 -28t1.5 -31t0 -32t-0.5 -20v2v-2q1 -16 -10.5 -25t-25 -11.5t-34.5 -4.5t-29 -4 q-18 -7 -79 -5t-78 1q-5 0 -36 -7t-49 -4t-22 21q-7 12 -6 65.5zM535 59z" />
<glyph unicode="&#xef;" horiz-adv-x="507" d="M35 1378q0 31 20 62t49 41h-2q12 6 27 6q31 0 55.5 -22t24.5 -52q0 -46 -28.5 -75t-74.5 -29q-32 0 -51.5 18.5t-19.5 50.5zM80 79.5q1 53.5 0 65.5q-3 41 55 48q0 18 -1 57t-1 59q0 82 3 246t3 246q0 87 -6 176q-17 0 -27 2q-12 1 -18.5 10t-7.5 25t0 30t3.5 32.5 t2.5 23.5q0 39 13 52.5t51 10.5q77 -9 155 -12q3 0 17.5 1t24.5 0.5t22.5 -2.5t19.5 -8t8 -16q1 -23 0 -67t0 -66q1 -16 -6.5 -23.5t-17 -8.5t-25.5 0l-8 -136q0 -39 -1 -115.5t-1 -115.5q0 -66 2 -198t2 -197q0 -13 2 -21q63 8 88 -2q6 -2 10.5 -12t5.5 -28t1.5 -31t0 -32 t-0.5 -20v2v-2q1 -16 -10.5 -25t-25 -11.5t-34.5 -4.5t-29 -4q-18 -7 -79 -5t-78 1q-5 0 -36 -7t-49 -4t-22 21q-7 12 -6 65.5zM250 1395q0 37 28 62.5t66 25.5q35 0 62.5 -29t27.5 -63q0 -36 -27.5 -57t-64.5 -21q-38 0 -65 22.5t-27 59.5zM449 59z" />
<glyph unicode="&#xf0;" horiz-adv-x="843" d="M59 1139q4 72 39 123q37 61 123 98q49 22 103 22q56 9 73 9q84 0 154 -42.5t100 -117.5q36 -92 53 -311t17 -392q0 -235 -35 -317q-38 -85 -125.5 -148t-177.5 -63q-34 0 -61 8q-38 9 -69 29t-52 42t-37.5 57t-25.5 63t-16.5 71.5t-10.5 70.5t-7 71q-1 15 -7.5 84 t-6.5 106q0 51 8 101.5t27.5 100.5t48.5 88t75 61.5t103 23.5q59 0 154 -31q-1 6 -3 28.5t-3.5 36t-5 37.5t-7.5 40t-10.5 36.5t-15.5 34t-20.5 26.5t-26.5 19t-33 6q-4 0 -12 -1t-11 -1v-4q-21 -13 -39 -35q-2 -8 3 -57q15 -56 -48 -104q-26 -20 -70 -30t-86.5 0t-54.5 44 q-14 38 -4 117zM295 625q0 -23 4 -33q-9 -29 5.5 -183t31.5 -176q6 -8 20.5 -15t24.5 -7q27 0 53 17.5t43 41.5v-2q53 78 53 219q0 38 -3.5 74.5t-14.5 84t-37 77t-65 29.5q-45 0 -91 -37q-24 -50 -24 -90zM367 1096q-3 7 6 20q48 48 57 58q5 5 52 55.5t89 93.5t54 49l-2 -2 l4 2q10 8 22 7t30 -10.5t32.5 -19.5t29.5 -20.5t21 -13.5q40 -20 18 -37q-1 -2 -8.5 -10t-9.5 -13q-7 0 -97 -85.5t-110 -110.5q-7 -5 -31 -35q-22 -11 -22 -12l-2 -4q-5 -3 -8 -4t-6 0t-5 2.5t-7 5t-9 6.5l-80 61q-15 10 -18 17z" />
<glyph unicode="&#xf1;" horiz-adv-x="874" d="M55 917q1 18 1 36q1 5 1 8q0 4 -1 18.5t-0.5 24t2 22t7.5 21t15 12.5q33 11 194 11q54 0 52 -3q8 -5 9 -41t3 -41q124 37 180 37q73 0 115 -37q127 -115 127 -663q0 -48 -4 -138q59 -4 61 -18q1 -13 -1.5 -37.5t-2.5 -34.5q0 -51 -2 -78q-4 -30 -109 -22q-22 1 -64.5 5 t-62.5 5q-58 4 -74 17q-13 10 -12 28q0 9 -1 61t4 58q7 27 61 10q4 122 4 184v39v52.5t-0.5 55t-2 63t-4 59.5t-7 60.5t-10 50.5t-13.5 46t-18 31q-21 6 -45 6q-29 0 -49.5 -13.5t-30 -30.5t-15 -48t-6 -48.5t-0.5 -49.5v-10q0 -21 -1 -62t-1 -61q0 -49 5.5 -147t5.5 -146 v-16q39 0 55 -9q13 -7 16 -34.5t0.5 -63t-2.5 -41.5q1 -16 -7 -24t-18 -8.5t-28.5 0.5t-26.5 1l-22 -1q-21 -1 -48.5 -2t-61.5 -1t-62 1.5t-48 5.5t-22 10q-3 10 0.5 37t1.5 38v60q-2 18 9 22t32.5 0.5t28.5 -2.5h4q-10 390 -10 467q0 34 1 72.5t2.5 86t2.5 73.5 q-53 0 -76 -4q-16 -3 -24 9.5t-7 30.5zM123 1212q0 47 59 87t109 40q54 0 130 -38.5t101 -38.5q26 0 55.5 28.5t47.5 28.5q24 0 56 -47.5t32 -73.5q0 -42 -63.5 -77.5t-110.5 -35.5q-44 0 -93 17q-95 52 -100 55l2 -2q-20 10 -35 10q-24 0 -40.5 -7.5t-23 -16t-18 -16 t-26.5 -7.5q-28 0 -55 33t-27 61z" />
<glyph unicode="&#xf2;" horiz-adv-x="686" d="M55 432q0 54 1.5 96.5t8 106.5t18 113t34 102t53 88t77.5 57.5t105 22.5q64 0 113 -21t79.5 -55.5t49.5 -83.5t26 -99.5t7 -109.5q0 -31 -3 -94t-3 -94t5 -91t5 -91q0 -106 -44.5 -172.5t-142.5 -98.5q-46 -16 -88 -16q-37 0 -80 16q-51 18 -88.5 42.5t-61 57t-38.5 65 t-22 78.5t-9 84.5t-2 96.5zM219 1280q0 19 14.5 33t36.5 21t42.5 10.5t37.5 3.5q21 0 35 -11t21 -32t9.5 -36.5t4.5 -39.5q1 -9 4.5 -35t3.5 -43q0 -15 -2 -23v2q-11 -49 -55 -49q-22 0 -40.5 15t-28 31.5t-23 44.5t-19.5 38l2 -2l-10 15v-2q-2 3 -8.5 10.5t-9.5 12t-7 11 t-6 12.5t-2 13zM229 461q0 -30 2 -60t9.5 -72.5t20.5 -74t37 -54t56 -22.5q25 0 41.5 15.5t24 41.5t10 48t2.5 45q0 66 -3 196t-3 195q0 20 -1 31t-4.5 27t-13.5 26t-26 14q-6 2 -23 2q-30 0 -53 -20t-36 -55.5t-22 -71.5t-12.5 -82t-4.5 -72.5t-1 -56.5z" />
<glyph unicode="&#xf3;" horiz-adv-x="696" d="M55 621q0 165 72 272q42 61 107 101t135 40q72 0 116 -33q39 -34 68 -75.5t45.5 -90t26 -92t12.5 -102t3 -97t-1.5 -100.5t-1.5 -90q0 -143 -55 -227q-35 -54 -99.5 -90t-128.5 -37q-46 -1 -83 11.5t-65.5 39.5t-46 49.5t-40.5 59.5q-32 55 -48 197t-16 264zM236 543 q0 -78 20 -234v2q22 -110 96 -110q34 0 58.5 20t36.5 52.5t17 63.5t5 62q0 180 -10 259q-24 189 -101 190q-37 0 -63.5 -36t-38 -90.5t-16 -98t-4.5 -80.5zM297 1178v8q0 37 26.5 120.5t47.5 112.5q54 4 78 4h9.5h13t13.5 -0.5t14 -1.5t11.5 -3.5t8.5 -6.5t3 -10 q0 -26 -42.5 -138.5t-55.5 -115.5h-18q-58 0 -109 31z" />
<glyph unicode="&#xf4;" horiz-adv-x="735" d="M55 506q0 61 6.5 122.5t26 131.5t50 123t83 88t119.5 35q54 0 90 -15h-2q252 -96 252 -575q0 -50 -10 -86l2 2q-5 -14 -11.5 -43t-11.5 -43q-5 -12 -16.5 -43.5t-17.5 -45.5t-19 -39t-25 -39.5t-31 -30t-42 -25.5h2q-2 -1 -19.5 -9t-23 -8.5t-19.5 0.5q-18 -6 -43 -6 q-37 0 -53 8l-51 6h2q-5 1 -45 21q-84 42 -125 103t-53 157q-15 131 -15 211zM96 1206q0 29 91 115.5t135 116.5q39 28 61 28q20 0 37 -20q89 -98 217 -189l-2 3q41 -25 41 -58q0 -19 -53 -67t-76 -48q-16 0 -29 13l2 -2q-11 8 -45 38.5t-62.5 56.5t-29.5 26 q-132 -111 -145 -120q-18 -12 -31 -12q-5 0 -11.5 3.5t-14.5 10t-15 13t-15.5 16t-14 15t-13 14.5t-8.5 10h2q-2 3 -6.5 9t-7 10t-5 9t-2.5 9zM238 510q0 -21 2 -29q3 -18 6 -86t14 -117.5t37 -72.5q13 -11 38 -18t44 -7q72 0 72 154v17v11v130q0 133 -17 200q-1 8 -6 43 q-2 10 -7 25t-7 22q-10 21 -20 29t-32 8q-30 0 -55.5 -38t-39.5 -91t-21.5 -101.5t-7.5 -78.5z" />
<glyph unicode="&#xf5;" horiz-adv-x="753" d="M55 580q0 56 7 109t23 109.5t47.5 103.5t76.5 75q87 55 178 55q80 0 138.5 -38t89 -102t44 -132.5t13.5 -143.5q0 -91 -19 -247q-1 -7 -2 -23q-16 -154 -45 -220q-53 -126 -186 -126q-150 0 -248 66l4 -3q-38 26 -64.5 92.5t-37.5 151.5t-15 149t-4 124zM109 1231 q0 47 59 87t108 40q54 0 130.5 -39t101.5 -39q26 0 55 28.5t47 28.5q24 0 56 -47t32 -73q0 -42 -63.5 -77.5t-110.5 -35.5q-46 0 -92 16q-85 47 -100 56l2 -2q-20 10 -35 10q-31 0 -48 -12t-29.5 -23.5t-31.5 -11.5q-28 0 -54.5 33t-26.5 61zM229 487q0 -35 0.5 -54.5 t3.5 -52.5t8 -53t16 -46t26.5 -42t39 -30.5t54.5 -20.5h10q59 0 72 88q33 233 33 336q0 222 -113 226l-10 -4q-34 -2 -62.5 -45.5t-44.5 -102.5t-24.5 -112.5t-8.5 -86.5z" />
<glyph unicode="&#xf6;" horiz-adv-x="686" d="M55 432q0 54 1.5 96.5t8 106.5t18 113t34 102t53 88t77.5 57.5t105 22.5q64 0 113 -21t79.5 -55.5t49.5 -83.5t26 -99.5t7 -109.5q0 -31 -3 -94t-3 -94t5 -91t5 -91q0 -106 -44.5 -172.5t-142.5 -98.5q-46 -16 -88 -16q-37 0 -80 16q-51 18 -88.5 42.5t-61 57t-38.5 65 t-22 78.5t-9 84.5t-2 96.5zM160 1255q0 31 20 62t49 41h-2q12 6 27 6q31 0 55.5 -22t24.5 -52q0 -46 -28.5 -75t-74.5 -29q-32 0 -51.5 18.5t-19.5 50.5zM229 461q0 -30 2 -60t9.5 -72.5t20.5 -74t37 -54t56 -22.5q25 0 41.5 15.5t24 41.5t10 48t2.5 45q0 66 -3 196t-3 195 q0 20 -1 31t-4.5 27t-13.5 26t-26 14q-6 2 -23 2q-30 0 -53 -20t-36 -55.5t-22 -71.5t-12.5 -82t-4.5 -72.5t-1 -56.5zM375 1272q0 37 28 62.5t66 25.5q35 0 62.5 -29t27.5 -63q0 -36 -27.5 -57t-64.5 -21q-38 0 -65 22.5t-27 59.5z" />
<glyph unicode="&#xf7;" horiz-adv-x="753" d="M55 590v108q0 54 47 54q19 0 58.5 -2t60.5 -2q8 0 79.5 1.5t137 2t129.5 -1t78 -7.5h-4l4 -2q19 0 30.5 -12t16 -36.5t5.5 -40.5t0 -47.5t-1 -33.5q0 -18 -1.5 -29.5t-11 -21.5t-26.5 -10q-29 0 -43 2q-7 5 -190 14t-244 9q-12 0 -37 -3.5t-32 -3.5t-23 4h6q-23 9 -31 21 t-8 37zM238 934q0 37 29 63t67 33h6q37 0 63.5 -25t26.5 -63q0 -34 -28 -69t-62 -35q-38 0 -70 29.5t-32 66.5zM254 377q0 42 27.5 71t68.5 29q32 0 56 -24h-3q22 -25 25.5 -69t-18 -79t-60.5 -35q-43 0 -69.5 31.5t-26.5 75.5z" />
<glyph unicode="&#xf8;" horiz-adv-x="800" d="M64 589q18 142 75 265q31 68 94 128.5t127 59.5q19 -1 46.5 -4.5t45.5 -6.5l17 -3q62 115 66 127q18 3 37.5 -0.5t44 -11.5t36.5 -10l2 -5q2 -4 4 -4q-3 -32 -17.5 -76t-27.5 -72l-14 -28q-1 -1 19 -23t43 -46.5t26 -28.5q35 -58 43 -111q28 -157 -12 -336q0 -6 -4 -26 q-1 -3 -7.5 -31.5t-8.5 -35t-8.5 -32t-10.5 -35.5t-11 -32t-14 -34t-16 -29.5t-19 -31t-22 -26.5q-54 -51 -111 -74q-59 -23 -139 -6q-33 -118 -49 -149q-10 -4 -92 31t-92 42q6 28 22 78.5t29 87.5l12 37q-41 43 -57 66q-35 50 -47 112q-28 132 -10 274zM211 413.5 q1 -48.5 7 -61.5l5 -14q20 46 66.5 200t70.5 203q4 20 16 53.5t22 56.5l10 23l-13 -2q-1 1 0 3q2 4 -2 4q-23 5 -39 -1t-22 -14t-17 -26q-28 -51 -58.5 -138t-37.5 -143q-9 -95 -8 -143.5zM389 178q9 -4 37 10q43 23 77 60t44 76q25 89 37 174.5t6 126.5q-5 35 -15.5 69.5 t-16.5 51.5l-7 16q-14 -63 -96 -332q-7 -25 -23.5 -78t-27 -94t-15.5 -80z" />
<glyph unicode="&#xf9;" horiz-adv-x="952" d="M57 1035.5q0 14.5 8.5 22t24.5 5.5q34 -3 148 2q15 1 70.5 7.5t84.5 4.5q41 -6 52.5 -23t13.5 -61q0 -3 1 -19.5t0.5 -27.5t-2.5 -25t-8 -21.5t-16 -8.5q-13 -1 -67 -6q-3 -51 -17 -225t-14 -269q0 -72 28.5 -126t94.5 -54q35 0 65 20q82 52 82 496q0 45 -4 147 q-22 0 -38.5 2.5t-31.5 13.5t-14 30q1 10 -3 59t3 59q3 12 17 17.5t26.5 5.5t31.5 -2t23 -2t41 1t71.5 1.5t74 -1t64.5 -8t26 -16.5q1 -13 -1.5 -37.5t-2.5 -31.5q-1 -9 -1.5 -36.5t-2.5 -41.5q-2 -27 -78 -27q-2 -89 -13.5 -296t-11.5 -318v-35q35 0 62 8q4 0 14.5 4.5 t15 2t7.5 -14.5q12 -74 12 -76v-4v4q0 -4 1 -19t1.5 -27.5t-0.5 -27t-5.5 -23.5t-12.5 -11q-28 -7 -98.5 -14.5t-110.5 -4.5q-17 0 -41 -4q-13 -1 -20 8.5t-9 24.5q-4 6 -10 12q-53 -29 -99 -29q-82 0 -145 24.5t-102 65t-63.5 100t-34 123t-9.5 140.5q0 75 8 214.5t9 186.5 h-5h-21.5t-30.5 2.5t-19 8.5q-5 5 -6 17.5t0 27.5t0 20q-1 7 -5 25t-6 32t-2 28.5zM344 1380q0 19 14.5 33t36.5 21t42.5 10.5t37.5 3.5q21 0 35 -11t21 -32t9.5 -36.5t4.5 -39.5q1 -9 4.5 -35t3.5 -43q0 -14 -2 -22v2q-11 -49 -55 -49q-22 0 -40.5 15t-28 31.5t-23 44.5 t-19.5 38l2 -2l-10 14v-2q-2 3 -8.5 10.5t-9.5 12t-7 11t-6 12.5t-2 13z" />
<glyph unicode="&#xfa;" horiz-adv-x="952" d="M56.5 1045q1.5 13 15.5 16q41 9 108 -2q16 4 31 4q6 0 26 0.5t33 0.5t31 -2t31 -5q6 0 22 2t26 2.5t22.5 -0.5t19.5 -6.5t8 -14.5q10 -128 -16 -141q-4 -2 -25.5 -1.5t-30.5 -0.5h-2q-4 -34 -4 -164v-42v-51.5t0.5 -51.5t1.5 -57.5t2.5 -54.5t4 -57t6 -50t9 -48.5 t11.5 -39.5q22 -68 80 -68q11 0 31 4q20 5 41 52t28 79q28 143 23 561q-48 0 -53 19q-3 12 0.5 39t1.5 39q-1 10 0 29.5t0 29.5q-1 14 6.5 19t17.5 4t24 -3.5t21 -1.5q53 7 135 11q2 0 22 1.5t28.5 1.5h24.5t27.5 -2.5t20.5 -7.5q12 -7 15.5 -34t2.5 -64t-1 -41l-2 8 q0 -2 2 -8q1 -28 -23 -32t-49 2v-78v-207q0 -57 1 -122t2.5 -145t2.5 -124q75 4 78 -15q2 -22 -0.5 -66t-1.5 -61q0 -7 0.5 -19.5t0.5 -19t-1.5 -15t-5.5 -13t-12.5 -7.5t-20.5 -3q-8 0 -53 -5q0 -1 -1 -2t-1 -2q-16 -7 -142 -12h-4q-12 -3 -18 0h-14q-22 13 -31 27 q-62 -23 -131 -23t-123.5 26t-90 72t-60 101t-37.5 121.5t-18 124t-5 118.5q0 58 3.5 168.5t4.5 145.5q-34 -5 -45 6q-4 5 -5.5 20t-0.5 28t0 24q-1 3 -3.5 18t-6 26t-9.5 17q-8 10 -6.5 23zM395 1237v8q0 37 26.5 121t47.5 113q54 4 78 4h9.5h13t13.5 -0.5t14.5 -2t11.5 -4 t9 -6.5t3 -10q0 -26 -43 -138.5t-56 -115.5h-18q-58 0 -109 31z" />
<glyph unicode="&#xfb;" horiz-adv-x="944" d="M56.5 1036.5q1.5 33.5 13.5 42.5q6 6 29 11.5t24 5.5q15 2 23 1.5t25.5 -3.5t23.5 -4q112 -5 149 0q4 0 12 2.5t12.5 3t9 -2.5t5.5 -12q8 -46 8 -69v-4v4q9 -93 -22 -97q-24 -4 -43 -4q-2 -61 -12.5 -212.5t-10.5 -233.5v-86q0 -141 121 -141q31 0 76 18l-2 -2 q55 32 55 254q0 67 -4 203q-4 134 -10 204q-51 -8 -54 21q-10 128 13 141q4 2 15 2t24 -1t16 -1q13 1 39.5 4t40.5 4q92 9 129 9q1 0 18 1.5t27.5 -0.5t15.5 -8q8 -7 9 -37t2 -32q6 -55 14 -66q9 -9 7.5 -21.5t-15.5 -15.5q-25 -4 -72 -4q-4 -262 -4 -397q0 -56 11 -179.5 t13 -166.5h3q18 2 53 2q2 0 17.5 1.5t21 -4t4.5 -24.5q0 -91 -15 -120q-6 -6 -12.5 -5t-16.5 5t-12 4q-17 0 -49 -4q-4 -1 -6 -3q-39 -14 -117 -10q-20 -7 -40 -4t-19 25v10l-6 12q-15 -11 -26 -18.5t-24 -12t-19.5 -6t-25.5 -5t-30 -5.5h4q-27 -6 -55 -6q-74 0 -137.5 34 t-106.5 95v-2q-12 17 -19.5 35t-15 42.5t-12.5 37.5l2 -2q-27 71 -27 483q0 29 -1 91.5t-1 94.5h-8q-14 -1 -21 9t-8 21.5t-1 28t-1 21.5q-6 14 -4.5 47.5zM168 1298q0 29 91 116t134 116q41 29 62 29q19 0 37 -21q86 -96 217 -188l-2 2q41 -25 41 -58q0 -19 -53.5 -66.5 t-76.5 -47.5q-16 0 -28 12l2 -2q-11 8 -45 38.5t-62.5 56.5t-29.5 26q-131 -111 -148 -121q-16 -10 -28 -10q-20 0 -93 82h2q-2 3 -6.5 9t-7 9.5t-4.5 8.5t-2 9z" />
<glyph unicode="&#xfc;" horiz-adv-x="952" d="M57 1035.5q0 14.5 8.5 22t24.5 5.5q34 -3 148 2q15 1 70.5 7.5t84.5 4.5q41 -6 52.5 -23t13.5 -61q0 -3 1 -19.5t0.5 -27.5t-2.5 -25t-8 -21.5t-16 -8.5q-13 -1 -67 -6q-3 -51 -17 -225t-14 -269q0 -72 28.5 -126t94.5 -54q35 0 65 20q82 52 82 496q0 45 -4 147 q-22 0 -38.5 2.5t-31.5 13.5t-14 30q1 10 -3 59t3 59q3 12 17 17.5t26.5 5.5t31.5 -2t23 -2t41 1t71.5 1.5t74 -1t64.5 -8t26 -16.5q1 -13 -1.5 -37.5t-2.5 -31.5q-1 -9 -1.5 -36.5t-2.5 -41.5q-2 -27 -78 -27q-2 -89 -13.5 -296t-11.5 -318v-35q35 0 62 8q4 0 14.5 4.5 t15 2t7.5 -14.5q12 -74 12 -76v-4v4q0 -4 1 -19t1.5 -27.5t-0.5 -27t-5.5 -23.5t-12.5 -11q-28 -7 -98.5 -14.5t-110.5 -4.5q-17 0 -41 -4q-13 -1 -20 8.5t-9 24.5q-4 6 -10 12q-53 -29 -99 -29q-82 0 -145 24.5t-102 65t-63.5 100t-34 123t-9.5 140.5q0 75 8 214.5t9 186.5 h-5h-21.5t-30.5 2.5t-19 8.5q-5 5 -6 17.5t0 27.5t0 20q-1 7 -5 25t-6 32t-2 28.5zM268 1311q0 31 20.5 61.5t49.5 40.5h-2q12 6 26 6q31 0 55.5 -21.5t24.5 -51.5q0 -46 -28.5 -75.5t-73.5 -29.5q-32 0 -52 19t-20 51zM483 1327q0 37 28.5 62.5t66.5 25.5q35 0 62.5 -29 t27.5 -63q0 -36 -28 -57t-65 -21q-38 0 -65 22.5t-27 59.5z" />
<glyph unicode="&#xfd;" horiz-adv-x="854" d="M57 1038q-4 29 3 51.5t30 18.5q19 -3 40.5 -3.5t51.5 0.5t41 1q43 0 66 4q4 1 16.5 4.5t18.5 4t16 -2.5q7 -6 9 -28.5t1 -51.5t0 -35v5v-5q3 -40 -47 -47q-4 -74 -4 -108q0 -119 16 -347t43 -241q8 -4 50 -4q33 0 53.5 24t28 59t9 83t-1.5 88t-6.5 83.5t-3.5 59.5 q0 29 1 86t1 86v113q-2 0 -6 -1t-6 -1q-29 -6 -35 26.5t0 55.5v25.5t0.5 31.5t7 24.5t19.5 16.5q27 4 40.5 3.5t43 -6.5t41.5 -7q78 -4 115 0q33 7 45.5 -4.5t15.5 -46.5q7 -98 -8 -117q-5 -8 -14.5 -8.5t-22 3t-16.5 3.5h-11q-4 -86 -4 -131q0 -69 2 -205t2 -203 q0 -111 4 -166q5 -73 5 -86q0 -15 -5 -77q-11 -93 -32 -148q-10 -25 -38.5 -61t-35.5 -47q-41 -58 -104 -76q-74 -27 -107 -17q-10 3 -32 8t-38 10t-30 13q-22 11 -37 21q-18 14 -23 20q-27 30 -35 64.5t9 68.5q19 30 37.5 42t50.5 9q13 -2 26 -8.5t20.5 -12t21.5 -17.5 t20 -17q36 -31 82 6l7 8q8 8 10 10.5t7.5 10.5t8 12.5t4.5 10.5t2 12q0 9 -11 12q-9 2 -28 -2t-25 -4q-102 -1 -183 61.5t-118 161.5q-8 19 -16 53q-15 68 -15 410q-1 42 -3 124t-3 124q-14 -3 -22 0q-15 6 -15 110zM344 1212v9q0 37 26.5 120.5t47.5 112.5q54 4 78 4h9.5 h13t13.5 -0.5t14 -1.5t11.5 -3.5t8.5 -6.5t3 -10q0 -26 -42.5 -138.5t-55.5 -115.5h-18q-59 0 -109 30z" />
<glyph unicode="&#xfe;" horiz-adv-x="774" d="M57 1323q3 18 18 22.5t41 0t29 -4.5q18 -2 54 2h6h8q17 3 35 0h26q11 0 17 -2q31 0 43 -14q4 -8 4 -12v-275q7 1 44 7t58 6q64 0 114.5 -30t80.5 -76t49.5 -107t27 -117.5t7.5 -112.5q0 -34 -4 -104q-2 -29 -2.5 -87t-3 -89t-10 -76t-26 -83t-48.5 -75q-41 -53 -98 -84.5 t-121 -31.5q-30 0 -80 16h-4v2q-3 -109 -9 -221q3 0 7.5 1t7.5 1q10 2 16 0t8 -8t2.5 -11t0 -16.5t-0.5 -15.5v4v-4q0 -8 8 -50.5t3.5 -69t-31.5 -24.5q-29 2 -80.5 -2t-82.5 -5t-79 7q-10 1 -16 20.5t-9.5 49t-3.5 31.5q-5 26 -2 63q9 1 28 2t28 2q-11 135 -11 293 q0 77 6.5 230.5t6.5 230.5q0 491 18 641h-8q-6 0 -19 -1.5t-19.5 -1t-14 3.5t-11 13t-2.5 27q2 21 -3.5 66.5t-2.5 68.5zM315 302.5q0 -6.5 1 -20t3.5 -23.5t6.5 -19q50 -54 94 -54q12 0 29 7q23 23 38.5 60t23 67t11.5 83t4 73.5v72.5v33.5v34t-0.5 30.5t-2 33t-4 29 t-7 31.5t-10 28t-13.5 31t-18 29.5q-17 27 -43 27q-22 0 -47 -14q-6 -3 -11 -7.5t-9 -8.5t-8 -11t-6 -11t-4.5 -12.5t-3.5 -11.5t-3 -13l-2.5 -12.5t-2 -13.5t-1.5 -12q-15 -117 -15 -381v-21.5v-24z" />
<glyph unicode="&#xff;" horiz-adv-x="854" d="M56.5 1029q0.5 24 6.5 34q5 9 24 9t43 -4.5t28 -4.5q18 2 60.5 1.5t60.5 2.5q10 2 61 2q2 0 19 1.5t24 -4t6 -24.5q0 -93 -16 -122q-3 -4 -9 -4.5t-11 1.5t-13 5t-10 4q-1 -52 -4.5 -213t-3.5 -248v-9v-41.5t2.5 -45.5t6.5 -49.5t12 -44t20 -39t30.5 -25t42.5 -10.5 q46 0 82 65q14 29 14 299q0 63 -3.5 179t-4.5 153q-25 -6 -58 -6t-34 20q-10 131 14 142q4 3 14 3.5t24.5 -0.5t17.5 -1t78 6q57 8 129 8q3 0 19 1.5t27.5 0.5t16.5 -6t7 -20t1 -28t0 -24q0 -4 3.5 -16t6 -25t4.5 -26.5t1 -22.5t-7 -10q-30 -7 -67 -4q8 -96 8 -207v-444 q0 -59 -1 -98t-7 -101.5t-17 -104.5t-33 -91t-52 -78.5t-77.5 -49.5t-107.5 -20q-114 0 -178 84q-1 1 -3 4t-3 4q-26 41 -12 107q16 53 59 61q24 9 49 7.5t43 -21.5q18 -21 29 -41q2 -2 5.5 -7.5t6.5 -9.5t6 -4q21 -10 37 3.5t19 35.5q1 4 1.5 16t2.5 19q4 8 12 23.5 t12 23.5q-42 -18 -98 -18q-69 0 -123 36.5t-86 96.5t-50 122.5t-24 127.5q-2 39 -4 116.5t-4 116.5q-10 210 -10 256v57q-17 -4 -29.5 -4t-22 5.5t-8.5 19.5q0 9 -2.5 41t-2 56zM225 1305q0 31 20.5 61.5t49.5 40.5h-2q12 6 26 6q31 0 55.5 -22t24.5 -52q0 -46 -28 -75 t-74 -29q-32 0 -52 19t-20 51zM440 1321q0 37 28.5 62.5t66.5 25.5q35 0 62.5 -29t27.5 -63q0 -36 -28 -57t-65 -21q-38 0 -65 22.5t-27 59.5z" />
<glyph unicode="&#x152;" horiz-adv-x="1044" d="M41 1040q3 65 13 121t33 113.5t57.5 98t89 66t124.5 25.5q68 0 139.5 -29t123.5 -77q118 -111 118 -389q0 -108 -16 -326q-1 -34 -10 -94.5t-11 -79.5q-1 -14 -2 -59.5t-4.5 -75.5t-11.5 -60q-31 -125 -120 -199.5t-216 -74.5q-90 0 -159.5 54t-103.5 134.5t-34 167.5 q-18 216 -10 684zM227 475q0 -17 15 -115q2 -8 4 -23.5t5 -28t9 -23.5q15 -31 46.5 -49.5t66.5 -18.5q41 0 86 29q33 24 54 135.5t25.5 200t4.5 159.5q0 28 -4 82t-4 80q0 25 1 74t1 74q0 86 -23 133l2 -2q-21 37 -59 60.5t-80 23.5q-47 0 -78 -31h-2q-9 -8 -16 -19.5 t-12.5 -28t-8.5 -26.5t-8 -30t-6 -25v4q-5 -15 -7 -38.5t-2 -41.5t0.5 -46.5t0.5 -37.5q0 -58 -1 -173t-1 -173q0 -20 -4.5 -61.5t-4.5 -63.5zM415.5 1322q-4.5 20 0 56t4.5 39q0 39 12 52t49 10q18 -1 52.5 -4.5t50.5 -4.5q67 -4 199.5 6t195.5 7q15 2 55 -4q6 -1 24.5 -2 t30 -2.5t24 -8.5t15.5 -20q10 -36 -8.5 -116.5t-15.5 -115.5q4 -31 -7.5 -42t-45.5 -13h-7h7q-96 0 -117 17q-6 10 -6 15.5t4.5 18.5t5.5 17v26q-104 -3 -213 -12q0 -68 -11.5 -205t-11.5 -207q0 -12 3 -30q157 18 210 18q16 0 43.5 -3t32.5 -3q8 -22 21.5 -83t13.5 -81 q0 -22 -14 -33q-12 -7 -55.5 -11.5t-85.5 -5.5t-96 -2t-64 -1v-19q0 -29 4.5 -84.5t5.5 -76.5q0 -11 1 -37.5t1.5 -41t3 -36.5t6.5 -41q98 -14 244 -14q0 3 -1 8.5t-1 7.5q-1 7 -4.5 24t-3.5 24t2 17t11.5 14t25.5 5q20 1 64 14t67 11q16 -1 31.5 -53t23 -114.5t3 -115.5 t-23.5 -57q-25 -2 -77 -2q-110 -9 -371 -13q-137 -5 -164 -6q-6 0 -26 -3t-34.5 -4.5t-30.5 1t-24 10.5q-3 5 -5 12.5t-2 13.5t0.5 15.5t0.5 12.5q-12 55 -14 79q-3 31 0 62q30 4 82 8q3 1 8 2t8 2q-4 98 -4 129q0 119 -4 358t-4 357q0 39 1 116.5t1 116.5q-12 1 -37 2 t-37 2q-18 2 -22.5 22z" />
<glyph unicode="&#x153;" horiz-adv-x="1048" d="M25 432q0 54 1.5 96.5t8 106.5t18 113t34 102t53 88t77.5 57.5t105 22.5q274 0 274 -369q0 -31 -3 -94t-3 -94t5 -91t5 -91q0 -107 -44 -173t-142 -98q-46 -16 -88 -16q-37 0 -80 16q-51 18 -88.5 42.5t-61 57t-38.5 65t-22 78.5t-9 84.5t-2 96.5zM199 461q0 -30 2 -60 t9.5 -72.5t20.5 -74t37 -54t56 -22.5q77 0 77 150q0 66 -3 196t-3 195q0 20 -1 31t-4.5 27t-13.5 26t-26 14q-6 2 -22 2q-30 0 -53 -20t-36 -55.5t-22 -71.5t-12.5 -82t-4.5 -72.5t-1 -56.5zM420 397q0 59 4 117t14 135t31.5 141t53 120.5t82.5 89t116 32.5q291 0 291 -409 q0 -21 -2 -64t-2 -65q0 -48 -41 -50h-54q-38 0 -113.5 4.5t-113.5 4.5q-28 0 -90 -4q4 0 4 -9q0 -124 31 -190q15 -36 63.5 -57.5t87.5 -12.5q23 4 26 11t-11 22q-5 5 -18.5 17.5t-19.5 20t-12.5 19.5t-4.5 24.5t12 27.5q46 66 168 49q90 -14 65 -150q-15 -101 -95.5 -165 t-182.5 -64q-80 0 -139 36t-90.5 97.5t-45.5 129t-14 142.5zM629 637h24q19 0 57 -1t58 -1q48 0 68 4v14q0 41 -13 86.5t-37 71.5v-2q-25 25 -41 25q-33 0 -57.5 -20t-36.5 -52t-17 -63t-5 -62z" />
<glyph unicode="&#x178;" horiz-adv-x="823" d="M31 1411q-3 35 73 45.5t154.5 3.5t103.5 -16q6 -3 9.5 -14t4.5 -28.5t1.5 -30.5t0 -32t-0.5 -20q0 -37 -66 -41q95 -290 119 -383q45 142 105 410q-6 1 -31 6q-11 3 -16 24t-6.5 48.5t-2.5 31.5q-4 36 2 64q19 0 163.5 2t154.5 2q13 1 20.5 -1.5t9.5 -9.5t2 -11.5 t-2.5 -16.5t-3.5 -17l2 7q-2 -3 -2 -7q-1 -8 2 -28.5t5.5 -39t1.5 -36.5t-11.5 -28t-31.5 -7q-32 4 -48 4q-3 -7 -7 -22t-7 -21l-123 -391q-5 -18 -26 -79.5t-38 -115t-20 -75.5q-5 -52 -5 -112t2.5 -133.5t2.5 -113.5v-30q15 0 23.5 -0.5t20.5 -3t18 -9t6 -16.5 q2 -38 -12 -133q-1 -19 -12 -27t-22.5 -8t-30.5 2.5t-28 1.5q-82 -4 -120 -4q-7 0 -22 -1t-21.5 -0.5t-15.5 4t-11.5 13.5t-1.5 27t-5.5 62.5t-2.5 70.5q5 32 55 25q-2 64 -2 329q0 42 -123 406v-2q-8 28 -31 101t-38.5 125.5t-28.5 103.5q-22 -8 -48.5 -7.5t-31.5 21.5 q-6 23 -5.5 66t-0.5 65zM195 1683q0 31 20 62t49 41h-2q12 6 27 6q31 0 55.5 -22t24.5 -52q0 -46 -28.5 -75t-74.5 -29q-32 0 -51.5 18.5t-19.5 50.5zM377 1321v2v-2zM410 1700q0 37 28 62.5t66 25.5q35 0 62.5 -29t27.5 -63q0 -36 -27.5 -57t-64.5 -21q-38 0 -65 22.5 t-27 59.5z" />
<glyph unicode="&#x2c6;" horiz-adv-x="727" d="M66 1206q0 29 91 116t134 116q39 28 61 28q20 0 37 -20q89 -98 217 -189l-2 3q41 -25 41 -58q0 -19 -53 -67t-76 -48q-16 0 -29 13l2 -2q-11 8 -45 38.5t-62.5 56.5t-29.5 26q-132 -111 -145 -120q-18 -12 -31 -12q-5 0 -11.5 3.5t-14.5 10t-15 13t-15.5 16t-14 15 t-13 14.5t-8.5 10h2q-20 30 -20 37z" />
<glyph unicode="&#x2dc;" horiz-adv-x="745" d="M72 1337q0 47 59 87t109 40q54 0 130 -39t101 -39q26 0 55 29t47 29q25 0 57 -47.5t32 -73.5q0 -42 -64 -77.5t-111 -35.5q-43 0 -92 17q-95 52 -100 55l2 -2q-20 10 -35 10q-31 0 -48 -12t-29 -23.5t-31 -11.5q-28 0 -55 33t-27 61z" />
<glyph unicode="&#x2000;" horiz-adv-x="978" />
<glyph unicode="&#x2001;" horiz-adv-x="1956" />
<glyph unicode="&#x2002;" horiz-adv-x="978" />
<glyph unicode="&#x2003;" horiz-adv-x="1956" />
<glyph unicode="&#x2004;" horiz-adv-x="652" />
<glyph unicode="&#x2005;" horiz-adv-x="489" />
<glyph unicode="&#x2006;" horiz-adv-x="326" />
<glyph unicode="&#x2007;" horiz-adv-x="326" />
<glyph unicode="&#x2008;" horiz-adv-x="244" />
<glyph unicode="&#x2009;" horiz-adv-x="391" />
<glyph unicode="&#x200a;" horiz-adv-x="108" />
<glyph unicode="&#x2010;" d="M70 590v108q0 54 47 54q19 0 58.5 -2t60.5 -2q8 0 79.5 1.5t136.5 2t129 -1t78 -7.5h-4l4 -2q14 0 24 -6.5t15.5 -19.5t9 -26.5t4 -32t0.5 -31.5t-0.5 -30.5t-0.5 -23.5q0 -18 -1.5 -29.5t-11 -21.5t-26.5 -10q-29 0 -43 2q-7 5 -190 14t-244 9q-12 0 -37.5 -3.5 t-32.5 -3.5t-23 4h7q-23 9 -31 21t-8 37z" />
<glyph unicode="&#x2011;" d="M70 590v108q0 54 47 54q19 0 58.5 -2t60.5 -2q8 0 79.5 1.5t136.5 2t129 -1t78 -7.5h-4l4 -2q14 0 24 -6.5t15.5 -19.5t9 -26.5t4 -32t0.5 -31.5t-0.5 -30.5t-0.5 -23.5q0 -18 -1.5 -29.5t-11 -21.5t-26.5 -10q-29 0 -43 2q-7 5 -190 14t-244 9q-12 0 -37.5 -3.5 t-32.5 -3.5t-23 4h7q-23 9 -31 21t-8 37z" />
<glyph unicode="&#x2012;" d="M70 590v108q0 54 47 54q19 0 58.5 -2t60.5 -2q8 0 79.5 1.5t136.5 2t129 -1t78 -7.5h-4l4 -2q14 0 24 -6.5t15.5 -19.5t9 -26.5t4 -32t0.5 -31.5t-0.5 -30.5t-0.5 -23.5q0 -18 -1.5 -29.5t-11 -21.5t-26.5 -10q-29 0 -43 2q-7 5 -190 14t-244 9q-12 0 -37.5 -3.5 t-32.5 -3.5t-23 4h7q-23 9 -31 21t-8 37z" />
<glyph unicode="&#x2013;" d="M70 590v108q0 54 47 54q19 0 58.5 -2t60.5 -2q8 0 79.5 1.5t136.5 2t129 -1t78 -7.5h-4l4 -2q14 0 24 -6.5t15.5 -19.5t9 -26.5t4 -32t0.5 -31.5t-0.5 -30.5t-0.5 -23.5q0 -18 -1.5 -29.5t-11 -21.5t-26.5 -10q-29 0 -43 2q-7 5 -190 14t-244 9q-12 0 -37.5 -3.5 t-32.5 -3.5t-23 4h7q-23 9 -31 21t-8 37z" />
<glyph unicode="&#x2014;" horiz-adv-x="1187" d="M76 600v96q0 20 6 35q19 31 240 31q116 0 346 -8.5t344 -8.5q25 0 41 -5t23.5 -12t10 -22.5t2 -28t-2 -38t-1.5 -43.5q0 -43 -22 -68q-107 0 -313.5 3.5t-315.5 3.5q-53 0 -155 5t-154 5q-18 0 -29 8l4 -2q-24 11 -24 49z" />
<glyph unicode="&#x2018;" horiz-adv-x="358" d="M63 1346q0 39 35 100t70 61q4 0 12.5 -23.5t12.5 -25.5q4 -7 -3 -17t-18.5 -21.5t-13.5 -18.5l45 12q38 11 60 -19.5t22 -74.5q0 -43 -32 -80t-75 -37q-48 0 -81.5 47t-33.5 97z" />
<glyph unicode="&#x2019;" horiz-adv-x="45" d="M-96 1434q0 31 16 53v-2q23 41 72 41q45 0 78.5 -36t33.5 -81q0 -37 -12 -74v2q-10 -30 -30 -56t-46 -26q-20 0 -41 39q0 6 7 15t18 18.5t14 13.5q-30 -9 -51 -4.5t-34 21.5t-19 36.5t-6 39.5z" />
<glyph unicode="&#x201a;" horiz-adv-x="358" d="M66 127q0 40 34 67t74 27q44 0 77.5 -38.5t33.5 -84.5q0 -52 -33 -97.5t-82 -45.5q-14 0 -29 6q-20 32 -20 57q0 2 1 6t1 5l12 6q-30 11 -49.5 36t-19.5 56z" />
<glyph unicode="&#x201c;" horiz-adv-x="495" d="M8 1346q0 40 34 100.5t69 60.5q4 0 12.5 -23.5t13.5 -25.5q3 -7 -4.5 -17t-19 -21.5t-13.5 -18.5l45 12q38 11 61 -20t23 -74t-32.5 -80t-75.5 -37q-48 0 -80.5 47t-32.5 97zM264 1346q0 40 34 100.5t69 60.5q5 0 13 -23.5t13 -25.5q4 -9 -14.5 -29.5t-20.5 -27.5l43 12 q38 11 61 -20t23 -74t-32.5 -80t-75.5 -37q-48 0 -80.5 47t-32.5 97z" />
<glyph unicode="&#x201d;" horiz-adv-x="563" d="M31 1552q0 32 16 54v-2q24 41 72 41q45 0 78.5 -36t33.5 -81q0 -44 -12 -74v2q-10 -31 -30 -57.5t-46 -26.5q-20 0 -41 39q0 7 7.5 16t18 18.5t13.5 14.5q-53 -21 -81.5 12t-28.5 80zM270 1552q0 30 17 54v-2q24 41 71 41q45 0 79 -36t34 -81q0 -44 -12 -74v2 q-10 -31 -30 -57.5t-46 -26.5q-20 0 -41 39q0 7 7.5 16t18 18.5t13.5 14.5q-53 -21 -82 12t-29 80z" />
<glyph unicode="&#x201e;" horiz-adv-x="499" d="M31 104q0 32 16 54v-2q23 41 72 41q45 0 78.5 -35.5t33.5 -79.5q0 -46 -12 -74q-10 -30 -30 -56t-46 -26q-20 0 -41 39q0 6 7 15t18 18.5t14 13.5q-29 -10 -50 -5t-34.5 21.5t-19.5 36t-6 39.5zM270 104q0 30 17 54v-2q23 41 71 41q45 0 79 -35.5t34 -79.5q0 -46 -12 -74 q-10 -30 -30 -56t-46 -26q-20 0 -41 39q0 6 7 15t18 18.5t14 13.5q-53 -20 -82 13.5t-29 78.5z" />
<glyph unicode="&#x2022;" horiz-adv-x="446" d="M66 727q0 66 38 109t103 43q55 0 96 -27q29 -20 48.5 -51t19.5 -62q0 -62 -48.5 -92.5t-113.5 -30.5h-23q-46 0 -83 32.5t-37 78.5z" />
<glyph unicode="&#x2026;" horiz-adv-x="722" d="M25 123q0 41 28 71t68 35v-2q46 1 74 -29.5t28 -76.5q0 -41 -23.5 -72t-64.5 -31q-45 0 -77.5 30.5t-32.5 74.5zM258 123q0 41 29 71t69 35v-2q45 1 73 -29.5t28 -76.5q0 -41 -23.5 -72t-64.5 -31q-45 0 -78 30.5t-33 74.5zM504 123q0 41 28 71t68 35v-2q46 1 74 -29.5 t28 -76.5q0 -41 -23.5 -72t-64.5 -31q-45 0 -77.5 30.5t-32.5 74.5z" />
<glyph unicode="&#x202f;" horiz-adv-x="391" />
<glyph unicode="&#x2039;" horiz-adv-x="645" d="M68 539q0 21 16 47l235 344l-2 -2q66 112 119 112q21 0 39.5 -8.5t39 -23.5t32.5 -21l14 -16v-4q0 -25 -67 -127.5t-134 -199.5t-67 -108q0 -24 109.5 -198t142.5 -213q-5 -18 -30.5 -58.5t-39.5 -50.5q-24 -20 -45 -20q-29 0 -65 41q-85 98 -244 381h2q-55 74 -55 125z " />
<glyph unicode="&#x203a;" horiz-adv-x="643" d="M66 973q6 22 57 52t76 30q4 0 11 -8t14 -17l7 -10q42 -51 179.5 -251t148.5 -232q2 -8 2 -25v-31q-15 -20 -87 -139.5t-137.5 -229t-70.5 -112.5q-17 -10 -37 -10q-11 0 -23.5 3t-20.5 6t-23 11.5t-19 11t-21 14.5l-18 11q-2 4 -2 12q0 62 179 351l32 57q11 21 15 20 q0 39 -59.5 143t-102.5 163q-5 6 -21.5 25.5t-23.5 29.5q-2 3 -10 18.5t-11.5 21.5t-10 19.5t-10 22.5t-7.5 21t-6 22z" />
<glyph unicode="&#x205f;" horiz-adv-x="489" />
<glyph unicode="&#x20ac;" horiz-adv-x="704" d="M31 606q0 96 5 190t19 210t44.5 216.5t74.5 163.5q44 62 113.5 98t144.5 36q37 0 69 -11t51.5 -23.5t53.5 -39.5q102 -75 131 -148q13 -53 11 -71q0 -66 -58 -121q-38 -38 -98 -41.5t-96 39.5q-5 6 -8 19t-4.5 29t-2.5 22q-15 44 -28 65q-44 62 -97 35q-32 -18 -51 -58.5 t-23.5 -71.5t-8.5 -81v-5t-0.5 -4.5t-0.5 -4.5q-2 -23 -2.5 -67t-1.5 -58l-6 -160q-1 -31 -4.5 -133.5t-3.5 -157.5q0 -208 94 -223q26 -4 39.5 15.5t17.5 45.5t19 49t43 25q85 7 155 -56.5t40 -148.5q-26 -70 -101.5 -117t-152.5 -47q-88 0 -156 38.5t-108.5 98.5t-67 141 t-36 157t-9.5 155zM137 625q0 71 43 71q5 0 14.5 -2t14.5 -2h221q196 0 201 -24q2 -20 2 -62v-18q0 -17 -1 -25.5t-6 -17t-16 -8.5q-199 0 -299 4q-115 5 -149 12q-12 1 -18.5 26t-6.5 46zM152 838q0 20 4 60.5t10 41.5h51q35 0 106 -3t107 -3q65 0 191 12q20 0 20 -63 q0 -70 -14 -95q-78 0 -234.5 3.5t-234.5 3.5q-6 0 -6 43z" />
<glyph unicode="&#x2122;" horiz-adv-x="929" d="M59 1413q-6 35 4 72q3 24 35 24q15 0 43 -1t41 -1q22 0 63 1t60 1l17 1q18 0 18 -1q13 -1 18 -6.5t7 -19.5q4 -40 4 -64q3 -28 -25 -28h-25h-30q-4 -24 -4 -29v-53q1 -25 1 -71.5t1 -84.5t4 -72q4 -40 8 -112q0 -33 -2 -47q0 -21 -18 -27q-68 -9 -97 8l-6 8q2 18 2 64v98 q-4 82 -4 117q4 20 0 99.5t-4 99.5q0 1 -1 2.5t-1 3.5q-17 4 -72 4h-18q-16 0 -19 14zM413.5 1384.5q1.5 73.5 0.5 102.5q0 1 1 3t1 3l16 8q13 0 41 -1t43 -1l111 -244q22 21 66 101.5t57 120.5q43 13 81 10q25 0 25 -25q0 -18 1 -55t1 -55q-4 -74 -4 -113q0 -59 2 -88 q0 -17 10 -125l8 -108q0 -12 -6.5 -19.5t-15.5 -7.5q-62 -4 -86 -4h-18q-13 4 -15 14q-4 16 -4 25q0 18 1 51t1 51t-2 56.5t-2 60.5q-8 -11 -12.5 -23t-8.5 -27t-6 -22q-6 -14 -22 -67q-9 -5 -18 -5.5t-19.5 1.5t-15.5 2q-10 21 -32.5 77t-39.5 88q-2 -14 -2 -24v-74 q0 -8 -1 -26t-1 -27v-70q0 -7 -6 -43q0 -8 -6 -13t-13 -5l-92 -4q-1 0 -4 2.5t-6 3.5q0 1 -1 9t-1 13q-4 55 -5.5 123t-0.5 123t0 123q-2 31 -0.5 104.5z" />
<glyph unicode="&#x25fc;" horiz-adv-x="1095" d="M0 0v1096h1096v-1096h-1096z" />
<glyph unicode="&#xfb01;" horiz-adv-x="987" d="M55 948q0 43 15 109q81 0 120 2q4 216 136 321q45 34 106.5 56t129 21t112.5 -32q39 -26 48.5 -75.5t-9.5 -92.5q-14 -38 -51.5 -62t-81.5 -30q-26 -5 -42.5 8.5t-23 32.5t-19.5 35.5t-32 15.5q-71 -2 -86 -190v-6q33 -2 100 -2q16 0 26.5 -6.5t16 -14t8 -24t2.5 -24 v-27.5q0 -55 -20.5 -79.5t-55.5 -23.5t-83 4v-18q-1 -43 6 -137.5t14.5 -174t19.5 -200.5t15 -154q61 17 66 -14q12 -94 14 -139q3 -25 -24 -29.5t-52 4.5q-44 4 -59.5 4.5t-65 -3t-59.5 -3.5q-7 0 -20 -2.5t-22.5 -4t-20 -1t-16.5 5.5t-7 16q-10 100 -13 121t19 39 q4 5 11.5 5t18 -2.5t15.5 -2.5q0 66 -3 136.5t-9.5 175.5t-8.5 137q-2 38 0.5 103.5t2.5 86.5q0 28 -3 55q-69 3 -122 17q-13 23 -13 63zM596 63q1 49 0 60q-1 20 13 30t40 13q0 17 -1 53t-1 55q0 75 3 225.5t3 225.5q0 79 -6 162q-14 0 -24 2q-12 1 -19 9t-8 22.5t0 27 t3.5 29.5t2.5 22q0 36 13 48.5t49 9.5q104 -8 151 -10q3 0 17.5 1t24 0.5t22 -2t19 -7.5t7.5 -15q1 -20 0 -61t0 -62q1 -20 -11.5 -25.5t-35.5 -3.5l-8 -124q0 -36 -1 -106.5t-1 -106.5q0 -61 2 -182t2 -181q0 -10 2 -18q60 8 84 -2q6 -2 10 -11.5t5.5 -25.5t1.5 -28.5 t-0.5 -29t-0.5 -18.5v2v-2q1 -12 -5.5 -19.5t-18.5 -11t-23 -5t-26.5 -3t-22.5 -2.5q-18 -7 -76.5 -5t-74.5 1q-6 0 -36 -7t-47.5 -4.5t-21.5 19.5q-7 12 -6 61zM954 45z" />
<glyph unicode="&#xfb02;" horiz-adv-x="638" />
</font>
</defs>
</svg>
